<svg width="331" height="37" viewBox="0 0 331 37" fill="none" xmlns="http://www.w3.org/2000/svg">
<path d="M309.639 19.6171C309.188 19.6476 308.732 19.6687 308.29 19.7146C308.002 19.7433 307.879 19.6591 307.688 19.6152C307.624 19.5999 307.556 19.5693 307.496 19.5731C307.049 19.6037 306.603 19.6381 306.156 19.6725C306.019 19.7471 305.932 19.8465 305.723 19.8828C305.518 19.9173 305.276 19.9173 305.048 19.9345C304.747 19.9555 304.446 19.9765 304.145 19.9957C303.995 20.0052 303.872 20.0415 303.822 20.1104C303.812 20.1219 303.913 20.1505 303.967 20.1677C304.15 20.2251 304.328 20.2901 304.528 20.3341C304.72 20.3761 304.957 20.3073 305.162 20.3609C305.622 20.4813 305.627 20.4794 305.978 20.4565C306.279 20.4354 306.58 20.4125 306.881 20.3972C306.94 20.3934 307.009 20.422 307.072 20.4373C307.264 20.4794 307.387 20.575 307.67 20.5387C307.884 20.51 308.121 20.5043 308.344 20.489C308.531 20.5444 308.705 20.6075 308.905 20.6515C309.092 20.6936 309.147 20.7261 309.047 20.7815C308.955 20.8332 308.828 20.8542 308.659 20.858C308.509 20.8599 308.358 20.8771 308.208 20.8867C308.13 20.8924 308.057 20.8963 307.984 20.902C307.697 20.923 307.697 20.923 307.173 20.8006C306.967 20.7528 306.735 20.8198 306.539 20.7739C306.407 20.7433 306.293 20.6974 306.165 20.6649C306.11 20.6515 306.024 20.6496 305.955 20.6534C305.727 20.6668 305.499 20.6764 305.281 20.7012C305.125 20.7184 305.034 20.772 305.053 20.8255C305.057 20.8465 305.166 20.8771 305.23 20.879C305.376 20.8829 305.531 20.8561 305.673 20.8695C305.809 20.8829 305.951 20.9211 306.051 20.9632C306.256 21.0511 306.489 20.9727 306.685 20.9957C306.89 21.0205 307.059 21.097 307.255 21.1429C307.305 21.1544 307.401 21.1353 307.478 21.1295C307.701 21.1161 307.925 21.1047 308.148 21.0913C308.335 21.1467 308.536 21.1964 308.705 21.2595C309.01 21.3743 309.338 21.4182 309.735 21.3628C309.958 21.3322 310.177 21.3437 310.355 21.4182C310.537 21.4947 310.747 21.4871 310.98 21.4718C311.194 21.4565 311.413 21.4144 311.632 21.468C312.106 21.5865 312.111 21.5922 312.671 21.5464C312.84 21.533 312.968 21.5292 313.095 21.5731C313.214 21.6133 313.342 21.6477 313.465 21.6859C313.688 21.6725 313.916 21.6592 314.139 21.6439C314.427 21.6228 314.586 21.6496 314.655 21.7567C314.696 21.8217 314.714 21.881 314.814 21.9249C314.933 21.9785 315.06 21.9766 315.234 21.9613C315.398 21.9479 315.516 21.9269 315.585 21.858C315.612 21.8293 315.667 21.8026 315.717 21.7796C315.758 21.7624 315.822 21.7357 315.858 21.7395C315.927 21.7471 316.018 21.7681 316.041 21.793C316.264 22.0244 316.264 22.0263 316.492 22.0932C316.743 22.1678 317.003 22.2347 317.231 22.3188C317.436 22.3934 317.641 22.3609 317.864 22.3609C318.033 22.3609 318.143 22.4106 318.129 22.4603C318.12 22.489 318.056 22.5311 318.001 22.5349C317.554 22.5731 317.103 22.6056 316.652 22.6324C316.597 22.6362 316.529 22.6018 316.465 22.5846C316.337 22.5502 316.223 22.4966 316.086 22.4852C315.95 22.4737 315.79 22.5024 315.639 22.5119C315.489 22.5215 315.329 22.5464 315.193 22.5311C315.056 22.5158 314.946 22.4603 314.819 22.424C314.76 22.4068 314.677 22.3819 314.627 22.3877C314.294 22.4336 314.048 22.3705 313.811 22.2863C313.761 22.2691 313.674 22.2576 313.611 22.2615C313.082 22.294 312.557 22.3322 312.028 22.3685C311.814 22.3838 311.641 22.3169 311.595 22.2041C311.572 22.141 311.527 22.0779 311.527 22.0148C311.527 21.9001 311.276 21.837 311.094 21.8504C310.793 21.8695 310.487 21.8848 310.191 21.9135C309.949 21.9364 309.744 21.9135 309.58 21.8446C309.389 21.7662 309.17 21.7815 308.951 21.8026C308.787 21.8179 308.741 21.881 308.75 22.0397C308.759 22.1678 308.682 22.2079 308.385 22.229C308.012 22.2557 307.633 22.2825 307.255 22.3035C307.195 22.3074 307.127 22.2749 307.068 22.2576C306.94 22.2232 306.826 22.1678 306.689 22.1563C306.553 22.1429 306.393 22.1716 306.242 22.1831C306.092 22.1926 305.932 22.2194 305.796 22.206C305.659 22.1926 305.545 22.1353 305.422 22.0989C305.362 22.0817 305.29 22.0569 305.23 22.0607C304.929 22.076 304.628 22.0989 304.328 22.12C303.99 22.1429 303.99 22.1429 303.511 22.0244C303.293 21.9708 303.074 22.0129 302.859 22.0282C302.631 22.0435 302.417 22.0511 302.239 21.9747C302.121 21.9249 301.989 21.8944 301.847 21.9039C301.469 21.9269 301.095 21.9555 300.717 21.9785C300.653 21.9823 300.566 21.9728 300.516 21.9555C300.274 21.8752 300.037 21.8121 299.7 21.8523C299.408 21.8867 299.093 21.8886 298.802 21.9211C298.642 21.9383 298.569 21.9995 298.601 22.0473C298.619 22.0722 298.715 22.1009 298.779 22.1009C298.925 22.1028 299.084 22.0741 299.221 22.0856C299.504 22.1085 299.645 22.2691 300.014 22.2251C300.233 22.1984 300.461 22.1888 300.689 22.1812C300.748 22.1792 300.812 22.2156 300.876 22.2347C301.058 22.2863 301.218 22.3532 301.482 22.3188C301.701 22.292 301.934 22.2844 302.157 22.2691C302.513 22.2443 302.513 22.2462 302.973 22.3628C303.192 22.4183 303.411 22.3743 303.625 22.3609C303.785 22.3513 303.935 22.3322 304.063 22.359C304.259 22.3991 304.4 22.4909 304.642 22.4852C304.87 22.4794 305.094 22.4527 305.321 22.4431C305.463 22.4374 305.595 22.468 305.709 22.5196C305.828 22.5712 305.955 22.5942 306.11 22.5827C306.334 22.5674 306.562 22.5483 306.79 22.5387C306.853 22.5368 306.926 22.554 306.986 22.5693C307.113 22.6037 307.236 22.6439 307.36 22.6802C307.583 22.6687 307.811 22.6649 308.03 22.642C308.199 22.6248 308.317 22.6324 308.454 22.6707C308.627 22.7223 308.768 22.8141 309.051 22.7701C309.193 22.7491 309.357 22.7548 309.498 22.7357C309.671 22.7108 309.79 22.7204 309.913 22.7777C310.145 22.8867 310.437 22.8886 310.738 22.8466C311.066 22.8007 311.313 22.8542 311.559 22.9384C311.819 23.0263 311.819 23.0244 312.019 23.2366C312.079 23.2978 312.247 23.3265 312.389 23.315C312.626 23.2959 312.831 23.3055 313.004 23.3781C313.187 23.4565 313.405 23.447 313.629 23.4259C313.925 23.3972 314.221 23.3724 314.463 23.4833C314.582 23.5368 314.709 23.5502 314.869 23.5368C315.32 23.5024 315.776 23.4814 316.219 23.4393C316.488 23.4125 316.643 23.4737 316.825 23.5254C317.071 23.5961 317.34 23.6592 317.34 23.8102C317.34 23.8351 317.404 23.8638 317.459 23.8829C317.577 23.9231 317.705 23.9575 317.828 23.9957C318.01 24.0531 318.188 24.1009 318.439 24.0703C318.658 24.0454 318.89 24.0378 319.114 24.0206C319.337 24.0034 319.542 23.9938 319.743 24.0665C319.976 24.1487 320.222 24.2271 320.486 24.2883C320.673 24.3322 320.919 24.2577 321.12 24.317C321.243 24.3533 321.362 24.3953 321.494 24.4259C321.548 24.4393 321.635 24.4298 321.708 24.4259C321.859 24.4183 322.014 24.4126 322.159 24.3934C322.328 24.3724 322.456 24.3762 322.583 24.4202C322.702 24.4604 322.821 24.5158 322.957 24.5273C323.163 24.5445 323.391 24.468 323.596 24.556C323.701 24.5999 323.833 24.642 323.97 24.6554C324.106 24.6688 324.266 24.6401 324.412 24.642C324.476 24.642 324.553 24.6726 324.59 24.6975C324.612 24.7108 324.581 24.7472 324.549 24.7663C324.508 24.7892 324.448 24.8198 324.389 24.8237C323.938 24.8581 323.486 24.8868 323.035 24.9193C322.766 24.9384 322.766 24.9384 322.223 24.8179C322.096 24.7892 321.954 24.795 321.795 24.8083C321.58 24.8256 321.362 24.8581 321.138 24.8237C320.846 24.6936 320.486 24.6821 320.103 24.7319C319.944 24.7529 319.798 24.7529 319.679 24.7166C319.428 24.6439 319.164 24.577 318.941 24.491C318.767 24.424 318.685 24.4183 318.612 24.5101C318.589 24.5388 318.567 24.5693 318.571 24.5961C318.599 24.6917 318.649 24.7854 318.676 24.881C318.685 24.9078 318.649 24.9384 318.626 24.9671C318.553 25.0474 318.457 25.0416 318.298 24.9747C318.138 24.9078 317.947 24.8638 317.691 24.8944C317.472 24.9212 317.235 24.9174 317.016 24.946C316.679 24.9881 316.442 24.9269 316.2 24.8447C316.15 24.8275 316.064 24.8179 316 24.8217C315.32 24.8657 314.646 24.9154 313.966 24.9594C313.82 24.969 313.688 24.9403 313.574 24.8887C313.456 24.837 313.323 24.8103 313.177 24.8198C312.576 24.86 311.974 24.8963 311.372 24.946C311.126 24.9671 310.93 24.9422 310.761 24.8753C310.633 24.8256 310.515 24.8103 310.355 24.816C310.182 24.8217 310.059 24.8409 309.972 24.8963C309.89 24.9499 309.949 24.9823 310.132 25.0244C310.328 25.0703 310.51 25.1296 310.697 25.1831C310.848 25.1755 310.998 25.1602 311.144 25.1621C311.208 25.1621 311.267 25.1965 311.331 25.2156C311.513 25.2711 311.682 25.3265 311.942 25.2959C312.161 25.2692 312.393 25.2634 312.617 25.2462C312.927 25.2252 312.927 25.2252 313.428 25.3456C313.556 25.3762 313.693 25.3743 313.857 25.3571C313.998 25.3437 314.144 25.3705 314.244 25.4279C314.285 25.4508 314.272 25.4891 314.185 25.6153C314.185 25.709 314.281 25.6669 314.313 25.6057C314.363 25.5177 314.267 25.4891 314.085 25.5369C313.957 25.5713 313.893 25.621 313.925 25.6611C313.943 25.6822 314.03 25.709 314.185 25.6153C314.586 25.5005 314.892 25.4871 315.184 25.4565C315.357 25.4393 315.466 25.447 315.603 25.4967C315.767 25.556 315.931 25.6191 316.2 25.5885C316.492 25.5541 316.802 25.5502 317.098 25.5215C317.372 25.4948 317.513 25.5789 317.687 25.6286C317.896 25.6879 318.129 25.621 318.32 25.6554C318.521 25.6898 318.662 25.7739 318.895 25.7892C319.232 25.7376 319.447 25.8332 319.702 25.8963C319.903 25.9441 320.14 25.9021 320.354 25.881C320.596 25.8581 320.796 25.8791 320.965 25.948C321.156 26.0264 321.371 26.0091 321.59 25.9919C322.1 25.9537 322.118 25.9479 322.415 26.0531C322.629 26.1296 322.834 26.0952 323.049 26.0856C323.236 26.1372 323.418 26.1927 323.614 26.2386C323.664 26.25 323.76 26.2309 323.837 26.2252C324.061 26.2099 324.289 26.1946 324.512 26.1793C324.663 26.1698 324.822 26.1411 324.959 26.1525C325.096 26.1659 325.21 26.2214 325.333 26.2577C325.456 26.294 325.584 26.3304 325.702 26.3686C325.885 26.426 326.058 26.4738 326.313 26.4451C326.532 26.4202 326.76 26.4126 326.988 26.3954C327.275 26.3743 327.266 26.3801 327.799 26.4948C328.087 26.5579 328.383 26.4814 328.675 26.4738C328.821 26.47 328.962 26.491 329.062 26.5464C329.103 26.5694 329.09 26.6076 329.103 26.6401C328.351 26.6918 327.594 26.7357 326.851 26.7988C326.564 26.8237 326.413 26.7548 326.258 26.6975C326.003 26.6057 325.666 26.7395 325.424 26.621C325.278 26.5502 325.068 26.5101 324.818 26.5445C324.672 26.5636 324.517 26.5617 324.366 26.5789C323.983 26.621 323.632 26.6229 323.327 26.491C323.222 26.4451 323.071 26.4202 322.962 26.3763C322.834 26.3285 322.711 26.3017 322.561 26.3112C321.881 26.3571 321.207 26.403 320.532 26.4527C320.472 26.4566 320.413 26.4852 320.363 26.5063C320.235 26.5598 320.276 26.6019 320.482 26.6363C320.55 26.6478 320.605 26.6726 320.669 26.6917C320.792 26.7281 320.906 26.7854 321.042 26.7988C321.179 26.8122 321.339 26.7854 321.489 26.7759C321.64 26.7663 321.799 26.7376 321.936 26.7491C322.073 26.7625 322.187 26.818 322.314 26.8524C322.374 26.8696 322.447 26.8983 322.506 26.8963C322.807 26.8849 323.103 26.8638 323.404 26.8466C323.591 26.8983 323.751 26.9728 323.974 26.99C324.115 27.0015 324.266 26.9805 324.412 26.9843C324.476 26.9862 324.558 27.0149 324.59 27.0397C324.608 27.055 324.549 27.0933 324.503 27.1124C324.33 27.1851 324.093 27.1717 323.878 27.1946C323.646 27.2195 323.436 27.2118 323.258 27.1373C323.14 27.0876 323.007 27.0608 322.862 27.0703C322.483 27.0952 322.109 27.1239 321.731 27.1449C321.667 27.1487 321.59 27.1315 321.53 27.1181C321.052 27.0015 321.051 26.9977 320.714 27.0225C320.217 27.0589 320.217 27.0589 319.884 26.9575C319.821 26.9384 319.752 26.9021 319.697 26.904C319.168 26.9346 318.644 26.9652 318.12 27.0091C317.947 27.0225 317.828 27.0225 317.7 26.9728C317.591 26.9308 317.463 26.883 317.326 26.8715C317.185 26.86 317.03 26.8887 316.88 26.8983C316.729 26.9078 316.57 26.9327 316.437 26.9174C316.301 26.9021 316.182 26.8485 316.064 26.8103C315.94 26.7702 315.808 26.772 315.639 26.7873C315.12 26.8313 315.115 26.8256 314.6 26.707C314.541 26.6937 314.463 26.6784 314.399 26.6822C314.021 26.7051 313.647 26.7338 313.269 26.7568C313.123 26.7663 312.981 26.7415 312.881 26.686C312.84 26.6631 312.854 26.6248 312.826 26.5502C312.794 26.533 312.831 26.5636 312.84 26.5923C312.908 26.5885 312.991 26.5923 313.041 26.577C313.168 26.5407 313.232 26.4929 313.2 26.4527C313.182 26.4317 313.095 26.4049 313.041 26.4049C312.94 26.4049 312.854 26.447 312.826 26.5502C312.539 26.6133 312.234 26.6267 311.937 26.6573C311.764 26.6765 311.655 26.6669 311.518 26.6172C311.354 26.556 311.185 26.4967 310.916 26.5273C310.624 26.5617 310.314 26.5675 310.013 26.5942C309.667 26.6248 309.516 26.4527 309.224 26.4566C308.923 26.4604 308.623 26.4929 308.322 26.5158C308.057 26.535 308.057 26.535 307.51 26.4107C307.309 26.3648 307.072 26.4317 306.876 26.3839C306.744 26.3533 306.63 26.3074 306.502 26.2749C306.448 26.2615 306.361 26.2615 306.293 26.2653C305.914 26.2883 305.531 26.3036 305.167 26.3457C304.752 26.3954 304.437 26.3418 304.141 26.229C303.767 26.2501 303.388 26.2615 303.019 26.2979C302.75 26.3246 302.595 26.2615 302.413 26.2099C302.349 26.1927 302.294 26.164 302.226 26.1564C302.157 26.1487 302.075 26.164 302.002 26.1697C301.701 26.1908 301.391 26.2004 301.099 26.2348C300.739 26.2787 300.603 26.1219 300.324 26.1028C300.137 26.1965 300.037 26.3246 299.668 26.3342C299.367 26.3418 299.066 26.3724 298.765 26.3935C298.615 26.403 298.464 26.4145 298.314 26.4241C298.072 26.4413 297.958 26.5158 298.008 26.6306C298.036 26.6937 298.058 26.7568 298.081 26.8199C298.127 26.9327 298.013 27.0283 297.821 27.0417C297.292 27.078 296.768 27.1162 296.239 27.1487C296.098 27.1583 295.961 27.1258 295.847 27.0742C295.728 27.0225 295.596 26.9996 295.45 27.0091C294.921 27.0455 294.397 27.0837 293.868 27.1162C293.809 27.1201 293.732 27.1009 293.672 27.0856C293.545 27.0512 293.421 27.0111 293.298 26.9747C292.997 26.992 292.701 27.0034 292.405 27.0264C291.926 27.0608 291.926 27.0627 291.575 26.9575C291.511 26.9384 291.447 26.9021 291.388 26.904C291.16 26.9116 290.937 26.9308 290.709 26.948C290.038 26.9977 290.038 26.9977 289.842 26.9403C289.664 26.8868 289.505 26.8218 289.236 26.8524C288.944 26.8868 288.634 26.8983 288.333 26.9174C288.11 26.9308 287.886 26.9461 287.663 26.9499C287.604 26.9518 287.54 26.9155 287.476 26.8963C287.294 26.8371 287.116 26.7893 286.865 26.8218C286.719 26.8409 286.564 26.8447 286.414 26.8543C286.021 26.8811 286.021 26.881 285.379 26.7663C285.315 26.7548 285.237 26.7415 285.173 26.7472C284.645 26.7816 284.12 26.8199 283.591 26.8524C283.527 26.8562 283.45 26.8447 283.386 26.8351C282.666 26.7242 282.666 26.7243 281.9 26.7778C281.608 26.7969 281.599 26.8046 281.293 26.7032C281.157 26.6592 281.043 26.6382 280.883 26.6516C280.281 26.6975 279.675 26.7281 279.078 26.7816C278.809 26.8046 278.653 26.7472 278.471 26.6956C278.407 26.6784 278.339 26.6401 278.284 26.642C277.682 26.6784 277.08 26.7223 276.479 26.7587C276.424 26.7625 276.356 26.7243 276.292 26.707C276.169 26.6726 276.05 26.621 275.913 26.6095C275.772 26.5981 275.617 26.6267 275.462 26.6363C275.083 26.6612 275.083 26.6593 274.646 26.5464C274.586 26.5311 274.509 26.5101 274.45 26.5139C273.848 26.5522 273.241 26.5847 272.644 26.6401C272.302 26.6707 272.07 26.6153 271.828 26.535C271.778 26.5177 271.691 26.5101 271.627 26.5139C270.948 26.5579 270.273 26.6076 269.594 26.6516C269.453 26.6611 269.316 26.6286 269.202 26.5789C269.019 26.5005 268.805 26.5101 268.577 26.5273C268.053 26.5675 268.048 26.5656 267.738 26.4738C267.674 26.4547 267.62 26.4298 267.551 26.4202C267.487 26.4107 267.405 26.4164 267.337 26.4202C267.036 26.4394 266.735 26.4604 266.434 26.4814C266.133 26.5024 265.828 26.5139 265.531 26.5464C265.167 26.5866 264.993 26.4623 264.738 26.4049C264.364 26.4298 263.981 26.4451 263.612 26.4852C263.329 26.5158 263.197 26.4317 263.01 26.3877C262.946 26.3724 262.878 26.3399 262.819 26.3437C262.139 26.3858 261.46 26.4317 260.785 26.4833C260.621 26.4948 260.512 26.4795 260.375 26.4336C260.069 26.3304 260.056 26.3342 259.545 26.3724C259.322 26.3896 259.107 26.4049 258.916 26.3265C258.747 26.2558 258.542 26.2386 258.3 26.2615C258.004 26.2902 257.698 26.3055 257.397 26.3246C257.097 26.3457 256.796 26.3743 256.495 26.3839C256.253 26.3935 256.107 26.3036 255.916 26.2577C255.856 26.2443 255.774 26.2424 255.706 26.2462C255.405 26.2634 255.095 26.2768 254.803 26.3093C254.448 26.3495 254.252 26.2443 254.001 26.1831C253.946 26.1698 253.855 26.1774 253.786 26.1831C253.257 26.2176 252.733 26.2558 252.204 26.2921C252.017 26.2405 251.826 26.1908 251.639 26.1392C251.338 26.1583 251.037 26.1793 250.736 26.1984C250.508 26.2137 250.276 26.2195 250.061 26.2481C249.783 26.2864 249.646 26.1965 249.459 26.1525C249.396 26.1372 249.327 26.1047 249.268 26.1086C248.89 26.1296 248.511 26.1525 248.137 26.1851C247.782 26.2176 247.64 26.0455 247.349 26.0474C247.048 26.0493 246.738 26.0742 246.446 26.1086C246.108 26.1487 245.871 26.0875 245.63 26.0053C245.579 25.9881 245.493 25.9785 245.429 25.9824C245.051 26.0053 244.677 26.034 244.298 26.0569C244.234 26.0608 244.157 26.0512 244.093 26.0397C243.373 25.9269 243.373 25.925 243.058 25.948C242.835 25.9633 242.607 25.9824 242.379 25.9919C242.315 25.9958 242.237 25.9785 242.178 25.9632C241.704 25.8466 241.704 25.8447 241.362 25.8676C241.061 25.8887 240.76 25.9097 240.459 25.9307C240.272 25.8791 240.081 25.8294 239.894 25.7778C239.52 25.8026 239.137 25.8217 238.768 25.8562C238.594 25.8715 238.48 25.8657 238.348 25.8179C238.184 25.7606 238.02 25.6936 237.746 25.7262C237.455 25.7606 237.145 25.7644 236.848 25.7931C236.493 25.8275 236.347 25.6535 236.059 25.6554C235.758 25.6573 235.448 25.6822 235.157 25.7166C234.819 25.7567 234.582 25.6956 234.34 25.6133C234.29 25.5961 234.204 25.5866 234.14 25.5904C233.31 25.6459 232.485 25.7013 231.655 25.7606C231.144 25.7969 231.144 25.7988 230.173 25.6936C230.105 25.686 230.032 25.6784 229.963 25.6822C229.662 25.6994 229.352 25.7128 229.061 25.7453C228.705 25.7854 228.509 25.6822 228.258 25.6191C228.203 25.6057 228.117 25.6133 228.044 25.6172C227.816 25.6305 227.592 25.6478 227.365 25.6631C227.064 25.6841 226.763 25.7051 226.462 25.7262C226.275 25.6764 226.083 25.6248 225.896 25.5751C225.523 25.5999 225.14 25.6133 224.77 25.6535C224.488 25.6841 224.355 25.6038 224.168 25.5579C224.105 25.5426 224.036 25.5101 223.977 25.512C223.298 25.5541 222.618 25.598 221.943 25.6516C221.665 25.6745 221.538 25.5885 221.351 25.5445C221.287 25.5311 221.214 25.5063 221.155 25.5101C220.703 25.5369 220.252 25.5694 219.801 25.6019C219.545 25.621 219.545 25.621 218.989 25.5024C218.925 25.489 218.852 25.4757 218.788 25.4795C217.357 25.5751 215.93 25.6764 214.498 25.772C214.352 25.7816 214.22 25.7529 214.106 25.7013C213.987 25.6497 213.855 25.6229 213.709 25.6325C213.107 25.6726 212.501 25.709 211.904 25.7587C211.657 25.7797 211.461 25.7548 211.293 25.6879C211.165 25.6382 211.046 25.6191 210.887 25.6305C210.586 25.6535 210.285 25.6726 209.984 25.6936C209.683 25.7147 209.382 25.7357 209.081 25.7568C208.78 25.7778 208.475 25.7893 208.179 25.8218C207.814 25.8619 207.636 25.7434 207.385 25.6841C206.934 25.7128 206.482 25.7414 206.036 25.772C205.434 25.8122 204.832 25.8562 204.23 25.8944C204.175 25.8982 204.107 25.8638 204.043 25.8466C203.856 25.7988 203.719 25.7319 203.441 25.7529C202.092 25.8543 200.733 25.9403 199.379 26.0397C199.096 26.0608 198.973 25.9785 198.782 25.9346C198.718 25.9212 198.645 25.8944 198.586 25.8982C197.833 25.946 197.081 25.9996 196.329 26.0512C196.023 26.0722 196.023 26.0722 195.512 25.9537C195.453 25.9403 195.376 25.9231 195.312 25.9269C194.332 25.9919 193.356 26.0608 192.376 26.1277C192.23 26.1372 192.097 26.1105 191.979 26.0589C191.865 26.0072 191.728 25.9785 191.587 25.9881C190.684 26.0493 189.777 26.1086 188.879 26.1755C188.637 26.1946 188.436 26.1774 188.263 26.1086C188.14 26.0589 188.017 26.0378 187.862 26.0493C186.508 26.143 185.153 26.2329 183.799 26.3323C183.539 26.3514 183.357 26.3151 183.193 26.252C183.061 26.2023 182.947 26.1927 182.783 26.2003C182.609 26.2099 182.504 26.2309 182.409 26.2883C182.286 26.3629 182.208 26.4566 181.916 26.4623C181.615 26.468 181.31 26.491 181.014 26.5235C180.731 26.556 180.599 26.4699 180.421 26.4183C180.289 26.382 180.165 26.3763 179.997 26.3935C179.842 26.4088 179.746 26.4413 179.655 26.5024C179.454 26.6325 179.436 26.6325 179.19 26.5502C179.058 26.5063 178.939 26.4719 178.793 26.4795C178.191 26.5177 177.589 26.5598 176.988 26.6038C176.641 26.6286 176.637 26.6325 176.377 26.5369C176.249 26.4891 176.126 26.4661 175.975 26.4776C174.32 26.5923 172.665 26.7032 171.01 26.8237C170.755 26.8428 170.582 26.8026 170.399 26.7453C170.34 26.7262 170.281 26.6994 170.212 26.6917C170.144 26.6841 170.066 26.6917 169.993 26.6956C168.79 26.7778 167.581 26.8562 166.382 26.948C166.109 26.969 165.963 26.9078 165.776 26.8581C165.712 26.8409 165.657 26.8141 165.589 26.8065C165.521 26.8007 165.439 26.8141 165.366 26.8199C164.162 26.9021 162.954 26.9805 161.755 27.0723C161.467 27.0933 161.344 27.013 161.157 26.9709C161.093 26.9556 161.025 26.9269 160.966 26.9307C160.587 26.9518 160.213 26.9805 159.835 27.0053C158.932 27.0684 158.029 27.1277 157.127 27.1927C156.78 27.2176 156.63 27.0474 156.338 27.055C155.959 27.0646 155.586 27.1028 155.207 27.1296C154.906 27.1506 154.605 27.1698 154.304 27.1927C154.008 27.2138 154.008 27.2137 153.269 27.1028C153.206 27.0933 153.128 27.0799 153.064 27.0837C152.011 27.1545 150.953 27.2252 149.905 27.3017C149.663 27.3189 149.462 27.3094 149.289 27.2386C149.166 27.1889 149.038 27.164 148.888 27.1755C147.306 27.2845 145.728 27.3935 144.146 27.5006C144.087 27.5044 144.009 27.4853 143.95 27.47C143.822 27.4355 143.699 27.3954 143.576 27.3591C143.485 27.403 143.366 27.4432 143.307 27.4929C143.225 27.5598 143.116 27.579 142.942 27.5904C142.769 27.6019 142.66 27.5981 142.523 27.5484C142.359 27.4872 142.19 27.4394 141.921 27.4585C140.266 27.5789 138.611 27.6879 136.956 27.8065C136.682 27.8256 136.555 27.7415 136.363 27.6975C136.299 27.6841 136.226 27.6631 136.167 27.6669C135.488 27.7109 134.813 27.7587 134.134 27.8046C132.25 27.9346 130.368 28.0589 128.489 28.1966C128.147 28.2214 127.915 28.1736 127.673 28.0914C127.623 28.0742 127.536 28.0646 127.472 28.0684C124.837 28.2482 122.202 28.4298 119.571 28.6115C119.429 28.621 119.293 28.5904 119.179 28.5407C119.06 28.4891 118.928 28.4642 118.782 28.4738C117.578 28.556 116.375 28.6383 115.171 28.7224C114.87 28.7434 114.865 28.7453 114.555 28.6535C114.492 28.6344 114.423 28.5981 114.373 28.6019C114.268 28.6115 114.168 28.6593 114.095 28.7243C114.022 28.7931 113.908 28.8122 113.739 28.8256C113.566 28.839 113.452 28.8333 113.32 28.7874C113.151 28.73 112.996 28.6746 112.723 28.6937C109.262 28.9384 105.801 29.1736 102.341 29.4164C102.063 29.4356 101.935 29.3553 101.743 29.3113C101.68 29.2979 101.616 29.2788 101.547 29.275C101.474 29.2711 101.397 29.2826 101.324 29.2884C95.6794 29.6765 90.0349 30.0666 84.3903 30.4547C84.0529 30.4777 84.0575 30.4777 83.6882 30.6536C83.6426 30.6746 83.5832 30.7033 83.5194 30.7071C81.7914 30.8295 80.0589 30.948 78.3263 31.0666C77.574 31.1182 76.8217 31.1717 76.0694 31.2215C75.8004 31.2387 75.8004 31.2387 75.1575 31.4452C75.1028 31.4624 75.0389 31.4853 74.9751 31.4892C71.9659 31.6976 68.9566 31.906 65.9428 32.1106C65.7057 32.1259 65.5143 32.1603 65.4048 32.2521C65.3273 32.3171 65.227 32.3553 65.0766 32.3668C62.9701 32.5121 60.8637 32.6593 58.7527 32.8008C58.502 32.818 58.3514 32.8716 58.2283 32.9519C58.1873 32.9787 58.1508 33.0092 58.0915 33.0284C58.0368 33.0456 57.9548 33.0513 57.8864 33.057C56.0808 33.1813 54.2754 33.3095 52.4653 33.428C52.1963 33.4452 52.0868 33.516 51.9546 33.5905C51.909 33.6154 51.877 33.6498 51.8178 33.667C51.7585 33.6823 51.6719 33.6823 51.5989 33.6861C50.0943 33.7894 48.5897 33.8945 47.0851 33.9978C46.7933 33.9882 46.7295 34.0991 46.5881 34.1661C46.538 34.189 46.5016 34.2196 46.4423 34.2349C46.3785 34.2502 46.2963 34.2483 46.2188 34.2521C45.0151 34.3343 43.8114 34.4223 42.6032 34.4988C42.3251 34.516 42.2703 34.6135 42.1199 34.6804C42.0697 34.7014 42.0196 34.7339 41.9604 34.7397C41.208 34.7951 40.4558 34.8467 39.7035 34.8965C39.4527 34.9137 39.4527 34.9118 39.0104 35.1011C38.9603 35.1221 38.9009 35.145 38.8371 35.1508C37.7109 35.2311 36.5802 35.3076 35.4495 35.386C35.3036 35.3955 35.2033 35.4414 35.1303 35.5064C35.0574 35.5714 34.9525 35.6135 34.8066 35.6231C33.9039 35.6862 33.001 35.7512 32.0983 35.8085C31.8475 35.8238 31.6834 35.8716 31.574 35.9577C31.4919 36.0227 31.3916 36.0552 31.232 36.0667C30.3293 36.1278 29.4265 36.1948 28.5192 36.2483C28.2547 36.2636 28.1179 36.3286 28.0085 36.4089C27.9219 36.4739 27.8215 36.4969 27.6528 36.5084C25.9978 36.6193 24.3382 36.7301 22.6877 36.8525C22.4096 36.8735 22.2682 36.8066 22.0858 36.7588C21.8259 36.6919 21.5843 36.6192 21.5843 36.4701C21.5843 36.4472 21.5068 36.4204 21.4521 36.4013C21.0463 36.2579 21.0463 36.2579 20.9825 36.1049C20.946 36.0112 20.905 35.9156 20.873 35.82C20.8138 35.6632 20.6678 35.6231 20.2483 35.6517C20.0979 35.6613 19.9474 35.6747 19.797 35.6823C19.5736 35.6957 19.4049 35.6326 19.3638 35.5179C19.341 35.4548 19.3137 35.3917 19.2909 35.3286C19.5189 35.3133 19.5143 35.3114 19.9155 35.08C20.0842 34.9825 20.0843 34.9825 19.7606 34.885C19.6375 34.8487 19.5189 34.8085 19.3867 34.7741C19.3274 34.7588 19.2499 34.7492 19.1861 34.7531C18.8076 34.776 18.4338 34.8028 18.0599 34.8295C17.4581 34.8716 17.458 34.8716 16.847 34.6766C16.7969 34.6613 16.7194 34.6326 16.7285 34.6173C16.7786 34.5466 16.9017 34.516 17.0567 34.5083C17.2847 34.4968 17.5081 34.4777 17.7315 34.4624C17.882 34.4529 18.0324 34.4414 18.1829 34.4318C18.3243 34.3592 18.4702 34.2884 18.6025 34.2139C18.8122 34.0991 18.8121 34.0953 18.5249 34.015C18.3425 33.9615 18.1464 33.9137 17.9595 33.8639C17.7361 33.8792 17.5081 33.8964 17.2847 33.9098C17.002 33.927 16.888 33.8907 16.8151 33.7664C16.7513 33.6574 16.8288 33.5638 17.0476 33.5408C17.271 33.5179 17.4809 33.5026 17.5948 33.4051C17.7043 33.3114 17.8957 33.275 18.1328 33.2674C18.2833 33.2616 18.4337 33.2483 18.5842 33.2368C18.7803 33.2215 18.8852 33.124 18.8441 33.015C18.8213 32.9442 18.7757 32.885 18.5979 32.8697C17.8091 32.8027 17.7999 32.8047 17.4078 32.6746C17.3714 32.6632 17.3441 32.6287 17.3577 32.6115C17.3805 32.5829 17.4307 32.5408 17.4854 32.5351C18.0098 32.493 18.5341 32.4548 19.0584 32.4261C19.2317 32.4165 19.3593 32.4031 19.4186 32.3324C19.5007 32.2348 19.4642 32.145 19.3046 32.0781C19.2545 32.057 19.1723 32.0303 19.1176 32.0322C18.5158 32.0666 17.9185 32.1106 17.3167 32.145C17.262 32.1488 17.1617 32.1163 17.1389 32.0915C17.0933 32.0456 17.1616 31.9844 17.3212 31.9633C17.531 31.9347 17.7453 31.9327 17.8866 31.8371C18.0826 31.7014 18.3243 31.5771 18.5431 31.4471C18.5796 31.4241 18.639 31.3801 18.6253 31.3763C18.5113 31.3343 18.379 31.3018 18.2605 31.2616C18.0599 31.1947 18.0598 31.101 18.1054 31.0111C18.1419 30.9385 18.2787 30.9098 18.4474 30.9098C18.5203 30.9098 18.6115 30.9098 18.6708 30.8926C18.8258 30.8505 18.876 30.797 18.7985 30.7568C18.7529 30.7339 18.6709 30.7014 18.6161 30.7052C17.6404 30.7683 16.6601 30.8295 15.6889 30.9079C15.4017 30.9308 15.2695 30.8582 15.0963 30.8065C14.9641 30.7664 14.8409 30.7511 14.6767 30.7798C14.5217 30.8065 14.3713 30.7912 14.2756 30.7281C14.1981 30.6765 14.3348 30.6325 14.7041 30.5828C14.7725 30.5733 14.85 30.5675 14.9002 30.5484C15.429 30.3419 15.429 30.34 15.7938 30.3132C16.1494 30.2884 16.1495 30.2865 16.3364 30.1756C16.4231 30.1239 16.5187 30.0723 16.6008 30.0188C16.6327 29.9977 16.6875 29.9595 16.6693 29.948C16.569 29.8887 16.4321 29.8754 16.2725 29.8887C15.9169 29.9213 15.4975 29.8945 15.3106 30.0761C15.2376 30.145 15.1236 30.1641 14.9595 30.1756C13.309 30.2865 11.6584 30.405 10.0033 30.5121C9.73433 30.5293 9.6113 30.6 9.50643 30.6784C9.41525 30.7434 9.31492 30.7626 9.14166 30.774C8.9684 30.7855 8.83155 30.7912 8.73124 30.7281C8.67197 30.6899 8.72214 30.6364 8.85892 30.5828C9.05498 30.5063 9.01848 30.4107 8.95465 30.3209C8.90906 30.2616 8.76772 30.2195 8.61726 30.2234C8.39385 30.231 8.17961 30.252 7.99268 30.1756C7.88325 30.1316 7.74644 30.101 7.62334 30.0627C7.38625 29.9843 7.14915 29.904 6.81631 29.9557C6.58834 29.9365 6.42876 29.8677 6.24638 29.8142C5.9409 29.7262 5.91354 29.7128 6.1324 29.6191C6.37861 29.514 6.18707 29.3763 6.32386 29.273C6.46976 29.1621 6.67044 29.0646 6.84826 28.9614C6.89385 28.9346 6.9349 28.9098 6.9805 28.883C6.87563 28.8447 6.7799 28.797 6.6568 28.7702C6.49722 28.7358 6.41514 28.6937 6.42426 28.5751C6.39235 28.5579 6.40593 28.6019 6.44241 28.6134C6.48344 28.6249 6.58382 28.6153 6.63398 28.6019C6.76164 28.5656 6.82541 28.5178 6.79349 28.4776C6.77525 28.4566 6.68869 28.4298 6.63398 28.4298C6.53367 28.4298 6.44705 28.4719 6.4197 28.5751C5.90904 28.6535 5.38007 28.6918 4.85117 28.7224C4.79646 28.7262 4.72811 28.688 4.66428 28.6688C4.45454 28.6038 4.45452 28.6057 3.839 28.5866C3.77516 28.5847 3.68858 28.5579 3.65666 28.5312C3.52444 28.4145 3.52904 28.2864 3.4652 28.1621C3.58375 28.0818 3.7022 28.0034 3.8253 27.925C4.07151 27.7663 4.39074 27.6268 4.58224 27.4528C4.5412 27.3591 4.48648 27.2654 4.6871 27.1889C5.25702 27.0933 5.2525 27.0933 5.40752 27.0015C5.84978 26.7415 6.28746 26.4795 6.74796 26.2233C6.87107 26.1564 6.87109 26.12 6.65223 26.0914C6.58384 26.0837 6.51079 26.0818 6.43784 26.0856C6.20987 26.099 5.9819 26.1334 5.75849 26.1258C5.53508 26.12 5.37094 26.0359 5.18857 25.9843C5.00163 25.9307 4.8147 25.8753 4.62777 25.8198C4.41347 25.8256 4.19922 25.8791 3.98493 25.7931C3.82079 25.7261 3.61563 25.6783 3.42869 25.6229C3.57003 25.4776 3.83452 25.3667 4.03969 25.2386C4.22663 25.1219 4.23109 25.1238 4.73262 25.034C4.96971 24.9919 5.05179 24.7758 4.85117 24.7127C4.60952 24.6363 4.35425 24.5655 4.10804 24.4928C3.89375 24.4986 3.67494 24.5502 3.46977 24.4642C3.31019 24.3992 3.12778 24.3552 2.86333 24.38C2.41651 24.4221 1.96058 24.4431 1.50919 24.4776C1.35417 24.489 1.18543 24.4814 1.11704 24.4164C1.07144 24.3705 1.20367 24.3074 1.35413 24.294C1.58211 24.2749 1.78726 24.2519 1.90124 24.1563C2.01067 24.0607 2.21126 24.032 2.44835 24.0187C2.51218 24.0148 2.58519 23.9919 2.6171 23.9689C2.78124 23.858 2.96363 23.7624 3.31471 23.7663C3.46061 23.728 3.53807 23.6802 3.49248 23.6343C3.46512 23.6095 3.36942 23.577 3.31471 23.5808C2.93628 23.5999 2.55786 23.6191 2.18854 23.6535C2.01529 23.6688 1.88299 23.6726 1.77357 23.6152C1.69606 23.577 1.73709 23.5253 1.88299 23.4699C2.01065 23.4221 2.04717 23.3666 2.03805 23.3016C2.01525 23.1506 1.87844 23.1066 1.44074 23.1162C1.12614 23.1238 1.04862 23.099 0.980231 22.9689C0.961993 22.9383 0.916479 22.8963 0.948395 22.8752C1.14445 22.7452 1.27212 22.5846 1.64144 22.5234C1.78734 22.5005 1.94229 22.5005 2.03348 22.4508C2.12467 22.4011 2.20678 22.3437 2.30253 22.2959C2.42107 22.2385 2.50306 22.185 2.44835 22.1487C2.35716 22.0837 2.21131 22.0779 2.04261 22.1009C1.89671 22.12 1.74169 22.1219 1.59123 22.1334C1.32223 22.1544 1.10342 22.1047 1.07151 22.0205C0.984879 21.7987 0.893664 21.5789 0.816154 21.3571C0.807035 21.3303 0.82977 21.2959 0.866245 21.2729C0.993909 21.1926 1.13074 21.1161 1.26297 21.0377C1.41799 20.9479 1.66424 20.9651 1.87397 20.9479C2.17033 20.923 2.17023 20.9249 2.5669 20.7414C2.72192 20.6687 2.99094 20.6974 3.15052 20.6324C3.20067 20.6113 3.27818 20.5769 3.2645 20.5578C3.24627 20.5329 3.15513 20.5138 3.08674 20.5023C3.0229 20.4909 2.94541 20.4851 2.87702 20.4909C2.04721 20.5463 1.22197 20.6056 0.392159 20.6591C0.250817 20.6687 0.0957923 20.6266 0.0456387 20.5674C-0.00451489 20.5119 0.00911884 20.445 0 20.3819C0.132223 20.3035 0.282626 20.2308 0.396612 20.1467C0.483241 20.0817 0.583566 20.053 0.756824 20.0492C0.984795 20.0434 1.20823 20.0205 1.46356 20.0033C1.93774 19.7241 2.40277 19.4316 2.91342 19.1524C3.11859 19.0396 3.06852 18.9249 3.10956 18.8044C3.15059 18.6935 3.45605 18.7107 3.66123 18.6782C3.82537 18.6515 3.88001 18.5903 3.81618 18.5482C3.7797 18.5234 3.69768 18.4947 3.63384 18.4947C3.48338 18.4947 3.33293 18.5119 3.18247 18.5214C3.03201 18.531 2.85876 18.5253 2.73565 18.5578C2.61711 18.5884 2.53955 18.6534 2.46204 18.7088C2.37541 18.77 2.26151 18.7911 2.08825 18.7949C1.86484 18.7987 1.64144 18.8159 1.41803 18.8293C1.17182 18.7547 0.916439 18.6821 0.679349 18.6037C0.633755 18.5884 0.624587 18.5444 0.629146 18.5157C0.638265 18.4411 0.569892 18.3952 0.419431 18.3589C0.291767 18.3283 0.186892 18.2844 0.0683468 18.2461C0.159535 18.1945 0.259878 18.1448 0.332829 18.0893C0.492408 17.9727 0.693045 17.8886 1.03956 17.8924C1.17634 17.8178 1.28574 17.726 1.46356 17.6744C1.63225 17.6247 1.91951 17.6744 2.04717 17.5616C2.11101 17.5061 2.20681 17.443 2.32991 17.4201C2.52597 17.3838 2.78129 17.4029 2.89528 17.2958C2.96367 17.2346 3.06393 17.1792 3.19616 17.1639C3.34662 17.1467 3.5016 17.1428 3.61102 17.1065C3.6703 17.0874 3.73414 17.0568 3.73414 17.03C3.73414 17.0128 3.64302 16.986 3.57919 16.9746C3.51992 16.9612 3.44232 16.9516 3.37393 16.9555C3.14595 16.9669 2.92255 16.988 2.69458 16.9994C2.63074 17.0033 2.55782 16.9899 2.48943 16.9784C2.28881 16.9478 2.30246 16.9096 2.46204 16.8407C2.62162 16.7738 2.73567 16.6878 2.86789 16.6094C3.01379 16.596 3.19614 16.6017 3.29645 16.5654C3.46515 16.5061 3.58366 16.4201 3.72045 16.3455C3.87091 16.334 4.02592 16.3302 4.16726 16.3092C4.22653 16.3015 4.25391 16.2595 4.30407 16.2346C4.39525 16.1868 4.47283 16.118 4.59593 16.095C4.79655 16.0606 5.04275 16.074 5.16129 15.9688C5.22969 15.9076 5.33451 15.8426 5.46218 15.8388C5.81781 15.8312 5.96828 15.726 6.15065 15.6266C6.28744 15.552 6.57925 15.5902 6.72971 15.5157C6.83001 15.4679 6.90301 15.4086 7.00332 15.3627C7.04435 15.3436 7.13095 15.334 7.19934 15.3283C7.57321 15.2996 7.95163 15.2786 8.3255 15.248C8.38478 15.2422 8.43953 15.2136 8.48513 15.1906C8.58088 15.1409 8.64008 15.0721 8.75863 15.0396C8.87717 15.007 9.04585 15.0071 9.19175 14.9975C9.66137 14.9688 9.69788 14.9764 9.91217 14.8139C10.0854 14.682 10.5095 14.7757 10.6509 14.6304C10.7329 14.5462 10.8833 14.4774 11.1523 14.4678C11.5308 14.4545 11.9046 14.4181 12.283 14.3933C12.6204 14.3703 12.6159 14.3703 12.9807 14.1925C13.1448 14.1122 13.3865 14.1237 13.6008 14.1084C13.8288 14.0931 14.0385 14.0701 14.1479 13.9745C14.2573 13.8808 14.4579 13.8502 14.6904 13.8369C14.9047 13.8235 15.1464 13.833 15.3151 13.7566C15.7255 13.573 15.7209 13.5711 16.0082 13.552C16.4596 13.5214 16.9109 13.4908 17.3623 13.4583C17.6632 13.4372 17.9778 13.4334 18.2605 13.3913C18.4657 13.3608 18.5568 13.2537 18.6891 13.1791C19.0629 13.1504 19.4368 13.1217 19.8107 13.095C20.335 13.0567 20.8639 13.0223 21.3928 12.986C21.6207 12.9133 21.6527 12.7527 22.0357 12.7451C22.2637 12.7412 22.4871 12.7164 22.7151 12.7011C23.0935 12.6743 23.4674 12.6399 23.8458 12.6265C24.133 12.617 24.1831 12.5137 24.3336 12.4487C24.3837 12.4257 24.4294 12.3932 24.4886 12.3875C25.0813 12.334 25.6923 12.3225 26.2713 12.2441C26.3306 12.2365 26.3853 12.1963 26.399 12.1676C26.4081 12.1523 26.3306 12.1236 26.2804 12.1103C26.2212 12.095 26.1437 12.0797 26.0799 12.0835C24.1968 12.2116 22.3138 12.3416 20.4308 12.4697C20.1663 12.4889 20.1663 12.4869 19.5235 12.6973C19.4688 12.7145 19.4049 12.7336 19.3365 12.7393C19.0355 12.7623 18.7301 12.7757 18.4337 12.8043C18.1921 12.8273 17.9915 12.8043 17.8182 12.7355C17.6951 12.6858 17.5674 12.6705 17.4124 12.6743C17.2391 12.6801 17.1252 12.7011 17.0249 12.7527C16.8927 12.8235 16.8243 12.9152 16.5462 12.9344C15.265 13.0166 13.9837 13.1084 12.707 13.1963C12.5292 13.1695 12.4426 13.1294 12.4882 13.0816C12.5156 13.0529 12.5703 13.0147 12.625 13.0108C13.1493 12.9707 13.6782 12.9363 14.2025 12.898C14.2755 12.8923 14.3758 12.8961 14.4168 12.877C14.6174 12.7909 14.6905 12.6514 15.0689 12.6418C15.2878 12.6361 15.5111 12.6074 15.7209 12.5806C15.7801 12.573 15.8349 12.5328 15.8485 12.5041C15.8531 12.4888 15.7801 12.4602 15.7254 12.4468C15.5248 12.3913 15.2923 12.4583 15.0917 12.42C15.0233 12.4066 14.9275 12.3875 14.9138 12.3646C14.9047 12.3435 14.9822 12.3091 15.037 12.2881C15.0871 12.269 15.1555 12.2518 15.2239 12.246C15.8257 12.202 16.4276 12.1561 17.0295 12.1217C17.2757 12.1083 17.4489 12.0605 17.5583 11.9726C17.6404 11.9076 17.7407 11.8732 17.8957 11.8636C18.9489 11.7929 20.0021 11.7145 21.0599 11.6494C21.3244 11.6342 21.4612 11.5711 21.5706 11.4888C21.6573 11.4238 21.7576 11.4009 21.9263 11.3894C23.4355 11.29 24.9355 11.1791 26.4446 11.0835C26.7228 11.0663 26.8049 10.984 26.9462 10.9133C26.9964 10.8884 27.0282 10.8579 27.092 10.8426C27.1559 10.8273 27.2379 10.8292 27.3154 10.8253C28.5191 10.7431 29.7229 10.6552 30.9311 10.5787C31.2138 10.5615 31.2685 10.4659 31.4144 10.3989C31.4645 10.3779 31.5101 10.3435 31.5694 10.3378C32.4722 10.2728 33.3749 10.2116 34.2777 10.1485C34.8795 10.1064 35.4814 10.0643 36.0832 10.0242C36.3796 10.0051 36.3796 10.0031 36.7808 9.82149C36.8264 9.80046 36.8903 9.7756 36.9496 9.76986C38.6821 9.64749 40.4101 9.53087 42.1427 9.41041C42.2886 9.40085 42.3934 9.35685 42.4664 9.29184C42.5393 9.22683 42.6443 9.18286 42.7856 9.1733C44.1398 9.07769 45.4939 8.98401 46.8526 8.89414C47.0988 8.87884 47.272 8.83295 47.3815 8.74691C47.4635 8.6819 47.5638 8.64749 47.7188 8.63793C49.073 8.54615 50.4272 8.44862 51.7859 8.36066C52.0458 8.34345 52.1734 8.27845 52.3011 8.20197C52.3467 8.1752 52.3832 8.13122 52.4379 8.12739C53.1127 8.07386 53.7829 8.0184 54.4622 7.98208C54.7449 7.96678 54.8407 7.88647 54.9547 7.80998C55.0459 7.7488 55.1508 7.72777 55.324 7.72012C55.7025 7.70291 56.0763 7.67042 56.4456 7.63792C56.5003 7.63218 56.5688 7.59011 56.5733 7.56334C56.5824 7.51363 56.4775 7.4792 56.3043 7.462C54.4987 7.58628 52.6887 7.71056 50.8832 7.83484C50.5868 7.85587 50.5868 7.85589 50.1856 8.03753C50.14 8.05857 50.0761 8.08343 50.0122 8.08916C48.2797 8.20962 46.5517 8.32817 44.8191 8.44863C44.6732 8.45819 44.5684 8.50217 44.4954 8.56718C44.4225 8.63219 44.3175 8.67617 44.1762 8.68573C42.5211 8.80045 40.8661 8.9171 39.2064 9.02608C38.9602 9.04138 38.787 9.08534 38.6776 9.1733C38.5955 9.23831 38.4952 9.27274 38.3402 9.2823C36.7581 9.38937 35.1805 9.50217 33.5938 9.60543C33.4342 9.61499 33.3157 9.55953 33.3248 9.50791C33.3294 9.48114 33.3977 9.43718 33.4524 9.43336C34.2777 9.37026 35.0984 9.30524 35.9282 9.25744C36.2064 9.24214 36.2884 9.15801 36.4297 9.08726C36.4753 9.0624 36.5118 9.0299 36.5711 9.01651C36.6349 9.00122 36.717 9.00314 36.7945 8.99931C38.7505 8.86355 40.7065 8.72589 42.6671 8.59778C42.9498 8.57866 43.0044 8.48496 43.1503 8.41803C43.2005 8.39509 43.2461 8.36068 43.3054 8.35686C43.9072 8.31097 44.509 8.27081 45.1109 8.23065C46.1641 8.158 47.2173 8.08533 48.2751 8.01267C48.5806 7.99164 48.5806 7.99163 48.9727 7.8119C49.0183 7.79086 49.0822 7.76412 49.1414 7.76029C51.9272 7.56717 54.7131 7.37405 57.4989 7.18284C57.6448 7.17328 57.7496 7.1293 57.8226 7.06429C57.8955 7.00119 58.0004 6.9553 58.1417 6.94383C61.9078 6.68379 65.6693 6.42373 69.4354 6.16752C69.6816 6.15031 69.8548 6.11015 69.9643 6.02028C70.0418 5.95527 70.1466 5.92086 70.3017 5.90939C74.4416 5.62449 78.5816 5.3396 82.7261 5.05278C85.5119 4.86158 88.2977 4.66654 91.0835 4.47916C91.3389 4.46195 91.4756 4.40267 91.6033 4.32427C91.6443 4.2975 91.6853 4.25352 91.7401 4.2497C92.3373 4.2019 92.9346 4.15793 93.5319 4.11395C93.7188 4.16557 93.9057 4.2153 94.0927 4.26692C94.234 4.19426 94.3709 4.11969 94.5122 4.04703C95.415 3.99158 96.304 3.90554 97.2159 3.87877C97.2752 3.87685 97.339 3.91319 97.4028 3.93231C97.8269 4.05277 98.0685 4.04321 98.3375 3.88259C98.4333 3.82523 98.5153 3.77361 98.6612 3.76405C99.1126 3.72963 99.5686 3.70668 100.015 3.66653C100.257 3.6455 100.458 3.66461 100.631 3.73345C100.754 3.78316 100.882 3.80421 101.032 3.79273C101.862 3.73537 102.687 3.67991 103.517 3.61873C103.576 3.6149 103.631 3.58239 103.677 3.55944C103.772 3.50973 103.854 3.4562 103.946 3.40458C104.069 3.43708 104.206 3.46194 104.306 3.50401C104.434 3.55372 104.552 3.55371 104.725 3.54033C108.035 3.30896 111.35 3.08334 114.66 2.85007C114.943 2.83095 115.066 2.91126 115.258 2.95333C115.321 2.96863 115.385 2.98774 115.454 2.99156C115.527 2.99538 115.604 2.98392 115.677 2.97819C118.162 2.8061 120.647 2.63591 123.132 2.46383C123.46 2.44088 123.46 2.44088 123.948 2.55943C124.007 2.57473 124.085 2.59194 124.148 2.5862C125.279 2.51163 126.41 2.43133 127.536 2.35485C127.682 2.34529 127.805 2.37587 127.937 2.41985C128.197 2.5059 128.215 2.5059 128.407 2.37971C128.498 2.32043 128.594 2.28408 128.744 2.26688C128.908 2.24776 129.041 2.25351 129.168 2.28793C129.351 2.33573 129.483 2.41603 129.761 2.39499C130.965 2.30513 132.173 2.23056 133.372 2.13878C133.646 2.11775 133.792 2.18276 133.974 2.23056C134.038 2.24777 134.097 2.27454 134.165 2.28027C134.234 2.28601 134.316 2.27261 134.389 2.26688C135.893 2.16362 137.403 2.0623 138.903 1.9514C139.185 1.93037 139.308 2.01257 139.5 2.05464C139.564 2.06994 139.637 2.09672 139.696 2.09289C140.599 2.03362 141.506 1.9705 142.409 1.9074C142.733 1.88446 142.733 1.88637 143.225 2.00301C143.284 2.01831 143.362 2.0336 143.426 2.02978C144.479 1.95903 145.537 1.88637 146.59 1.81371C146.914 1.79077 146.914 1.79077 147.848 1.8902C147.917 1.89785 147.99 1.90934 148.058 1.90551C149.262 1.82329 150.47 1.74298 151.674 1.65502C151.915 1.63781 152.116 1.6531 152.289 1.72194C152.412 1.77165 152.54 1.7927 152.69 1.78122C154.044 1.68753 155.403 1.59767 156.753 1.49824C157.013 1.47912 157.181 1.52117 157.364 1.57662C157.423 1.59574 157.482 1.62251 157.551 1.63016C157.619 1.63781 157.697 1.63016 157.77 1.62442C159.124 1.53073 160.482 1.44278 161.832 1.34144C162.106 1.3204 162.252 1.38541 162.434 1.43321C162.498 1.45042 162.566 1.48484 162.621 1.48293C163.15 1.45042 163.679 1.42175 164.203 1.37395C164.486 1.34718 164.609 1.43512 164.8 1.47719C164.864 1.49057 164.937 1.51927 164.996 1.51544C166.127 1.44087 167.258 1.36248 168.384 1.28218C168.544 1.2707 168.662 1.2879 168.79 1.33761C168.958 1.40453 169.154 1.4313 169.401 1.41027C169.925 1.36629 170.454 1.33571 170.983 1.29938C171.293 1.27834 171.293 1.27835 172.241 1.37778C172.31 1.38543 172.383 1.39689 172.451 1.39307C173.354 1.33188 174.261 1.27261 175.159 1.20569C175.401 1.18657 175.601 1.20377 175.775 1.27261C175.898 1.32232 176.021 1.34336 176.176 1.33189C177.006 1.27453 177.831 1.21716 178.661 1.1598C178.962 1.13877 179.263 1.10243 179.564 1.10243C179.783 1.10434 179.942 1.19612 180.138 1.24201C180.193 1.25539 180.284 1.24011 180.357 1.23629C181.41 1.16363 182.468 1.0967 183.517 1.01448C183.79 0.993447 183.936 1.05845 184.119 1.10626C184.182 1.12346 184.251 1.15788 184.305 1.15597C184.684 1.13494 185.058 1.10626 185.436 1.0814C185.888 1.0508 186.343 1.02786 186.79 0.985794C187.155 0.951377 187.292 1.11772 187.584 1.12346C187.807 1.12919 188.035 1.09669 188.258 1.0814C188.71 1.0508 189.161 1.01639 189.613 0.989622C189.772 0.980062 189.895 0.949455 189.945 0.880621C189.955 0.867236 189.877 0.838567 189.827 0.821359C189.221 0.626327 189.22 0.626317 188.609 0.668383C188.231 0.695152 187.857 0.721926 187.479 0.744871C187.415 0.748695 187.342 0.733399 187.278 0.721927C187.096 0.689422 187.114 0.651184 187.269 0.582349C187.424 0.513514 187.543 0.42939 187.675 0.350995C187.862 0.400709 188.044 0.450405 188.231 0.500119C188.382 0.490559 188.532 0.479103 188.682 0.469543C189.435 0.419829 190.187 0.368199 190.939 0.322309C190.994 0.318485 191.062 0.356732 191.126 0.375853C191.309 0.431303 191.473 0.479092 191.737 0.458059C192.412 0.402609 193.091 0.362456 193.766 0.314654C194.063 0.293621 194.063 0.293623 194.582 0.412171C194.642 0.425556 194.719 0.440853 194.783 0.437029C195.462 0.393052 196.137 0.345255 196.816 0.299365C196.962 0.289805 197.104 0.314661 197.209 0.370111C197.25 0.393056 197.24 0.43129 197.414 0.744871C197.952 0.999177 198.321 0.972421 198.695 0.949476C198.855 0.939916 198.996 0.930346 199.101 0.892104C199.155 0.871072 199.224 0.840474 199.224 0.815617C199.224 0.796496 199.124 0.765897 199.06 0.762073C198.608 0.723831 198.18 0.80415 197.737 0.821359C197.532 0.829007 197.354 0.762083 197.318 0.653095C197.309 0.622502 197.295 0.589998 197.281 0.559405C197.268 0.528812 197.259 0.496308 197.245 0.465715C197.067 0.456155 196.962 0.490567 196.885 0.555577C196.821 0.609115 196.73 0.670302 196.607 0.698983C196.484 0.729576 196.315 0.72385 196.164 0.733411C196.019 0.742971 195.859 0.767825 195.722 0.754441C195.585 0.739144 195.476 0.683684 195.348 0.649267C195.289 0.632058 195.216 0.607211 195.157 0.611035C194.633 0.64354 194.113 0.676033 193.593 0.718099C193.319 0.741044 193.183 0.660749 193.009 0.611035C192.873 0.572793 192.736 0.582342 192.713 0.670297C192.654 0.880625 192.863 0.968576 193.329 0.928423C193.712 0.894005 194.058 0.888287 194.359 1.01831C194.4 1.03552 194.496 1.04316 194.555 1.03934C194.929 1.01639 195.298 0.987709 195.672 0.964764C195.74 0.96094 195.813 0.968576 195.877 0.976225C196.807 1.07948 196.807 1.0814 197.122 1.05845C197.272 1.04698 197.418 1.03742 197.405 0.746785C197.692 0.435116 198.148 0.414087 198.59 0.368197C198.877 0.339516 199 0.423651 199.187 0.467629C199.251 0.482926 199.32 0.513513 199.379 0.509689C200.359 0.446591 201.335 0.379659 202.311 0.308912C202.475 0.297439 202.593 0.308914 202.721 0.358628C202.885 0.421726 203.067 0.461888 203.327 0.438943C203.847 0.393053 204.376 0.364379 204.905 0.326137C205.174 0.307017 205.174 0.306997 205.716 0.425546C205.776 0.43893 205.853 0.454228 205.917 0.450404C206.446 0.417898 206.97 0.377757 207.495 0.343339C207.641 0.333779 207.773 0.360545 207.887 0.412171C208.001 0.463797 208.138 0.490564 208.279 0.481003C208.808 0.446586 209.332 0.408357 209.856 0.373939C209.92 0.370115 209.998 0.383499 210.057 0.396883C210.613 0.515432 210.613 0.515412 210.869 0.496292C211.242 0.46761 211.625 0.454241 211.995 0.415999C212.355 0.377758 212.542 0.488649 212.788 0.549835C213.463 0.505858 214.142 0.469537 214.812 0.415999C215.086 0.393054 215.232 0.456147 215.414 0.505861C215.478 0.52307 215.542 0.559403 215.601 0.557491C215.829 0.549843 216.053 0.528814 216.276 0.513517C216.5 0.49822 216.727 0.482926 216.951 0.467629C217.206 0.523079 217.375 0.653099 217.74 0.609121C217.959 0.582352 218.191 0.576616 218.414 0.561319C218.638 0.546022 218.866 0.530728 219.089 0.515431C219.24 0.505871 219.395 0.500126 219.541 0.482917C219.81 0.454236 219.942 0.547939 220.133 0.590005C220.197 0.603389 220.27 0.626319 220.329 0.622495C220.781 0.595726 221.237 0.572783 221.679 0.528805C222.021 0.494388 222.253 0.551758 222.495 0.632065C222.545 0.649274 222.632 0.658833 222.696 0.655009C223.225 0.622504 223.749 0.582339 224.273 0.547921C224.415 0.538361 224.551 0.568953 224.665 0.618667C224.784 0.670293 224.916 0.695169 225.062 0.685609C225.586 0.651191 226.115 0.612938 226.64 0.578521C226.703 0.574697 226.781 0.589996 226.84 0.605293C227.351 0.723842 227.351 0.725756 227.652 0.702811C227.725 0.697075 227.802 0.693235 227.875 0.687499C228.249 0.66073 228.637 0.651183 229.001 0.605293C229.421 0.553667 229.726 0.61868 230.023 0.727669C230.397 0.704724 230.78 0.691336 231.144 0.653095C231.418 0.624414 231.564 0.697069 231.746 0.744871C231.81 0.76208 231.878 0.796497 231.933 0.792673C232.462 0.760167 232.991 0.731497 233.511 0.683695C233.793 0.656926 233.916 0.742953 234.108 0.786931C234.172 0.802227 234.24 0.829011 234.299 0.825186C234.6 0.80989 234.901 0.786934 235.202 0.765901C235.553 0.741044 235.553 0.742954 236.018 0.859591C236.237 0.915041 236.456 0.871061 236.67 0.857677C236.898 0.84238 237.113 0.830911 237.295 0.909307C237.409 0.959021 237.546 0.989615 237.687 0.981966C237.988 0.964758 238.294 0.947557 238.59 0.918876C238.827 0.895931 239.032 0.91122 239.205 0.981966C239.328 1.03168 239.456 1.05655 239.607 1.04508C240.281 0.99919 240.961 0.95137 241.636 0.907393C241.695 0.903569 241.777 0.920784 241.832 0.937992C241.959 0.97241 242.082 1.01064 242.205 1.04888C242.502 1.03168 242.807 1.02405 243.099 0.997278C243.409 0.970509 243.692 0.960946 243.934 1.06611C243.984 1.08905 244.057 1.12154 244.116 1.11963C244.344 1.11198 244.567 1.09287 244.791 1.07757C245.014 1.06227 245.242 1.04698 245.465 1.03168C245.725 1.07948 245.89 1.21715 246.254 1.17317C246.473 1.14641 246.706 1.14067 246.929 1.12537C247.152 1.11008 247.38 1.09287 247.604 1.07948C247.677 1.07566 247.759 1.06609 247.823 1.07374C247.891 1.08139 247.95 1.10817 248.01 1.12729C248.192 1.18274 248.361 1.23819 248.621 1.20569C248.839 1.17892 249.072 1.17318 249.295 1.15597C249.601 1.13494 249.601 1.13494 250.107 1.2554C250.312 1.30512 250.545 1.24011 250.741 1.28218C250.873 1.31086 250.987 1.35865 251.115 1.39115C251.169 1.40454 251.256 1.41027 251.32 1.40644C251.621 1.38923 251.926 1.37203 252.223 1.34335C252.464 1.32041 252.665 1.34335 252.833 1.41218C252.957 1.4619 253.08 1.48294 253.235 1.47147C253.987 1.41793 254.739 1.37203 255.487 1.31275C255.742 1.29172 255.948 1.32423 256.089 1.39307C256.331 1.51162 256.673 1.37204 256.923 1.46764C257.078 1.52692 257.233 1.59575 257.516 1.56707C258.036 1.51736 258.565 1.49058 259.089 1.45616C259.276 1.50778 259.463 1.55942 259.654 1.61105C259.955 1.59001 260.256 1.56897 260.557 1.54985C260.781 1.53455 261.009 1.51734 261.232 1.50396C261.305 1.50014 261.382 1.49249 261.451 1.50205C261.519 1.51161 261.574 1.53647 261.638 1.55559C261.952 1.64928 261.952 1.6512 262.472 1.61296C262.695 1.59575 262.91 1.58428 263.097 1.66076C263.27 1.73151 263.475 1.74489 263.712 1.72385C264.159 1.68561 264.611 1.65693 265.066 1.63016C265.208 1.6206 265.34 1.65311 265.458 1.70282C265.636 1.78122 265.855 1.77357 266.079 1.75254C266.375 1.72577 266.667 1.69901 266.918 1.80608C266.968 1.82903 267.045 1.86152 267.1 1.8596C267.474 1.84431 267.852 1.83284 268.217 1.79651C268.582 1.76018 268.76 1.87873 269.01 1.93609C269.384 1.91123 269.763 1.88637 270.136 1.86152C270.209 1.85578 270.296 1.83858 270.36 1.84814C270.629 1.8883 270.784 2.0317 271.153 1.98772C271.368 1.96286 271.6 1.95522 271.823 1.94949C271.883 1.94758 271.96 1.98007 272.001 2.00492C272.024 2.01831 272.001 2.05463 271.974 2.07375C271.892 2.12729 271.792 2.17702 271.719 2.23247C271.709 2.24012 271.796 2.27452 271.846 2.28982C271.969 2.32424 272.111 2.31851 272.275 2.30322C272.416 2.28983 272.562 2.3166 272.662 2.37396C272.703 2.39691 272.69 2.43515 272.603 2.56134C272.603 2.65504 272.699 2.61296 272.731 2.55177C272.781 2.46382 272.685 2.43514 272.503 2.48294C272.375 2.51736 272.311 2.56708 272.343 2.60723C272.362 2.62826 272.448 2.65504 272.603 2.56134C273.004 2.44662 273.305 2.4256 273.606 2.40456C273.684 2.39883 273.775 2.37969 273.83 2.39117C274.026 2.43706 274.208 2.49252 274.4 2.54414C274.618 2.53267 274.824 2.50397 275.038 2.57855C275.339 2.68371 275.352 2.67415 275.644 2.65312C275.795 2.64165 275.945 2.6321 276.096 2.62254C276.246 2.61298 276.365 2.64166 276.497 2.68563C276.766 2.7755 276.789 2.77549 276.966 2.65312C277.071 2.57855 277.144 2.5537 277.276 2.58812C277.714 2.70475 277.719 2.71239 278.093 2.67798C278.403 2.6493 278.695 2.64165 278.922 2.75064C279.078 2.82712 279.128 2.80991 279.251 2.72961C279.579 2.51737 279.729 2.52118 280.345 2.67415C280.632 2.74681 280.929 2.66842 281.22 2.65886C281.467 2.65121 281.64 2.69709 281.658 2.81755C281.672 2.89213 281.713 2.94567 281.877 2.97053C281.941 2.98009 282.018 2.99347 282.082 2.98965C282.461 2.9667 282.834 2.93993 283.213 2.91316C283.404 2.89977 283.509 2.80992 283.473 2.69137C283.432 2.56518 283.505 2.51927 283.778 2.48294C283.942 2.46191 284.075 2.46575 284.207 2.50017C284.353 2.53841 284.312 2.57282 284.184 2.64166C283.879 2.80992 283.915 2.91316 284.307 3.02979C284.444 3.06995 284.553 3.10629 284.585 3.16557C284.603 3.19616 284.585 3.23631 284.626 3.25926C284.85 3.38737 285.16 3.46959 285.506 3.53078C285.839 3.47915 286.067 3.56518 286.322 3.63402C286.523 3.68755 286.76 3.64168 286.974 3.62256C287.216 3.60152 287.417 3.61681 287.59 3.68756C287.713 3.73727 287.841 3.76021 287.991 3.75065C288.292 3.72962 288.598 3.71624 288.894 3.68565C289.149 3.65888 289.341 3.69712 289.5 3.76213C289.701 3.84435 289.924 3.78889 290.134 3.80037C290.417 3.81375 290.558 3.98392 290.927 3.93803C291.146 3.91126 291.374 3.9017 291.602 3.89405C291.662 3.89214 291.734 3.92465 291.785 3.9476C292.026 4.05276 292.309 4.04702 292.619 4.01643C292.833 3.9954 293.043 3.97629 293.253 4.04894C293.599 4.17132 293.982 4.2784 294.347 4.39121C294.397 4.47917 294.361 4.5824 294.621 4.63403C294.757 4.6608 294.885 4.70097 294.99 4.74494C295.118 4.79657 295.236 4.80996 295.4 4.79657C295.697 4.7698 296.007 4.76405 296.298 4.72963C296.567 4.69904 296.736 4.76216 296.9 4.82143C297.032 4.86923 297.156 4.89217 297.315 4.85775C297.479 4.82524 297.598 4.84627 297.73 4.89789C297.917 4.96864 297.931 4.96101 298.551 4.98204C298.615 4.98395 298.692 5.01262 298.729 5.03747C298.747 5.05086 298.706 5.08912 298.674 5.10824C298.633 5.13119 298.569 5.15794 298.51 5.16368C297.835 5.21339 297.156 5.25737 296.481 5.30708C296.412 5.31282 296.34 5.32622 296.289 5.34534C296.235 5.36637 296.166 5.39503 296.166 5.4218C296.166 5.44092 296.257 5.46388 296.321 5.47726C296.522 5.52124 296.759 5.45432 296.955 5.50403C297.087 5.53654 297.197 5.58242 297.329 5.61301C297.384 5.62639 297.47 5.62449 297.539 5.62067C297.767 5.60728 297.99 5.58816 298.218 5.57669C298.282 5.57478 298.355 5.59391 298.414 5.60921C298.852 5.72393 298.852 5.72392 299.23 5.69907C299.381 5.68951 299.54 5.66082 299.682 5.6723C299.818 5.68377 299.937 5.73539 300.06 5.7679C300.315 5.83673 300.557 5.90365 300.575 6.0528C300.584 6.11016 300.735 6.15986 300.885 6.16369C301.031 6.16751 301.186 6.1465 301.337 6.13503C301.692 6.11208 301.692 6.11208 302.153 6.22872C302.28 6.26122 302.417 6.26504 302.581 6.24592C302.645 6.23827 302.723 6.24593 302.791 6.25549C303.014 6.28417 303.014 6.32049 302.869 6.38932C302.663 6.49066 302.682 6.50023 303.256 6.58627C303.475 6.61878 303.644 6.67997 303.826 6.73351C304.122 6.81955 304.118 6.81953 303.922 6.93235C303.876 6.9572 303.835 6.98398 303.79 7.01075C303.657 7.08532 303.552 7.16562 303.279 7.17327C302.978 7.18092 302.677 7.21152 302.376 7.23256C302.084 7.25359 302.007 7.29946 302.034 7.42948C302.066 7.58627 302.125 7.60349 302.65 7.60157C302.8 7.60157 302.932 7.61687 303.046 7.66849C302.992 7.72968 302.891 7.77748 302.745 7.78895C302.372 7.81763 301.993 7.8425 301.619 7.86736C301.318 7.88839 301.017 7.90941 300.717 7.93045C300.53 7.94383 300.411 8.04327 300.461 8.15417C300.489 8.21727 300.511 8.28036 300.534 8.34346C300.584 8.46966 300.68 8.50217 300.985 8.49644C301.063 8.49452 301.136 8.47921 301.209 8.48304C301.505 8.49642 301.647 8.65512 302.002 8.62262C302.299 8.59585 302.609 8.59012 302.901 8.5557C303.17 8.5251 303.32 8.59396 303.507 8.64558C303.571 8.66279 303.639 8.6991 303.694 8.69719C304.072 8.67616 304.451 8.65514 304.82 8.61881C304.993 8.60351 305.098 8.61498 305.235 8.66087C305.563 8.77177 305.572 8.76604 306.06 8.73162C306.416 8.70485 306.42 8.70867 306.876 8.82531C307.004 8.85781 307.141 8.85781 307.305 8.84251C307.519 8.82339 307.743 8.7928 307.966 8.82148C308.034 8.82913 308.121 8.85208 308.144 8.87694C308.158 8.89415 308.094 8.93621 308.039 8.9496C307.638 9.04902 307.168 9.03182 306.73 9.07197C306.594 9.08344 306.457 9.04711 306.343 8.99549C306.224 8.94386 306.097 8.92283 305.942 8.93239C305.641 8.95343 305.335 8.96681 305.039 8.9974C304.784 9.02417 304.606 8.98019 304.428 8.92091C304.369 8.90179 304.3 8.86546 304.241 8.86737C303.566 8.90561 302.887 8.94386 302.217 8.9974C301.948 9.02034 301.793 8.95916 301.61 8.90754C301.546 8.89033 301.483 8.854 301.423 8.85591C301.195 8.86355 300.972 8.88458 300.744 8.89988C299.914 8.95724 299.089 9.01461 298.259 9.06814C298.204 9.07197 298.136 9.03181 298.072 9.0146C297.949 8.98018 297.821 8.94767 297.694 8.91517C297.466 8.93047 297.242 8.94958 297.014 8.96106C296.85 8.96871 296.704 8.99549 296.681 9.06814C296.668 9.11595 296.818 9.15992 296.978 9.15609C297.133 9.15227 297.288 9.12932 297.416 9.15418C298.049 9.27655 298.049 9.27847 298.446 9.25361C298.792 9.23067 298.756 9.21154 299.061 9.3167C299.194 9.36259 299.312 9.38937 299.463 9.3779C299.837 9.35113 300.215 9.32436 300.593 9.30141C300.653 9.29759 300.73 9.31672 300.789 9.33201C301.236 9.44674 301.236 9.45055 301.606 9.42187C302.089 9.38746 302.107 9.3779 302.431 9.49453C302.654 9.57484 302.859 9.51939 303.074 9.51556C303.32 9.59013 303.589 9.65707 303.812 9.7412C304.077 9.84063 304.355 9.8234 304.656 9.79472C304.879 9.77369 305.098 9.76604 305.281 9.84444C305.454 9.91709 305.663 9.92476 305.901 9.90563C306.115 9.88843 306.334 9.85209 306.557 9.89415C306.616 9.90562 306.708 9.93431 306.703 9.95152C306.698 9.97829 306.639 10.0165 306.58 10.028C306.16 10.1064 305.7 10.1045 305.258 10.1408C305.198 10.1466 305.121 10.1255 305.062 10.1102C304.934 10.0758 304.811 10.0357 304.688 9.99932C304.464 10.0108 304.236 10.0146 304.018 10.0376C303.849 10.0548 303.721 10.0529 303.598 10.007C303.484 9.96492 303.361 9.91328 303.224 9.89989C303.087 9.88651 302.928 9.91519 302.777 9.92667C302.627 9.93814 302.454 9.93239 302.335 9.96298C302.217 9.99358 302.144 10.0605 302.066 10.114C301.979 10.1733 301.861 10.1925 301.688 10.1982C301.528 10.2039 301.4 10.1963 301.282 10.1427C301.232 10.1198 301.163 10.1026 301.095 10.0873C301.031 10.0739 300.958 10.0528 300.899 10.0567C300.22 10.1007 299.545 10.1485 298.865 10.1944C298.528 10.2173 298.533 10.2173 297.83 10.1045C297.767 10.0949 297.689 10.0815 297.625 10.0854C297.247 10.1083 296.873 10.1351 296.495 10.1618C296.112 10.1886 296.116 10.1848 295.464 10.0643C295.346 10.0414 295.172 10.072 295.031 10.0682C294.735 10.0586 294.589 9.89799 294.242 9.92858C293.946 9.95535 293.636 9.96108 293.339 9.9955C293.07 10.0261 292.915 9.95918 292.733 9.90755C292.669 9.89034 292.601 9.85209 292.546 9.85592C291.867 9.89798 291.192 9.94579 290.289 9.95152C290.066 9.95152 290.166 9.99168 290.312 10.0051C290.522 10.0261 290.59 9.98595 290.476 9.90946C290.394 9.85592 290.275 9.82914 290.18 9.84252C290.13 9.85017 290.066 9.88651 290.289 9.95152C290.526 10.0242 290.513 10.0643 290.554 10.0873C290.654 10.1427 290.795 10.1657 290.941 10.158C291.169 10.1446 291.393 10.1255 291.621 10.114C291.684 10.1102 291.762 10.1236 291.821 10.1389C292.323 10.2575 292.327 10.2651 292.861 10.2192C293.029 10.2058 293.152 10.2058 293.285 10.2422C293.467 10.2919 293.599 10.376 293.877 10.3492C294.247 10.3129 294.625 10.2919 295.004 10.2708C295.063 10.267 295.127 10.3014 295.195 10.3167C295.382 10.3626 295.519 10.4487 295.797 10.4123C296.011 10.3837 296.244 10.376 296.472 10.3703C296.531 10.3683 296.622 10.3989 296.649 10.4238C296.704 10.4678 296.636 10.5194 296.481 10.5557C296.417 10.571 296.33 10.5672 296.257 10.5729C295.956 10.594 295.656 10.6169 295.355 10.6341C295.195 10.6437 295.045 10.6724 295.026 10.7431C295.013 10.7909 295.177 10.833 295.332 10.8292C295.56 10.8234 295.788 10.8081 296.007 10.7833C296.394 10.7412 296.732 10.7527 297.046 10.8731C297.27 10.9573 297.256 10.9267 297.493 11.1753C297.552 11.2384 297.73 11.2441 297.885 11.2403C298.259 11.2307 298.432 11.2594 298.4 11.3187C298.359 11.3913 298.227 11.4143 298.058 11.4238C297.757 11.4391 297.457 11.464 297.156 11.485C297.083 11.4907 297.001 11.5022 296.932 11.4984C296.864 11.4946 296.8 11.4716 296.741 11.4544C296.613 11.4181 296.504 11.3626 296.367 11.3492C296.23 11.3359 296.07 11.3645 295.92 11.376C295.77 11.3856 295.61 11.4143 295.473 11.4009C295.336 11.3875 295.222 11.3301 295.099 11.2957C295.04 11.2785 294.967 11.2517 294.908 11.2536C294.607 11.2689 294.306 11.2938 294.005 11.3129C293.636 11.3378 293.636 11.3378 293.189 11.2192C293.061 11.1848 292.929 11.1867 292.76 11.202C292.396 11.2326 292.391 11.2269 291.725 11.116C291.662 11.1045 291.584 11.0911 291.52 11.0969C290.841 11.1408 290.166 11.1886 289.491 11.2345C288.912 11.2747 288.912 11.2747 288.593 11.4659C288.356 11.6074 288.351 11.6074 288.584 11.6724C288.771 11.7259 288.939 11.8043 289.145 11.833C289.336 11.8598 289.573 11.7737 289.783 11.8617C289.888 11.9057 290.025 11.9535 290.157 11.9611C290.367 11.9707 290.59 11.9152 290.791 11.9993C290.891 12.0414 291.041 12.0854 291.169 12.0873C291.393 12.0911 291.621 12.0605 291.844 12.0472C291.912 12.0433 291.99 12.0433 292.054 12.0529C292.122 12.0644 292.181 12.0873 292.241 12.1064C292.423 12.1714 292.619 12.202 292.856 12.1695C293.244 12.116 293.59 12.1428 293.891 12.2651C293.932 12.2823 294.032 12.2843 294.096 12.2766C294.26 12.2575 294.402 12.2556 294.525 12.2919C294.575 12.3072 294.648 12.334 294.639 12.3512C294.625 12.3798 294.57 12.4181 294.511 12.4277C294.083 12.4927 293.622 12.5003 293.18 12.5347C293.121 12.5386 293.048 12.5137 292.988 12.4965C292.861 12.4621 292.751 12.4047 292.614 12.3913C292.478 12.3779 292.318 12.4028 292.168 12.4124C292.017 12.4219 291.858 12.4506 291.721 12.4391C291.584 12.4258 291.456 12.3779 291.347 12.3359C291.219 12.2881 291.096 12.2824 290.927 12.3015C290.709 12.3263 290.481 12.3301 290.257 12.3435C290.134 12.3072 290.011 12.267 289.883 12.2326C289.824 12.2154 289.751 12.1944 289.687 12.1963C289.386 12.2116 289.085 12.2345 288.784 12.2556C288.484 12.2766 288.484 12.2766 287.973 12.1581C287.914 12.1447 287.836 12.1294 287.772 12.1332C287.394 12.1562 287.02 12.1848 286.642 12.2078C286.496 12.2173 286.363 12.1906 286.245 12.1389C286.131 12.0873 285.994 12.0586 285.853 12.0682C285.251 12.1083 284.649 12.1466 284.047 12.1944C283.806 12.2135 283.6 12.1963 283.436 12.1275C283.245 12.0491 283.031 12.0682 282.807 12.0835C282.301 12.1217 282.296 12.1198 281.973 12.0223C281.909 12.0032 281.845 11.9668 281.786 11.9688C281.261 11.9974 280.733 12.0242 280.213 12.0701C279.939 12.095 279.793 12.028 279.611 11.9783C279.547 11.9611 279.479 11.9248 279.424 11.9286C279.046 11.9496 278.667 11.9688 278.298 12.007C277.928 12.0452 277.787 11.8674 277.509 11.8693C277.131 11.8713 276.757 11.9152 276.383 11.942C276.082 11.963 275.781 11.9841 275.48 12.0051C275.179 12.0261 274.878 12.0433 274.577 12.0682C274.418 12.0816 274.299 12.0644 274.167 12.0166C273.998 11.9535 273.798 11.9038 273.615 11.8464C273.337 11.7642 273.337 11.7642 273 11.7871C272.927 11.7928 272.849 11.7967 272.776 11.8024C272.225 11.8445 272.225 11.8407 271.523 11.7202C271.491 11.7145 271.409 11.7355 271.377 11.7508C271.281 11.8005 271.194 11.854 271.108 11.9057C270.985 11.8751 270.834 11.8579 270.752 11.8139C270.52 11.6896 270.155 11.8598 269.918 11.7374C269.831 11.6915 269.681 11.6514 269.544 11.6399C269.402 11.6284 269.243 11.6552 269.097 11.6666C268.718 11.6953 268.718 11.6934 268.395 11.8636C268.231 11.9477 267.994 11.9324 267.779 11.9515C267.556 11.9726 267.342 11.9841 267.155 11.9057C266.986 11.8349 266.781 11.8177 266.539 11.8407C266.243 11.8693 265.937 11.8865 265.636 11.9037C265.573 11.9076 265.495 11.898 265.431 11.8865C264.734 11.7737 264.734 11.7718 264.396 11.7967C264.246 11.8082 264.091 11.812 263.945 11.8292C263.699 11.8598 263.512 11.8196 263.334 11.7584C263.275 11.7393 263.206 11.703 263.147 11.7049C262.846 11.7145 262.55 11.7317 262.253 11.7489C262.025 11.7623 261.797 11.7699 261.578 11.7967C261.214 11.8407 261.036 11.7164 260.785 11.659C260.411 11.6839 260.033 11.7011 259.659 11.7355C259.486 11.7508 259.372 11.7451 259.24 11.6992C259.071 11.6418 258.916 11.5768 258.642 11.6055C258.277 11.6437 257.894 11.6571 257.521 11.68C257.27 11.6208 257.087 11.5003 256.727 11.5443C256.508 11.571 256.276 11.5768 256.052 11.5921C255.752 11.6131 255.451 11.6322 255.15 11.6552C254.826 11.6781 254.831 11.6724 254.334 11.5596C254.046 11.4927 253.75 11.5672 253.458 11.5787C253.23 11.5883 253.116 11.6762 253.171 11.789C253.226 11.9018 253.102 11.9898 252.893 12.0051C252.368 12.0414 251.84 12.0796 251.315 12.1122C251.251 12.116 251.174 12.1026 251.115 12.0892C250.554 11.9688 250.554 11.9707 250.303 11.9879C249.929 12.0166 249.546 12.0319 249.177 12.0682C248.922 12.093 248.735 12.0529 248.57 11.9879C248.443 11.9382 248.324 11.9267 248.16 11.9382C246.355 12.0663 244.549 12.1848 242.748 12.3168C242.479 12.3359 242.324 12.2804 242.142 12.2288C242.078 12.2116 242.019 12.1753 241.955 12.1753C241.804 12.1753 241.654 12.1925 241.503 12.204C240.829 12.2498 240.154 12.3053 239.474 12.3397C239.187 12.355 239.11 12.443 238.986 12.5156C238.891 12.5711 238.781 12.594 238.613 12.6017C238.449 12.6093 238.33 12.5997 238.202 12.55C238.038 12.485 237.851 12.4449 237.596 12.4716C237.3 12.5022 236.999 12.5156 236.693 12.5367C236.538 12.5462 236.42 12.5806 236.369 12.6495C236.36 12.6609 236.456 12.6896 236.511 12.7068C236.693 12.7642 236.866 12.8311 237.072 12.8713C237.281 12.9114 237.509 12.8655 237.728 12.854C237.806 12.8502 237.879 12.8388 237.951 12.8407C238.02 12.8426 238.102 12.8521 238.152 12.8694C238.389 12.9554 238.64 13.0147 238.968 12.963C239.251 12.9879 239.397 13.1466 239.757 13.1045C239.976 13.0797 240.204 13.0682 240.432 13.0586C240.491 13.0567 240.555 13.0912 240.619 13.1084C240.801 13.1562 240.947 13.2326 241.221 13.2001C241.512 13.1657 241.823 13.16 242.119 13.1332C242.283 13.1179 242.402 13.1313 242.529 13.181C242.693 13.2441 242.88 13.2919 243.136 13.2613C243.354 13.2345 243.587 13.2288 243.81 13.2116C244.102 13.1906 244.102 13.1925 244.622 13.311C244.681 13.3244 244.759 13.3397 244.823 13.3359C245.201 13.3129 245.575 13.2843 245.953 13.2613C246.099 13.2518 246.241 13.2766 246.341 13.3321C246.382 13.355 246.368 13.3933 246.382 13.4258C245.63 13.4774 244.877 13.5214 244.13 13.5845C243.847 13.6093 243.719 13.5309 243.532 13.4869C243.468 13.4717 243.4 13.4392 243.341 13.443C242.812 13.4755 242.288 13.5099 241.763 13.552C241.599 13.5653 241.476 13.5577 241.353 13.5022C241.038 13.355 240.655 13.4353 240.3 13.4563C240.026 13.4716 239.939 13.5309 239.971 13.6571C240.012 13.8063 240.177 13.8522 240.596 13.8254C240.746 13.8158 240.897 13.8024 241.047 13.7948C241.193 13.7871 241.326 13.812 241.444 13.8636C241.558 13.9152 241.695 13.942 241.836 13.9344C242.137 13.9172 242.443 13.9 242.734 13.8713C242.976 13.8483 243.177 13.8674 243.345 13.9382C243.532 14.0166 243.751 13.9994 243.97 13.9822C244.481 13.9439 244.485 13.9459 244.804 14.0415C244.868 14.0606 244.932 14.0969 244.991 14.095C245.516 14.0663 246.045 14.0415 246.56 13.9956C246.829 13.9726 246.984 14.0338 247.162 14.0835C247.225 14.1007 247.289 14.139 247.349 14.1351C247.727 14.1141 248.105 14.0931 248.475 14.0567C248.648 14.0395 248.753 14.051 248.894 14.0969C249.231 14.2097 249.241 14.2059 249.719 14.1696C249.865 14.1581 250.025 14.1371 250.162 14.1523C250.298 14.1676 250.408 14.2231 250.536 14.2575C250.595 14.2728 250.668 14.2938 250.732 14.29C251.032 14.2747 251.333 14.2518 251.634 14.2308C251.917 14.2097 251.917 14.2116 252.446 14.3302C252.66 14.3799 252.884 14.3378 253.098 14.3225C253.331 14.3053 253.54 14.3053 253.718 14.3799C253.896 14.4545 254.11 14.4506 254.338 14.4353C254.552 14.42 254.771 14.378 254.99 14.4296C255.492 14.5482 255.492 14.5501 255.802 14.5271C256.253 14.4946 256.7 14.464 257.156 14.4353C257.215 14.4315 257.293 14.4545 257.352 14.4698C257.48 14.5042 257.589 14.5615 257.726 14.5749C257.863 14.5902 258.022 14.5673 258.168 14.5558C258.638 14.5195 258.67 14.5061 258.984 14.6323C259.249 14.7355 259.577 14.5864 259.823 14.7049C259.964 14.7719 260.156 14.8254 260.42 14.7929C260.639 14.7661 260.867 14.7585 261.095 14.7432C261.455 14.7183 261.455 14.7202 261.911 14.835C261.971 14.8503 262.048 14.8694 262.107 14.8655C262.408 14.8503 262.714 14.8369 263.006 14.8025C263.348 14.7623 263.566 14.835 263.822 14.9057C264.022 14.9612 264.259 14.9153 264.474 14.8961C264.706 14.877 264.916 14.8828 265.089 14.9573C265.272 15.0338 265.486 15.0243 265.714 15.009C265.928 14.9956 266.147 14.9516 266.366 15.0051C266.835 15.1237 266.835 15.1237 267.177 15.1007C267.478 15.0797 267.779 15.0568 268.08 15.0415C268.139 15.0376 268.212 15.0625 268.272 15.0797C268.399 15.1141 268.509 15.1715 268.646 15.1849C268.782 15.1983 268.942 15.1734 269.092 15.1638C269.243 15.1543 269.402 15.1256 269.539 15.1371C269.676 15.1485 269.804 15.1964 269.913 15.2384C270.041 15.2881 270.159 15.2939 270.332 15.2747C270.551 15.2499 270.779 15.2441 271.003 15.2308C271.126 15.2671 271.254 15.3034 271.372 15.3436C271.495 15.3856 271.627 15.3818 271.796 15.3684C272.357 15.3225 272.361 15.3283 272.831 15.4468C273.045 15.5004 273.269 15.4564 273.483 15.443C273.711 15.4277 273.925 15.4201 274.103 15.4965C274.276 15.5692 274.491 15.5788 274.719 15.5558C274.865 15.5405 275.02 15.531 275.17 15.5252C275.238 15.5233 275.321 15.531 275.371 15.5463C275.612 15.6266 275.849 15.6992 276.182 15.6476C276.474 15.6629 276.62 15.8197 276.971 15.7891C277.267 15.7623 277.577 15.7566 277.869 15.7222C278.138 15.6916 278.33 15.7451 278.467 15.812C278.713 15.9306 279.059 15.77 279.306 15.8866C279.447 15.9535 279.629 16.0071 279.903 15.9784C280.204 15.9478 280.299 15.9879 280.386 16.1084C280.436 16.1772 280.427 16.2327 280.336 16.2862C280.245 16.3417 280.144 16.3321 279.999 16.269C279.83 16.1983 279.629 16.1849 279.388 16.2002C279.15 16.2155 279.005 16.1161 278.809 16.0778C278.612 16.0377 278.38 16.1046 278.175 16.053C277.691 15.9325 277.691 15.9325 277.363 15.9554C277.14 15.9707 276.907 15.9784 276.688 16.0052C276.429 16.0377 276.26 15.9784 276.082 15.9248C276.018 15.9057 275.954 15.8694 275.9 15.8713C275.375 15.9 274.846 15.9268 274.327 15.9746C274.053 15.9994 273.907 15.9306 273.725 15.8828C273.661 15.8656 273.592 15.8312 273.538 15.835C273.086 15.8618 272.64 15.8962 272.188 15.9287C272.102 15.9803 272.006 16.03 271.924 16.0855C271.837 16.1428 271.719 16.1677 271.545 16.1658C271.258 16.1658 270.975 16.2461 270.688 16.1447C270.392 16.0415 270.369 16.0472 270.082 16.0721C269.717 16.1046 269.329 16.0969 268.987 16.1715C268.928 16.1849 268.864 16.2212 268.864 16.248C268.86 16.2652 268.956 16.2901 269.015 16.3053C269.215 16.3512 269.448 16.2843 269.649 16.3321C269.781 16.3627 269.89 16.4086 270.022 16.4411C270.077 16.4545 270.159 16.4526 270.232 16.4507C270.31 16.4488 270.383 16.4354 270.456 16.4373C270.524 16.4392 270.597 16.4507 270.652 16.4679C270.903 16.5405 271.167 16.6075 271.39 16.6935C271.609 16.7776 271.814 16.7203 272.033 16.7164C272.909 16.8503 272.909 16.8522 273.497 16.8101C273.643 16.8006 273.793 16.7891 273.944 16.791C274.007 16.791 274.067 16.8254 274.131 16.8445C274.313 16.9019 274.486 16.9535 274.742 16.9229C274.96 16.8962 275.193 16.8904 275.416 16.8732C275.717 16.8522 275.717 16.8522 276.228 16.9727C276.356 17.0033 276.492 16.9994 276.656 16.9841C276.798 16.9708 276.944 16.9994 277.044 17.0549C277.085 17.0778 277.071 17.1161 277.085 17.1486C276.634 17.1792 276.178 17.2002 275.74 17.2461C275.457 17.2748 275.33 17.1926 275.143 17.1486C275.079 17.1333 275.011 17.1008 274.951 17.1046C274.504 17.1333 274.058 17.1658 273.611 17.204C273.556 17.2078 273.488 17.2518 273.483 17.2786C273.474 17.3283 273.588 17.3761 273.752 17.3742C273.971 17.3723 274.185 17.3398 274.381 17.4182C274.545 17.487 274.751 17.5176 274.992 17.487C275.138 17.4698 275.293 17.4698 275.439 17.4545C275.827 17.4086 276.178 17.4182 276.469 17.5482C276.693 17.5826 276.912 17.5501 277.126 17.5329C277.286 17.5195 277.441 17.5061 277.555 17.5425C277.796 17.6189 278.033 17.6954 278.366 17.6438C278.726 17.6973 279 17.8101 279.301 17.9019C279.442 17.9459 279.552 17.9708 279.716 17.9421C279.784 17.9306 279.866 17.9306 279.939 17.9249C280.09 17.9153 280.249 17.8866 280.386 17.8981C280.523 17.9115 280.637 17.9669 280.76 18.0014C280.819 18.0186 280.888 18.0472 280.947 18.0453C281.175 18.0358 281.398 18.0167 281.622 18.0014C281.845 17.988 282.068 17.9746 282.292 17.9612C282.479 18.0109 282.67 18.0606 282.857 18.1104C283.158 18.0893 283.459 18.0683 283.756 18.0492C284.088 18.0262 284.088 18.0281 284.567 18.1467C284.781 18.2002 285.009 18.1658 285.215 18.1409C285.556 18.1008 285.784 18.1735 286.026 18.2499C286.076 18.2652 286.167 18.2748 286.227 18.2671C286.464 18.2404 286.669 18.2614 286.842 18.3321C286.965 18.3819 287.088 18.4048 287.239 18.3953C287.763 18.3589 288.288 18.3207 288.812 18.2882C288.876 18.2843 288.949 18.3016 289.008 18.3169C289.473 18.4335 289.478 18.4392 289.819 18.4086C290.125 18.3819 290.408 18.3704 290.649 18.4755C290.699 18.4985 290.777 18.531 290.832 18.5291C291.206 18.51 291.584 18.4889 291.953 18.4564C292.122 18.4411 292.241 18.4469 292.373 18.4909C292.541 18.5463 292.692 18.6132 292.97 18.5884C293.741 18.5176 293.745 18.5291 294.657 18.661C294.721 18.6706 294.807 18.6553 294.88 18.6476C295.035 18.6285 295.149 18.6553 295.286 18.6993C295.592 18.7987 295.601 18.793 295.893 18.7719C296.116 18.7547 296.349 18.7509 296.567 18.7222C296.905 18.6801 297.128 18.7547 297.379 18.8255C297.58 18.8809 297.812 18.835 298.026 18.8178C298.259 18.7987 298.469 18.8044 298.642 18.8771C298.761 18.9268 298.888 18.9536 299.039 18.944C299.563 18.9096 300.087 18.8714 300.612 18.8369C300.676 18.8331 300.753 18.8484 300.812 18.8618C301.332 18.9803 301.332 18.9861 301.847 18.9421C302.011 18.9287 302.148 18.9249 302.271 18.9651C302.39 19.0033 302.517 19.0396 302.641 19.0759C302.864 19.0626 303.092 19.0587 303.311 19.0358C303.48 19.0186 303.598 19.0262 303.73 19.0664C303.904 19.118 304.049 19.2079 304.323 19.1639C304.464 19.1429 304.628 19.1486 304.77 19.1295C304.939 19.1046 305.053 19.1199 305.185 19.1696C305.349 19.2289 305.518 19.2901 305.782 19.2595C306.074 19.2251 306.384 19.2193 306.68 19.1926C306.844 19.1773 306.958 19.1926 307.091 19.2423C307.255 19.3054 307.442 19.3456 307.697 19.3207C308.217 19.2729 308.221 19.2824 308.727 19.4029C308.855 19.4335 308.992 19.4297 309.156 19.4144C309.297 19.401 309.443 19.4297 309.544 19.4851C309.639 19.5463 309.63 19.5845 309.639 19.6171ZM269.01 2.37205C268.86 2.38161 268.709 2.39308 268.49 2.22673C268.477 2.19805 268.486 2.16364 268.454 2.13878C268.381 2.08716 268.267 2.05083 268.13 2.04509C267.884 2.03744 267.588 2.10244 267.592 2.15216C267.597 2.19422 267.674 2.23054 267.825 2.26496C267.889 2.27835 267.939 2.3013 267.998 2.31659C268.171 2.36057 268.308 2.44663 268.559 2.40265C268.536 2.34337 268.513 2.2841 268.559 2.40265C268.536 2.47531 268.605 2.52694 268.769 2.54797C268.814 2.55371 268.883 2.54987 268.919 2.5384C269.06 2.49633 269.083 2.43898 268.978 2.28793C268.96 2.31279 268.974 2.35675 269.015 2.36822C269.056 2.37969 269.156 2.37015 269.206 2.35676C269.334 2.32043 269.398 2.27263 269.366 2.23247C269.348 2.21144 269.261 2.18467 269.206 2.18467C269.111 2.18467 269.024 2.22673 269.01 2.37205ZM305.878 24.5464C305.545 24.5827 305.162 24.5693 304.829 24.6439C304.77 24.6573 304.711 24.6917 304.706 24.7185C304.701 24.7357 304.793 24.7606 304.847 24.7739C304.97 24.8045 305.107 24.795 305.267 24.7854C305.508 24.772 305.65 24.86 305.837 24.9039C305.896 24.9173 305.974 24.9269 306.037 24.9231C306.407 24.9001 306.771 24.8753 307.141 24.8485C307.205 24.8428 307.273 24.8294 307.328 24.8122C307.51 24.7567 307.492 24.7204 307.314 24.6783C307.118 24.6324 306.963 24.556 306.762 24.5196C306.475 24.468 306.183 24.5368 305.878 24.5464ZM279.985 25.9422C279.761 25.9575 279.543 25.9728 279.319 25.9881C279.246 25.9938 279.169 25.9957 279.1 26.0034C278.959 26.0168 278.854 26.0569 278.786 26.12C278.891 26.1697 279.018 26.1984 279.16 26.1927C279.383 26.1812 279.602 26.1564 279.825 26.1506C280.067 26.143 280.208 26.229 280.395 26.273C280.454 26.2864 280.527 26.2883 280.596 26.2902C280.933 26.2979 281.138 26.1984 281.075 26.0589C281.029 25.9499 280.856 25.8849 280.646 25.8982C280.427 25.9116 280.204 25.9269 279.985 25.9422ZM307.437 21.7203C307.492 21.6878 307.551 21.6649 307.578 21.6362C307.661 21.5387 307.629 21.466 307.478 21.3896C307.296 21.2959 307.072 21.359 306.867 21.3685C306.817 21.3704 306.762 21.4106 306.735 21.4354C306.717 21.4527 306.717 21.489 306.744 21.4986C306.967 21.575 307.205 21.6458 307.437 21.7203ZM267.884 16.0721C267.665 16.0874 267.442 16.0988 267.223 16.1199C267.168 16.1256 267.118 16.1619 267.086 16.1868C267.027 16.2327 267.091 16.2958 267.278 16.3015C267.492 16.3092 267.715 16.2767 267.939 16.2614C268.221 16.2423 268.39 16.1715 268.285 16.1103C268.185 16.051 268.048 16.0396 267.884 16.0721ZM27.8808 11.986C28.0267 11.9764 28.1772 11.9688 28.3231 11.9554C28.4598 11.942 28.5648 11.8999 28.6332 11.8368C28.5192 11.7871 28.3915 11.7603 28.2501 11.7661C28.0267 11.7776 27.8079 11.7928 27.5891 11.812C27.4523 11.8234 27.3201 11.8655 27.2882 11.9305C27.2563 11.9802 27.5616 12.0089 27.8808 11.986ZM248.602 11.6915C248.662 11.7087 248.721 11.7431 248.78 11.7431C248.926 11.7431 249.077 11.7317 249.213 11.7125C249.273 11.7049 249.318 11.6705 249.345 11.6437C249.364 11.6265 249.359 11.5959 249.332 11.5806C249.2 11.4888 248.671 11.5213 248.584 11.6265C248.575 11.6456 248.598 11.6705 248.602 11.6915ZM234.217 1.22098C234.231 1.25157 234.236 1.28216 234.254 1.31275C234.29 1.37011 234.391 1.41219 234.536 1.44087C234.65 1.39307 234.71 1.33954 234.705 1.28218C234.701 1.25158 234.687 1.22097 234.669 1.19038C234.632 1.13301 234.532 1.09096 234.386 1.06228C234.272 1.10817 234.217 1.1617 234.217 1.22098ZM317.974 26.2749C317.933 26.2998 317.892 26.3246 317.846 26.3476C317.969 26.403 318.083 26.4202 318.17 26.3896C318.225 26.3705 318.257 26.3418 318.298 26.317C318.175 26.2615 318.065 26.2462 317.974 26.2749ZM315.138 26.535C315.197 26.5522 315.252 26.5751 315.316 26.5866C315.421 26.6057 315.516 26.5732 315.589 26.5044C315.53 26.4871 315.475 26.4642 315.412 26.4527C315.307 26.4336 315.211 26.4661 315.138 26.535ZM316.934 26.1851C316.902 26.2309 316.966 26.2692 317.135 26.3017C317.176 26.2768 317.231 26.2539 317.258 26.2271C317.304 26.1831 317.226 26.143 317.062 26.1124C317.016 26.1353 316.975 26.1602 316.934 26.1851ZM307.309 24.1238C307.278 24.1697 307.341 24.208 307.51 24.2405C307.551 24.2156 307.606 24.1927 307.633 24.1659C307.679 24.1219 307.601 24.0818 307.437 24.0512C307.392 24.0741 307.35 24.099 307.309 24.1238ZM294.197 10.594C294.156 10.6188 294.114 10.6437 294.069 10.6666C294.192 10.7221 294.306 10.7393 294.393 10.7087C294.447 10.6896 294.479 10.6609 294.52 10.636C294.397 10.5806 294.288 10.5653 294.197 10.594ZM281.635 3.41604C281.745 3.42942 281.836 3.40266 281.913 3.33192C281.854 3.31471 281.799 3.29176 281.736 3.28029C281.631 3.26117 281.535 3.29368 281.462 3.36252C281.521 3.38164 281.581 3.39883 281.635 3.41604ZM274.965 2.9667C274.924 2.99156 274.883 3.01642 274.837 3.03936C274.96 3.09481 275.074 3.11202 275.161 3.08142C275.216 3.0623 275.248 3.03362 275.289 3.00876C275.166 2.95331 275.056 2.93993 274.965 2.9667ZM229.731 1.21906C229.69 1.24392 229.649 1.26878 229.603 1.29172C229.726 1.34717 229.84 1.36438 229.927 1.33378C229.982 1.31466 230.014 1.28598 230.055 1.26112C229.932 1.20567 229.822 1.19229 229.731 1.21906ZM4.50009 16.7757C4.44082 16.7585 4.3816 16.7413 4.32688 16.7222C4.19466 16.7738 4.15364 16.8216 4.22659 16.8579C4.27218 16.8809 4.34052 16.8943 4.3998 16.9115C4.53658 16.8599 4.56848 16.814 4.50009 16.7757Z" fill="#FFE492"/>
<path d="M30.9457 10.0244C30.4214 10.0607 29.9016 10.1066 29.3773 10.1295C29.0992 10.141 28.999 10.2232 28.885 10.2997C28.7938 10.3609 28.6889 10.38 28.5202 10.3915C27.0977 10.4852 25.6796 10.5846 24.2617 10.6821C24.0838 10.6573 23.9972 10.6171 24.0382 10.5693C24.061 10.5407 24.1158 10.5005 24.1705 10.4967C25.1416 10.4259 26.1082 10.3533 27.0839 10.2978C27.362 10.2825 27.4396 10.1984 27.5809 10.1295C27.6265 10.1066 27.663 10.0722 27.7223 10.0588C27.7816 10.0435 27.8682 10.0454 27.9457 10.0416C29.5141 9.93261 31.0826 9.82554 32.6511 9.71655C32.8289 9.74141 32.9155 9.78156 32.8745 9.82936C32.8517 9.85804 32.7969 9.89819 32.7422 9.90202C32.1404 9.94217 31.543 9.98233 30.9457 10.0244Z" fill="#FFE492"/>
<path d="M318.034 20.2061C317.797 20.229 317.496 20.2615 317.25 20.1506C317.131 20.0971 317.003 20.0799 316.848 20.0913C316.625 20.1105 316.397 20.1258 316.169 20.1372C316.11 20.1391 316.032 20.1181 315.973 20.1009C315.845 20.0665 315.736 20.0091 315.599 19.9938C315.462 19.9785 315.298 20.0206 315.157 20.011C314.97 19.9976 314.893 19.946 314.943 19.8982C314.97 19.8714 315.025 19.8332 315.084 19.8275C315.928 19.7567 315.932 19.7567 316.169 19.8256C316.351 19.8791 316.52 19.9384 316.78 19.9059C316.999 19.8791 317.231 19.8733 317.455 19.8561C317.765 19.8332 317.765 19.8351 318.266 19.9556C318.394 19.9862 318.531 19.9843 318.695 19.9671C318.836 19.9537 318.973 19.9843 319.087 20.0359C319.014 20.1009 318.909 20.143 318.768 20.1544C318.54 20.1736 318.317 20.1869 318.034 20.2061Z" fill="#FFE492"/>
<path d="M309.638 19.6172C310.212 19.5771 310.791 19.5427 311.366 19.4968C311.603 19.4776 311.79 19.4987 311.954 19.5637C312.132 19.6344 312.332 19.6287 312.551 19.6153C312.688 19.6077 312.82 19.6382 312.912 19.6918C312.948 19.7128 312.939 19.7511 312.953 19.7817C312.451 19.8161 311.945 19.8524 311.439 19.883C311.38 19.8868 311.307 19.8677 311.252 19.8524C311.129 19.8199 311.024 19.7625 310.892 19.7511C310.609 19.7243 310.326 19.7759 310.039 19.7855C309.902 19.7893 309.77 19.7606 309.679 19.709C309.642 19.6841 309.651 19.6478 309.638 19.6172Z" fill="#FFE492"/>
<path d="M102.025 3.17676C102.623 3.13469 103.22 3.09456 103.817 3.05249C103.995 3.07926 104.077 3.11749 104.041 3.1653C104.018 3.19398 103.963 3.23413 103.908 3.23796C102.714 3.324 101.519 3.40621 100.329 3.48843C100.151 3.46166 100.069 3.42342 100.106 3.37562C100.129 3.34694 100.183 3.30678 100.238 3.30296C100.831 3.25898 101.428 3.21882 102.025 3.17676Z" fill="#FFE492"/>
<path d="M9.9882 13.8021C9.71919 13.8059 9.43657 13.8766 9.13564 13.8231C9.07637 13.8135 8.99428 13.7829 8.99884 13.7657C9.00796 13.737 9.06268 13.7007 9.12195 13.6892C9.38184 13.6414 9.70559 13.6357 9.83781 13.5019C9.90164 13.433 10.0202 13.4101 10.1798 13.3967C10.3485 13.3814 10.467 13.3871 10.5992 13.4273C10.7725 13.4789 10.9184 13.5745 11.1919 13.5248C11.2056 13.5554 11.2375 13.5898 11.2238 13.6185C11.2101 13.6472 11.1509 13.674 11.0962 13.695C11.0461 13.7141 10.9776 13.7313 10.9138 13.737C10.6129 13.76 10.3119 13.7791 9.9882 13.8021Z" fill="#FFE492"/>
<path d="M247.117 13.4179C247.34 13.4026 247.573 13.395 247.791 13.3682C247.965 13.3472 248.074 13.3606 248.211 13.4065C248.443 13.4868 248.457 13.4791 249.027 13.4906C249.091 13.4925 249.168 13.5212 249.205 13.546C249.228 13.5594 249.196 13.5958 249.168 13.6149C249.127 13.6397 249.068 13.6722 249.013 13.6722C248.653 13.678 248.288 13.7908 247.937 13.6608C247.76 13.5958 247.563 13.5651 247.322 13.5938C247.176 13.611 247.021 13.6187 246.87 13.6263C246.724 13.634 246.574 13.613 246.483 13.5556C246.351 13.4715 246.428 13.439 246.665 13.4447C246.816 13.4485 246.966 13.4275 247.117 13.4179Z" fill="#FFE492"/>
<path d="M329.751 26.5983C330.038 26.5792 330.325 26.5563 330.617 26.541C330.676 26.5372 330.749 26.5582 330.804 26.5716C331.023 26.6289 330.991 26.7264 331 26.8125C331.004 26.9024 330.498 26.975 330.284 26.9138C330.047 26.845 329.833 26.7666 329.504 26.8087C329.377 26.824 329.226 26.7896 329.144 26.7341C329.021 26.6538 329.089 26.6213 329.322 26.627C329.459 26.6308 329.605 26.6098 329.751 26.5983Z" fill="#FFE492"/>
<path d="M184.999 0.573055C185.296 0.552022 185.592 0.519533 185.888 0.517621C186.061 0.515709 186.148 0.578795 186.107 0.624685C186.084 0.653366 186.03 0.69352 185.975 0.697345C185.382 0.743234 184.789 0.781482 184.197 0.823548C184.023 0.796779 183.937 0.756632 183.978 0.710742C184.001 0.682061 184.055 0.643819 184.11 0.638082C184.406 0.611313 184.703 0.594088 184.999 0.573055Z" fill="#FFE492"/>
<path d="M324.067 20.3743C324.354 20.3551 324.646 20.3264 324.933 20.3169C325.083 20.3131 325.202 20.357 325.22 20.4067C325.229 20.4297 325.156 20.4698 325.097 20.4794C324.687 20.5444 324.244 20.5521 323.816 20.5846C323.679 20.5941 323.533 20.5635 323.451 20.51C323.328 20.4278 323.396 20.3972 323.629 20.4029C323.775 20.4049 323.921 20.3838 324.067 20.3743Z" fill="#FFE492"/>
<path d="M254.648 13.6763C254.794 13.6667 254.944 13.6419 255.086 13.6495C255.236 13.6591 255.332 13.7145 255.377 13.77C255.428 13.8331 255.423 13.8924 255.377 13.9459C255.305 14.0377 255.231 14.0339 255.063 13.9727C254.803 13.8771 254.785 13.8885 254.269 13.8923C254.21 13.8923 254.137 13.8637 254.092 13.8388C254.023 13.8006 254.06 13.7413 254.219 13.7069C254.338 13.682 254.502 13.6858 254.648 13.6763Z" fill="#FFE492"/>
<path d="M313.382 19.7469C313.597 19.7316 313.811 19.7067 314.025 19.7067C314.176 19.7048 314.294 19.7488 314.308 19.7966C314.312 19.8195 314.244 19.8578 314.189 19.8692C313.929 19.9209 313.638 19.9247 313.355 19.9419C313.223 19.9496 313.077 19.919 312.995 19.8654C312.872 19.7851 312.945 19.7488 313.168 19.7602C313.236 19.7641 313.309 19.7526 313.382 19.7469Z" fill="#FFE492"/>
<path d="M279.657 17.4011C279.338 17.424 279.037 17.3953 279.06 17.3456C279.092 17.2806 279.224 17.2385 279.361 17.227C279.58 17.2079 279.799 17.1926 280.022 17.1812C280.163 17.1735 280.291 17.2022 280.405 17.2519C280.337 17.3131 280.232 17.3571 280.095 17.3705C279.954 17.3838 279.803 17.3915 279.657 17.4011Z" fill="#FFE492"/>
<path d="M277.563 17.1564C277.777 17.1411 277.991 17.1163 278.206 17.1163C278.356 17.1144 278.475 17.1583 278.488 17.2061C278.493 17.2291 278.425 17.2673 278.37 17.2788C278.11 17.3304 277.818 17.3342 277.536 17.3515C277.403 17.3591 277.257 17.3285 277.175 17.275C277.052 17.1947 277.125 17.1583 277.349 17.1698C277.417 17.1736 277.49 17.1622 277.563 17.1564Z" fill="#FFE492"/>
<path d="M252.065 13.6608C252.279 13.6455 252.493 13.6206 252.707 13.6187C252.858 13.6168 252.976 13.6608 252.99 13.7086C252.995 13.7315 252.926 13.7679 252.872 13.7813C252.612 13.8329 252.32 13.8367 252.037 13.8539C251.905 13.8616 251.759 13.831 251.677 13.7774C251.554 13.6971 251.627 13.6608 251.85 13.6723C251.919 13.6761 251.992 13.6646 252.065 13.6608Z" fill="#FFE492"/>
<path d="M250.863 13.5483C251.091 13.533 251.164 13.5234 251.237 13.5234C251.374 13.5234 251.515 13.5464 251.598 13.6018C251.721 13.6821 251.648 13.7051 251.424 13.7089C251.137 13.7128 250.854 13.7529 250.567 13.7606C250.417 13.7644 250.298 13.7185 250.289 13.6707C250.284 13.6477 250.353 13.6076 250.407 13.5999C250.599 13.5712 250.809 13.554 250.863 13.5483Z" fill="#FFE492"/>
<path d="M275.707 2.29948C275.561 2.30904 275.406 2.33582 275.269 2.32626C275.087 2.31287 275.014 2.26125 275.06 2.21345C275.087 2.18668 275.137 2.14844 275.192 2.1427C275.484 2.11593 275.78 2.09871 276.072 2.07959C276.245 2.10827 276.323 2.14842 276.277 2.19622C276.25 2.22299 276.199 2.25932 276.145 2.26697C276.003 2.28609 275.853 2.28992 275.707 2.29948Z" fill="#FFE492"/>
<path d="M98.7574 3.40257C98.8988 3.40066 99.0264 3.42551 99.1358 3.47331C99.0674 3.5345 98.9671 3.57465 98.8303 3.59186C98.762 3.59951 98.6845 3.60524 98.6115 3.60715C98.4702 3.61097 98.3425 3.58421 98.233 3.5364C98.3014 3.47522 98.4063 3.43507 98.5385 3.41786C98.6069 3.41021 98.6845 3.4083 98.7574 3.40257Z" fill="#FFE492"/>
<path d="M322.508 20.3669C322.503 20.3115 322.782 20.2484 323.032 20.2503C323.165 20.2522 323.301 20.279 323.379 20.3306C323.497 20.409 323.429 20.4396 323.205 20.4338C323.069 20.43 322.923 20.4625 322.786 20.4568C322.631 20.4549 322.54 20.4128 322.508 20.3669Z" fill="#FFE492"/>
<path d="M255.971 13.9074C255.967 13.8863 255.944 13.8615 255.958 13.8423C256.044 13.7372 256.569 13.7047 256.705 13.7965C256.728 13.8137 256.737 13.8423 256.719 13.8596C256.692 13.8863 256.642 13.9207 256.587 13.9284C256.445 13.9475 256.3 13.9571 256.154 13.959C256.09 13.959 256.031 13.9265 255.971 13.9074Z" fill="#FFE492"/>
<path d="M11.6132 13.4967C11.0752 13.5369 11.0661 13.5331 11.1619 13.4374C11.2485 13.3514 11.4081 13.2998 11.6406 13.2998C11.709 13.2998 11.7819 13.296 11.8412 13.3036C11.905 13.3132 11.9963 13.3323 12.01 13.3552C12.0373 13.3992 11.9597 13.447 11.823 13.4795C11.7637 13.4948 11.6862 13.491 11.6132 13.4967Z" fill="#FFE492"/>
<path d="M105.49 3.13288C105.331 3.16539 105.194 3.15392 105.094 3.09274C104.993 3.03155 105.153 2.95888 105.431 2.94167C105.504 2.93785 105.581 2.92257 105.65 2.93021C105.718 2.93595 105.787 2.95888 105.828 2.98182C105.901 3.02006 105.855 3.0717 105.709 3.11568C105.65 3.13289 105.563 3.12906 105.49 3.13288Z" fill="#FFE492"/>
<path d="M321.557 20.2229C321.598 20.1981 321.639 20.1732 321.684 20.1503C321.853 20.1828 321.926 20.221 321.88 20.265C321.853 20.2918 321.798 20.3147 321.757 20.3396C321.589 20.3071 321.52 20.2669 321.557 20.2229Z" fill="#FFE492"/>
<path d="M18.8352 35.2634C18.8352 35.2405 18.899 35.2042 18.9492 35.1965C19.0449 35.1831 19.1634 35.2099 19.2455 35.2634C19.3595 35.3399 19.2912 35.3801 19.0814 35.359C18.9355 35.3438 18.8352 35.3055 18.8352 35.2634Z" fill="#FFE492"/>
<path d="M257.826 12.1275C257.885 12.1447 257.944 12.1619 257.999 12.181C257.922 12.2518 257.826 12.2823 257.725 12.2632C257.662 12.2518 257.607 12.2288 257.548 12.2116C257.625 12.1408 257.716 12.1141 257.826 12.1275Z" fill="#FFE492"/>
<path d="M256.25 12.0415C256.341 12.0128 256.45 12.0281 256.578 12.0836C256.537 12.1084 256.5 12.1371 256.45 12.1562C256.364 12.1868 256.25 12.1715 256.126 12.1142C256.163 12.0912 256.204 12.0664 256.25 12.0415Z" fill="#FFE492"/>
<path d="M255.041 12.1261C255.1 12.1433 255.16 12.1605 255.214 12.1796C255.137 12.2504 255.046 12.2809 254.941 12.2618C254.877 12.2503 254.822 12.2274 254.763 12.2102C254.84 12.1394 254.932 12.1108 255.041 12.1261Z" fill="#FFE492"/>
<path d="M254.151 12.0244C254.219 12.0626 254.183 12.1085 254.05 12.1601C253.991 12.1429 253.923 12.1295 253.877 12.1066C253.804 12.0703 253.841 12.0225 253.977 11.9708C254.032 11.9899 254.091 12.0072 254.151 12.0244Z" fill="#FFE492"/>
</svg>
