<svg width="319" height="31" viewBox="0 0 319 31" fill="none" xmlns="http://www.w3.org/2000/svg">
<path d="M298.175 16.6048C297.741 16.63 297.302 16.6474 296.876 16.6851C296.599 16.7088 296.481 16.6395 296.296 16.6033C296.235 16.5907 296.169 16.5655 296.112 16.5686C295.681 16.5938 295.251 16.6222 294.821 16.6505C294.689 16.7119 294.606 16.7938 294.404 16.8237C294.206 16.8521 293.973 16.8521 293.754 16.8663C293.464 16.8836 293.174 16.9009 292.885 16.9167C292.74 16.9245 292.621 16.9545 292.573 17.0112C292.564 17.0206 292.661 17.0442 292.713 17.0584C292.889 17.1056 293.06 17.1592 293.253 17.1954C293.438 17.23 293.666 17.1734 293.864 17.2174C294.307 17.3167 294.312 17.3151 294.65 17.2962C294.939 17.2789 295.229 17.26 295.519 17.2474C295.576 17.2442 295.642 17.2678 295.703 17.2804C295.888 17.3151 296.006 17.3938 296.279 17.3639C296.485 17.3403 296.713 17.3356 296.928 17.323C297.108 17.3686 297.275 17.4206 297.468 17.4568C297.648 17.4915 297.701 17.5183 297.605 17.5639C297.517 17.6065 297.394 17.6238 297.231 17.6269C297.086 17.6285 296.942 17.6427 296.797 17.6505C296.722 17.6553 296.652 17.6584 296.581 17.6631C296.305 17.6805 296.305 17.6805 295.8 17.5797C295.602 17.5403 295.378 17.5954 295.19 17.5576C295.062 17.5324 294.953 17.4946 294.83 17.4679C294.777 17.4568 294.694 17.4553 294.628 17.4584C294.408 17.4694 294.189 17.4773 293.978 17.4978C293.829 17.512 293.741 17.5561 293.758 17.6001C293.763 17.6175 293.868 17.6427 293.93 17.6442C294.07 17.6474 294.219 17.6253 294.355 17.6364C294.487 17.6474 294.623 17.6789 294.72 17.7135C294.917 17.786 295.141 17.7214 295.33 17.7403C295.528 17.7608 295.69 17.8238 295.879 17.8616C295.927 17.871 296.019 17.8553 296.094 17.8505C296.309 17.8395 296.524 17.8301 296.74 17.8191C296.92 17.8647 297.113 17.9057 297.275 17.9576C297.569 18.0521 297.886 18.0883 298.268 18.0427C298.483 18.0175 298.693 18.0269 298.865 18.0884C299.04 18.1513 299.242 18.1451 299.466 18.1325C299.673 18.1199 299.883 18.0852 300.094 18.1293C300.551 18.2269 300.555 18.2317 301.095 18.1939C301.257 18.1828 301.38 18.1797 301.503 18.2159C301.617 18.249 301.74 18.2773 301.859 18.3088C302.074 18.2978 302.294 18.2868 302.509 18.2742C302.785 18.2569 302.939 18.2789 303.005 18.3671C303.044 18.4206 303.062 18.4695 303.159 18.5057C303.273 18.5498 303.396 18.5482 303.563 18.5356C303.721 18.5246 303.835 18.5073 303.901 18.4506C303.927 18.427 303.98 18.4049 304.028 18.386C304.067 18.3718 304.129 18.3498 304.164 18.3529C304.23 18.3592 304.318 18.3765 304.34 18.397C304.555 18.5876 304.555 18.5892 304.774 18.6443C305.016 18.7057 305.266 18.7608 305.486 18.8301C305.683 18.8915 305.881 18.8648 306.096 18.8648C306.258 18.8648 306.364 18.9057 306.351 18.9467C306.342 18.9703 306.28 19.0049 306.228 19.0081C305.797 19.0396 305.363 19.0663 304.928 19.0884C304.875 19.0915 304.81 19.0632 304.748 19.049C304.625 19.0207 304.515 18.9766 304.384 18.9671C304.252 18.9577 304.098 18.9813 303.953 18.9892C303.808 18.997 303.655 19.0175 303.523 19.0049C303.391 18.9923 303.286 18.9467 303.163 18.9167C303.106 18.9026 303.027 18.8821 302.979 18.8868C302.658 18.9246 302.421 18.8726 302.193 18.8033C302.144 18.7892 302.061 18.7797 302 18.7829C301.49 18.8096 300.985 18.8411 300.476 18.8711C300.27 18.8837 300.103 18.8285 300.059 18.7356C300.037 18.6836 299.993 18.6317 299.993 18.5797C299.993 18.4852 299.752 18.4332 299.576 18.4443C299.286 18.46 298.992 18.4726 298.707 18.4962C298.474 18.5151 298.276 18.4962 298.118 18.4395C297.934 18.375 297.723 18.3876 297.512 18.4049C297.354 18.4175 297.31 18.4695 297.319 18.6002C297.328 18.7057 297.253 18.7388 296.968 18.7561C296.608 18.7781 296.243 18.8002 295.879 18.8175C295.822 18.8207 295.756 18.7939 295.699 18.7797C295.576 18.7514 295.466 18.7057 295.335 18.6962C295.203 18.6852 295.049 18.7088 294.904 18.7183C294.759 18.7262 294.606 18.7482 294.474 18.7372C294.342 18.7262 294.232 18.6789 294.114 18.649C294.057 18.6348 293.987 18.6144 293.93 18.6175C293.64 18.6301 293.35 18.649 293.06 18.6663C292.735 18.6852 292.735 18.6852 292.274 18.5876C292.064 18.5435 291.853 18.5781 291.646 18.5907C291.427 18.6033 291.221 18.6096 291.049 18.5466C290.935 18.5057 290.808 18.4805 290.672 18.4884C290.307 18.5073 289.947 18.5309 289.583 18.5498C289.521 18.5529 289.438 18.5451 289.39 18.5309C289.157 18.4648 288.929 18.4128 288.604 18.4458C288.323 18.4742 288.02 18.4758 287.739 18.5025C287.585 18.5167 287.515 18.5671 287.546 18.6065C287.563 18.627 287.655 18.6506 287.717 18.6506C287.857 18.6522 288.011 18.6285 288.143 18.638C288.415 18.6569 288.551 18.7892 288.907 18.7529C289.117 18.7309 289.337 18.723 289.557 18.7167C289.614 18.7151 289.675 18.7451 289.736 18.7608C289.912 18.8033 290.066 18.8585 290.32 18.8301C290.531 18.8081 290.755 18.8018 290.97 18.7892C291.313 18.7687 291.313 18.7703 291.756 18.8663C291.967 18.912 292.178 18.8758 292.384 18.8648C292.538 18.8569 292.683 18.8411 292.806 18.8632C292.994 18.8963 293.13 18.9718 293.363 18.9671C293.583 18.9624 293.798 18.9403 294.017 18.9325C294.153 18.9277 294.281 18.953 294.391 18.9955C294.505 19.038 294.628 19.0569 294.777 19.0474C294.992 19.0348 295.212 19.0191 295.431 19.0112C295.493 19.0096 295.563 19.0238 295.62 19.0364C295.743 19.0648 295.861 19.0978 295.98 19.1278C296.195 19.1183 296.415 19.1152 296.625 19.0963C296.788 19.0821 296.902 19.0884 297.034 19.1199C297.201 19.1624 297.337 19.238 297.609 19.2018C297.745 19.1845 297.903 19.1892 298.039 19.1734C298.206 19.153 298.32 19.1608 298.439 19.2081C298.663 19.2978 298.944 19.2994 299.233 19.2648C299.55 19.227 299.787 19.2711 300.024 19.3404C300.274 19.4128 300.274 19.4112 300.467 19.586C300.524 19.6364 300.687 19.6601 300.823 19.6506C301.051 19.6349 301.249 19.6427 301.416 19.7026C301.591 19.7672 301.802 19.7593 302.017 19.742C302.302 19.7183 302.588 19.6979 302.821 19.7892C302.935 19.8333 303.058 19.8443 303.211 19.8333C303.646 19.8049 304.085 19.7876 304.511 19.753C304.77 19.7309 304.919 19.7813 305.095 19.8238C305.332 19.8821 305.591 19.9341 305.591 20.0585C305.591 20.079 305.653 20.1026 305.705 20.1183C305.819 20.1514 305.942 20.1798 306.061 20.2113C306.236 20.2585 306.408 20.2979 306.649 20.2727C306.86 20.2522 307.084 20.2459 307.299 20.2317C307.514 20.2176 307.712 20.2097 307.905 20.2695C308.129 20.3372 308.366 20.4018 308.621 20.4522C308.801 20.4884 309.038 20.427 309.231 20.4758C309.349 20.5058 309.463 20.5404 309.591 20.5656C309.644 20.5766 309.727 20.5688 309.797 20.5656C309.942 20.5593 310.091 20.5546 310.232 20.5388C310.394 20.5215 310.517 20.5247 310.64 20.5609C310.754 20.594 310.869 20.6396 311 20.6491C311.198 20.6632 311.417 20.6003 311.615 20.6727C311.716 20.7089 311.843 20.7436 311.975 20.7546C312.107 20.7656 312.26 20.742 312.401 20.7436C312.462 20.7436 312.537 20.7688 312.572 20.7892C312.594 20.8003 312.563 20.8302 312.533 20.8459C312.493 20.8648 312.436 20.89 312.379 20.8932C311.944 20.9215 311.51 20.9452 311.075 20.9719C310.816 20.9877 310.816 20.9877 310.293 20.8885C310.17 20.8648 310.034 20.8695 309.881 20.8806C309.674 20.8947 309.464 20.9215 309.248 20.8932C308.967 20.7861 308.621 20.7766 308.252 20.8176C308.098 20.8349 307.958 20.8349 307.843 20.805C307.602 20.7451 307.347 20.69 307.132 20.6192C306.965 20.564 306.886 20.5593 306.816 20.6349C306.794 20.6585 306.772 20.6837 306.776 20.7058C306.803 20.7845 306.851 20.8617 306.877 20.9404C306.886 20.9625 306.851 20.9877 306.829 21.0113C306.759 21.0774 306.667 21.0727 306.513 21.0176C306.359 20.9625 306.175 20.9263 305.929 20.9515C305.718 20.9735 305.49 20.9704 305.279 20.994C304.954 21.0286 304.726 20.9782 304.493 20.9105C304.445 20.8963 304.362 20.8885 304.3 20.8916C303.646 20.9278 302.996 20.9688 302.342 21.005C302.202 21.0129 302.074 20.9892 301.964 20.9467C301.85 20.9042 301.723 20.8822 301.582 20.89C301.003 20.9231 300.423 20.953 299.844 20.994C299.607 21.0113 299.418 20.9908 299.255 20.9357C299.132 20.8947 299.018 20.8822 298.865 20.8869C298.698 20.8916 298.579 20.9074 298.496 20.953C298.417 20.9971 298.474 21.0239 298.649 21.0585C298.838 21.0963 299.014 21.1452 299.194 21.1893C299.339 21.183 299.484 21.1703 299.624 21.1719C299.686 21.1719 299.743 21.2003 299.804 21.216C299.98 21.2617 300.142 21.3074 300.393 21.2822C300.603 21.2601 300.827 21.2554 301.042 21.2412C301.341 21.2239 301.341 21.2239 301.824 21.3231C301.947 21.3483 302.078 21.3467 302.237 21.3326C302.373 21.3215 302.513 21.3436 302.61 21.3908C302.649 21.4097 302.636 21.4412 302.553 21.5452C302.553 21.6223 302.645 21.5877 302.676 21.5373C302.724 21.4649 302.632 21.4412 302.456 21.4806C302.333 21.509 302.272 21.5499 302.302 21.583C302.32 21.6003 302.403 21.6223 302.553 21.5452C302.939 21.4507 303.233 21.4397 303.514 21.4145C303.681 21.4003 303.786 21.4066 303.918 21.4475C304.076 21.4963 304.234 21.5483 304.493 21.5231C304.774 21.4948 305.073 21.4916 305.358 21.468C305.622 21.4459 305.758 21.5152 305.925 21.5562C306.127 21.605 306.351 21.5499 306.535 21.5782C306.728 21.6066 306.864 21.6759 307.088 21.6885C307.413 21.646 307.619 21.7247 307.865 21.7767C308.059 21.816 308.287 21.7814 308.493 21.7641C308.726 21.7452 308.919 21.7625 309.082 21.8192C309.266 21.8838 309.472 21.8696 309.683 21.8554C310.175 21.8239 310.192 21.8192 310.478 21.9058C310.684 21.9688 310.882 21.9405 311.088 21.9326C311.268 21.9751 311.444 22.0208 311.633 22.0586C311.681 22.068 311.773 22.0523 311.848 22.0475C312.063 22.0349 312.282 22.0224 312.497 22.0098C312.642 22.0019 312.796 21.9783 312.928 21.9877C313.059 21.9987 313.169 22.0444 313.288 22.0743C313.406 22.1043 313.529 22.1342 313.643 22.1657C313.819 22.2129 313.986 22.2523 314.232 22.2287C314.442 22.2082 314.662 22.2019 314.882 22.1877C315.158 22.1704 315.149 22.1751 315.663 22.2696C315.94 22.3216 316.225 22.2586 316.506 22.2523C316.647 22.2491 316.783 22.2665 316.879 22.3121C316.919 22.331 316.906 22.3625 316.919 22.3893C316.194 22.4318 315.465 22.468 314.75 22.52C314.473 22.5405 314.328 22.4838 314.179 22.4365C313.933 22.3609 313.608 22.4712 313.376 22.3735C313.235 22.3153 313.033 22.2822 312.792 22.3106C312.651 22.3263 312.502 22.3247 312.357 22.3389C311.988 22.3735 311.65 22.3751 311.356 22.2665C311.255 22.2287 311.11 22.2082 311.005 22.172C310.882 22.1326 310.763 22.1105 310.618 22.1184C309.964 22.1562 309.314 22.194 308.664 22.2349C308.607 22.2381 308.55 22.2617 308.502 22.279C308.379 22.3231 308.419 22.3578 308.616 22.3861C308.682 22.3956 308.735 22.4161 308.796 22.4318C308.915 22.4617 309.024 22.509 309.156 22.52C309.288 22.531 309.442 22.509 309.587 22.5011C309.731 22.4932 309.885 22.4696 310.017 22.4791C310.149 22.4901 310.258 22.5358 310.381 22.5641C310.438 22.5783 310.509 22.6019 310.566 22.6003C310.855 22.5909 311.141 22.5736 311.431 22.5594C311.611 22.6019 311.764 22.6633 311.979 22.6775C312.115 22.6869 312.26 22.6696 312.401 22.6728C312.462 22.6743 312.541 22.698 312.572 22.7184C312.59 22.731 312.533 22.7625 312.489 22.7783C312.322 22.8381 312.094 22.8271 311.887 22.846C311.663 22.8665 311.461 22.8602 311.29 22.7988C311.176 22.7578 311.048 22.7358 310.908 22.7436C310.544 22.7641 310.184 22.7877 309.819 22.8051C309.758 22.8082 309.683 22.794 309.626 22.783C309.165 22.6869 309.165 22.6838 308.84 22.7043C308.361 22.7342 308.362 22.7342 308.041 22.6507C307.98 22.635 307.914 22.6051 307.861 22.6066C307.352 22.6318 306.847 22.657 306.342 22.6932C306.175 22.7043 306.061 22.7043 305.938 22.6633C305.833 22.6287 305.71 22.5893 305.578 22.5799C305.442 22.5704 305.292 22.594 305.148 22.6019C305.003 22.6098 304.849 22.6302 304.722 22.6176C304.59 22.605 304.476 22.561 304.362 22.5295C304.243 22.4964 304.116 22.4979 303.953 22.5105C303.453 22.5468 303.448 22.5421 302.952 22.4444C302.895 22.4334 302.821 22.4208 302.759 22.4239C302.395 22.4428 302.035 22.4665 301.67 22.4854C301.53 22.4932 301.394 22.4728 301.297 22.4271C301.257 22.4082 301.271 22.3767 301.244 22.3153C301.214 22.3011 301.249 22.3263 301.257 22.3499C301.323 22.3468 301.402 22.3499 301.451 22.3373C301.574 22.3074 301.635 22.268 301.604 22.2349C301.587 22.2176 301.503 22.1956 301.451 22.1956C301.354 22.1956 301.271 22.2302 301.244 22.3153C300.968 22.3672 300.673 22.3783 300.388 22.4035C300.221 22.4192 300.116 22.4113 299.984 22.3704C299.826 22.32 299.664 22.2712 299.405 22.2964C299.124 22.3247 298.825 22.3295 298.535 22.3515C298.202 22.3767 298.057 22.235 297.776 22.2381C297.486 22.2413 297.196 22.268 296.906 22.2869C296.652 22.3027 296.652 22.3027 296.125 22.2003C295.932 22.1625 295.703 22.2176 295.515 22.1783C295.387 22.1531 295.277 22.1153 295.155 22.0885C295.102 22.0775 295.018 22.0775 294.953 22.0806C294.588 22.0995 294.219 22.1121 293.868 22.1468C293.469 22.1877 293.166 22.1436 292.88 22.0507C292.52 22.068 292.156 22.0775 291.8 22.1074C291.541 22.1294 291.392 22.0775 291.216 22.035C291.155 22.0208 291.102 21.9972 291.036 21.9909C290.97 21.9846 290.891 21.9971 290.821 22.0019C290.531 22.0192 290.233 22.0271 289.952 22.0554C289.605 22.0917 289.473 21.9625 289.205 21.9468C289.025 22.0239 288.929 22.1294 288.573 22.1373C288.283 22.1436 287.993 22.1688 287.704 22.1861C287.559 22.194 287.414 22.2035 287.269 22.2113C287.036 22.2255 286.927 22.2869 286.975 22.3814C287.001 22.4334 287.023 22.4854 287.045 22.5373C287.089 22.6302 286.979 22.709 286.795 22.72C286.285 22.7499 285.781 22.7814 285.271 22.8082C285.135 22.8161 285.003 22.7893 284.894 22.7468C284.779 22.7043 284.652 22.6854 284.512 22.6932C284.002 22.7232 283.497 22.7547 282.988 22.7814C282.931 22.7846 282.856 22.7688 282.799 22.7562C282.676 22.7279 282.558 22.6948 282.439 22.6649C282.15 22.6791 281.864 22.6885 281.579 22.7074C281.118 22.7358 281.118 22.7373 280.78 22.6507C280.718 22.635 280.657 22.6051 280.6 22.6066C280.38 22.6129 280.165 22.6287 279.945 22.6429C279.3 22.6838 279.3 22.6838 279.111 22.6365C278.94 22.5924 278.786 22.5389 278.527 22.5641C278.246 22.5925 277.948 22.6019 277.658 22.6176C277.443 22.6287 277.228 22.6413 277.012 22.6444C276.955 22.646 276.894 22.6161 276.833 22.6003C276.657 22.5515 276.486 22.5121 276.244 22.5389C276.104 22.5547 275.954 22.5578 275.809 22.5657C275.432 22.5877 275.432 22.5877 274.813 22.4932C274.751 22.4838 274.677 22.4728 274.615 22.4775C274.106 22.5058 273.601 22.5373 273.092 22.5641C273.03 22.5673 272.956 22.5578 272.894 22.5499C272.2 22.4586 272.2 22.4586 271.463 22.5027C271.182 22.5184 271.173 22.5247 270.879 22.4413C270.747 22.405 270.637 22.3877 270.484 22.3987C269.904 22.4365 269.32 22.4617 268.745 22.5058C268.486 22.5247 268.337 22.4775 268.161 22.435C268.1 22.4208 268.034 22.3893 267.981 22.3909C267.402 22.4208 266.822 22.457 266.242 22.4869C266.19 22.4901 266.124 22.4586 266.062 22.4444C265.944 22.4161 265.83 22.3735 265.698 22.3641C265.562 22.3546 265.412 22.3783 265.263 22.3861C264.899 22.4066 264.899 22.4051 264.477 22.3121C264.42 22.2995 264.346 22.2822 264.289 22.2854C263.709 22.3169 263.125 22.3436 262.55 22.3893C262.221 22.4145 261.997 22.3688 261.764 22.3027C261.716 22.2885 261.632 22.2822 261.571 22.2854C260.917 22.3216 260.267 22.3625 259.613 22.3987C259.476 22.4066 259.345 22.3798 259.235 22.3389C259.059 22.2743 258.853 22.2822 258.633 22.2964C258.129 22.3294 258.124 22.3279 257.826 22.2523C257.764 22.2365 257.711 22.2161 257.646 22.2082C257.584 22.2003 257.505 22.205 257.439 22.2082C257.149 22.2239 256.86 22.2413 256.57 22.2586C256.28 22.2759 255.986 22.2854 255.7 22.3121C255.349 22.3452 255.182 22.2428 254.936 22.1956C254.576 22.216 254.208 22.2287 253.852 22.2617C253.58 22.2869 253.453 22.2176 253.273 22.1814C253.211 22.1688 253.145 22.142 253.088 22.1452C252.434 22.1798 251.78 22.2176 251.13 22.2602C250.972 22.2696 250.866 22.257 250.735 22.2192C250.441 22.1342 250.427 22.1373 249.936 22.1688C249.72 22.183 249.514 22.1956 249.33 22.131C249.167 22.0728 248.97 22.0586 248.737 22.0775C248.452 22.1011 248.157 22.1137 247.868 22.1294C247.578 22.1468 247.288 22.1704 246.998 22.1783C246.766 22.1861 246.625 22.1121 246.441 22.0743C246.384 22.0633 246.305 22.0617 246.239 22.0649C245.949 22.079 245.65 22.0901 245.369 22.1168C245.027 22.1499 244.838 22.0633 244.597 22.0129C244.544 22.0019 244.456 22.0082 244.39 22.0129C243.881 22.0413 243.376 22.0727 242.867 22.1027C242.687 22.0601 242.502 22.0192 242.322 21.9767C242.032 21.9924 241.743 22.0097 241.453 22.0255C241.233 22.0381 241.009 22.0428 240.803 22.0664C240.535 22.0979 240.404 22.0239 240.224 21.9877C240.162 21.9751 240.096 21.9483 240.039 21.9515C239.675 21.9688 239.31 21.9877 238.95 22.0145C238.608 22.0413 238.472 21.8995 238.191 21.9011C237.901 21.9027 237.602 21.9231 237.321 21.9515C236.996 21.9846 236.768 21.9342 236.535 21.8664C236.487 21.8523 236.404 21.8444 236.342 21.8475C235.978 21.8664 235.618 21.8901 235.253 21.909C235.192 21.9121 235.117 21.9042 235.056 21.8948C234.362 21.8019 234.362 21.8003 234.059 21.8192C233.844 21.8318 233.625 21.8475 233.405 21.8554C233.344 21.8586 233.269 21.8444 233.212 21.8318C232.755 21.7357 232.755 21.7342 232.426 21.7531C232.136 21.7704 231.846 21.7877 231.556 21.805C231.376 21.7625 231.192 21.7216 231.012 21.679C230.652 21.6995 230.283 21.7152 229.928 21.7436C229.761 21.7562 229.651 21.7515 229.524 21.7121C229.366 21.6649 229.208 21.6097 228.944 21.6365C228.663 21.6649 228.365 21.668 228.079 21.6916C227.737 21.72 227.596 21.5767 227.32 21.5782C227.03 21.5798 226.731 21.6003 226.45 21.6286C226.125 21.6617 225.897 21.6113 225.664 21.5436C225.616 21.5294 225.533 21.5216 225.471 21.5247C224.672 21.5704 223.877 21.616 223.078 21.6648C222.587 21.6948 222.587 21.6964 221.651 21.6097C221.585 21.6034 221.515 21.5971 221.449 21.6003C221.159 21.6145 220.861 21.6255 220.58 21.6523C220.237 21.6853 220.049 21.6003 219.807 21.5483C219.754 21.5373 219.671 21.5436 219.601 21.5467C219.381 21.5578 219.166 21.572 218.947 21.5845C218.657 21.6019 218.367 21.6192 218.077 21.6365C217.897 21.5956 217.713 21.553 217.533 21.5121C217.173 21.5326 216.804 21.5436 216.448 21.5767C216.176 21.6019 216.049 21.5357 215.869 21.4979C215.807 21.4853 215.742 21.4586 215.684 21.4601C215.03 21.4948 214.376 21.531 213.726 21.5751C213.458 21.594 213.335 21.5231 213.155 21.4869C213.094 21.4759 213.024 21.4554 212.967 21.4586C212.532 21.4806 212.097 21.5074 211.663 21.5341C211.417 21.5499 211.417 21.5499 210.881 21.4522C210.82 21.4412 210.749 21.4302 210.688 21.4334C209.309 21.5121 207.935 21.5956 206.556 21.6743C206.416 21.6822 206.289 21.6586 206.179 21.616C206.065 21.5735 205.937 21.5515 205.797 21.5593C205.217 21.5924 204.633 21.6223 204.058 21.6633C203.821 21.6806 203.632 21.6601 203.47 21.605C203.347 21.5641 203.233 21.5483 203.079 21.5578C202.789 21.5767 202.499 21.5924 202.21 21.6097C201.92 21.6271 201.63 21.6444 201.34 21.6617C201.051 21.679 200.756 21.6885 200.471 21.7153C200.12 21.7483 199.949 21.6507 199.707 21.6019C199.272 21.6255 198.838 21.6491 198.407 21.6743C197.828 21.7074 197.248 21.7436 196.669 21.7751C196.616 21.7783 196.55 21.7499 196.489 21.7357C196.309 21.6964 196.177 21.6412 195.909 21.6586C194.609 21.742 193.301 21.8129 191.997 21.8948C191.725 21.9121 191.606 21.8444 191.422 21.8082C191.36 21.7971 191.29 21.7751 191.233 21.7783C190.509 21.8176 189.784 21.8617 189.06 21.9042C188.766 21.9216 188.766 21.9216 188.274 21.8239C188.217 21.8129 188.142 21.7987 188.081 21.8019C187.137 21.8554 186.197 21.9121 185.253 21.9672C185.113 21.9751 184.985 21.9531 184.871 21.9105C184.761 21.868 184.63 21.8444 184.494 21.8523C183.624 21.9027 182.75 21.9515 181.886 22.0066C181.653 22.0223 181.46 22.0082 181.293 21.9515C181.174 21.9105 181.056 21.8932 180.906 21.9027C179.602 21.9798 178.298 22.0539 176.994 22.1358C176.744 22.1515 176.569 22.1216 176.41 22.0696C176.283 22.0287 176.173 22.0208 176.015 22.0271C175.848 22.0349 175.747 22.0523 175.655 22.0995C175.537 22.1609 175.462 22.2381 175.181 22.2428C174.891 22.2476 174.597 22.2665 174.312 22.2932C174.039 22.32 173.912 22.2491 173.741 22.2066C173.614 22.1767 173.495 22.172 173.333 22.1861C173.183 22.1987 173.091 22.2255 173.003 22.2759C172.81 22.383 172.793 22.383 172.555 22.3153C172.428 22.279 172.314 22.2507 172.173 22.257C171.594 22.2885 171.014 22.3231 170.435 22.3594C170.101 22.3798 170.097 22.383 169.846 22.3043C169.724 22.2649 169.605 22.246 169.46 22.2554C167.866 22.3499 166.273 22.4413 164.679 22.5405C164.433 22.5562 164.266 22.5232 164.09 22.4759C164.033 22.4602 163.976 22.4381 163.91 22.4318C163.845 22.4255 163.77 22.4318 163.7 22.435C162.541 22.5027 161.377 22.5673 160.222 22.6429C159.959 22.6602 159.818 22.6098 159.638 22.5688C159.577 22.5547 159.524 22.5326 159.458 22.5263C159.392 22.5216 159.313 22.5326 159.243 22.5373C158.084 22.605 156.921 22.6696 155.766 22.7452C155.489 22.7625 155.371 22.6964 155.191 22.6617C155.129 22.6491 155.063 22.6255 155.006 22.6287C154.642 22.646 154.282 22.6696 153.917 22.6901C153.048 22.7421 152.179 22.7909 151.309 22.8444C150.976 22.8649 150.831 22.7247 150.55 22.731C150.185 22.7389 149.825 22.7704 149.461 22.7925C149.171 22.8098 148.881 22.8255 148.591 22.8444C148.306 22.8618 148.306 22.8617 147.595 22.7704C147.533 22.7625 147.459 22.7515 147.397 22.7547C146.383 22.8129 145.364 22.8712 144.355 22.9342C144.122 22.9484 143.929 22.9405 143.762 22.8822C143.643 22.8413 143.52 22.8208 143.375 22.8302C141.852 22.92 140.333 23.0098 138.809 23.098C138.752 23.1011 138.677 23.0854 138.62 23.0728C138.497 23.0444 138.379 23.0114 138.26 22.9814C138.173 23.0177 138.058 23.0507 138.001 23.0917C137.922 23.1468 137.817 23.1626 137.65 23.172C137.483 23.1814 137.378 23.1783 137.246 23.1374C137.088 23.087 136.926 23.0476 136.667 23.0633C135.073 23.1625 133.479 23.2523 131.885 23.35C131.622 23.3657 131.499 23.2964 131.314 23.2602C131.253 23.2492 131.183 23.2318 131.126 23.235C130.471 23.2712 129.822 23.3106 129.167 23.3484C127.354 23.4555 125.541 23.5578 123.732 23.6712C123.403 23.6917 123.179 23.6523 122.946 23.5846C122.898 23.5704 122.814 23.5626 122.753 23.5657C120.215 23.7138 117.677 23.8634 115.144 24.013C115.008 24.0208 114.876 23.9956 114.766 23.9547C114.652 23.9122 114.525 23.8917 114.384 23.8996C113.225 23.9673 112.066 24.035 110.907 24.1043C110.617 24.1216 110.613 24.1232 110.314 24.0476C110.253 24.0319 110.187 24.002 110.139 24.0051C110.038 24.013 109.941 24.0523 109.871 24.1059C109.8 24.1626 109.691 24.1783 109.528 24.1894C109.361 24.2004 109.252 24.1957 109.124 24.1579C108.962 24.1106 108.813 24.0649 108.549 24.0807C105.217 24.2823 101.884 24.476 98.5517 24.676C98.2838 24.6917 98.1609 24.6256 97.9765 24.5894C97.915 24.5783 97.8536 24.5626 97.7877 24.5594C97.7175 24.5563 97.6428 24.5658 97.5726 24.5705C92.137 24.8902 86.7015 25.2114 81.2659 25.5311C80.941 25.55 80.9454 25.55 80.5897 25.6949C80.5458 25.7123 80.4887 25.7359 80.4272 25.739C78.7632 25.8398 77.0948 25.9374 75.4264 26.0351C74.7019 26.0776 73.9775 26.1217 73.253 26.1627C72.994 26.1768 72.994 26.1768 72.3749 26.3469C72.3222 26.3611 72.2607 26.38 72.1992 26.3831C69.3014 26.5548 66.4036 26.7265 63.5014 26.895C63.2731 26.9076 63.0887 26.9359 62.9833 27.0115C62.9087 27.0651 62.8121 27.0965 62.6672 27.106C60.6387 27.2257 58.6103 27.347 56.5775 27.4635C56.336 27.4777 56.191 27.5218 56.0725 27.5879C56.033 27.61 55.9978 27.6351 55.9408 27.6509C55.8881 27.6651 55.8091 27.6698 55.7432 27.6745C54.0045 27.7769 52.2659 27.8824 50.5228 27.98C50.2638 27.9942 50.1583 28.0525 50.031 28.1139C49.9871 28.1344 49.9563 28.1627 49.8993 28.1769C49.8422 28.1895 49.7588 28.1895 49.6885 28.1927C48.2396 28.2777 46.7908 28.3643 45.3419 28.4494C45.0609 28.4415 44.9994 28.5328 44.8632 28.5879C44.815 28.6068 44.7799 28.632 44.7228 28.6446C44.6614 28.6572 44.5822 28.6557 44.5076 28.6588C43.3485 28.7265 42.1894 28.799 41.0259 28.862C40.758 28.8761 40.7053 28.9565 40.5604 29.0116C40.5121 29.0289 40.4639 29.0557 40.4068 29.0604C39.6824 29.1061 38.9579 29.1486 38.2335 29.1895C37.992 29.2037 37.992 29.2021 37.5661 29.3581C37.5178 29.3754 37.4607 29.3943 37.3992 29.399C36.3147 29.4651 35.2259 29.5281 34.137 29.5927C33.9965 29.6006 33.8999 29.6384 33.8297 29.6919C33.7594 29.7455 33.6585 29.7801 33.518 29.788C32.6486 29.84 31.7792 29.8935 30.9099 29.9407C30.6684 29.9533 30.5104 29.9927 30.405 30.0636C30.326 30.1171 30.2294 30.1439 30.0757 30.1533C29.2064 30.2037 28.337 30.2589 27.4633 30.303C27.2086 30.3156 27.0769 30.3691 26.9715 30.4352C26.8881 30.4888 26.7915 30.5077 26.629 30.5171C25.0352 30.6085 23.4371 30.6998 21.8477 30.8006C21.5799 30.8179 21.4437 30.7628 21.2681 30.7234C21.0178 30.6683 20.7852 30.6085 20.7852 30.4856C20.7852 30.4667 20.7105 30.4447 20.6579 30.4289C20.2671 30.3108 20.2671 30.3108 20.2056 30.1849C20.1705 30.1077 20.131 30.0289 20.1002 29.9502C20.0432 29.8211 19.9026 29.788 19.4987 29.8116C19.3538 29.8195 19.2089 29.8305 19.064 29.8368C18.8489 29.8478 18.6864 29.7959 18.6469 29.7014C18.625 29.6494 18.5987 29.5974 18.5767 29.5454C18.7962 29.5329 18.7918 29.5313 19.1782 29.3407C19.3406 29.2604 19.3407 29.2604 19.029 29.1801C18.9104 29.1502 18.7962 29.1171 18.6689 29.0887C18.6118 29.0761 18.5372 29.0683 18.4757 29.0714C18.1113 29.0903 17.7513 29.1124 17.3913 29.1344C16.8117 29.1691 16.8116 29.1691 16.2233 29.0084C16.175 28.9958 16.1004 28.9722 16.1091 28.9596C16.1574 28.9013 16.276 28.8761 16.4252 28.8698C16.6448 28.8604 16.8599 28.8446 17.075 28.832C17.2199 28.8242 17.3648 28.8147 17.5097 28.8069C17.6458 28.747 17.7864 28.6887 17.9137 28.6273C18.1157 28.5328 18.1156 28.5297 17.839 28.4635C17.6634 28.4194 17.4746 28.38 17.2946 28.3391C17.0794 28.3517 16.8599 28.3659 16.6448 28.3769C16.3726 28.3911 16.2628 28.3611 16.1925 28.2588C16.1311 28.169 16.2057 28.0919 16.4165 28.073C16.6316 28.0541 16.8336 28.0415 16.9434 27.9612C17.0488 27.884 17.2332 27.854 17.4615 27.8477C17.6064 27.843 17.7513 27.832 17.8961 27.8226C18.0849 27.81 18.186 27.7296 18.1464 27.6399C18.1245 27.5816 18.0806 27.5328 17.9093 27.5202C17.1497 27.4651 17.1409 27.4666 16.7633 27.3595C16.7282 27.3501 16.7019 27.3218 16.7151 27.3076C16.737 27.284 16.7854 27.2493 16.838 27.2446C17.343 27.2099 17.8479 27.1784 18.3528 27.1548C18.5196 27.147 18.6426 27.1359 18.6997 27.0776C18.7787 26.9973 18.7436 26.9233 18.5899 26.8682C18.5416 26.8509 18.4625 26.8288 18.4098 26.8304C17.8302 26.8587 17.2551 26.895 16.6755 26.9233C16.6229 26.9265 16.5263 26.8997 16.5044 26.8792C16.4604 26.8414 16.5263 26.791 16.6799 26.7737C16.8819 26.7501 17.0883 26.7485 17.2244 26.6698C17.4132 26.5579 17.6458 26.4556 17.8566 26.3485C17.8917 26.3296 17.9489 26.2934 17.9357 26.2902C17.8259 26.2556 17.6986 26.2288 17.5844 26.1957C17.3912 26.1406 17.3912 26.0634 17.4351 25.9894C17.4702 25.9296 17.6019 25.906 17.7644 25.906C17.8347 25.906 17.9225 25.906 17.9795 25.8918C18.1288 25.8571 18.1771 25.813 18.1025 25.78C18.0586 25.7611 17.9796 25.7343 17.9269 25.7375C16.9873 25.7894 16.0433 25.8398 15.1081 25.9044C14.8315 25.9233 14.7042 25.8634 14.5374 25.8209C14.41 25.7878 14.2914 25.7752 14.1334 25.7989C13.9841 25.8209 13.8392 25.8083 13.747 25.7563C13.6724 25.7138 13.8041 25.6776 14.1597 25.6367C14.2256 25.6288 14.3002 25.6241 14.3485 25.6083C14.8578 25.4382 14.8578 25.4366 15.209 25.4146C15.5515 25.3941 15.5516 25.3926 15.7316 25.3012C15.815 25.2587 15.9072 25.2162 15.9862 25.1721C16.0169 25.1547 16.0697 25.1232 16.0521 25.1138C15.9555 25.065 15.8237 25.054 15.6701 25.065C15.3276 25.0918 14.9237 25.0697 14.7437 25.2193C14.6735 25.276 14.5637 25.2918 14.4056 25.3012C12.8162 25.3926 11.2268 25.4902 9.63298 25.5784C9.37393 25.5926 9.25545 25.6508 9.15447 25.7154C9.06666 25.7689 8.97004 25.7847 8.8032 25.7941C8.63636 25.8036 8.50457 25.8083 8.40798 25.7563C8.3509 25.7249 8.39921 25.6808 8.53093 25.6367C8.71973 25.5737 8.68458 25.4949 8.62312 25.4209C8.57921 25.3721 8.44311 25.3374 8.29821 25.3406C8.08307 25.3469 7.87677 25.3642 7.69676 25.3012C7.59138 25.265 7.45964 25.2398 7.34109 25.2083C7.11278 25.1437 6.88446 25.0776 6.56394 25.1201C6.34441 25.1044 6.19074 25.0477 6.01512 25.0036C5.72095 24.9311 5.6946 24.9201 5.90535 24.8429C6.14245 24.7563 5.95801 24.6429 6.08972 24.5579C6.23022 24.4665 6.42347 24.3862 6.59471 24.3012C6.63861 24.2791 6.67815 24.2587 6.72205 24.2366C6.62107 24.2051 6.52888 24.1657 6.41034 24.1437C6.25667 24.1153 6.17763 24.0807 6.18641 23.9831C6.15568 23.9689 6.16876 24.0051 6.20388 24.0145C6.2434 24.024 6.34007 24.0161 6.38836 24.0051C6.5113 23.9752 6.5727 23.9358 6.54197 23.9027C6.52441 23.8854 6.44105 23.8634 6.38836 23.8634C6.29177 23.8634 6.20836 23.898 6.18202 23.9831C5.69027 24.0476 5.18088 24.0791 4.67156 24.1043C4.61888 24.1075 4.55306 24.076 4.49159 24.0602C4.28962 24.0067 4.28959 24.0082 3.69686 23.9925C3.63539 23.9909 3.55201 23.9689 3.52128 23.9468C3.39395 23.8508 3.39838 23.7452 3.33691 23.6429C3.45106 23.5767 3.56513 23.5122 3.68368 23.4476C3.92077 23.3169 4.22818 23.2019 4.41259 23.0586C4.37307 22.9814 4.32038 22.9043 4.51356 22.8413C5.06239 22.7625 5.05803 22.7625 5.20731 22.687C5.6332 22.4728 6.05468 22.257 6.49813 22.046C6.61667 21.9909 6.61669 21.9609 6.40594 21.9373C6.34008 21.931 6.26974 21.9294 6.19949 21.9326C5.97996 21.9436 5.76043 21.972 5.54529 21.9657C5.33015 21.9609 5.17209 21.8916 4.99647 21.8491C4.81645 21.805 4.63644 21.7594 4.45643 21.7137C4.25007 21.7184 4.04375 21.7625 3.83739 21.6916C3.67933 21.6365 3.48176 21.5971 3.30175 21.5515C3.43786 21.4318 3.69255 21.3404 3.89013 21.2349C4.07014 21.1388 4.07444 21.1404 4.5574 21.0664C4.78572 21.0318 4.86475 20.8538 4.67156 20.8018C4.43886 20.7388 4.19304 20.6806 3.95595 20.6207C3.74959 20.6254 3.53888 20.668 3.3413 20.5971C3.18763 20.5436 3.01197 20.5073 2.75732 20.5278C2.32704 20.5625 1.88799 20.5798 1.45332 20.6081C1.30404 20.6176 1.14154 20.6113 1.07568 20.5577C1.03177 20.5199 1.15911 20.468 1.304 20.4569C1.52353 20.4412 1.72109 20.4223 1.83085 20.3436C1.93623 20.2648 2.12939 20.2412 2.3577 20.2302C2.41917 20.227 2.48947 20.2081 2.52021 20.1892C2.67827 20.0979 2.85391 20.0191 3.19198 20.0223C3.33248 19.9908 3.40708 19.9514 3.36317 19.9136C3.33683 19.8931 3.24467 19.8664 3.19198 19.8695C2.82756 19.8853 2.46316 19.901 2.10752 19.9294C1.94067 19.942 1.81328 19.9451 1.7079 19.8979C1.63326 19.8664 1.67277 19.8238 1.81327 19.7782C1.93621 19.7388 1.97137 19.6931 1.96259 19.6396C1.94064 19.5152 1.80889 19.479 1.38739 19.4868C1.08444 19.4931 1.0098 19.4726 0.943939 19.3656C0.926376 19.3404 0.882547 19.3057 0.913282 19.2884C1.10208 19.1813 1.22502 19.049 1.58066 18.9986C1.72116 18.9797 1.87038 18.9797 1.9582 18.9388C2.04601 18.8978 2.12508 18.8506 2.21728 18.8112C2.33144 18.764 2.41039 18.7199 2.3577 18.69C2.26989 18.6364 2.12944 18.6317 1.96699 18.6506C1.82649 18.6663 1.67721 18.6679 1.53232 18.6773C1.27327 18.6947 1.06257 18.6537 1.03184 18.5844C0.948415 18.4018 0.860577 18.2206 0.785937 18.038C0.777156 18.0159 0.799049 17.9876 0.834174 17.9687C0.957111 17.9025 1.08888 17.8395 1.21621 17.775C1.36549 17.7009 1.60262 17.7151 1.80459 17.7009C2.08998 17.6805 2.08988 17.682 2.47186 17.5308C2.62114 17.471 2.8802 17.4946 3.03387 17.4411C3.08217 17.4238 3.15681 17.3954 3.14364 17.3797C3.12608 17.3592 3.03831 17.3434 2.97245 17.334C2.91098 17.3245 2.83636 17.3198 2.7705 17.3245C1.97141 17.3702 1.17673 17.419 0.37764 17.4631C0.241531 17.471 0.0922457 17.4364 0.043949 17.3875C-0.00434774 17.3419 0.00878122 17.2867 0 17.2348C0.127328 17.1702 0.272162 17.1104 0.381928 17.0411C0.465349 16.9875 0.56196 16.9639 0.728803 16.9607C0.948334 16.956 1.1635 16.9371 1.40937 16.923C1.86599 16.693 2.31381 16.4521 2.80555 16.2221C3.00313 16.1292 2.95491 16.0347 2.99443 15.9355C3.03394 15.8442 3.3281 15.8584 3.52567 15.8316C3.68374 15.8095 3.73636 15.7591 3.67489 15.7245C3.63976 15.704 3.56077 15.6804 3.49931 15.6804C3.35442 15.6804 3.20953 15.6946 3.06464 15.7024C2.91975 15.7103 2.75291 15.7056 2.63437 15.7324C2.52021 15.7576 2.44553 15.8111 2.37089 15.8568C2.28747 15.9072 2.17778 15.9245 2.01093 15.9276C1.79579 15.9308 1.58067 15.945 1.36553 15.956C1.12843 15.8946 0.882509 15.8347 0.654197 15.7702C0.610291 15.7576 0.601462 15.7213 0.605853 15.6977C0.614634 15.6363 0.548792 15.5985 0.403902 15.5686C0.280965 15.5434 0.179972 15.5072 0.0658163 15.4757C0.153629 15.4331 0.250256 15.3922 0.320506 15.3465C0.474178 15.2505 0.667386 15.1812 1.00107 15.1843C1.13279 15.1229 1.23814 15.0473 1.40937 15.0048C1.57182 14.9638 1.84844 15.0048 1.97138 14.9119C2.03285 14.8662 2.1251 14.8142 2.24365 14.7953C2.43245 14.7654 2.67832 14.7812 2.78808 14.693C2.85394 14.6426 2.9505 14.5969 3.07782 14.5843C3.22271 14.5701 3.37196 14.567 3.47733 14.5371C3.53441 14.5213 3.59589 14.4961 3.59589 14.4741C3.59589 14.4599 3.50814 14.4378 3.44667 14.4284C3.3896 14.4174 3.31487 14.4095 3.24901 14.4126C3.02948 14.4221 2.81434 14.4394 2.59481 14.4489C2.53334 14.452 2.46312 14.441 2.39726 14.4315C2.20407 14.4063 2.21722 14.3748 2.37089 14.3181C2.52456 14.263 2.63438 14.1921 2.76171 14.1276C2.90221 14.1166 3.07781 14.1213 3.1744 14.0914C3.33686 14.0425 3.45098 13.9717 3.5827 13.9102C3.72759 13.9008 3.87686 13.8977 4.01297 13.8803C4.07005 13.874 4.09642 13.8394 4.14471 13.8189C4.23252 13.7795 4.30723 13.7228 4.42577 13.7039C4.61896 13.6756 4.85605 13.6866 4.9702 13.6C5.03606 13.5496 5.13701 13.4961 5.25995 13.4929C5.60241 13.4866 5.74731 13.4 5.92293 13.3181C6.05465 13.2567 6.33566 13.2882 6.48055 13.2268C6.57714 13.1874 6.64743 13.1386 6.74403 13.1008C6.78354 13.085 6.86694 13.0772 6.93279 13.0724C7.29282 13.0488 7.65723 13.0315 8.01726 13.0063C8.07434 13.0016 8.12707 12.9779 8.17098 12.959C8.26318 12.9181 8.32019 12.8614 8.43435 12.8346C8.54851 12.8079 8.71094 12.8079 8.85144 12.8C9.30367 12.7764 9.33883 12.7826 9.54519 12.6488C9.71203 12.5401 10.1204 12.6173 10.2565 12.4976C10.3355 12.4283 10.4804 12.3716 10.7394 12.3637C11.1038 12.3527 11.4639 12.3228 11.8283 12.3023C12.1532 12.2834 12.1488 12.2834 12.5001 12.137C12.6581 12.0708 12.8909 12.0803 13.0972 12.0677C13.3168 12.0551 13.5187 12.0362 13.6241 11.9574C13.7295 11.8803 13.9226 11.8551 14.1465 11.844C14.3529 11.833 14.5857 11.8409 14.7481 11.7779C15.1433 11.6267 15.1389 11.6251 15.4155 11.6094C15.8502 11.5842 16.2848 11.559 16.7195 11.5322C17.0093 11.5149 17.3122 11.5117 17.5844 11.4771C17.782 11.4519 17.8698 11.3637 17.9971 11.3023C18.3571 11.2787 18.7172 11.255 19.0772 11.233C19.5821 11.2015 20.0914 11.1731 20.6007 11.1432C20.8203 11.0834 20.8511 10.9511 21.2199 10.9448C21.4394 10.9416 21.6545 10.9212 21.8741 10.9086C22.2385 10.8865 22.5985 10.8582 22.9629 10.8472C23.2395 10.8393 23.2878 10.7542 23.4326 10.7007C23.4809 10.6818 23.5249 10.655 23.582 10.6503C24.1527 10.6062 24.741 10.5968 25.2987 10.5322C25.3557 10.5259 25.4084 10.4928 25.4216 10.4692C25.4304 10.4566 25.3557 10.433 25.3074 10.4219C25.2504 10.4094 25.1758 10.3967 25.1143 10.3999C23.301 10.5054 21.4877 10.6125 19.6744 10.718C19.4197 10.7338 19.4197 10.7322 18.8006 10.9054C18.7479 10.9196 18.6864 10.9353 18.6205 10.9401C18.3308 10.959 18.0366 10.97 17.7512 10.9936C17.5185 11.0125 17.3254 10.9936 17.1585 10.9369C17.04 10.896 16.917 10.8834 16.7677 10.8865C16.6009 10.8912 16.4912 10.9086 16.3946 10.9511C16.2673 11.0094 16.2014 11.085 15.9336 11.1007C14.6998 11.1684 13.466 11.244 12.2366 11.3165C12.0653 11.2944 11.9819 11.2613 12.0258 11.222C12.0522 11.1983 12.1049 11.1669 12.1576 11.1637C12.6625 11.1306 13.1718 11.1023 13.6767 11.0708C13.747 11.0661 13.8435 11.0692 13.8831 11.0534C14.0762 10.9826 14.1466 10.8676 14.511 10.8597C14.7217 10.855 14.9369 10.8314 15.1388 10.8094C15.1959 10.8031 15.2486 10.77 15.2618 10.7464C15.2662 10.7338 15.1959 10.7101 15.1432 10.6991C14.95 10.6534 14.7262 10.7086 14.533 10.6771C14.4671 10.6661 14.3748 10.6503 14.3617 10.6314C14.3529 10.6141 14.4275 10.5857 14.4802 10.5684C14.5285 10.5527 14.5943 10.5385 14.6602 10.5338C15.2398 10.4975 15.8194 10.4597 16.399 10.4314C16.6361 10.4204 16.8029 10.381 16.9083 10.3085C16.9873 10.255 17.0839 10.2267 17.2332 10.2188C18.2474 10.1605 19.2616 10.0959 20.2802 10.0424C20.5349 10.0298 20.6666 9.97784 20.772 9.91012C20.8554 9.85658 20.952 9.83767 21.1145 9.82822C22.5678 9.74633 24.0123 9.65499 25.4656 9.57625C25.7334 9.56208 25.8125 9.49436 25.9486 9.43609C25.9969 9.41561 26.0275 9.39042 26.089 9.37782C26.1505 9.36522 26.2295 9.36678 26.3041 9.36363C27.4632 9.29591 28.6224 9.22348 29.786 9.16049C30.0582 9.14631 30.1108 9.06756 30.2513 9.01244C30.2996 8.99512 30.3435 8.96678 30.4006 8.96205C31.2699 8.90851 32.1393 8.85811 33.0086 8.80614C33.5882 8.7715 34.1677 8.73685 34.7473 8.70377C35.0327 8.68802 35.0327 8.68644 35.419 8.53683C35.4629 8.51951 35.5245 8.49903 35.5815 8.4943C37.25 8.39351 38.914 8.29747 40.5824 8.19825C40.7229 8.19038 40.8239 8.15414 40.8941 8.10059C40.9644 8.04704 41.0654 8.01082 41.2015 8.00295C42.5056 7.92421 43.8095 7.84704 45.1179 7.77303C45.355 7.76043 45.5218 7.72263 45.6272 7.65176C45.7062 7.59821 45.8028 7.56987 45.9521 7.562C47.2561 7.48641 48.5602 7.40608 49.8686 7.33363C50.1189 7.31946 50.2418 7.26592 50.3647 7.20293C50.4086 7.18088 50.4438 7.14466 50.4964 7.14151C51.1462 7.09741 51.7916 7.05174 52.4458 7.02182C52.7181 7.00922 52.8103 6.94307 52.9201 6.88007C53.0079 6.82968 53.1089 6.81236 53.2757 6.80606C53.6402 6.79189 54.0002 6.76513 54.3558 6.73835C54.4085 6.73363 54.4744 6.69898 54.4788 6.67693C54.4875 6.63598 54.3865 6.60763 54.2197 6.59346C52.481 6.69582 50.738 6.79818 48.9993 6.90055C48.7139 6.91787 48.7139 6.91788 48.3275 7.06749C48.2836 7.08482 48.2221 7.10529 48.1606 7.11002C46.4922 7.20923 44.8282 7.30687 43.1597 7.40609C43.0192 7.41397 42.9183 7.45019 42.848 7.50373C42.7778 7.55728 42.6767 7.5935 42.5406 7.60137C40.9468 7.69586 39.3531 7.79193 37.7549 7.8817C37.5178 7.8943 37.351 7.93051 37.2456 8.00295C37.1666 8.05649 37.07 8.08485 36.9207 8.09273C35.3972 8.18092 33.8779 8.27383 32.35 8.35887C32.1963 8.36674 32.0822 8.32107 32.091 8.27855C32.0954 8.2565 32.1612 8.2203 32.2139 8.21715C33.0086 8.16518 33.799 8.11162 34.598 8.07225C34.8659 8.05965 34.9448 7.99036 35.081 7.93209C35.1249 7.91162 35.16 7.88484 35.2171 7.87382C35.2786 7.86122 35.3576 7.8628 35.4322 7.85965C37.3158 7.74784 39.1994 7.63445 41.0874 7.52893C41.3596 7.51319 41.4122 7.43601 41.5527 7.38089C41.601 7.36199 41.645 7.33365 41.702 7.3305C42.2816 7.2927 42.8611 7.25963 43.4407 7.22655C44.4549 7.16671 45.4691 7.10686 46.4878 7.04702C46.7819 7.0297 46.7819 7.02969 47.1595 6.88165C47.2034 6.86433 47.265 6.8423 47.322 6.83915C50.0047 6.68009 52.6874 6.52102 55.3701 6.36354C55.5106 6.35566 55.6115 6.31944 55.6818 6.26589C55.752 6.21392 55.853 6.17613 55.9891 6.16668C59.6157 5.9525 63.238 5.73831 66.8647 5.52728C67.1017 5.5131 67.2686 5.48003 67.3739 5.40601C67.4486 5.35246 67.5495 5.32412 67.6988 5.31467C71.6855 5.08002 75.6722 4.84537 79.6632 4.60914C82.3459 4.45165 85.0286 4.29102 87.7113 4.13668C87.9571 4.12251 88.0888 4.07368 88.2118 4.00911C88.2513 3.98706 88.2908 3.95084 88.3435 3.94769C88.9187 3.90832 89.4938 3.8721 90.069 3.83588C90.249 3.8784 90.429 3.91935 90.609 3.96188C90.7451 3.90203 90.8769 3.84061 91.013 3.78076C91.8824 3.73509 92.7385 3.66422 93.6166 3.64217C93.6737 3.6406 93.7351 3.67053 93.7966 3.68628C94.2049 3.78549 94.4377 3.77762 94.6967 3.64533C94.7889 3.59808 94.8679 3.55556 95.0084 3.54769C95.4431 3.51934 95.8822 3.50044 96.3125 3.46737C96.5452 3.45004 96.7383 3.46579 96.9052 3.52248C97.0237 3.56343 97.1467 3.58076 97.2916 3.57131C98.0907 3.52407 98.8854 3.47839 99.6845 3.428C99.7416 3.42485 99.7942 3.39806 99.8381 3.37917C99.9303 3.33822 100.009 3.29413 100.097 3.25161C100.216 3.27839 100.347 3.29886 100.444 3.33351C100.567 3.37445 100.681 3.37445 100.848 3.36342C104.036 3.17286 107.228 2.98703 110.415 2.7949C110.687 2.77915 110.806 2.8453 110.99 2.87995C111.052 2.89255 111.113 2.90829 111.179 2.91144C111.249 2.91459 111.324 2.90515 111.394 2.90042C113.787 2.75868 116.18 2.61851 118.573 2.47678C118.889 2.45788 118.889 2.45788 119.359 2.55552C119.416 2.56812 119.491 2.58229 119.552 2.57757C120.641 2.51615 121.73 2.45001 122.814 2.38702C122.955 2.37914 123.073 2.40433 123.201 2.44056C123.451 2.51143 123.468 2.51143 123.653 2.40749C123.741 2.35867 123.833 2.32873 123.978 2.31456C124.136 2.29881 124.263 2.30355 124.386 2.3319C124.562 2.37127 124.689 2.43741 124.957 2.42008C126.116 2.34606 127.279 2.28465 128.434 2.20906C128.698 2.19173 128.838 2.24528 129.014 2.28465C129.075 2.29882 129.132 2.32087 129.198 2.32559C129.264 2.33032 129.343 2.31928 129.413 2.31456C130.862 2.22952 132.315 2.14607 133.76 2.05472C134.032 2.0374 134.151 2.10511 134.335 2.13975C134.397 2.15235 134.467 2.17441 134.524 2.17126C135.393 2.12244 136.267 2.07046 137.136 2.01849C137.448 1.99959 137.448 2.00116 137.922 2.09723C137.979 2.10983 138.054 2.12243 138.116 2.11928C139.13 2.06101 140.148 2.00116 141.163 1.94132C141.474 1.92242 141.474 1.92242 142.374 2.00432C142.44 2.01062 142.51 2.02008 142.576 2.01693C143.735 1.94921 144.899 1.88306 146.058 1.81061C146.291 1.79644 146.484 1.80903 146.651 1.86573C146.769 1.90668 146.892 1.92401 147.037 1.91456C148.341 1.83739 149.65 1.76338 150.949 1.68148C151.2 1.66573 151.362 1.70037 151.538 1.74604C151.595 1.76179 151.652 1.78384 151.718 1.79014C151.783 1.79644 151.858 1.79013 151.928 1.78541C153.232 1.70824 154.541 1.6358 155.84 1.55233C156.104 1.53501 156.244 1.58855 156.42 1.62792C156.481 1.6421 156.547 1.67045 156.6 1.66887C157.109 1.6421 157.619 1.61848 158.123 1.57911C158.396 1.55707 158.514 1.6295 158.699 1.66414C158.76 1.67517 158.83 1.6988 158.887 1.69565C159.976 1.63423 161.065 1.56967 162.15 1.50352C162.303 1.49407 162.418 1.50823 162.54 1.54918C162.703 1.6043 162.892 1.62635 163.129 1.60903C163.634 1.5728 164.143 1.54761 164.652 1.51769C164.951 1.50037 164.951 1.50037 165.864 1.58227C165.93 1.58857 166 1.59801 166.066 1.59486C166.935 1.54446 167.809 1.49564 168.674 1.44052C168.907 1.42478 169.1 1.43895 169.267 1.49564C169.385 1.53659 169.504 1.55392 169.653 1.54447C170.452 1.49723 171.247 1.44998 172.046 1.40273C172.336 1.38541 172.626 1.35548 172.916 1.35548C173.126 1.35705 173.28 1.43264 173.469 1.47044C173.521 1.48146 173.609 1.46888 173.679 1.46573C174.694 1.40588 175.712 1.35076 176.722 1.28304C176.986 1.26572 177.126 1.31926 177.302 1.35863C177.363 1.3728 177.429 1.40115 177.482 1.39958C177.846 1.38225 178.206 1.35863 178.571 1.33816C179.005 1.31296 179.444 1.29406 179.875 1.25941C180.226 1.23106 180.358 1.36807 180.639 1.3728C180.854 1.37752 181.073 1.35075 181.288 1.33816C181.723 1.31296 182.158 1.28461 182.592 1.26257C182.746 1.25469 182.865 1.22948 182.913 1.17279C182.922 1.16176 182.847 1.13815 182.799 1.12398C182.215 0.963341 182.215 0.963333 181.626 0.99798C181.262 1.02003 180.902 1.04208 180.538 1.06098C180.476 1.06413 180.406 1.05153 180.344 1.04208C180.169 1.01531 180.186 0.983814 180.336 0.927119C180.485 0.870424 180.599 0.801137 180.726 0.736568C180.906 0.777514 181.082 0.818446 181.262 0.859392C181.407 0.851518 181.552 0.842082 181.697 0.834208C182.421 0.793262 183.146 0.750737 183.87 0.712941C183.923 0.709791 183.989 0.741293 184.05 0.757042C184.226 0.802712 184.384 0.842073 184.638 0.82475C185.288 0.779079 185.942 0.746007 186.592 0.706635C186.878 0.689312 186.878 0.689313 187.378 0.786955C187.435 0.797979 187.51 0.810578 187.571 0.807429C188.226 0.771207 188.875 0.73184 189.53 0.694043C189.67 0.686169 189.806 0.706641 189.907 0.752312C189.947 0.771211 189.938 0.802702 190.105 1.06098C190.623 1.27043 190.978 1.2484 191.339 1.2295C191.492 1.22162 191.628 1.21374 191.729 1.18225C191.782 1.16492 191.848 1.13972 191.848 1.11925C191.848 1.1035 191.751 1.0783 191.69 1.07515C191.255 1.04365 190.842 1.1098 190.416 1.12398C190.219 1.13028 190.048 1.07516 190.013 0.985388C190.004 0.960191 189.991 0.93342 189.977 0.908222C189.964 0.883024 189.956 0.856253 189.942 0.831055C189.771 0.823181 189.67 0.851524 189.595 0.905069C189.534 0.949165 189.446 0.999561 189.328 1.02318C189.209 1.04838 189.047 1.04367 188.902 1.05154C188.761 1.05941 188.608 1.07988 188.476 1.06886C188.344 1.05626 188.239 1.01058 188.116 0.982236C188.059 0.968062 187.988 0.947596 187.931 0.950746C187.426 0.977519 186.926 1.00428 186.425 1.03893C186.162 1.05783 186.03 0.991692 185.863 0.950746C185.732 0.919249 185.6 0.927113 185.578 0.999557C185.521 1.17279 185.723 1.24523 186.171 1.21216C186.54 1.18381 186.873 1.1791 187.163 1.28619C187.203 1.30037 187.295 1.30666 187.352 1.30351C187.712 1.28461 188.067 1.26099 188.427 1.24209C188.493 1.23894 188.564 1.24523 188.625 1.25153C189.521 1.33657 189.521 1.33816 189.824 1.31926C189.969 1.30981 190.109 1.30193 190.096 1.06255C190.373 0.805853 190.812 0.788533 191.238 0.750736C191.514 0.727113 191.633 0.79641 191.813 0.832632C191.874 0.845231 191.94 0.870424 191.997 0.867274C192.941 0.815304 193.881 0.760176 194.82 0.701906C194.978 0.692457 195.092 0.701908 195.215 0.742854C195.373 0.794824 195.549 0.827903 195.799 0.809005C196.3 0.771208 196.809 0.747591 197.318 0.716094C197.578 0.700345 197.578 0.700329 198.1 0.79797C198.157 0.808994 198.232 0.821594 198.293 0.818444C198.802 0.791671 199.308 0.758609 199.812 0.730262C199.953 0.722388 200.08 0.744433 200.19 0.786955C200.3 0.829476 200.431 0.851522 200.568 0.843647C201.077 0.8153 201.582 0.783813 202.087 0.755465C202.148 0.752315 202.223 0.763339 202.28 0.774363C202.816 0.872004 202.816 0.871988 203.061 0.856239C203.421 0.832616 203.79 0.821605 204.146 0.790107C204.493 0.75861 204.673 0.849944 204.91 0.90034C205.56 0.864118 206.214 0.834203 206.859 0.790107C207.123 0.771209 207.263 0.823175 207.439 0.864121C207.5 0.878295 207.562 0.90822 207.619 0.906645C207.838 0.900346 208.054 0.883026 208.269 0.870427C208.484 0.857828 208.703 0.845231 208.919 0.832632C209.164 0.878303 209.327 0.985391 209.678 0.94917C209.889 0.927122 210.113 0.922397 210.328 0.909798C210.543 0.897199 210.763 0.884602 210.978 0.872003C211.123 0.864129 211.272 0.859397 211.412 0.845224C211.671 0.821601 211.799 0.898778 211.983 0.933425C212.045 0.944449 212.115 0.963335 212.172 0.960185C212.607 0.938137 213.046 0.91924 213.472 0.883019C213.801 0.854671 214.025 0.901923 214.257 0.968067C214.306 0.982241 214.389 0.990114 214.451 0.986965C214.96 0.960192 215.465 0.927111 215.97 0.898763C216.106 0.890889 216.238 0.916086 216.347 0.957032C216.462 0.999554 216.589 1.02004 216.729 1.01217C217.234 0.98382 217.744 0.952314 218.249 0.923967C218.31 0.920817 218.385 0.933418 218.442 0.946017C218.934 1.04366 218.934 1.04523 219.223 1.02634C219.294 1.02161 219.368 1.01845 219.438 1.01373C219.798 0.991677 220.172 0.983813 220.523 0.946017C220.927 0.903496 221.221 0.957043 221.506 1.04681C221.866 1.02791 222.235 1.01689 222.586 0.985388C222.85 0.961765 222.99 1.02161 223.166 1.06098C223.228 1.07515 223.293 1.1035 223.346 1.10035C223.855 1.07358 224.365 1.04996 224.865 1.01059C225.137 0.988543 225.256 1.0594 225.44 1.09562C225.502 1.10822 225.568 1.13028 225.625 1.12713C225.915 1.11453 226.204 1.09562 226.494 1.0783C226.832 1.05783 226.832 1.0594 227.28 1.15547C227.491 1.20114 227.702 1.16491 227.908 1.15389C228.127 1.14129 228.334 1.13184 228.509 1.19641C228.619 1.23736 228.751 1.26256 228.887 1.25626C229.177 1.24209 229.471 1.22792 229.756 1.2043C229.985 1.1854 230.182 1.19799 230.349 1.25626C230.468 1.29721 230.591 1.31769 230.735 1.30824C231.385 1.27045 232.039 1.23106 232.689 1.19484C232.746 1.19169 232.825 1.20587 232.878 1.22004C233.001 1.24839 233.12 1.27988 233.238 1.31138C233.523 1.2972 233.818 1.29092 234.099 1.26887C234.397 1.24682 234.669 1.23895 234.902 1.32556C234.95 1.34446 235.021 1.37122 235.078 1.36964C235.297 1.36335 235.512 1.3476 235.728 1.335C235.943 1.3224 236.162 1.30981 236.377 1.29721C236.628 1.33658 236.786 1.44997 237.137 1.41375C237.348 1.3917 237.572 1.38697 237.787 1.37437C238.002 1.36178 238.221 1.3476 238.437 1.33658C238.507 1.33343 238.586 1.32555 238.647 1.33185C238.713 1.33815 238.77 1.3602 238.827 1.37595C239.003 1.42162 239.165 1.4673 239.416 1.44052C239.626 1.41848 239.85 1.41375 240.066 1.39958C240.36 1.38225 240.36 1.38226 240.847 1.48147C241.045 1.52242 241.269 1.46888 241.457 1.50352C241.585 1.52715 241.694 1.56651 241.817 1.59328C241.87 1.60431 241.953 1.60902 242.015 1.60587C242.305 1.5917 242.599 1.57753 242.884 1.55391C243.117 1.53501 243.31 1.55391 243.473 1.6106C243.591 1.65155 243.71 1.66888 243.859 1.65943C244.583 1.61534 245.308 1.57753 246.028 1.52871C246.274 1.51138 246.471 1.53816 246.608 1.59486C246.84 1.6925 247.17 1.57754 247.411 1.65628C247.56 1.7051 247.71 1.7618 247.982 1.73818C248.482 1.69723 248.992 1.67517 249.497 1.64682C249.677 1.68934 249.857 1.73187 250.041 1.77439C250.331 1.75707 250.621 1.73974 250.91 1.72399C251.125 1.71139 251.345 1.69722 251.56 1.68619C251.63 1.68304 251.705 1.67674 251.771 1.68462C251.837 1.69249 251.889 1.71297 251.951 1.72872C252.254 1.80589 252.254 1.80747 252.754 1.77597C252.969 1.7618 253.176 1.75235 253.356 1.81534C253.523 1.87361 253.72 1.88463 253.949 1.86731C254.379 1.83581 254.814 1.81219 255.253 1.79014C255.389 1.78226 255.516 1.80904 255.63 1.84998C255.801 1.91455 256.012 1.90826 256.227 1.89093C256.513 1.86888 256.794 1.84684 257.035 1.93503C257.084 1.95393 257.158 1.98069 257.211 1.97911C257.571 1.96652 257.935 1.95707 258.287 1.92715C258.638 1.89723 258.809 1.99487 259.051 2.04211C259.411 2.02164 259.775 2.00116 260.135 1.98069C260.205 1.97597 260.289 1.9618 260.35 1.96968C260.609 2.00275 260.758 2.12086 261.114 2.08464C261.32 2.06416 261.544 2.05787 261.76 2.05315C261.817 2.05157 261.891 2.07833 261.931 2.09881C261.953 2.10983 261.931 2.13975 261.904 2.1555C261.825 2.19959 261.729 2.24055 261.659 2.28622C261.65 2.29252 261.733 2.32086 261.781 2.33346C261.9 2.36181 262.036 2.35709 262.194 2.34449C262.33 2.33347 262.471 2.35552 262.567 2.40276C262.607 2.42166 262.594 2.45315 262.51 2.55709C262.51 2.63426 262.603 2.59961 262.633 2.54921C262.682 2.47677 262.589 2.45315 262.414 2.49252C262.291 2.52087 262.229 2.56182 262.26 2.59489C262.278 2.61221 262.361 2.63426 262.51 2.55709C262.897 2.4626 263.187 2.44529 263.476 2.42796C263.551 2.42324 263.639 2.40748 263.691 2.41693C263.88 2.45473 264.056 2.5004 264.24 2.54293C264.451 2.53348 264.649 2.50984 264.855 2.57126C265.145 2.65788 265.158 2.65001 265.439 2.63268C265.584 2.62324 265.729 2.61538 265.874 2.6075C266.018 2.59963 266.133 2.62324 266.26 2.65946C266.519 2.73348 266.541 2.73348 266.712 2.63268C266.813 2.57127 266.883 2.5508 267.011 2.57914C267.432 2.67521 267.437 2.68151 267.797 2.65316C268.095 2.62954 268.376 2.62324 268.596 2.713C268.745 2.776 268.793 2.76183 268.912 2.69568C269.228 2.52087 269.373 2.52402 269.966 2.65001C270.242 2.70985 270.528 2.64529 270.809 2.63741C271.046 2.63111 271.213 2.6689 271.23 2.76812C271.243 2.82954 271.283 2.87364 271.441 2.89412C271.502 2.90199 271.577 2.91301 271.638 2.90986C272.003 2.89096 272.363 2.86891 272.727 2.84686C272.912 2.83584 273.013 2.76183 272.978 2.66419C272.938 2.56025 273.008 2.52244 273.272 2.49252C273.43 2.4752 273.557 2.47836 273.684 2.50671C273.825 2.5382 273.785 2.56655 273.663 2.62325C273.368 2.76183 273.403 2.84686 273.781 2.94293C273.913 2.976 274.018 3.00593 274.049 3.05476C274.066 3.07995 274.049 3.11302 274.088 3.13192C274.304 3.23744 274.602 3.30516 274.936 3.35556C275.256 3.31304 275.476 3.38389 275.722 3.44059C275.915 3.48468 276.143 3.4469 276.35 3.43115C276.582 3.41383 276.775 3.42642 276.942 3.48469C277.061 3.52563 277.184 3.54453 277.329 3.53665C277.618 3.51933 277.913 3.50831 278.198 3.48311C278.444 3.46106 278.628 3.49257 278.782 3.54611C278.975 3.61383 279.19 3.56815 279.392 3.5776C279.664 3.58862 279.801 3.72878 280.156 3.69099C280.367 3.66894 280.587 3.66107 280.806 3.65477C280.863 3.65319 280.933 3.67997 280.982 3.69887C281.214 3.78548 281.487 3.78076 281.785 3.75556C281.991 3.73824 282.193 3.72249 282.395 3.78234C282.729 3.88313 283.098 3.97133 283.449 4.06425C283.497 4.13669 283.462 4.22171 283.713 4.26424C283.844 4.28628 283.967 4.31937 284.068 4.35559C284.191 4.39811 284.305 4.40914 284.463 4.39811C284.749 4.37607 285.047 4.37133 285.328 4.34298C285.587 4.31778 285.75 4.36977 285.908 4.41859C286.035 4.45796 286.154 4.47685 286.307 4.4485C286.466 4.42173 286.58 4.43905 286.707 4.48157C286.887 4.53984 286.9 4.53355 287.497 4.55087C287.559 4.55245 287.633 4.57606 287.669 4.59653C287.686 4.60755 287.647 4.63907 287.616 4.65482C287.576 4.67372 287.515 4.69575 287.458 4.70048C286.808 4.74142 286.154 4.77764 285.504 4.81859C285.438 4.82331 285.368 4.83435 285.32 4.8501C285.267 4.86742 285.201 4.89103 285.201 4.91308C285.201 4.92883 285.289 4.94773 285.35 4.95875C285.543 4.99498 285.772 4.93986 285.961 4.9808C286.088 5.00758 286.193 5.04537 286.321 5.07056C286.373 5.08159 286.457 5.08002 286.523 5.07687C286.742 5.06584 286.957 5.0501 287.177 5.04065C287.238 5.03908 287.309 5.05483 287.366 5.06743C287.787 5.16192 287.787 5.16192 288.152 5.14144C288.296 5.13357 288.45 5.10994 288.586 5.11939C288.718 5.12884 288.832 5.17136 288.951 5.19814C289.197 5.25483 289.429 5.30995 289.447 5.43279C289.456 5.48003 289.6 5.52097 289.745 5.52412C289.886 5.52727 290.035 5.50996 290.18 5.50052C290.522 5.48162 290.522 5.48162 290.966 5.57768C291.089 5.60445 291.221 5.6076 291.379 5.59185C291.44 5.58555 291.515 5.59186 291.581 5.59973C291.796 5.62336 291.796 5.65327 291.655 5.70997C291.458 5.79343 291.475 5.80131 292.028 5.87218C292.239 5.89895 292.402 5.94935 292.577 5.99345C292.863 6.06432 292.858 6.0643 292.669 6.15722C292.626 6.17769 292.586 6.19975 292.542 6.22179C292.415 6.28321 292.314 6.34935 292.05 6.35565C291.761 6.36195 291.471 6.38716 291.181 6.40448C290.9 6.42181 290.825 6.45959 290.852 6.56668C290.882 6.69582 290.94 6.71 291.444 6.70842C291.589 6.70842 291.717 6.72102 291.826 6.76354C291.774 6.81393 291.677 6.8533 291.537 6.86275C291.177 6.88638 290.812 6.90685 290.452 6.92733C290.162 6.94465 289.873 6.96197 289.583 6.97929C289.403 6.99032 289.289 7.07221 289.337 7.16356C289.363 7.21553 289.385 7.2675 289.407 7.31947C289.455 7.42341 289.548 7.45019 289.842 7.44546C289.916 7.44389 289.987 7.43128 290.057 7.43443C290.342 7.44545 290.478 7.57616 290.821 7.54939C291.106 7.52734 291.405 7.52262 291.686 7.49427C291.945 7.46908 292.09 7.52578 292.27 7.56831C292.331 7.58248 292.397 7.61239 292.45 7.61081C292.814 7.59349 293.179 7.57618 293.534 7.54626C293.701 7.53366 293.802 7.5431 293.934 7.5809C294.25 7.67224 294.259 7.66751 294.729 7.63917C295.071 7.61712 295.076 7.62027 295.515 7.71633C295.638 7.74311 295.769 7.7431 295.927 7.7305C296.134 7.71475 296.349 7.68956 296.564 7.71318C296.63 7.71948 296.713 7.73838 296.735 7.75886C296.748 7.77303 296.687 7.80768 296.634 7.8187C296.248 7.9006 295.796 7.88642 295.374 7.9195C295.242 7.92895 295.111 7.89902 295.001 7.8565C294.887 7.81398 294.764 7.79666 294.614 7.80454C294.325 7.82186 294.031 7.83288 293.745 7.85807C293.499 7.88012 293.328 7.8439 293.157 7.79508C293.1 7.77933 293.034 7.7494 292.977 7.75098C292.327 7.78247 291.673 7.81398 291.027 7.85807C290.768 7.87697 290.619 7.82658 290.443 7.78406C290.382 7.76989 290.321 7.73996 290.263 7.74154C290.044 7.74784 289.829 7.76516 289.609 7.77776C288.81 7.825 288.015 7.87225 287.216 7.91634C287.164 7.91949 287.098 7.88642 287.036 7.87224C286.918 7.8439 286.795 7.81712 286.672 7.79035C286.452 7.80295 286.237 7.81869 286.018 7.82814C285.86 7.83444 285.719 7.8565 285.697 7.91634C285.684 7.95572 285.829 7.99193 285.983 7.98878C286.132 7.98563 286.281 7.96673 286.404 7.9872C287.014 8.088 287.014 8.08957 287.396 8.0691C287.73 8.0502 287.695 8.03445 287.989 8.12106C288.116 8.15886 288.231 8.18092 288.375 8.17147C288.735 8.14942 289.1 8.12737 289.464 8.10847C289.521 8.10532 289.596 8.12108 289.653 8.13368C290.083 8.22817 290.083 8.23131 290.439 8.20769C290.904 8.17934 290.922 8.17147 291.234 8.26753C291.449 8.33368 291.646 8.28801 291.853 8.28486C292.09 8.34627 292.349 8.4014 292.564 8.4707C292.819 8.55259 293.087 8.5384 293.376 8.51478C293.591 8.49746 293.802 8.49116 293.978 8.55573C294.145 8.61557 294.347 8.62188 294.575 8.60613C294.781 8.59196 294.992 8.56203 295.207 8.59667C295.264 8.60612 295.352 8.62975 295.348 8.64393C295.343 8.66598 295.286 8.69748 295.229 8.70693C294.825 8.7715 294.382 8.76992 293.956 8.79984C293.899 8.80456 293.824 8.78723 293.767 8.77463C293.644 8.74629 293.526 8.71322 293.407 8.6833C293.192 8.69275 292.972 8.69589 292.762 8.71479C292.599 8.72896 292.476 8.7274 292.358 8.6896C292.248 8.65496 292.129 8.61243 291.998 8.6014C291.866 8.59038 291.712 8.614 291.567 8.62345C291.423 8.6329 291.256 8.62817 291.142 8.65337C291.027 8.67856 290.957 8.73369 290.882 8.77779C290.799 8.82661 290.685 8.84237 290.518 8.84709C290.364 8.85182 290.241 8.84551 290.127 8.80141C290.079 8.78252 290.013 8.76834 289.947 8.75574C289.886 8.74471 289.816 8.72738 289.758 8.73053C289.104 8.76676 288.454 8.80614 287.8 8.84394C287.475 8.86284 287.48 8.86282 286.804 8.76991C286.742 8.76203 286.667 8.75101 286.606 8.75416C286.242 8.77306 285.882 8.79511 285.517 8.81716C285.148 8.83921 285.153 8.83606 284.525 8.73684C284.411 8.71794 284.244 8.74314 284.108 8.73999C283.822 8.73212 283.682 8.59983 283.348 8.62503C283.063 8.64708 282.764 8.6518 282.479 8.68015C282.22 8.70534 282.071 8.65023 281.895 8.60771C281.833 8.59354 281.768 8.56204 281.715 8.56518C281.061 8.59983 280.411 8.6392 279.541 8.64393C279.326 8.64393 279.423 8.677 279.563 8.68803C279.765 8.70535 279.831 8.67228 279.722 8.60929C279.643 8.56519 279.528 8.54313 279.436 8.55415C279.388 8.56045 279.326 8.59038 279.541 8.64393C279.77 8.70377 279.757 8.73684 279.796 8.75574C279.893 8.80141 280.029 8.82031 280.169 8.81401C280.389 8.80298 280.604 8.78724 280.824 8.77779C280.885 8.77464 280.96 8.78566 281.017 8.79826C281.5 8.8959 281.504 8.90221 282.018 8.86441C282.18 8.85339 282.299 8.85339 282.426 8.88331C282.602 8.92426 282.729 8.99354 282.997 8.97149C283.353 8.94157 283.717 8.92426 284.081 8.90694C284.138 8.90379 284.2 8.93213 284.266 8.94473C284.446 8.98253 284.578 9.0534 284.845 9.02347C285.052 8.99985 285.276 8.99354 285.495 8.98881C285.552 8.98724 285.64 9.01244 285.666 9.03291C285.719 9.06914 285.653 9.11167 285.504 9.14159C285.443 9.15419 285.359 9.15103 285.289 9.15576C284.999 9.17308 284.709 9.19197 284.42 9.20614C284.266 9.21402 284.121 9.23765 284.103 9.29592C284.09 9.33529 284.248 9.36993 284.398 9.36678C284.617 9.36206 284.837 9.34946 285.047 9.32899C285.421 9.29434 285.745 9.30379 286.048 9.403C286.264 9.4723 286.25 9.44711 286.479 9.65184C286.536 9.70381 286.707 9.70853 286.856 9.70538C287.216 9.69751 287.383 9.72114 287.352 9.76996C287.313 9.8298 287.186 9.84869 287.023 9.85656C286.733 9.86916 286.444 9.88964 286.154 9.90697C286.084 9.91169 286.005 9.92113 285.939 9.91798C285.873 9.91483 285.811 9.89594 285.754 9.88176C285.631 9.85184 285.526 9.80616 285.394 9.79514C285.262 9.78412 285.109 9.80774 284.964 9.81719C284.819 9.82506 284.665 9.84869 284.534 9.83766C284.402 9.82664 284.292 9.77941 284.174 9.75106C284.117 9.73688 284.046 9.71482 283.989 9.7164C283.699 9.729 283.41 9.74948 283.12 9.76523C282.764 9.7857 282.764 9.7857 282.334 9.68806C282.211 9.65971 282.084 9.66129 281.921 9.67389C281.57 9.69909 281.566 9.69435 280.925 9.60301C280.863 9.59356 280.788 9.58254 280.727 9.58727C280.073 9.62349 279.423 9.66286 278.773 9.70065C278.216 9.73372 278.216 9.73374 277.908 9.89122C277.68 10.0078 277.675 10.0078 277.899 10.0613C278.079 10.1054 278.242 10.17 278.439 10.1936C278.624 10.2156 278.852 10.1448 279.054 10.2172C279.155 10.2534 279.287 10.2928 279.414 10.2991C279.616 10.307 279.831 10.2613 280.024 10.3306C280.121 10.3652 280.266 10.4015 280.389 10.4031C280.604 10.4062 280.824 10.381 281.039 10.37C281.105 10.3668 281.179 10.3668 281.241 10.3747C281.307 10.3841 281.364 10.403 281.421 10.4188C281.596 10.4723 281.785 10.4975 282.013 10.4708C282.387 10.4267 282.72 10.4487 283.01 10.5495C283.05 10.5637 283.146 10.5653 283.208 10.559C283.366 10.5432 283.502 10.5416 283.62 10.5716C283.669 10.5842 283.739 10.6062 283.73 10.6204C283.717 10.644 283.664 10.6755 283.607 10.6834C283.194 10.7369 282.751 10.7432 282.325 10.7716C282.268 10.7747 282.198 10.7542 282.141 10.7401C282.018 10.7117 281.912 10.6645 281.781 10.6534C281.649 10.6424 281.495 10.6629 281.35 10.6708C281.206 10.6786 281.052 10.7023 280.92 10.6928C280.788 10.6818 280.666 10.6424 280.56 10.6078C280.437 10.5684 280.319 10.5637 280.156 10.5794C279.945 10.5999 279.726 10.6031 279.511 10.6141C279.392 10.5842 279.274 10.5511 279.151 10.5227C279.094 10.5086 279.023 10.4912 278.962 10.4928C278.672 10.5054 278.382 10.5243 278.093 10.5416C277.803 10.5589 277.803 10.559 277.311 10.4613C277.254 10.4503 277.179 10.4377 277.118 10.4408C276.753 10.4597 276.393 10.4834 276.029 10.5022C275.888 10.5101 275.761 10.4881 275.647 10.4456C275.537 10.403 275.406 10.3794 275.269 10.3873C274.69 10.4204 274.11 10.4519 273.531 10.4912C273.298 10.507 273.1 10.4928 272.942 10.4361C272.758 10.3715 272.552 10.3873 272.337 10.3999C271.849 10.4314 271.845 10.4298 271.533 10.3495C271.472 10.3337 271.41 10.3038 271.353 10.3054C270.848 10.329 270.339 10.3511 269.838 10.3889C269.575 10.4093 269.434 10.3542 269.259 10.3133C269.197 10.2991 269.131 10.2692 269.079 10.2723C268.714 10.2897 268.35 10.3054 267.994 10.3369C267.639 10.3684 267.502 10.2219 267.235 10.2235C266.87 10.2251 266.51 10.2613 266.15 10.2834C265.86 10.3007 265.571 10.318 265.281 10.3353C264.991 10.3526 264.701 10.3668 264.411 10.3873C264.258 10.3983 264.144 10.3841 264.016 10.3448C263.854 10.2928 263.661 10.2519 263.485 10.2046C263.217 10.1369 263.217 10.1369 262.892 10.1558C262.822 10.1605 262.747 10.1637 262.677 10.1684C262.146 10.203 262.146 10.1999 261.47 10.1007C261.439 10.0959 261.36 10.1133 261.329 10.1259C261.237 10.1668 261.154 10.2109 261.07 10.2534C260.952 10.2282 260.807 10.2141 260.728 10.1778C260.504 10.0755 260.153 10.2156 259.924 10.1148C259.841 10.077 259.696 10.044 259.564 10.0345C259.428 10.0251 259.274 10.0471 259.134 10.0566C258.77 10.0802 258.769 10.0786 258.458 10.2188C258.3 10.2881 258.071 10.2755 257.865 10.2912C257.65 10.3085 257.444 10.318 257.264 10.2534C257.101 10.1952 256.904 10.181 256.671 10.1999C256.385 10.2235 256.091 10.2377 255.802 10.2519C255.74 10.255 255.665 10.2471 255.604 10.2377C254.932 10.1448 254.932 10.1432 254.607 10.1637C254.462 10.1731 254.313 10.1763 254.173 10.1904C253.935 10.2156 253.755 10.1826 253.584 10.1322C253.527 10.1164 253.461 10.0865 253.404 10.0881C253.114 10.096 252.829 10.1101 252.544 10.1243C252.324 10.1353 252.105 10.1416 251.894 10.1637C251.543 10.1999 251.371 10.0975 251.13 10.0503C250.77 10.0707 250.405 10.0849 250.045 10.1133C249.879 10.1259 249.769 10.1211 249.641 10.0834C249.479 10.0361 249.33 9.98256 249.066 10.0062C248.715 10.0377 248.346 10.0487 247.986 10.0676C247.745 10.0188 247.569 9.91956 247.222 9.95578C247.012 9.97783 246.788 9.98255 246.572 9.99515C246.283 10.0125 245.993 10.0282 245.703 10.0471C245.391 10.066 245.396 10.0613 244.917 9.96839C244.641 9.91327 244.355 9.97469 244.074 9.98413C243.855 9.99201 243.745 10.0644 243.798 10.1574C243.85 10.2503 243.732 10.3227 243.53 10.3353C243.025 10.3652 242.515 10.3967 242.011 10.4235C241.949 10.4267 241.874 10.4156 241.817 10.4046C241.277 10.3054 241.277 10.307 241.036 10.3212C240.676 10.3448 240.307 10.3574 239.951 10.3873C239.705 10.4078 239.525 10.3747 239.367 10.3212C239.244 10.2802 239.13 10.2708 238.972 10.2802C237.234 10.3857 235.495 10.4834 233.761 10.592C233.502 10.6078 233.352 10.5621 233.177 10.5196C233.115 10.5054 233.058 10.4755 232.997 10.4755C232.852 10.4755 232.707 10.4897 232.562 10.4991C231.912 10.5369 231.262 10.5826 230.608 10.6109C230.332 10.6235 230.257 10.696 230.138 10.7558C230.046 10.8015 229.941 10.8204 229.778 10.8267C229.62 10.833 229.506 10.8251 229.383 10.7842C229.225 10.7306 229.045 10.6975 228.799 10.7196C228.514 10.7448 228.224 10.7558 227.93 10.7731C227.781 10.781 227.666 10.8094 227.618 10.8661C227.609 10.8755 227.702 10.8991 227.754 10.9133C227.93 10.9606 228.097 11.0157 228.294 11.0487C228.496 11.0818 228.716 11.044 228.926 11.0346C229.001 11.0314 229.071 11.022 229.142 11.0235C229.207 11.0251 229.287 11.033 229.335 11.0472C229.563 11.118 229.805 11.1669 230.121 11.1243C230.393 11.1448 230.534 11.2755 230.88 11.2409C231.091 11.2204 231.311 11.2109 231.53 11.2031C231.587 11.2015 231.649 11.2298 231.71 11.244C231.886 11.2834 232.026 11.3464 232.29 11.3196C232.571 11.2913 232.869 11.2865 233.155 11.2645C233.313 11.2519 233.427 11.2629 233.55 11.3039C233.708 11.3558 233.888 11.3952 234.134 11.37C234.345 11.3479 234.568 11.3432 234.784 11.3291C235.065 11.3117 235.065 11.3133 235.565 11.4109C235.622 11.422 235.697 11.4346 235.758 11.4314C236.123 11.4125 236.483 11.3889 236.847 11.37C236.988 11.3621 237.124 11.3826 237.22 11.4283C237.26 11.4472 237.247 11.4787 237.26 11.5055C236.535 11.548 235.811 11.5842 235.091 11.6362C234.819 11.6566 234.696 11.5921 234.516 11.5558C234.454 11.5432 234.388 11.5165 234.331 11.5196C233.822 11.5464 233.317 11.5747 232.812 11.6094C232.654 11.6204 232.536 11.6141 232.417 11.5684C232.114 11.4472 231.745 11.5133 231.403 11.5306C231.139 11.5432 231.056 11.5921 231.087 11.696C231.126 11.8188 231.284 11.8566 231.688 11.8346C231.833 11.8267 231.978 11.8157 232.123 11.8094C232.263 11.8031 232.391 11.8236 232.505 11.8661C232.615 11.9086 232.746 11.9307 232.882 11.9244C233.172 11.9102 233.466 11.896 233.747 11.8724C233.98 11.8535 234.173 11.8692 234.336 11.9275C234.516 11.9921 234.727 11.9779 234.937 11.9637C235.429 11.9322 235.433 11.9338 235.741 12.0126C235.802 12.0283 235.864 12.0582 235.921 12.0567C236.426 12.033 236.935 12.0126 237.431 11.9748C237.69 11.9559 237.84 12.0062 238.011 12.0472C238.072 12.0614 238.134 12.0929 238.191 12.0897C238.555 12.0724 238.92 12.0551 239.275 12.0251C239.442 12.011 239.543 12.0204 239.679 12.0582C240.004 12.1511 240.013 12.148 240.474 12.1181C240.614 12.1086 240.768 12.0913 240.9 12.1039C241.031 12.1165 241.137 12.1622 241.26 12.1905C241.317 12.2031 241.387 12.2204 241.449 12.2173C241.738 12.2047 242.028 12.1858 242.318 12.1685C242.59 12.1511 242.59 12.1527 243.099 12.2504C243.306 12.2913 243.521 12.2567 243.727 12.2441C243.951 12.2299 244.153 12.2299 244.324 12.2913C244.496 12.3527 244.702 12.3496 244.922 12.337C245.128 12.3244 245.339 12.2897 245.549 12.3323C246.032 12.4299 246.032 12.4315 246.331 12.4126C246.766 12.3858 247.196 12.3606 247.635 12.337C247.692 12.3338 247.767 12.3527 247.824 12.3653C247.947 12.3937 248.052 12.4409 248.184 12.4519C248.315 12.4645 248.469 12.4456 248.61 12.4362C249.062 12.4063 249.093 12.3952 249.396 12.4992C249.65 12.5842 249.966 12.4614 250.203 12.559C250.34 12.6141 250.524 12.6582 250.779 12.6315C250.989 12.6094 251.209 12.6031 251.428 12.5905C251.775 12.57 251.775 12.5716 252.214 12.6661C252.271 12.6787 252.346 12.6945 252.403 12.6913C252.693 12.6787 252.987 12.6677 253.268 12.6393C253.597 12.6063 253.808 12.6661 254.054 12.7244C254.247 12.7701 254.476 12.7323 254.682 12.7165C254.906 12.7008 255.108 12.7055 255.275 12.7669C255.45 12.8299 255.657 12.822 255.876 12.8094C256.082 12.7984 256.293 12.7622 256.504 12.8063C256.956 12.9039 256.956 12.9039 257.286 12.885C257.575 12.8677 257.865 12.8488 258.155 12.8362C258.212 12.8331 258.282 12.8535 258.339 12.8677C258.462 12.896 258.568 12.9433 258.699 12.9543C258.831 12.9653 258.985 12.9449 259.13 12.937C259.274 12.9291 259.428 12.9055 259.56 12.9149C259.692 12.9244 259.814 12.9638 259.92 12.9984C260.043 13.0394 260.157 13.0441 260.324 13.0283C260.535 13.0079 260.754 13.0031 260.969 12.9921C261.088 13.022 261.211 13.0519 261.325 13.085C261.443 13.1197 261.571 13.1165 261.733 13.1055C262.273 13.0677 262.278 13.0724 262.73 13.1701C262.936 13.2142 263.151 13.1779 263.358 13.1669C263.577 13.1543 263.784 13.148 263.955 13.211C264.122 13.2709 264.328 13.2787 264.548 13.2598C264.688 13.2472 264.837 13.2394 264.982 13.2346C265.048 13.2331 265.127 13.2394 265.175 13.252C265.408 13.3181 265.636 13.378 265.957 13.3354C266.238 13.348 266.378 13.4772 266.717 13.452C267.002 13.4299 267.3 13.4252 267.581 13.3968C267.841 13.3716 268.025 13.4158 268.157 13.4709C268.394 13.5685 268.727 13.4362 268.965 13.5323C269.101 13.5874 269.276 13.6315 269.54 13.6079C269.829 13.5827 269.922 13.6157 270.005 13.715C270.053 13.7717 270.045 13.8173 269.957 13.8614C269.869 13.9071 269.772 13.8992 269.632 13.8473C269.47 13.789 269.276 13.778 269.044 13.7906C268.815 13.8032 268.675 13.7213 268.486 13.6898C268.297 13.6567 268.073 13.7118 267.876 13.6693C267.41 13.5701 267.41 13.5701 267.094 13.589C266.879 13.6016 266.655 13.6079 266.444 13.6299C266.194 13.6567 266.032 13.6079 265.86 13.5638C265.799 13.548 265.737 13.5181 265.685 13.5197C265.18 13.5433 264.67 13.5654 264.17 13.6047C263.907 13.6252 263.766 13.5685 263.59 13.5291C263.529 13.515 263.463 13.4866 263.41 13.4898C262.976 13.5118 262.545 13.5402 262.111 13.5669C262.027 13.6095 261.935 13.6504 261.856 13.6961C261.773 13.7433 261.659 13.7638 261.492 13.7622C261.215 13.7622 260.943 13.8284 260.666 13.7449C260.381 13.6599 260.359 13.6646 260.082 13.6851C259.731 13.7118 259.358 13.7055 259.029 13.7669C258.971 13.778 258.91 13.8079 258.91 13.8299C258.906 13.8441 258.998 13.8646 259.055 13.8772C259.248 13.915 259.472 13.8599 259.665 13.8992C259.793 13.9244 259.898 13.9622 260.025 13.989C260.078 14 260.157 13.9984 260.227 13.9969C260.302 13.9953 260.372 13.9843 260.442 13.9859C260.508 13.9874 260.579 13.9969 260.631 14.011C260.873 14.0709 261.127 14.126 261.342 14.1969C261.553 14.2662 261.751 14.2189 261.961 14.2158C262.804 14.326 262.805 14.3276 263.371 14.2929C263.511 14.2851 263.656 14.2756 263.801 14.2772C263.863 14.2772 263.92 14.3055 263.981 14.3213C264.157 14.3685 264.324 14.4111 264.57 14.3859C264.78 14.3638 265.004 14.3591 265.219 14.3449C265.509 14.3276 265.509 14.3276 266.001 14.4268C266.124 14.452 266.256 14.4489 266.414 14.4363C266.55 14.4252 266.69 14.4489 266.787 14.4945C266.826 14.5134 266.813 14.5449 266.826 14.5717C266.392 14.5969 265.953 14.6142 265.531 14.652C265.259 14.6756 265.136 14.6079 264.956 14.5717C264.894 14.5591 264.829 14.5323 264.772 14.5355C264.341 14.5591 263.911 14.5859 263.481 14.6174C263.428 14.6205 263.362 14.6567 263.358 14.6788C263.349 14.7197 263.459 14.7591 263.617 14.7575C263.827 14.7559 264.034 14.7292 264.223 14.7937C264.381 14.8504 264.578 14.8756 264.811 14.8505C264.951 14.8363 265.101 14.8363 265.241 14.8237C265.615 14.7859 265.953 14.7937 266.234 14.9008C266.449 14.9292 266.659 14.9024 266.866 14.8882C267.02 14.8772 267.169 14.8662 267.279 14.8961C267.511 14.9591 267.74 15.0221 268.06 14.9796C268.407 15.0237 268.67 15.1166 268.96 15.1922C269.096 15.2284 269.202 15.2489 269.36 15.2253C269.426 15.2158 269.505 15.2158 269.575 15.2111C269.72 15.2032 269.873 15.1796 270.005 15.189C270.137 15.2001 270.247 15.2457 270.365 15.2741C270.422 15.2883 270.488 15.3119 270.545 15.3103C270.765 15.3024 270.98 15.2867 271.195 15.2741C271.41 15.2631 271.625 15.252 271.84 15.241C272.02 15.282 272.205 15.3229 272.385 15.3639C272.675 15.3465 272.964 15.3292 273.25 15.3135C273.57 15.2946 273.57 15.2961 274.031 15.3938C274.238 15.4379 274.457 15.4095 274.655 15.389C274.984 15.356 275.204 15.4158 275.436 15.4788C275.485 15.4914 275.572 15.4993 275.629 15.493C275.858 15.4709 276.055 15.4883 276.222 15.5465C276.341 15.5875 276.459 15.6064 276.604 15.5985C277.109 15.5686 277.614 15.5371 278.119 15.5103C278.18 15.5072 278.251 15.5213 278.308 15.5339C278.756 15.63 278.76 15.6347 279.089 15.6095C279.383 15.5875 279.656 15.578 279.888 15.6646C279.937 15.6835 280.011 15.7103 280.064 15.7087C280.424 15.693 280.788 15.6757 281.144 15.6489C281.307 15.6363 281.421 15.641 281.548 15.6773C281.71 15.7229 281.855 15.778 282.123 15.7576C282.865 15.6993 282.87 15.7087 283.748 15.8174C283.809 15.8253 283.893 15.8127 283.963 15.8064C284.112 15.7906 284.222 15.8127 284.354 15.8489C284.648 15.9308 284.657 15.9261 284.938 15.9088C285.153 15.8946 285.377 15.8914 285.587 15.8678C285.912 15.8332 286.127 15.8946 286.369 15.9529C286.562 15.9985 286.786 15.9607 286.992 15.9465C287.216 15.9308 287.418 15.9355 287.585 15.9954C287.699 16.0363 287.822 16.0584 287.967 16.0505C288.472 16.0221 288.977 15.9906 289.482 15.9623C289.543 15.9591 289.618 15.9717 289.675 15.9828C290.176 16.0804 290.176 16.0851 290.672 16.0489C290.83 16.0379 290.961 16.0347 291.08 16.0678C291.194 16.0993 291.317 16.1292 291.436 16.1591C291.651 16.1481 291.87 16.145 292.081 16.1261C292.244 16.1119 292.358 16.1182 292.485 16.1513C292.652 16.1938 292.792 16.2678 293.056 16.2316C293.192 16.2143 293.35 16.219 293.486 16.2032C293.649 16.1828 293.758 16.1954 293.886 16.2363C294.044 16.2851 294.206 16.3355 294.461 16.3103C294.742 16.282 295.04 16.2773 295.326 16.2552C295.484 16.2426 295.594 16.2552 295.721 16.2962C295.879 16.3481 296.059 16.3812 296.305 16.3607C296.805 16.3214 296.81 16.3292 297.297 16.4284C297.42 16.4536 297.552 16.4505 297.71 16.4379C297.846 16.4269 297.986 16.4505 298.083 16.4962C298.175 16.5466 298.166 16.5781 298.175 16.6048ZM259.051 2.40118C258.906 2.40906 258.761 2.41851 258.55 2.28149C258.537 2.25787 258.546 2.22953 258.515 2.20906C258.445 2.16654 258.335 2.13661 258.203 2.13189C257.966 2.12559 257.681 2.17913 257.685 2.22007C257.689 2.25472 257.764 2.28464 257.909 2.31298C257.97 2.32401 258.019 2.34291 258.076 2.35551C258.243 2.39173 258.374 2.46261 258.616 2.42639C258.594 2.37757 258.572 2.32875 258.616 2.42639C258.594 2.48623 258.66 2.52876 258.818 2.54608C258.862 2.5508 258.928 2.54765 258.963 2.5382C259.099 2.50355 259.121 2.45631 259.02 2.3319C259.002 2.35237 259.015 2.38858 259.055 2.39803C259.094 2.40748 259.191 2.39962 259.239 2.38859C259.362 2.35867 259.424 2.3193 259.393 2.28622C259.375 2.2689 259.292 2.24685 259.239 2.24685C259.147 2.24685 259.064 2.2815 259.051 2.40118ZM294.553 20.6648C294.232 20.6947 293.864 20.6837 293.543 20.7451C293.486 20.7562 293.429 20.7845 293.425 20.8066C293.42 20.8207 293.508 20.8412 293.561 20.8522C293.679 20.8774 293.811 20.8695 293.965 20.8617C294.197 20.8507 294.334 20.9231 294.514 20.9593C294.571 20.9703 294.645 20.9782 294.707 20.9751C295.062 20.9562 295.414 20.9357 295.769 20.9137C295.831 20.9089 295.897 20.8979 295.949 20.8837C296.125 20.8381 296.107 20.8081 295.936 20.7735C295.747 20.7357 295.598 20.6727 295.405 20.6428C295.128 20.6002 294.847 20.6569 294.553 20.6648ZM269.619 21.8145C269.404 21.8271 269.193 21.8397 268.978 21.8523C268.907 21.857 268.833 21.8586 268.767 21.8649C268.631 21.8759 268.53 21.909 268.464 21.9609C268.565 22.0019 268.688 22.0255 268.824 22.0208C269.039 22.0113 269.25 21.9909 269.465 21.9861C269.698 21.9798 269.834 22.0507 270.014 22.0869C270.071 22.0979 270.141 22.0995 270.207 22.1011C270.532 22.1074 270.73 22.0255 270.668 21.9105C270.624 21.8208 270.457 21.7672 270.255 21.7783C270.045 21.7893 269.83 21.8019 269.619 21.8145ZM296.055 18.3372C296.107 18.3104 296.164 18.2915 296.191 18.2679C296.27 18.1876 296.239 18.1277 296.094 18.0647C295.918 17.9876 295.703 18.0395 295.506 18.0474C295.458 18.049 295.405 18.082 295.378 18.1025C295.361 18.1167 295.361 18.1466 295.387 18.1545C295.602 18.2175 295.831 18.2758 296.055 18.3372ZM257.966 13.6851C257.755 13.6977 257.54 13.7071 257.329 13.7244C257.277 13.7291 257.228 13.7591 257.198 13.7795C257.141 13.8173 257.202 13.8693 257.382 13.874C257.588 13.8803 257.804 13.8536 258.019 13.841C258.291 13.8252 258.453 13.7669 258.352 13.7165C258.256 13.6677 258.124 13.6583 257.966 13.6851ZM26.8486 10.3196C26.9891 10.3117 27.1339 10.3054 27.2744 10.2944C27.4061 10.2834 27.5072 10.2487 27.5731 10.1967C27.4633 10.1558 27.3403 10.1337 27.2042 10.1385C26.9891 10.1479 26.7784 10.1605 26.5676 10.1763C26.4359 10.1857 26.3086 10.2204 26.2779 10.2739C26.2471 10.3148 26.5412 10.3385 26.8486 10.3196ZM239.398 10.077C239.455 10.0912 239.512 10.1196 239.569 10.1196C239.71 10.1196 239.855 10.1101 239.987 10.0944C240.044 10.0881 240.087 10.0597 240.114 10.0377C240.131 10.0235 240.127 9.99831 240.101 9.98571C239.973 9.91012 239.464 9.93689 239.381 10.0235C239.372 10.0393 239.394 10.0597 239.398 10.077ZM225.546 1.45312C225.559 1.47831 225.563 1.50351 225.581 1.52871C225.616 1.57595 225.713 1.61061 225.853 1.63423C225.963 1.59486 226.02 1.55077 226.016 1.50352C226.011 1.47833 225.998 1.45311 225.98 1.42791C225.945 1.38067 225.849 1.34603 225.708 1.32241C225.598 1.36021 225.546 1.4043 225.546 1.45312ZM306.201 22.0885C306.162 22.109 306.122 22.1294 306.078 22.1483C306.197 22.194 306.307 22.2082 306.39 22.183C306.443 22.1672 306.474 22.1436 306.513 22.1231C306.395 22.0775 306.289 22.0649 306.201 22.0885ZM303.47 22.3027C303.527 22.3168 303.58 22.3358 303.642 22.3452C303.743 22.3609 303.835 22.3342 303.905 22.2775C303.848 22.2633 303.795 22.2444 303.734 22.2349C303.633 22.2192 303.541 22.246 303.47 22.3027ZM305.2 22.0145C305.169 22.0523 305.231 22.0838 305.393 22.1105C305.433 22.0901 305.486 22.0712 305.512 22.0491C305.556 22.0129 305.481 21.9798 305.323 21.9546C305.279 21.9735 305.24 21.994 305.2 22.0145ZM295.932 20.3168C295.901 20.3546 295.962 20.3861 296.125 20.4128C296.164 20.3924 296.217 20.3735 296.243 20.3514C296.287 20.3152 296.213 20.2821 296.055 20.2569C296.011 20.2758 295.971 20.2963 295.932 20.3168ZM283.304 9.17308C283.265 9.19355 283.225 9.21403 283.181 9.23292C283.3 9.27859 283.41 9.29276 283.493 9.26757C283.546 9.25182 283.576 9.22819 283.616 9.20772C283.497 9.16205 283.392 9.14946 283.304 9.17308ZM271.208 3.26105C271.313 3.27208 271.401 3.25004 271.476 3.19177C271.419 3.17759 271.366 3.15869 271.305 3.14924C271.204 3.13349 271.112 3.16028 271.041 3.21697C271.098 3.23272 271.155 3.24688 271.208 3.26105ZM264.785 2.89096C264.745 2.91144 264.706 2.93191 264.662 2.95081C264.78 2.99648 264.89 3.01065 264.973 2.98545C265.026 2.9697 265.057 2.94608 265.096 2.92561C264.978 2.87994 264.873 2.86892 264.785 2.89096ZM221.225 1.45154C221.186 1.47201 221.146 1.49249 221.103 1.51139C221.221 1.55706 221.331 1.57123 221.414 1.54603C221.467 1.53028 221.498 1.50666 221.537 1.48618C221.419 1.44051 221.313 1.42949 221.225 1.45154ZM4.33348 14.2646C4.2764 14.2504 4.21937 14.2363 4.16669 14.2205C4.03936 14.263 3.99986 14.3024 4.07011 14.3323C4.11401 14.3512 4.17982 14.3622 4.2369 14.3764C4.36862 14.3339 4.39934 14.2961 4.33348 14.2646Z" fill="#FFE492"/>
<path d="M29.7981 8.70357C29.2932 8.73349 28.7927 8.77127 28.2878 8.79017C28.02 8.79962 27.9234 8.86734 27.8137 8.93034C27.7259 8.98073 27.6249 8.99648 27.4624 9.00593C26.0925 9.08309 24.727 9.16499 23.3615 9.24531C23.1903 9.22484 23.1069 9.19177 23.1464 9.1524C23.1683 9.12877 23.2211 9.0957 23.2737 9.09255C24.2089 9.03428 25.1397 8.97443 26.0793 8.92876C26.3471 8.91616 26.4218 8.84687 26.5579 8.79017C26.6018 8.77127 26.637 8.74293 26.694 8.7319C26.7511 8.7193 26.8345 8.72088 26.9092 8.71773C28.4196 8.62797 29.93 8.53978 31.4403 8.45002C31.6116 8.47049 31.695 8.50356 31.6555 8.54293C31.6335 8.56655 31.5808 8.59962 31.5281 8.60277C30.9486 8.63584 30.3733 8.66892 29.7981 8.70357Z" fill="#FFE492"/>
<path d="M306.259 17.09C306.03 17.1089 305.741 17.1356 305.504 17.0443C305.389 17.0002 305.266 16.986 305.117 16.9955C304.902 17.0112 304.683 17.0238 304.463 17.0333C304.406 17.0349 304.331 17.0175 304.274 17.0034C304.151 16.975 304.046 16.9278 303.914 16.9152C303.782 16.9026 303.624 16.9372 303.488 16.9293C303.308 16.9183 303.234 16.8758 303.282 16.8364C303.308 16.8144 303.361 16.7829 303.418 16.7782C304.23 16.7199 304.235 16.7199 304.463 16.7766C304.639 16.8207 304.801 16.8695 305.051 16.8427C305.262 16.8207 305.486 16.8159 305.701 16.8018C306 16.7829 306 16.7844 306.483 16.8837C306.606 16.9089 306.737 16.9073 306.895 16.8931C307.032 16.8821 307.163 16.9073 307.273 16.9498C307.203 17.0034 307.102 17.038 306.966 17.0475C306.746 17.0632 306.531 17.0742 306.259 17.09Z" fill="#FFE492"/>
<path d="M298.176 16.6048C298.729 16.5717 299.287 16.5434 299.84 16.5056C300.068 16.4898 300.248 16.5071 300.406 16.5607C300.577 16.619 300.771 16.6142 300.981 16.6032C301.113 16.5969 301.241 16.6221 301.328 16.6662C301.363 16.6835 301.355 16.715 301.368 16.7402C300.885 16.7686 300.398 16.7985 299.91 16.8237C299.853 16.8268 299.783 16.8111 299.73 16.7985C299.612 16.7717 299.511 16.7245 299.383 16.715C299.111 16.693 298.839 16.7355 298.562 16.7434C298.43 16.7465 298.303 16.7229 298.215 16.6804C298.18 16.6599 298.189 16.63 298.176 16.6048Z" fill="#FFE492"/>
<path d="M98.2492 3.06405C98.8244 3.0294 99.3995 2.99635 99.9747 2.9617C100.146 2.98375 100.225 3.01524 100.19 3.05461C100.168 3.07823 100.115 3.11131 100.062 3.11446C98.9121 3.18533 97.7619 3.25303 96.6159 3.32075C96.4447 3.29871 96.3656 3.26721 96.4008 3.22784C96.4227 3.20422 96.4754 3.17115 96.5281 3.168C97.0989 3.13178 97.674 3.0987 98.2492 3.06405Z" fill="#FFE492"/>
<path d="M9.62087 11.8157C9.36183 11.8189 9.08966 11.8771 8.79988 11.833C8.74281 11.8252 8.66375 11.8 8.66814 11.7858C8.67693 11.7622 8.72962 11.7322 8.7867 11.7228C9.03696 11.6834 9.34873 11.6787 9.47606 11.5685C9.53752 11.5118 9.65168 11.4929 9.80535 11.4819C9.9678 11.4693 10.0819 11.474 10.2093 11.507C10.3761 11.5496 10.5166 11.6283 10.7801 11.5874C10.7932 11.6126 10.8239 11.6409 10.8107 11.6645C10.7975 11.6882 10.7406 11.7102 10.6879 11.7275C10.6396 11.7433 10.5736 11.7574 10.5122 11.7622C10.2224 11.7811 9.93261 11.7968 9.62087 11.8157Z" fill="#FFE492"/>
<path d="M237.967 11.4994C238.182 11.4868 238.406 11.4805 238.617 11.4585C238.784 11.4412 238.889 11.4522 239.021 11.49C239.245 11.5561 239.258 11.5498 239.807 11.5593C239.868 11.5609 239.943 11.5845 239.978 11.6049C240 11.616 239.969 11.6459 239.943 11.6617C239.903 11.6821 239.846 11.7089 239.793 11.7089C239.447 11.7136 239.095 11.8065 238.757 11.6995C238.586 11.6459 238.397 11.6207 238.165 11.6443C238.024 11.6585 237.875 11.6648 237.73 11.6711C237.589 11.6774 237.445 11.6601 237.357 11.6128C237.229 11.5435 237.304 11.5168 237.532 11.5215C237.677 11.5246 237.822 11.5073 237.967 11.4994Z" fill="#FFE492"/>
<path d="M317.542 22.3546C317.819 22.3389 318.096 22.32 318.377 22.3074C318.434 22.3043 318.504 22.3216 318.557 22.3326C318.767 22.3799 318.737 22.4602 318.745 22.531C318.75 22.605 318.262 22.6649 318.056 22.6145C317.828 22.5578 317.621 22.4932 317.305 22.5279C317.182 22.5405 317.037 22.5121 316.958 22.4665C316.84 22.4003 316.906 22.3735 317.13 22.3783C317.261 22.3814 317.402 22.3641 317.542 22.3546Z" fill="#FFE492"/>
<path d="M178.149 0.919274C178.435 0.90195 178.72 0.875191 179.006 0.873616C179.172 0.872041 179.256 0.924001 179.216 0.961798C179.194 0.985421 179.142 1.01849 179.089 1.02164C178.518 1.05944 177.947 1.09094 177.377 1.12559C177.21 1.10354 177.126 1.07047 177.166 1.03268C177.188 1.00906 177.241 0.977557 177.293 0.972833C177.579 0.950785 177.864 0.936597 178.149 0.919274Z" fill="#FFE492"/>
<path d="M312.067 17.2284C312.343 17.2127 312.624 17.189 312.901 17.1812C313.046 17.178 313.16 17.2142 313.178 17.2552C313.186 17.2741 313.116 17.3071 313.059 17.315C312.664 17.3686 312.238 17.3749 311.825 17.4016C311.694 17.4095 311.553 17.3843 311.474 17.3402C311.356 17.2725 311.421 17.2473 311.645 17.252C311.786 17.2536 311.926 17.2363 312.067 17.2284Z" fill="#FFE492"/>
<path d="M245.22 11.7119C245.36 11.7041 245.505 11.6836 245.641 11.6899C245.786 11.6978 245.878 11.7434 245.922 11.7891C245.97 11.8411 245.966 11.8899 245.922 11.934C245.852 12.0096 245.782 12.0065 245.619 11.9561C245.369 11.8773 245.351 11.8868 244.855 11.8899C244.798 11.8899 244.728 11.8663 244.684 11.8458C244.618 11.8143 244.653 11.7655 244.807 11.7371C244.921 11.7167 245.079 11.7198 245.22 11.7119Z" fill="#FFE492"/>
<path d="M301.78 16.7119C301.986 16.6993 302.193 16.6788 302.399 16.6788C302.544 16.6773 302.658 16.7135 302.671 16.7529C302.676 16.7718 302.61 16.8033 302.557 16.8127C302.307 16.8552 302.026 16.8584 301.754 16.8725C301.626 16.8788 301.486 16.8536 301.407 16.8096C301.288 16.7434 301.359 16.7135 301.574 16.7229C301.64 16.7261 301.71 16.7166 301.78 16.7119Z" fill="#FFE492"/>
<path d="M269.303 14.7797C268.996 14.7986 268.706 14.775 268.728 14.7341C268.758 14.6805 268.886 14.6458 269.017 14.6364C269.228 14.6207 269.439 14.6081 269.654 14.5986C269.79 14.5923 269.913 14.6159 270.023 14.6569C269.957 14.7073 269.856 14.7435 269.724 14.7545C269.588 14.7655 269.443 14.7718 269.303 14.7797Z" fill="#FFE492"/>
<path d="M267.286 14.5781C267.492 14.5655 267.699 14.545 267.905 14.545C268.05 14.5435 268.164 14.5797 268.177 14.6191C268.182 14.638 268.116 14.6695 268.063 14.6789C267.813 14.7214 267.532 14.7246 267.26 14.7387C267.132 14.745 266.992 14.7198 266.913 14.6757C266.794 14.6096 266.864 14.5797 267.08 14.5891C267.145 14.5923 267.216 14.5828 267.286 14.5781Z" fill="#FFE492"/>
<path d="M242.731 11.6993C242.938 11.6867 243.144 11.6662 243.35 11.6647C243.495 11.6631 243.609 11.6993 243.623 11.7387C243.627 11.7576 243.561 11.7875 243.508 11.7985C243.258 11.8411 242.977 11.8442 242.705 11.8584C242.578 11.8647 242.437 11.8395 242.358 11.7954C242.24 11.7292 242.31 11.6993 242.525 11.7088C242.591 11.7119 242.661 11.7025 242.731 11.6993Z" fill="#FFE492"/>
<path d="M241.575 11.6062C241.794 11.5936 241.865 11.5858 241.935 11.5858C242.067 11.5858 242.203 11.6047 242.282 11.6503C242.4 11.7165 242.33 11.7354 242.115 11.7385C241.838 11.7417 241.566 11.7748 241.29 11.7811C241.145 11.7842 241.03 11.7464 241.022 11.707C241.017 11.6881 241.083 11.6551 241.136 11.6488C241.32 11.6251 241.522 11.611 241.575 11.6062Z" fill="#FFE492"/>
<path d="M265.499 2.34137C265.359 2.34924 265.21 2.37129 265.078 2.36342C264.902 2.35239 264.832 2.30988 264.876 2.27051C264.902 2.24846 264.951 2.21696 265.003 2.21224C265.284 2.19019 265.57 2.176 265.851 2.16026C266.018 2.18388 266.092 2.21695 266.048 2.25632C266.022 2.27837 265.974 2.30829 265.921 2.31459C265.785 2.33034 265.64 2.33349 265.499 2.34137Z" fill="#FFE492"/>
<path d="M95.1004 3.24996C95.2366 3.24839 95.3594 3.26886 95.4648 3.30823C95.3989 3.35863 95.3024 3.3917 95.1707 3.40587C95.1048 3.41217 95.0302 3.41689 94.9599 3.41846C94.8238 3.42161 94.7008 3.39957 94.5955 3.36019C94.6613 3.3098 94.7623 3.27673 94.8896 3.26255C94.9555 3.25625 95.0302 3.25469 95.1004 3.24996Z" fill="#FFE492"/>
<path d="M310.566 17.2223C310.562 17.1766 310.83 17.1247 311.071 17.1262C311.199 17.1278 311.33 17.1499 311.405 17.1924C311.519 17.257 311.453 17.2822 311.238 17.2774C311.106 17.2743 310.966 17.3011 310.834 17.2963C310.685 17.2948 310.597 17.2601 310.566 17.2223Z" fill="#FFE492"/>
<path d="M246.492 11.9024C246.488 11.885 246.466 11.8646 246.479 11.8488C246.562 11.7622 247.067 11.7354 247.199 11.811C247.221 11.8252 247.23 11.8488 247.212 11.863C247.186 11.885 247.137 11.9134 247.085 11.9197C246.949 11.9354 246.808 11.9433 246.668 11.9449C246.606 11.9449 246.549 11.9181 246.492 11.9024Z" fill="#FFE492"/>
<path d="M11.1826 11.5638C10.6645 11.5968 10.6557 11.5937 10.7479 11.5149C10.8313 11.4441 10.985 11.4016 11.2089 11.4016C11.2748 11.4016 11.345 11.3984 11.4021 11.4047C11.4636 11.4126 11.5514 11.4283 11.5646 11.4472C11.591 11.4834 11.5162 11.5228 11.3845 11.5496C11.3274 11.5622 11.2528 11.559 11.1826 11.5638Z" fill="#FFE492"/>
<path d="M101.587 3.02814C101.433 3.05491 101.301 3.04547 101.205 2.99507C101.108 2.94468 101.262 2.88483 101.53 2.87065C101.6 2.8675 101.675 2.85492 101.74 2.86121C101.806 2.86594 101.872 2.88482 101.912 2.90372C101.982 2.93522 101.938 2.97775 101.798 3.01397C101.741 3.02815 101.657 3.02499 101.587 3.02814Z" fill="#FFE492"/>
<path d="M309.652 17.1038C309.691 17.0833 309.731 17.0628 309.775 17.0439C309.937 17.0707 310.007 17.1022 309.963 17.1384C309.937 17.1604 309.884 17.1793 309.845 17.1998C309.682 17.173 309.617 17.14 309.652 17.1038Z" fill="#FFE492"/>
<path d="M18.1367 29.4919C18.1367 29.473 18.1982 29.4431 18.2465 29.4368C18.3387 29.4258 18.4528 29.4478 18.5318 29.4919C18.6416 29.5549 18.5758 29.588 18.3738 29.5707C18.2333 29.5581 18.1367 29.5266 18.1367 29.4919Z" fill="#FFE492"/>
<path d="M248.282 10.4361C248.339 10.4503 248.396 10.4645 248.448 10.4802C248.374 10.5385 248.282 10.5637 248.185 10.548C248.123 10.5385 248.071 10.5196 248.014 10.5054C248.088 10.4472 248.176 10.4251 248.282 10.4361Z" fill="#FFE492"/>
<path d="M246.761 10.3652C246.849 10.3415 246.954 10.3541 247.077 10.3998C247.038 10.4203 247.003 10.4439 246.954 10.4597C246.871 10.4849 246.761 10.4722 246.643 10.425C246.678 10.4061 246.717 10.3856 246.761 10.3652Z" fill="#FFE492"/>
<path d="M245.596 10.4343C245.653 10.4485 245.71 10.4627 245.763 10.4784C245.688 10.5367 245.6 10.5619 245.499 10.5461C245.438 10.5367 245.385 10.5178 245.328 10.5036C245.403 10.4453 245.491 10.4217 245.596 10.4343Z" fill="#FFE492"/>
<path d="M244.742 10.351C244.808 10.3824 244.773 10.4202 244.646 10.4628C244.589 10.4486 244.523 10.4376 244.479 10.4187C244.409 10.3888 244.444 10.3494 244.575 10.3069C244.628 10.3226 244.685 10.3368 244.742 10.351Z" fill="#FFE492"/>
</svg>
