<svg width="1920" height="701" fill="none" xmlns="http://www.w3.org/2000/svg"><g opacity=".3" fill="#A1A1A1"><path d="M720.952 700.402c-7.29 0-14.385-.572-21.204-1.713-14.301-2.396-27.514-7.315-39.271-14.621-12.637-7.85-23.72-18.547-32.945-31.792-18.54-26.622-27.815-58.505-36.786-89.338-1.763-6.055-3.585-12.315-5.435-18.389-12.623-41.401-28.624-77.667-48.915-110.868-40.478-66.231-97.403-122.754-164.625-163.459-77.74-47.072-161.324-70.521-235.356-66.025-43.512 2.644-101.004 27.784-126.699 70.718-15.248 25.481-16.478 53.758-3.553 81.771l-.257.118c-6.776-14.691-9.73-29.419-8.773-43.774.877-13.169 5.028-26.042 12.34-38.261 11.631-19.435 30.811-36.66 55.468-49.815 22.784-12.154 48.16-19.627 71.457-21.042 38.743-2.35 79.949 2.867 122.471 15.512 38.546 11.463 76.582 28.471 113.049 50.553 67.261 40.727 124.22 97.281 164.72 163.552 20.302 33.224 36.312 69.509 48.944 110.932 1.853 6.074 3.675 12.338 5.434 18.392 8.963 30.811 18.233 62.671 36.747 89.254 17.905 25.712 42.142 41.288 72.033 46.294 41.394 6.934 91.66-7.568 134.459-38.796 61.677-45.001 104.481-110.502 145.879-173.843 7.256-11.103 14.758-22.584 22.186-33.669 19.28-28.788 45.4-66.09 76.44-99.323 31.73-33.968 63.97-58.924 98.56-76.299 21.18-10.635 43.62-17.8 66.71-21.295 21.32-3.23 43.89-3.43 67.08-.6 39.78 4.856 82.64 18.575 131.02 41.936 95.26 46.004 190.43 101.842 282.84 165.967 87.84 60.949 173.99 129.917 256.06 204.981l-.19.209c-170.12-155.606-351.41-280.395-538.83-370.903-105.9-51.134-189.96-57.504-264.56-20.044-75.89 38.109-128.91 106.882-174.9 175.526-7.422 11.083-14.923 22.563-22.179 33.666-41.409 63.364-84.227 128.885-145.947 173.916-19.944 14.553-42.381 25.904-64.883 32.824-11.887 3.656-23.703 6.046-35.125 7.106-4.552.431-9.044.642-13.464.642z"/><path d="M728.08 684.615c-18.591 0-35.811-3.537-51.2-10.519-17.161-7.785-31.97-19.849-44.018-35.854a135.65 135.65 0 01-3.144-4.36c-18.342-26.507-28.03-57.975-37.395-88.409-1.895-6.15-3.853-12.512-5.838-18.685-11.825-36.756-26.064-69.151-43.535-99.032a432.677 432.677 0 00-6.627-10.956c-41.073-65.661-98.461-121.469-165.958-161.39-78.302-46.269-162.123-68.748-236.022-63.294C91.146 195.338 33.92 220.89 8.115 263.494c-15.452 25.512-17.2 53.846-5.062 81.94l-.26.112c-6.362-14.724-8.976-29.48-7.766-43.853 1.11-13.2 5.431-26.101 12.846-38.345 11.748-19.401 30.872-36.646 55.297-49.869 22.576-12.222 47.841-19.908 71.147-21.644 38.696-2.856 79.946 1.863 122.604 14.023 38.639 11.015 76.855 27.606 113.585 49.31 67.537 39.943 124.955 95.785 166.054 161.483a433.255 433.255 0 016.63 10.964c17.482 29.901 31.729 62.313 43.56 99.089 1.988 6.173 3.945 12.534 5.841 18.688 9.362 30.413 19.041 61.859 37.358 88.329a138.595 138.595 0 003.139 4.352c24.896 33.083 59.105 46.542 95.079 46.542h.589c-.225-.003-.451 0-.676 0zm7.673-.197c33.444-1.717 67.955-14.561 97.561-33.669 63.862-41.387 109.761-105.309 154.15-167.126 1.827-2.548 3.655-5.091 5.482-7.633a3938.24 3938.24 0 0113.624-18.849c21.79-29.869 48.15-64.624 78.52-95.906 32.31-33.286 64.58-57.986 98.67-75.515 20.95-10.759 43.08-18.339 65.79-22.527 21.04-3.882 43.28-4.978 66.09-3.262 39.4 2.968 81.76 14.221 129.51 34.403 46.56 19.646 84.83 38.139 120.44 58.2 50.45 28.446 98.5 61.222 138.85 89.53 93.82 66.002 185.87 140.949 273.6 222.758l-.2.206c-87.71-81.798-179.75-156.739-273.56-222.733-40.35-28.305-88.39-61.075-138.83-89.513-35.6-20.055-73.86-38.543-120.4-58.184-104.03-43.965-187.01-46.708-261.16-8.625-76.96 39.569-131.76 109.188-177.09 171.337a3242.053 3242.053 0 00-13.625 18.849c-1.828 2.54-3.655 5.085-5.483 7.633-44.403 61.836-90.318 125.781-154.226 167.199-15.846 10.226-32.708 18.35-50.12 24.142-16.207 5.387-32.183 8.501-47.593 9.285z"/><path d="M735.938 669.189c-2.237 0-4.459-.048-6.664-.147-18.574-.82-35.763-5.079-51.087-12.664-16.761-8.295-31.282-20.582-43.157-36.522a146.192 146.192 0 01-3.122-4.366c-18.137-26.377-28.227-57.425-37.982-87.447-2.034-6.257-4.137-12.729-6.269-19.009-12.409-36.632-27.023-68.768-44.683-98.246a441.038 441.038 0 00-6.729-10.863c-41.668-65.089-99.518-120.18-167.292-159.318-78.86-45.465-162.918-66.978-236.687-60.565C90.73 183.709 33.67 207.803 6.54 252.034c-15.674 25.554-17.956 53.964-6.6 82.156l-.261.105c-5.951-14.77-8.221-29.56-6.755-43.958 1.348-13.242 5.85-26.177 13.376-38.45 11.873-19.356 30.935-36.606 55.126-49.89 22.364-12.281 47.514-20.177 70.814-22.234 38.65-3.357 79.946.859 122.736 12.534 38.735 10.571 77.129 26.741 114.118 48.068 67.814 39.163 125.695 94.285 167.388 159.411a434.217 434.217 0 016.732 10.871c17.668 29.495 32.29 61.651 44.705 98.302 2.132 6.283 4.236 12.755 6.269 19.012 9.752 30.005 19.834 61.031 37.948 87.377a141.15 141.15 0 003.116 4.358c48.256 64.768 133.775 57.814 197.118 22.194 66.528-37.739 115.968-100.464 163.781-161.122l.491-.623c4.628-5.88 9.418-11.957 14.188-17.958 50.29-63.308 105.57-128.369 179.37-167.224 20.72-10.886 42.55-18.88 64.88-23.759 20.77-4.538 42.67-6.531 65.09-5.922 39.08 1.06 80.96 9.848 128.01 26.868 49.46 17.822 86.67 34.204 120.67 53.121 48.44 27.006 95.37 61.131 136.77 91.241 92.18 67.397 182.82 143.322 269.43 225.659l-.2.202c-86.59-82.328-177.23-158.244-269.4-225.636-41.39-30.103-88.31-64.224-136.74-91.221-33.98-18.911-71.19-35.287-120.62-53.104-102.01-36.891-183.91-36.003-257.76 2.796-73.76 38.83-129.01 103.863-179.28 167.148-4.77 6.001-9.56 12.081-14.188 17.958l-.491.623c-23.827 30.228-48.464 61.484-75.07 89.403-29.899 31.375-58.944 54.858-88.795 71.79-31.231 17.56-65.25 27.059-96.568 27.059z"/><path d="M1971.87 659.715c-85.47-82.858-174.71-159.749-265.24-228.536-3.83-2.892-7.67-5.799-11.53-8.713-39.21-29.658-79.76-60.326-123.11-84.217-42.07-23.113-84.69-37.246-120.85-48.022-99.8-29.929-180.62-25.41-254.36 14.215-75.69 40.797-134.35 108.533-181.48 162.962-2.82 3.267-5.65 6.54-8.48 9.815-2.08 2.419-4.17 4.837-6.26 7.253-26.835 31.022-51.244 58.758-78.213 84.067-30.81 28.911-60.507 50.085-90.792 64.734-28.383 13.73-58.702 20.994-86.904 20.997-5.138 0-10.2-.24-15.175-.728-18.162-1.778-34.976-6.776-49.973-14.854-16.366-8.814-30.599-21.335-42.311-37.215a153.162 153.162 0 01-3.099-4.375c-17.923-26.239-28.405-56.85-38.541-86.452-2.183-6.376-4.442-12.972-6.726-19.373-13.001-36.516-27.993-68.396-45.827-97.462a438.944 438.944 0 00-6.831-10.77c-42.266-64.517-100.575-118.892-168.623-157.249-79.418-44.662-163.71-65.202-237.35-57.84-50.343 5.133-101.822 34.972-125.19 72.559-15.92 25.608-18.743 54.108-8.17 82.418l-.265.099c-5.536-14.823-7.465-29.658-5.733-44.093 1.593-13.29 6.28-26.267 13.928-38.573 11.997-19.3 30.997-36.55 54.946-49.883 22.149-12.332 47.17-20.433 70.456-22.806 38.605-3.861 79.943-.144 122.866 11.047 38.827 10.124 77.404 25.878 114.653 46.824 68.09 38.379 126.431 92.785 168.722 157.342a434.235 434.235 0 016.833 10.776c17.846 29.083 32.844 60.979 45.853 97.512 2.284 6.404 4.543 12.997 6.726 19.376 10.13 29.585 20.607 60.176 38.507 86.385a158.751 158.751 0 003.093 4.366c50.377 68.308 136 59.776 194.013 31.716 69.215-33.481 122.181-94.708 168.917-148.732 2.09-2.418 4.17-4.836 6.26-7.252 2.83-3.275 5.65-6.548 8.48-9.815 26.9-31.067 53.47-61.258 82.68-89.079 33.58-31.995 65.93-56.182 98.88-73.945 20.51-11.019 42.03-19.427 63.97-24.988 20.51-5.201 42.07-8.087 64.09-8.583 38.83-.874 80.22 5.451 126.52 19.333 36.16 10.782 78.81 24.92 120.9 48.048 43.37 23.9 83.93 54.575 123.15 84.239 3.85 2.915 7.69 5.821 11.53 8.713 90.53 68.793 179.78 145.692 265.26 228.559l-.2.2z"/><path d="M1968.88 657.06c-85.96-84.972-173.79-162.841-261.07-231.44-5.22-4.104-10.57-8.335-15.73-12.425-37.01-29.292-75.27-59.581-116.82-82.212-41.5-22.519-84.49-34.346-121.07-42.943-97.37-23.105-177.12-14.959-250.96 25.636-70.44 38.861-125.62 97.298-178.99 153.81l-5.86 6.204c-4.62 4.902-9.41 9.967-14.13 14.936-53.418 56.188-106.893 108.85-173.649 135.785-16.199 6.537-32.833 11.066-49.444 13.471-17.837 2.579-35.164 2.615-51.501.107-17.745-2.726-34.178-8.451-48.843-17.017-15.959-9.321-29.907-22.07-41.453-37.888a163.213 163.213 0 01-3.077-4.384c-17.702-26.084-28.563-56.244-39.065-85.412-2.343-6.508-4.769-13.239-7.217-19.775-13.604-36.404-28.968-68.027-46.972-96.676a435.203 435.203 0 00-6.932-10.677c-42.861-63.945-101.63-117.604-169.957-155.18-79.98-43.854-164.508-63.427-238.022-55.109-49.883 5.765-101.128 35.812-124.614 73.072-16.185 25.673-19.566 54.282-9.78 82.737l-.268.093c-5.122-14.888-6.704-29.779-4.704-44.256 1.844-13.347 6.726-26.375 14.51-38.72 12.126-19.235 31.058-36.469 54.753-49.841 21.93-12.377 46.815-20.672 70.07-23.361 38.56-4.363 79.94-1.147 122.998 9.558 38.924 9.68 77.679 25.013 115.189 45.581 68.367 37.596 127.17 91.289 170.056 155.271a441.47 441.47 0 016.935 10.683c18.015 28.663 33.388 60.303 46.998 96.726 2.448 6.536 4.873 13.27 7.217 19.779 10.496 29.151 21.351 59.296 39.033 85.35a175.291 175.291 0 003.072 4.374c49.163 67.358 130.852 65.467 190.908 41.235 66.702-26.913 120.155-79.555 173.549-135.717 4.72-4.97 9.51-10.035 14.14-14.937l5.86-6.204c26.19-27.738 53.28-56.424 82.69-83.109 33.32-30.222 64.84-53.366 96.36-70.757 20.29-11.157 41.51-19.979 63.05-26.22 20.26-5.868 41.49-9.651 63.1-11.244 38.66-2.849 79.55 1.012 125.01 11.8 36.6 8.602 79.61 20.432 121.14 42.97 41.58 22.64 79.85 52.938 116.86 82.239 5.17 4.09 10.51 8.318 15.73 12.424 87.29 68.605 175.13 146.479 261.09 231.46l-.19.203z"/><path d="M1965.89 654.405c-85.22-85.917-171.65-164.761-256.91-234.341-6.4-5.228-12.97-10.666-19.32-15.923-35.01-28.976-71.21-58.938-111.14-80.42-41.3-22.132-84.49-31.561-121.28-37.863-94.67-16.464-173.34-4.688-247.57 37.057-64.78 36.584-117.96 88.431-169.4 138.57a8198.54 8198.54 0 01-16.46 16.016c-6.41 6.206-11.3 10.922-15.87 15.285-24.45 23.356-53.565 50.249-84.119 72.618-32.378 23.703-63.183 40.108-94.176 50.153-16.298 5.283-32.861 8.614-49.232 9.9-17.578 1.381-34.598.366-50.582-3.019-17.319-3.667-33.368-10.119-47.709-19.176-15.55-9.82-29.208-22.797-40.596-38.565a174.4 174.4 0 01-3.054-4.389c-17.468-25.909-28.693-55.604-39.55-84.321-2.519-6.66-5.122-13.547-7.747-20.235-14.217-36.302-29.956-67.666-48.121-95.889a438.216 438.216 0 00-7.033-10.585c-43.456-63.372-102.688-116.316-171.291-153.111-80.535-43.047-165.301-61.647-238.684-52.38-41.756 5.39-96.292 30.217-124.003 73.529-16.475 25.751-20.429 54.491-11.43 83.109l-.268.084c-4.707-14.964-5.936-29.92-3.658-44.453 2.104-13.414 7.189-26.499 15.12-38.892 12.256-19.156 31.117-36.362 54.55-49.762 21.71-12.413 46.445-20.897 69.655-23.894 38.515-4.865 79.94-2.15 123.128 8.07 39.017 9.234 77.952 24.151 115.723 44.341 68.642 36.815 127.908 89.789 171.389 153.199a432.887 432.887 0 017.036 10.592c18.174 28.238 33.921 59.619 48.146 95.937 2.629 6.692 5.232 13.578 7.75 20.239 10.849 28.702 22.071 58.38 39.519 84.262a178.304 178.304 0 003.051 4.38c40.901 56.639 111.109 75.614 187.803 50.756 69.455-22.51 126.112-72.962 178.193-122.706 4.57-4.363 9.46-9.079 15.86-15.286 5.45-5.285 11.05-10.739 16.46-16.016 25.33-24.683 51.51-50.206 79.44-74.106 31.58-27.028 61.03-48.129 90.03-64.506 20.1-11.303 41-20.539 62.14-27.451 20.02-6.548 40.91-11.224 62.09-13.904 38.57-4.877 78.97-3.482 123.52 4.264 36.81 6.308 80.03 15.74 121.36 37.892 39.96 21.495 76.17 51.466 111.19 80.451 6.35 5.257 12.92 10.694 19.32 15.923 85.26 69.588 171.7 148.438 256.93 234.36l-.2.206z"/><path d="M1962.89 651.75c-84.47-86.867-169.5-166.689-252.73-237.244-7.08-6.001-14.35-12.301-21.39-18.392-33.5-29.015-68.14-59.018-106.98-79.659-41.34-21.867-84.62-28.844-121.5-32.784-90.38-9.913-170.25 5.945-244.17 48.479-58.86 34.021-109.32 79.535-158.11 123.551-9.86 8.89-20.05 18.085-29.96 26.848a2072.28 2072.28 0 01-16.42 14.398c-23.211 20.086-54.089 45.841-87.085 66.888-33.153 21.146-64.511 35.169-95.862 42.866-34.195 8.397-68.322 8.459-98.689.184-16.884-4.603-32.553-11.78-46.572-21.332-15.136-10.314-28.504-23.517-39.736-39.236a191.836 191.836 0 01-3.032-4.395c-17.22-25.712-28.794-54.919-39.984-83.162-2.708-6.833-5.505-13.897-8.328-20.76-14.84-36.206-30.954-67.316-49.265-95.103a441.585 441.585 0 00-7.136-10.491c-44.05-62.8-103.742-115.031-172.621-151.039-81.091-42.239-166.094-59.869-239.35-49.652C74.324 138.79 24.754 168.499.624 205.638c-16.79 25.845-21.328 54.734-13.122 83.543l-.27.077c-4.29-15.055-5.164-30.09-2.6-44.685 2.368-13.49 7.67-26.642 15.755-39.09 12.387-19.065 31.174-36.231 54.334-49.643 21.48-12.438 46.061-21.109 69.209-24.407 38.47-5.366 79.94-3.151 123.261 6.582 39.113 8.789 78.228 23.288 116.258 43.098 68.919 36.031 128.645 88.29 172.724 151.13a439.797 439.797 0 017.138 10.496c18.319 27.804 34.442 58.928 49.29 95.151 2.823 6.864 5.621 13.93 8.328 20.763 11.185 28.229 22.753 57.422 39.956 83.109a193.488 193.488 0 003.029 4.388c40.199 56.273 109.245 78.805 184.701 60.278 68.789-16.892 128.526-62.705 182.835-109.692 4.98-4.324 10.36-9.031 16.41-14.395 9.91-8.764 20.1-17.955 29.96-26.845 48.8-44.026 99.26-89.55 158.15-123.586 19.92-11.464 40.53-21.112 61.23-28.683a371.202 371.202 0 0161.1-16.563c38.56-6.976 78.47-8.044 122.01-3.269 36.91 3.943 80.23 10.922 121.61 32.815 38.87 20.655 73.52 50.669 107.04 79.696 7.03 6.091 14.3 12.388 21.38 18.389 83.24 70.56 168.28 150.388 252.76 237.26l-.21.195z"/><path d="M1959.91 649.094c-83.73-87.825-167.36-168.62-248.58-240.144-7.46-6.573-15.14-13.532-22.56-20.263-32.28-29.261-65.66-59.52-103.72-79.496-41.5-21.681-84.82-26.172-121.72-27.705-86.96-3.878-165.72 15.714-240.77 59.9-52.63 31.135-99.55 70.541-144.93 108.647-15.6 13.104-30.34 25.481-45.33 37.564-6.09 4.919-11.65 9.339-16.98 13.507-34.388 26.877-63.002 46.309-90.047 61.152-33.929 18.623-65.837 30.264-97.546 35.586-12.302 2.063-24.558 3.092-36.592 3.092-21.332 0-41.973-3.225-60.975-9.612-34.389-11.559-62.754-32.888-84.308-63.395a208.12 208.12 0 01-3.01-4.403c-16.957-25.489-28.855-54.178-40.362-81.925-2.916-7.03-5.928-14.296-8.965-21.363-15.474-36.121-31.967-66.972-50.41-94.316a433.098 433.098 0 00-7.237-10.398c-44.646-62.228-104.8-113.743-173.956-148.971-81.646-41.426-166.883-58.09-240.012-46.923-49.852 7.771-97.993 36.917-122.638 74.253-17.132 25.952-22.27 55.013-14.865 84.042l-.274.071c-3.866-15.159-4.38-30.284-1.522-44.956 2.645-13.58 8.17-26.805 16.427-39.312 12.516-18.961 31.222-36.071 54.1-49.482 21.249-12.459 45.657-21.298 68.729-24.895 38.425-5.868 79.941-4.154 123.391 5.094 39.208 8.346 78.502 22.428 116.794 41.854 69.195 35.251 129.383 86.794 174.057 149.058a446.585 446.585 0 017.24 10.404c18.455 27.358 34.956 58.226 50.435 94.362 3.038 7.066 6.052 14.335 8.966 21.365 11.5 27.733 23.393 56.411 40.336 81.878a211.426 211.426 0 003.007 4.397c40.249 56.971 106.438 82.413 181.596 69.799 71.544-12.008 134.913-55.61 187.471-96.681 5.33-4.169 10.88-8.586 16.98-13.504 14.98-12.084 29.72-24.458 45.32-37.562 45.38-38.115 92.31-77.526 144.97-108.672 19.77-11.641 40.06-21.704 60.32-29.912 19.61-7.949 39.83-14.418 60.09-19.224 38.64-9.163 78.06-12.698 120.51-10.804 36.93 1.534 80.29 6.03 121.84 27.736 38.09 19.99 71.48 50.263 103.78 79.535 7.42 6.731 15.1 13.691 22.56 20.261 81.22 71.53 164.86 152.333 248.59 240.164l-.2.197z"/><path d="M1956.92 646.439c-84.14-90.04-164.09-169.541-244.41-243.047-7.66-7.013-15.21-14.175-23.2-21.757-31.23-29.642-63.52-60.289-100.99-79.707-42.03-21.673-87.24-23.477-121.94-22.626-83 1.77-160.65 25.1-237.38 71.324-46.03 27.869-88.53 61.335-129.63 93.702-21.61 17.011-42.01 33.074-62.82 48.321-6.17 4.529-11.91 8.656-17.54 12.616-34.857 24.511-64.412 42.117-93.014 55.41-34.717 16.134-67.174 25.394-99.228 28.308-16.469 1.497-32.826 1.215-48.616-.837-16.718-2.173-32.81-6.342-47.828-12.388-33.286-13.403-60.977-35.679-82.306-66.214a221.065 221.065 0 01-2.986-4.409c-16.673-25.227-28.87-53.369-40.667-80.583-3.147-7.261-6.402-14.77-9.676-22.07-16.123-36.043-32.988-66.637-51.558-93.53a458.891 458.891 0 00-7.336-10.305c-45.241-61.656-105.854-112.455-175.287-146.902-64.085-31.662-130.173-48.183-190.775-48.183-17.132 0-33.814 1.319-49.903 3.989-49.251 8.332-97.09 37.581-121.879 74.517-17.496 26.073-23.258 55.331-16.661 84.609l-.276.062c-3.444-15.277-3.588-30.507-.43-45.262 2.928-13.68 8.693-26.992 17.13-39.566 12.646-18.843 31.265-35.882 53.849-49.28 21.317-12.647 44.908-21.416 68.217-25.357 38.379-6.37 79.94-5.155 123.523 3.606 39.301 7.898 78.778 21.56 117.33 40.608 69.471 34.467 130.122 85.294 175.391 146.987a445.58 445.58 0 017.341 10.31c18.579 26.908 35.452 57.516 51.583 93.575 3.275 7.301 6.532 14.81 9.679 22.074 11.791 27.203 23.983 55.333 40.641 80.541a242.51 242.51 0 002.984 4.403c39.886 57.098 104.941 86.006 178.494 79.32 74.427-6.767 141.761-48.27 192.114-83.67 5.62-3.96 11.35-8.086 17.53-12.613 20.81-15.241 41.21-31.307 62.81-48.315 41.11-32.37 83.61-65.845 129.66-93.722 39.51-23.798 78.27-41.142 118.51-53.025 38.81-11.461 77.74-17.459 119.01-18.339 23.54-.577 42.75.426 60.45 3.155 22.85 3.523 43.01 9.902 61.62 19.502 37.51 19.435 69.82 50.1 101.06 79.755 7.99 7.582 15.54 14.742 23.19 21.755 80.33 73.508 160.28 153.015 244.43 243.061l-.21.197z"/><path d="M1953.92 643.784c-83.37-91.027-161.95-171.476-240.24-245.951-7.74-7.368-15.38-14.959-23.46-22.995-30.3-30.109-61.62-61.247-98.64-80.178-42.37-21.571-87.54-20.709-122.15-17.549-78.33 6.903-154.87 33.971-233.98 82.746-38.98 24.148-76.09 51.782-111.99 78.509-28.37 21.126-55.17 41.082-82.66 59.322a886.125 886.125 0 01-18.1 11.726c-34.926 21.997-66.323 38.241-95.983 49.662-35.514 13.677-68.521 20.56-100.908 21.039-16.478.242-32.77-1.246-48.413-4.428-16.4-3.338-32.181-8.555-46.908-15.511-32.144-15.185-59.164-38.408-80.307-69.027a246.015 246.015 0 01-2.964-4.417c-16.36-24.92-28.822-52.467-40.875-79.107-3.41-7.537-6.938-15.334-10.483-22.913-16.783-35.975-34.022-66.31-52.703-92.743a459.768 459.768 0 00-7.437-10.213c-45.836-61.083-106.912-111.166-176.621-144.832-82.755-39.8-168.468-54.525-241.343-41.463-48.614 8.864-96.134 38.19-121.061 74.706-17.892 26.211-24.293 55.689-18.518 85.252l-.276.053c-3.012-15.41-2.78-30.757.691-45.615 3.223-13.792 9.233-27.2 17.869-39.85 12.77-18.708 31.295-35.662 53.574-49.032 21.072-12.644 44.471-21.563 67.67-25.793 38.337-6.87 79.94-6.16 123.653 2.116 39.397 7.459 79.051 20.704 117.863 39.369 69.751 33.683 130.861 83.797 176.722 144.918 2.516 3.351 5.02 6.79 7.442 10.217 18.692 26.448 35.938 56.797 52.729 92.786 3.548 7.579 7.073 15.376 10.485 22.916 12.048 26.628 24.505 54.164 40.853 79.067a258.408 258.408 0 002.961 4.411c40.306 58.37 102.595 89.928 175.392 88.845 59.068-.873 121.585-23.327 196.746-70.658a923.29 923.29 0 0018.09-11.723c27.49-18.237 54.28-38.188 82.65-59.314 35.9-26.73 73.02-54.37 112.01-78.523 39.89-24.593 78.03-43.208 116.6-56.915 39.07-13.885 77.51-22.35 117.5-25.873 34.65-3.165 79.88-4.025 122.31 17.58 37.06 18.953 68.4 50.105 98.71 80.229 8.08 8.036 15.72 15.624 23.46 22.989 78.29 74.478 156.88 154.932 240.25 245.964l-.21.201z"/><path d="M1950.93 641.128c-82.59-92.016-159.81-173.417-236.07-248.851-7.74-7.658-15.38-15.615-23.48-24.04-29.43-30.648-59.87-62.338-96.52-80.84-42.78-21.493-87.87-17.955-122.38-12.473-73.7 11.486-146.97 41.409-230.58 94.17-31.36 19.877-62.01 41.682-91.65 62.769-35.99 25.611-69.99 49.804-105.2 70.873-6.34 3.8-12.62 7.447-18.66 10.835-35.551 19.94-67.918 34.304-98.948 43.91-17.381 5.381-34.538 9.279-50.997 11.588-17.555 2.46-34.914 3.196-51.592 2.187-33.839-2.049-65.532-11.018-94.196-26.657-30.957-16.889-57.303-41.057-78.305-71.837a339.224 339.224 0 01-2.944-4.422c-16.01-24.554-28.695-51.447-40.96-77.452-3.714-7.873-7.552-16.013-11.413-23.934-17.46-35.915-35.074-65.994-53.851-91.957a459.263 459.263 0 00-7.538-10.119c-46.432-60.514-107.967-109.881-177.953-142.761-83.307-38.985-169.254-52.74-242.009-38.734C37.783 98.612-38.127 164.414-24.929 244.169l-.28.045c-3.302-19.95-1.367-39.605 5.748-58.423 6.498-17.185 17.161-33.359 31.693-48.067 13.512-13.676 29.722-25.484 48.177-35.095 17.553-9.141 36.648-15.895 55.219-19.525 38.292-7.371 79.94-7.16 123.785.631 39.494 7.016 79.328 19.844 118.399 38.128 70.024 32.903 131.597 82.298 178.056 142.846a448.997 448.997 0 017.544 10.125c18.785 25.974 36.409 56.069 53.877 91.999 3.86 7.921 7.699 16.061 11.413 23.936 12.262 25.997 24.941 52.879 40.943 77.419a294.37 294.37 0 002.938 4.419c40.365 59.153 101.552 94.085 172.287 98.37 59.883 3.622 125.757-15.232 201.38-57.648a776.404 776.404 0 0018.66-10.832c35.19-21.064 69.19-45.254 105.18-70.862 29.64-21.09 60.29-42.898 91.65-62.778 83.65-52.783 156.96-82.717 230.7-94.212 23.18-3.684 42.38-4.862 60.41-3.704 23.06 1.48 43.38 6.779 62.13 16.202 36.69 18.522 67.15 50.232 96.6 80.896 8.1 8.423 15.74 16.38 23.48 24.035 76.26 75.44 153.49 156.844 236.08 248.866l-.21.188z"/><path d="M1947.95 638.474c-81.81-93.02-157.67-175.368-231.91-251.755-7.68-7.903-15.28-16.182-23.31-24.951-28.64-31.234-58.26-63.533-94.61-81.638-43.7-21.672-90.89-14.6-122.59-7.396-86.03 19.314-163.12 64.216-227.19 105.597-23.02 14.933-45.99 30.752-68.21 46.049-44.56 30.687-86.64 59.672-130.83 83.405a678.86 678.86 0 01-19.21 9.947c-36.25 17.981-69.587 30.462-101.917 38.151-36.651 8.718-71.731 10.911-104.273 6.514-33.43-4.518-64.745-15.748-93.071-33.379-29.71-18.491-55.382-43.602-76.308-74.639a361.123 361.123 0 01-2.921-4.431c-15.613-24.102-28.456-50.257-40.878-75.552-4.07-8.29-8.28-16.859-12.511-25.199-18.401-36.367-35.878-65.335-54.996-91.171A452.494 452.494 0 00535.576 248c-47.032-59.939-109.031-108.59-179.292-140.692-83.86-38.168-170.045-50.956-242.675-36.006-78.18 16.306-152.54 81.215-141.648 161.618l-.28.037c-2.701-19.948-.363-39.583 6.947-58.358 6.7-17.203 17.425-33.393 31.882-48.118 13.48-13.733 29.606-25.628 47.931-35.36 17.448-9.269 36.507-16.217 55.112-20.098 38.249-7.873 79.94-8.16 123.915-.857 39.589 6.573 79.604 18.984 118.934 36.885 70.304 32.119 132.336 80.798 179.391 140.774a469.978 469.978 0 017.645 10.032c19.129 25.848 36.611 54.832 55.022 91.213 4.23 8.341 8.44 16.912 12.51 25.202 12.42 25.286 25.26 51.433 40.861 75.524a360.633 360.633 0 002.919 4.428c40.678 60.331 100.761 98.649 169.184 107.894 61.367 8.293 128.757-6.311 206.026-44.64a670.63 670.63 0 0019.21-9.941c44.17-23.728 86.25-52.707 130.8-83.391 22.22-15.297 45.19-31.119 68.22-46.055 43.08-27.823 78.92-48.38 112.78-64.692 39.86-19.2 77.31-32.592 114.49-40.941 22.67-5.153 42.43-7.486 60.41-7.131 23.15.456 43.55 5.214 62.38 14.55 36.4 18.127 66.03 50.446 94.68 81.7 8.04 8.766 15.63 17.044 23.31 24.942 74.25 76.39 150.1 158.743 231.92 251.766l-.21.189z"/><path d="M1944.96 635.815c-81.02-94.026-155.52-177.324-227.75-254.658-7.57-8.109-15.07-16.675-23-25.745-27.89-31.863-56.72-64.811-92.82-82.549-44.18-21.622-91.25-11.68-122.81-2.319-77.94 22.918-147.47 66.557-223.79 117.02-13.77 9.136-27.69 18.564-41.15 27.686-51.79 35.075-105.34 71.343-160.09 97.58a596.681 596.681 0 01-19.77 9.056c-36.496 15.875-71.782 26.772-104.882 32.39-37.497 6.364-73.144 6.114-105.959-.742-32.962-6.886-63.897-20.379-91.946-40.104-28.385-19.962-53.389-46.015-74.314-77.435a429.748 429.748 0 01-2.899-4.437c-15.142-23.538-28.066-48.842-40.565-73.311-4.504-8.817-9.16-17.932-13.839-26.803-19.121-36.33-36.961-65.05-56.144-90.384a454.953 454.953 0 00-7.741-9.933c-47.619-59.376-110.074-107.31-180.617-138.629-84.41-37.35-170.829-49.17-243.341-33.277-75.698 16.77-151.43 79.402-142.686 162.446l-.279.029c-2.1-19.948.64-39.561 8.145-58.294 6.9-17.222 17.69-33.427 32.068-48.168 26.526-27.195 63.956-47.712 102.69-56.292 38.205-8.372 79.941-9.161 124.048-2.346 39.685 6.134 79.878 18.125 119.468 35.643 70.583 31.335 133.074 79.301 180.724 138.705 2.62 3.267 5.226 6.61 7.747 9.938 19.191 25.349 37.04 54.08 56.166 90.424 4.679 8.873 9.338 17.989 13.842 26.806 12.496 24.463 25.418 49.761 40.551 73.289a393.477 393.477 0 002.896 4.433c41.865 62.863 99.295 103.466 166.079 117.421 61.841 12.921 132.717 2.281 210.668-31.628a594.872 594.872 0 0019.76-9.051c54.73-26.228 108.27-62.49 160.05-97.56 13.47-9.122 27.39-18.55 41.16-27.686 33.41-22.09 72.28-47.427 110.87-68.581 40.35-22.127 77.32-37.982 112.99-48.473 22.46-6.661 42.22-10.117 60.39-10.562 22.92-.564 43.99 3.777 62.63 12.898 16.17 7.946 32.45 19.805 49.76 36.254 15.29 14.525 29.45 30.71 43.14 46.359 7.94 9.068 15.43 17.634 23 25.741 72.24 77.336 146.73 160.637 227.76 254.666l-.21.183z"/><path d="M1941.96 633.16c-80.22-95.041-153.35-179.289-223.57-257.558-7.44-8.287-14.8-17.112-22.6-26.453-27.16-32.525-55.24-66.158-91.13-83.546-33.55-16.199-73.79-15.297-123.03 2.756-68.85 25.101-130.39 67.085-195.55 111.539-8.11 5.536-16.5 11.258-24.85 16.909-3.26 2.218-6.54 4.442-9.8 6.663-62.09 42.193-126.28 85.824-193.63 114.411-6.8 2.892-13.64 5.64-20.33 8.166-37.3 14.074-73.576 23.031-107.836 26.622-38.362 4.02-74.582 1.331-107.645-7.993-32.449-9.153-63.003-24.909-90.812-46.833-26.955-21.25-51.288-48.242-72.323-80.231a500.542 500.542 0 01-2.877-4.445c-14.566-22.801-27.448-47.084-39.911-70.566-5.045-9.51-10.265-19.345-15.508-28.917-19.859-36.305-38.061-64.776-57.289-89.598a456.603 456.603 0 00-7.842-9.84c-48.222-58.801-111.14-106.022-181.96-136.557-84.957-36.53-171.615-47.382-244.006-30.55C35.153 64.563-40.473 127.708-34.26 210.419l-.282.023c-1.497-19.951 1.644-39.541 9.343-58.226 7.104-17.242 17.956-33.466 32.257-48.219 26.414-27.251 63.713-48.073 102.338-57.13 38.163-8.873 79.94-10.164 124.177-3.833 39.782 5.688 80.158 17.262 120.007 34.397 70.859 30.554 133.816 77.801 182.058 136.633a457.265 457.265 0 017.849 9.846c19.236 24.835 37.448 53.315 57.314 89.634 5.245 9.572 10.463 19.409 15.511 28.92 12.456 23.477 25.339 47.754 39.899 70.546a499.821 499.821 0 002.874 4.442c42.773 65.044 99.129 108.94 162.977 126.946 63.028 17.774 135.467 11.508 215.308-18.621a545.39 545.39 0 0020.32-8.16c67.32-28.576 131.51-72.198 193.58-114.385 3.27-2.224 6.54-4.445 9.8-6.664 8.35-5.651 16.74-11.373 24.85-16.906 65.17-44.462 126.73-86.458 195.61-111.569 22.24-8.158 41.99-12.733 60.37-13.992 23.01-1.576 44.16 2.209 62.88 11.246 16.08 7.788 32.15 19.7 49.14 36.418 14.99 14.75 28.76 31.248 42.08 47.201 7.8 9.339 15.17 18.161 22.6 26.445 70.22 78.273 143.36 162.523 223.58 257.567l-.22.183z"/><path d="M1938.98 630.505c-73.22-88.563-147.04-176.197-219.42-260.461-7.36-8.53-14.67-17.693-22.4-27.392-25.14-31.553-53.64-67.314-89.24-84.313-33.94-16.171-74.25-13.609-123.25 7.83-58.26 25.408-109.81 62.767-164.4 102.319-17.09 12.385-34.76 25.196-52.59 37.553-31.12 21.617-64.79 44.49-100.08 65.323-37.79 22.313-72.32 39.177-105.55 51.563a505.166 505.166 0 01-20.9 7.275c-38.08 12.298-75.35 19.296-110.768 20.802-39.209 1.663-76.001-3.445-109.357-15.193-61.598-21.963-115.435-67.916-160.013-136.585a577.082 577.082 0 01-2.854-4.451c-13.828-21.794-26.485-44.786-38.724-67.023-5.762-10.466-11.718-21.29-17.711-31.823-20.615-36.296-39.183-64.517-58.433-88.811a459.882 459.882 0 00-7.945-9.747C486.537 139.136 423.156 92.634 352.06 62.88c-85.507-35.713-172.399-45.593-244.671-27.82-74.76 18.487-148.49 80.794-144.76 164.109l-.281.011c-.894-19.956 2.654-39.523 10.542-58.161 7.31-17.264 18.223-33.505 32.443-48.27 13.395-13.91 29.273-26.073 47.19-36.152 17.394-9.784 35.83-17.124 54.795-21.814 38.12-9.372 79.943-11.165 124.31-5.322 39.877 5.251 80.431 16.405 120.539 33.156 71.139 29.771 134.556 76.302 183.393 134.565a474.055 474.055 0 017.95 9.752c19.258 24.309 37.835 52.541 58.459 88.848 5.992 10.537 11.949 21.36 17.71 31.829 12.24 22.234 24.894 45.223 38.715 67.009a550.506 550.506 0 002.852 4.451c44.544 68.615 98.333 114.531 159.872 136.472 63.388 22.324 139.445 20.385 219.942-5.612 6.88-2.224 13.91-4.67 20.89-7.269 74.31-27.688 142.29-72.909 205.56-116.855 17.83-12.357 35.51-25.165 52.6-37.55 54.59-39.561 106.16-76.928 164.45-102.347 49.07-21.473 89.46-24.035 123.48-7.828 15.95 7.614 31.78 19.548 48.4 36.48 14.66 14.931 28.02 31.699 40.94 47.912 7.73 9.699 15.03 18.86 22.4 27.384 72.37 84.267 146.19 171.9 219.41 260.466l-.21.181z"/><path d="M1935.99 627.849c-72.1-89.053-144.52-177.662-215.25-263.364-7.14-8.622-14.22-17.947-21.72-27.818-24.52-32.288-52.32-68.886-87.83-85.598-34.35-16.142-74.73-11.92-123.47 12.904-51.07 25.972-97.98 62.643-143.35 98.111-22.75 17.783-46.28 36.172-70.25 53.188-37.84 26.885-69.67 47.394-100.19 64.545-37.63 21.149-72.84 36.9-107.63 48.152a474.898 474.898 0 01-21.46 6.385c-36.95 10.026-73.245 15.099-107.961 15.102-1.929 0-3.847-.017-5.764-.048-40.137-.654-77.498-8.214-111.047-22.465-16.193-6.917-32.051-15.697-47.13-26.098-14.175-9.775-28.103-21.29-41.4-34.222-23.924-23.265-46.288-51.328-68.364-85.787a803.19 803.19 0 01-2.831-4.459c-12.81-20.331-24.928-41.584-36.646-62.138-6.765-11.864-13.759-24.134-20.804-36.076-21.69-36.796-40.063-63.945-59.581-88.025a459.439 459.439 0 00-8.046-9.654C485.865 122.827 422.025 77.04 350.652 48.067 264.598 13.175 177.469 4.265 105.315 22.975 31.957 42.052-41.677 104.833-40.478 187.914l-.282.003c-.559-38.698 14.786-75.496 44.372-106.415 13.373-13.975 29.166-26.225 46.944-36.417 17.3-9.916 35.698-17.448 54.689-22.386 38.075-9.874 79.943-12.166 124.439-6.81 39.973 4.812 80.708 15.548 121.073 31.913C422.174 76.795 486.051 122.61 535.483 180.3a464.683 464.683 0 018.051 9.66c19.527 24.094 37.909 51.252 59.605 88.062 7.044 11.945 14.041 24.215 20.804 36.079 11.718 20.551 23.833 41.801 36.639 62.127a688.196 688.196 0 002.829 4.456c46.911 73.224 98.189 120.981 156.767 146 81.133 34.467 166.914 23.048 224.592 7.399a471.51 471.51 0 0021.44-6.382c80.03-25.881 153.06-73.801 207.75-112.657 23.96-17.011 47.49-35.4 70.23-53.18 45.39-35.474 92.31-72.156 143.4-98.139 21.81-11.108 41.55-17.929 60.34-20.85 23.18-3.602 44.5-.93 63.38 7.943 15.9 7.484 31.58 19.514 47.93 36.776 14.41 15.21 27.42 32.339 40.01 48.907 7.49 9.868 14.57 19.19 21.71 27.806 70.72 85.703 143.14 174.311 215.25 263.365l-.22.177z"/><path d="M1933 625.194L1721.92 358.93c-6.9-8.696-13.74-18.158-20.99-28.173-23.92-33.052-51.03-70.513-86.47-86.948-34.28-15.892-75.89-9.843-123.69 17.98-45.95 26.747-87.86 62.316-128.4 96.715-26.41 22.423-53.73 45.606-81.8 66.011-84.37 61.329-158.1 97.552-232.03 113.999-30.68 6.821-60.934 10.254-90.278 10.254-8.894 0-17.699-.315-26.41-.947-41.085-2.976-79.016-12.982-112.736-29.737-31.253-15.531-59.844-37.455-87.397-67.028-22.003-23.615-43.095-51.768-66.375-88.6-12.288-19.438-24.186-39.634-35.692-59.165-26.042-44.197-52.969-89.899-86.306-130.122-51.135-61.692-118.255-110.072-194.103-139.911-86.599-34.07-173.964-42.013-246-22.364C33.501 29.919-42.195 89.905-43.589 176.665l-.282-.006c.624-38.78 16.448-75.572 45.76-106.4C28.393 42.385 64.362 21.205 103.17 10.621 141.203.248 183.116-2.545 227.739 2.323c40.069 4.369 80.984 14.69 121.608 30.673a486.88 486.88 0 01105.945 57.766c33.044 23.765 62.743 51.427 88.269 82.221 33.351 40.237 60.286 85.951 86.333 130.159 11.506 19.528 23.405 39.721 35.689 59.156 33.966 53.741 82.129 119.983 153.659 155.527 82.033 40.761 169.935 33.596 229.228 20.407 73.9-16.436 147.6-52.645 231.93-113.951 28.06-20.396 55.37-43.58 81.79-65.997 40.54-34.405 82.46-69.982 128.44-96.743 47.88-27.871 89.58-33.926 123.95-17.992 15.86 7.36 31.4 19.494 47.49 37.103 14.17 15.5 26.84 33.007 39.09 49.936 7.25 10.014 14.09 19.471 20.98 28.164l211.08 266.265-.22.177z"/><path d="M1931.29 604.725c-53.74-74.137-99.86-134.296-145.13-189.32-21.97-26.729-44.41-53.039-66.69-78.199-6.74-7.61-13.42-15.705-20.49-24.277-17.77-21.543-36.14-43.819-57.28-60.351-11.36-8.893-22.28-15.26-33.41-19.466-34.16-13.036-74.24-4.417-119.13 25.622-23.23 15.522-44.38 33.187-62 48.419-18.66 16.126-37.07 33.909-54.87 51.106-25.59 24.72-52.05 50.28-80.49 72.232-17.31 13.397-34.86 25.368-52.15 35.583-34.61 20.436-71.75 37.274-110.39 50.049-23.88 7.805-47.88 13.704-71.32 17.532-20.2 3.287-40.43 5.184-60.149 5.637-29.507.683-58.256-1.919-85.448-7.74-28.912-6.19-56.274-16.069-81.322-29.368-22.336-11.858-43.434-26.789-64.497-45.648-39.251-35.116-70.558-75.719-93.446-107.17-11.244-15.522-22.223-31.352-32.841-46.66-30.574-44.088-59.452-85.728-95.59-122.819-29.473-30.053-63.101-55.988-99.957-77.089-28.323-16.216-59.128-29.478-91.557-39.42a500.403 500.403 0 00-23.387-6.544c-33.549-8.493-71.317-14.023-112.251-16.439-41.27-2.492-76.977-.335-109.152 6.599a226.106 226.106 0 00-52.387 18.135C-2.557 93.88-40.13 142.144-44.552 194.24l-.352-.031c1.179-13.887 4.639-27.566 10.282-40.662 5.361-12.439 12.725-24.435 21.884-35.656C4.57 96.693 28.27 78.338 55.802 64.81c16.6-8.157 34.25-14.267 52.469-18.163 32.209-6.94 67.943-9.099 109.247-6.604 40.958 2.416 78.745 7.952 112.316 16.45a500.153 500.153 0 0123.405 6.55c32.454 9.948 63.284 23.22 91.629 39.451 36.882 21.115 70.538 47.072 100.026 77.145 36.16 37.113 65.044 78.765 95.629 122.864 10.615 15.308 21.594 31.135 32.835 46.655 22.877 31.436 54.169 72.02 93.398 107.113 21.041 18.84 42.116 33.756 64.426 45.6 49.023 26.025 105.074 38.498 166.599 37.069 19.7-.454 39.92-2.351 60.11-5.635 23.42-3.827 47.39-9.721 71.25-17.521 38.63-12.765 75.75-29.593 110.33-50.017 17.28-10.207 34.82-22.172 52.11-35.558 28.43-21.941 54.88-47.495 80.46-72.206 17.8-17.2 36.21-34.989 54.88-51.12 17.64-15.241 38.8-32.911 62.05-48.445 19.98-13.375 39.33-22.614 57.51-27.465 22.33-5.959 43.17-5.35 61.93 1.809 11.16 4.22 22.12 10.604 33.5 19.517 21.18 16.557 39.56 38.847 57.34 60.404 7.07 8.569 13.75 16.664 20.48 24.269a2786.214 2786.214 0 0166.71 78.211c45.27 55.029 91.39 115.194 145.14 189.337l-.29.205z"/><path d="M1929.59 584.25c-49.83-75.391-96.6-138.479-142.99-192.866-22.62-26.566-46.03-52.103-69.58-75.902-6.25-6.313-12.41-12.875-18.95-19.821-19.56-20.799-39.78-42.305-62.44-57.185-11.44-7.546-22.4-12.8-33.51-16.064-42.56-12.504-85.78 11.185-114.56 33.258-20.38 15.593-39 33.224-57.86 51.424-16.51 15.931-32.04 33.069-48.48 51.21-24.4 26.93-49.64 54.776-78.19 78.157-16.95 13.949-34.64 26.011-52.57 35.848-33.4 18.327-69.98 32.559-111.83 43.512-23.42 6.128-47.4 10.494-71.28 12.972-20.15 2.066-40.27 2.804-59.79 2.187-29.039-.908-57.427-4.989-84.376-12.129-28.303-7.5-55.309-18.46-80.265-32.573-21.864-12.363-42.976-27.702-64.542-46.891-39.166-34.803-72.718-73.385-97.569-103.111-9.199-11.004-18.252-22.076-27.009-32.787-34.871-42.653-67.808-82.943-107.848-116.886-29.925-25.368-63.522-46.818-99.851-63.753-27.488-12.814-56.623-22.414-89.066-29.35a495.168 495.168 0 00-22.638-4.282c-33.086-5.432-68.397-7.487-111.12-9.612-30.796-1.61-71.11-2.67-109.839 3.48-18.343 2.86-36.073 7.823-52.703 14.748-58.553 24.39-98.272 66.998-106.253 113.98l-.417-.071c2.115-12.458 6.401-24.677 12.733-36.321 6.035-11.095 13.965-21.732 23.568-31.626 18.25-18.795 42.525-34.825 70.205-46.353 16.661-6.94 34.426-11.912 52.799-14.776 38.766-6.159 79.111-5.096 109.927-3.487 42.737 2.125 78.059 4.18 111.168 9.615a500.765 500.765 0 0122.657 4.284c32.474 6.945 61.638 16.554 89.157 29.382 36.366 16.952 69.99 38.419 99.946 63.813 40.069 33.968 73.02 74.269 107.902 116.939 8.754 10.708 17.807 21.78 27.006 32.781 24.846 29.715 58.383 68.283 97.527 103.068 21.54 19.17 42.63 34.493 64.469 46.841 49.071 27.75 104.402 42.771 164.452 44.648 19.5.615 39.59-.121 59.73-2.187 23.85-2.475 47.82-6.835 71.21-12.96 41.81-10.942 78.36-25.163 111.74-43.473 17.91-9.826 35.57-21.87 52.5-35.806 28.53-23.361 53.76-51.196 78.15-78.111 16.45-18.15 31.98-35.29 48.5-51.23 18.87-18.212 37.49-35.848 57.9-51.458 18.65-14.311 37.05-24.604 54.68-30.603 21.39-7.272 41.66-8.188 60.25-2.725 11.16 3.278 22.16 8.549 33.63 16.117 22.69 14.908 42.94 36.434 62.51 57.25 6.53 6.943 12.7 13.502 18.95 19.813 23.56 23.807 46.97 49.353 69.6 75.927 46.39 54.401 93.18 117.5 143.02 192.909l-.36.236z"/><path d="M1927.89 563.775c-46.64-77.669-92.71-141.916-140.85-196.409-23.27-26.403-47.65-51.165-72.46-73.605-5.3-4.797-10.76-9.888-16.04-14.809-21.81-20.334-44.35-41.359-68.96-54.576-11.56-6.246-22.56-10.389-33.62-12.664-42.46-8.735-83.26 17.417-110 40.891-18.12 15.846-34.69 33.807-50.71 51.179l-3 3.252c-14.55 15.76-28.2 33.044-42.65 51.346-23.01 29.142-46.8 59.274-75.34 84.05-16.61 14.522-34.44 26.674-52.99 36.116-32.34 16.464-68.34 28.212-113.27 36.973-23.24 4.53-47.21 7.36-71.26 8.408-20.09.843-40.08.42-59.41-1.263-58.522-5.07-113.199-22.665-162.518-52.292-21.32-12.808-42.446-28.551-64.581-48.135-37.461-33.072-70.778-67.065-101.69-99.049-4.145-4.287-8.246-8.546-12.315-12.771-42.221-43.828-82.098-85.226-128.964-117.089-30.595-20.802-64.158-37.764-99.751-50.42-26.132-9.291-54.452-15.599-86.574-19.286a509.831 509.831 0 00-21.887-2.018c-18.325-1.268-37.762-1.474-58.341-1.691-16.529-.175-33.619-.355-51.654-1.091-34.831-1.542-74.308-3.287-110.53.366-18.69 1.886-36.527 5.708-53.02 11.362C6.977 150.62-34.891 187.575-46.49 229.408l-.477-.133c3.057-11.029 8.167-21.788 15.187-31.978 6.712-9.744 15.206-19.029 25.246-27.595 19.202-16.382 44.06-30.081 71.877-39.619 16.53-5.669 34.403-9.499 53.129-11.388 36.259-3.656 75.755-1.908 110.601-.366 18.024.732 35.114.916 51.637 1.09 20.588.217 40.03.423 58.372 1.694a517.44 517.44 0 0121.907 2.021c32.161 3.69 60.515 10.007 86.683 19.311 35.636 12.67 69.235 29.653 99.865 50.477 46.908 31.891 86.805 73.309 129.042 117.157 4.07 4.225 8.173 8.481 12.316 12.771 30.906 31.978 64.212 65.963 101.661 99.024 22.113 19.561 43.216 35.29 64.511 48.081 49.254 29.59 103.861 47.159 162.304 52.225 19.31 1.679 39.28 2.102 59.35 1.26 24.02-1.049 47.97-3.876 71.18-8.4 44.89-8.752 80.84-20.486 113.14-36.928 18.52-9.423 36.31-21.552 52.89-36.048 28.5-24.745 52.28-54.86 75.28-83.986 14.45-18.31 28.11-35.603 42.67-51.373l3-3.253c16.03-17.38 32.61-35.352 50.75-51.216 26.83-23.55 67.76-49.778 110.43-41.003 11.11 2.286 22.15 6.443 33.75 12.715 24.66 13.245 47.23 34.292 69.06 54.649 5.28 4.921 10.74 10.012 16.03 14.806 24.83 22.451 49.22 47.227 72.51 73.644 48.16 54.517 94.24 118.786 140.9 196.48l-.42.248z"/><path d="M1926.19 543.297c-42.82-78.841-89.49-146.115-138.7-199.946-23.93-26.237-49.28-50.227-75.35-71.305-3.76-3.044-7.62-6.204-11.35-9.259-24.64-20.185-50.12-41.06-77.26-52.504-11.65-4.964-22.68-7.994-33.72-9.268-42.34-4.882-80.71 23.691-105.44 48.521-15.36 15.339-29.22 32.398-42.62 48.896-2.32 2.855-4.64 5.705-6.96 8.543-12.75 15.593-24.67 33.013-37.29 51.453-21.45 31.349-43.64 63.764-72.01 89.978-16.66 15.393-34.13 27.293-53.41 36.387-40.32 19.017-80.62 26.055-114.72 30.436-23.06 2.959-47.02 4.256-71.22 3.844-20.04-.38-39.9-1.967-59.05-4.712-56.759-8.121-110.719-28.269-160.38-59.886-20.663-13.152-41.8-29.303-64.624-49.375-23.054-20.227-44.538-39.69-65.317-58.514-14.121-12.794-27.46-24.877-40.487-36.471-49.24-43.825-94.342-82.356-147.697-110.053-31.253-16.221-64.782-28.702-99.656-37.094-24.995-6.015-51.713-8.943-84.08-9.222a563.593 563.593 0 00-21.137.245c-10.697.347-21.764 1.071-33.476 1.84-22.476 1.475-47.957 3.146-75.402 2.21-10.452-.358-21.115-.862-31.428-1.353-26.527-1.26-53.956-2.562-79.797-1.398-18.977.857-36.924 3.541-53.337 7.977C11.84 179.066-32.174 210.373-47.47 247.013l-.522-.217c4.005-9.595 9.938-18.891 17.635-27.631 7.391-8.394 16.45-16.323 26.918-23.565 20.173-13.952 45.608-25.32 73.558-32.877 16.453-4.448 34.44-7.14 53.459-7.996 25.87-1.167 53.31.138 79.85 1.398 10.311.49 20.974.995 31.423 1.353 27.42.935 52.88-.733 75.346-2.207 11.718-.77 22.787-1.494 33.495-1.841 7.05-.214 14.168-.296 21.16-.245 32.412.276 59.169 3.213 84.207 9.237 34.916 8.402 68.49 20.897 99.783 37.141 24.101 12.51 48.523 28.359 74.663 48.451 23.402 17.986 46.166 37.666 73.15 61.681 13.026 11.597 26.365 23.68 40.489 36.474 20.776 18.821 42.26 38.284 65.309 58.508 22.801 20.052 43.916 36.186 64.553 49.324 49.593 31.575 103.478 51.695 160.164 59.804 19.12 2.743 38.96 4.327 58.97 4.707 24.17.412 48.11-.882 71.14-3.841 34.06-4.372 74.3-11.402 114.55-30.386 19.23-9.068 36.65-20.937 53.27-36.291 28.32-26.168 50.49-58.558 71.93-89.882 12.63-18.451 24.56-35.879 37.32-51.489 2.32-2.838 4.64-5.688 6.95-8.541 13.42-16.509 27.29-33.579 42.66-48.938 16.09-16.154 32.6-28.581 49.06-36.936 19.5-9.896 38.63-13.848 56.85-11.745 11.09 1.279 22.17 4.324 33.87 9.307 27.21 11.475 52.72 32.375 77.39 52.585 3.73 3.056 7.59 6.216 11.35 9.257 26.09 21.095 51.46 45.108 75.41 71.364 26.13 28.584 51.72 61.151 76.06 96.796 21.51 31.505 42.61 66.248 62.72 103.26l-.48.265z"/><path d="M1924.49 522.814c-39.64-81.102-85.58-149.563-136.56-203.481-24.58-26.07-50.9-49.285-78.22-69.005-1.3-.938-2.6-1.877-3.91-2.818-28.41-20.532-57.79-41.762-88.3-51.32-11.83-3.704-22.89-5.624-33.82-5.872-42.18-.952-78.15 30.008-100.89 56.146-13.39 15.291-25.27 32.051-36.76 48.259-2.84 4.008-5.78 8.151-8.68 12.188-11.04 15.373-21.31 32.852-32.18 51.359-19.77 33.664-40.22 68.472-68.44 96.106-16.33 15.988-33.94 27.979-53.83 36.66-39.2 17.101-79 21.591-116.17 23.897-22.92 1.421-46.87 1.178-71.19-.719-19.97-1.607-39.71-4.355-58.68-8.166-54.83-10.992-108.074-33.694-158.248-67.476-20.094-13.527-40.641-29.611-64.66-50.616-45.65-39.811-79.549-67.851-109.911-90.916-60.388-45.875-106.478-72.864-154.107-90.244-31.888-11.635-65.383-19.632-99.56-23.77-23.712-2.869-48.877-2.613-81.591.84a646.685 646.685 0 00-20.386 2.509c-6.447.91-12.996 1.953-19.931 3.055-25.604 4.073-54.626 8.69-87.842 7.828-17.507-.454-35.39-1.697-52.683-2.898-19.654-1.364-39.976-2.776-59.243-2.968-19.319-.191-37.376 1.353-53.657 4.595C16.805 207.574-29.36 233.239-48.45 264.636l-.541-.33c4.957-8.157 11.715-15.99 20.082-23.282 8.077-7.041 17.694-13.612 28.585-19.534 21.157-11.506 47.176-20.542 75.242-26.126 16.326-3.247 34.423-4.798 53.786-4.606 19.284.192 39.618 1.604 59.28 2.971 17.288 1.201 35.162 2.444 52.655 2.898 33.157.859 62.148-3.752 87.724-7.82 6.938-1.104 13.492-2.145 19.941-3.058a658.494 658.494 0 0120.407-2.511c32.765-3.456 57.971-3.715 81.734-.837 34.226 4.143 67.769 12.151 99.701 23.803 47.695 17.403 93.833 44.42 154.274 90.334 30.373 23.074 64.283 51.122 109.944 90.945 24.003 20.988 44.528 37.055 64.599 50.567 50.106 33.734 103.271 56.405 158.018 67.381 18.94 3.805 38.66 6.548 58.6 8.155 24.29 1.894 48.21 2.136 71.11.718 37.11-2.303 76.84-6.781 115.95-23.843 19.82-8.648 37.37-20.599 53.64-36.53 28.16-27.575 48.59-62.347 68.34-95.974 10.87-18.519 21.15-36.011 32.21-51.407 2.9-4.034 5.84-8.177 8.68-12.185 11.5-16.222 23.39-32.993 36.79-48.31 14.85-17.059 30.41-30.552 46.25-40.107 18.57-11.193 37.12-16.659 55.14-16.255 10.99.248 22.11 2.178 33.99 5.899 30.62 9.592 60.04 30.851 88.49 51.413 1.31.941 2.61 1.883 3.91 2.819 27.35 19.742 53.7 42.985 78.31 69.083 51.02 53.967 97 122.481 136.66 203.639l-.56.268z"/><path d="M1180.76 514.64c-1.58 0-3.14-.003-4.68-.012-22.8-.095-46.74-1.871-71.15-5.282-19.9-2.833-39.52-6.742-58.31-11.616-26.85-6.951-53.793-16.94-80.091-29.689-25.395-12.312-50.971-27.578-76.02-45.378-24.544-17.439-47.469-36.871-64.7-51.853-40.317-34.957-78.677-64.176-114.013-86.846-57.233-36.717-108.235-59.1-160.512-70.44-31.538-6.84-65.375-10.448-97.953-10.448-.505 0-1.007 0-1.512.002-27.987.096-54.559 5.294-79.1 10.897a831.307 831.307 0 00-19.639 4.773c-3.641.941-7.287 1.911-11.145 2.937-27.212 7.246-58.056 15.457-95.528 14.784-22.82-.412-46.129-2.774-68.671-5.06-14.554-1.477-29.603-3.002-43.957-3.924-19.733-1.265-37.892-.859-53.978 1.212-57.926 7.453-106.244 27.477-129.254 53.567l-.53-.465c11.802-13.381 29.555-24.965 52.765-34.436 22.167-9.042 48.77-15.74 76.928-19.362 16.129-2.074 34.336-2.486 54.114-1.215 14.368.922 29.425 2.45 43.986 3.927 22.527 2.286 45.822 4.648 68.611 5.057 37.376.673 68.166-7.526 95.333-14.759 3.861-1.029 7.507-1.999 11.151-2.94 6.65-1.7 13.263-3.306 19.656-4.775 24.584-5.612 51.201-10.818 79.255-10.917 33.098-.115 67.541 3.504 99.617 10.463 26.98 5.855 53.137 14.472 79.96 26.344 25.833 11.435 52.258 25.89 80.781 44.191 35.364 22.688 73.753 51.929 114.095 86.909 17.217 14.973 40.125 34.391 64.644 51.81 50.827 36.119 103.274 61.338 155.877 74.961 18.77 4.868 38.36 8.771 58.23 11.601 24.39 3.405 48.29 5.181 71.06 5.274 35.63.147 77.01-1.054 117.36-17.304 20.42-8.225 38.09-20.252 54.01-36.767 27.97-29.004 46.51-66.231 64.44-102.234 9.23-18.519 17.94-36.011 27.41-51.153 3.04-4.851 6.1-9.849 9.06-14.683 10.01-16.331 20.35-33.215 32.27-48.822 13.62-17.956 28.24-32.52 43.44-43.287 17.63-12.484 35.6-19.469 53.42-20.76 10.99-.797 22.15.017 34.11 2.492 31.99 6.613 63.69 25.825 96.05 46.618 28.22 18.13 56.31 41.229 81.22 66.803 27.68 28.325 53.68 61.555 77.29 98.764 21.03 33.151 40.3 69.642 57.26 108.461l-.64.282c-36.43-83.366-81.65-153.016-134.41-207.013-24.88-25.538-52.92-48.603-81.1-66.702-32.31-20.757-63.94-39.932-95.81-46.522-11.9-2.461-22.99-3.27-33.92-2.478-32.74 2.376-66.95 25.021-96.35 63.77-11.89 15.579-22.23 32.449-32.23 48.763-2.96 4.837-6.02 9.838-9.06 14.689-9.45 15.113-18.16 32.592-27.37 51.094-8.8 17.665-17.9 35.933-28.34 53.493-11.84 19.908-23.68 35.907-36.23 48.916-15.99 16.588-33.74 28.669-54.26 36.933-18.09 7.289-37.55 12.106-59.46 14.733-18.56 2.213-37.2 2.622-53.48 2.622z"/><path d="M1225.99 516.052c-14.38 0-28.2-.857-40.56-1.725-22.72-1.595-46.65-4.907-71.12-9.846-19.82-4.056-39.31-9.124-57.94-15.068-51.01-16.245-101.38-43.284-153.973-82.659-22.936-17.168-44.558-35.642-64.734-53.09-39.832-34.345-79.568-62.194-118.111-82.776-56.685-30.27-109.721-46.362-166.908-50.641-32.585-2.438-66.945-1.443-99.372 2.875-27.141 3.614-52.728 12.335-76.615 20.954a1249.664 1249.664 0 00-18.889 7.036c-1.639.628-3.291 1.268-4.967 1.914-27.51 10.632-58.639 22.662-98.59 22.662-.674 0-1.345-.003-2.025-.011-27.028-.274-54.623-4.13-81.313-7.862-10.581-1.479-21.524-3.007-32.023-4.245-20.508-2.412-38.27-3.125-54.302-2.173-58.313 3.467-107.533 17.493-135.035 38.489l-.471-.617c13.596-10.378 33.255-19.39 56.846-26.059 23.204-6.559 50.388-10.911 78.612-12.588 16.077-.955 33.884-.242 54.437 2.176 10.511 1.238 21.456 2.768 32.04 4.245 26.665 3.726 54.235 7.58 81.212 7.853 40.783.417 72.419-11.813 100.328-22.6 1.672-.646 3.327-1.286 4.966-1.917a1208.453 1208.453 0 0118.903-7.038c23.927-8.637 49.562-17.369 76.776-20.994 32.477-4.324 66.895-5.322 99.532-2.881 28.34 2.12 55.36 7.126 82.603 15.3 28.058 8.42 55.735 20.007 84.613 35.431 38.591 20.61 78.378 48.493 118.252 82.873 20.167 17.442 41.775 35.904 64.692 53.056 52.523 39.321 102.816 66.321 153.746 82.54 18.6 5.933 38.07 10.995 57.85 15.046 24.44 4.932 48.34 8.242 71.03 9.831 38.18 2.678 78.79 4.054 118.75-10.764 21.02-7.8 38.82-19.903 54.39-37.004 27.74-30.462 45.01-72.012 60.25-108.672 7.67-18.445 14.91-35.868 22.9-50.719 2.88-5.359 5.78-10.898 8.59-16.253 8.77-16.757 17.85-34.084 28.59-50.266 12.43-18.851 26.1-34.486 40.64-46.472 16.69-13.763 34.08-22.264 51.68-25.261 11.01-1.874 22.21-2.173 34.24-.921 33.63 3.503 67.8 20.816 99.71 39.005 29.47 16.793 58.56 39.106 84.13 64.525 28.45 28.193 54.66 61.755 77.91 99.748 20.78 33.977 39.13 71.341 54.53 111.062l-.72.279c-32.74-84.431-78.47-157.235-132.26-210.542-25.52-25.371-54.56-47.642-83.97-64.401-31.83-18.147-65.91-35.417-99.4-38.907-11.97-1.246-23.1-.947-34.03.913-32.5 5.534-65.1 30.888-91.81 71.395-10.72 16.148-19.78 33.458-28.55 50.198-2.81 5.358-5.71 10.897-8.59 16.261-7.98 14.818-15.21 32.223-22.87 50.649-15.26 36.717-32.56 78.334-60.39 108.898-15.67 17.194-33.56 29.365-54.7 37.209-18.35 6.804-38.14 10.745-60.51 12.039-6.05.366-12.07.51-18 .51z"/><path d="M1254.37 519.104h-.61c-20.33-.05-40.28-2.537-58.98-5.079-22.69-3.084-46.6-7.935-71.09-14.412-19.72-5.274-39.09-11.506-57.57-18.519-48.97-18.566-97.215-47.241-151.828-90.246-19.667-15.483-39.022-32.155-57.743-48.276-2.34-2.018-4.684-4.033-7.027-6.048-40.038-34.338-81.153-60.819-122.201-78.707-56.208-24.491-112.896-34.582-173.304-30.848-33.123 2.05-67.453 7.65-99.278 16.197-25.111 6.745-47.486 17.566-74.131 31.011a2448.023 2448.023 0 00-18.145 9.299l-.389.203c-13.461 7.007-28.718 14.947-45.831 20.985-19.653 6.934-38.72 10.271-58.273 10.232-30.488-.076-61.603-5.748-91.691-11.236-7.372-1.344-14.998-2.734-22.359-3.991-21.109-3.599-38.977-5.417-54.626-5.555-57.622-.508-108.954 8.027-140.833 23.412l-.367-.761c15.615-7.538 36.68-13.654 60.913-17.691 24.279-4.044 52.046-6.051 80.295-5.803 15.695.138 33.608 1.959 54.762 5.567 7.366 1.257 14.992 2.646 22.367 3.991 30.051 5.479 61.127 11.145 91.542 11.221h.409c43.507 0 76.652-17.25 103.303-31.121l.392-.203c6.98-3.611 12.747-6.565 18.15-9.302 26.69-13.467 49.105-24.308 74.295-31.073 31.879-8.563 66.265-14.172 99.444-16.224 29.561-1.827 57.444-.434 85.248 4.262 29.961 5.059 58.893 13.777 88.446 26.656 41.126 17.921 82.312 44.445 122.414 78.839 2.344 2.015 4.688 4.033 7.028 6.051 18.712 16.115 38.061 32.782 57.712 48.254 54.542 42.951 102.716 71.586 151.606 90.122 18.45 7.004 37.79 13.225 57.49 18.493 24.45 6.469 48.33 11.312 70.99 14.39 40.57 5.518 80.29 9.346 120.14-4.229 21.62-7.368 39.54-19.547 54.76-37.237 27.5-31.956 42.52-76.235 55.77-115.304 6.2-18.291 12.07-35.57 18.68-50.089 2.54-5.586 5.09-11.365 7.56-16.954 7.72-17.476 15.69-35.544 25.48-52.58 11.26-19.756 23.98-36.465 37.82-49.662 15.77-15.041 32.58-25.053 49.96-29.755 10.78-2.914 21.77-4.335 33.59-4.335.25 0 .51 0 .77.003 36.74.192 74.54 16.873 103.37 31.383 30.72 15.461 60.82 36.984 87.05 62.246 29.22 28.062 55.64 61.954 78.51 100.737 20.53 34.802 37.96 73.043 51.81 113.666l-.8.274c-20.6-60.444-59.9-146.645-130.11-214.066-26.17-25.204-56.2-46.677-86.84-62.101-28.75-14.471-66.43-31.104-102.99-31.293-12.04-.071-23.2 1.344-34.14 4.304-32.2 8.712-63.19 36.775-87.27 79.019-9.76 16.997-17.73 35.045-25.44 52.501-2.47 5.592-5.02 11.373-7.56 16.963-6.6 14.482-12.45 31.738-18.65 50.009-13.28 39.141-28.32 83.504-55.93 115.583-15.32 17.809-33.35 30.07-55.13 37.486-18.45 6.283-38.39 9.341-60.94 9.341z"/><path d="M1276.94 523.074c-4.38 0-8.85-.141-13.43-.423-20.05-1.232-39.53-4.927-59.38-8.93-23.02-4.639-46.26-10.846-71.06-18.975-19.62-6.489-38.87-13.879-57.19-21.972-46.5-20.497-92.666-50.672-149.692-97.834-14.163-11.712-28.321-23.995-42.012-35.876-7.454-6.466-15.159-13.155-22.793-19.686-40.514-34.568-83.003-59.677-126.287-74.633-57.19-19.762-115.968-23.381-179.698-11.064-33.67 6.509-67.968 16.715-99.185 29.515-25.077 10.282-46.922 24.723-70.05 40.011l-1.599 1.057c-3.612 2.396-7.264 4.826-10.962 7.284a6608.121 6608.121 0 01-6.435 4.281c-13.486 9.012-28.052 18.412-44.756 25.648-19.394 8.399-38.577 12.532-58.651 12.633-33.419.163-67.506-7.599-100.468-15.114a2768.083 2768.083 0 00-14.296-3.233c-22.146-4.933-39.606-7.771-54.953-8.938-56.635-4.304-110.083-1.271-146.643 8.324l-.234-.885c36.656-9.621 90.214-12.665 146.947-8.352 15.39 1.17 32.894 4.016 55.084 8.958 4.726 1.054 9.594 2.162 14.301 3.235 32.558 7.422 66.214 15.092 99.19 15.092.356 0 .711 0 1.069-.003 42.652-.214 73.014-18.158 102.905-38.126 2.163-1.437 4.306-2.863 6.436-4.281 3.697-2.461 7.346-4.888 10.962-7.287l1.599-1.057c23.167-15.314 45.049-29.779 70.207-40.096 31.273-12.825 65.631-23.048 99.36-29.568 63.891-12.348 122.827-8.718 180.172 11.098 43.391 14.995 85.978 40.16 126.583 74.805 7.634 6.534 15.342 13.22 22.795 19.688 13.686 11.878 27.841 24.159 41.995 35.863 56.959 47.108 103.059 77.24 149.479 97.704 18.3 8.078 37.51 15.46 57.11 21.938 24.76 8.118 47.97 14.316 70.95 18.947 34.89 7.033 78.3 15.788 121.54 2.303 22.23-6.931 40.26-19.187 55.13-37.469 27.23-33.486 39.85-80.583 50.99-122.134 4.84-18.051 9.42-35.101 14.75-49.251 2.08-5.513 4.16-11.215 6.18-16.732 6.75-18.499 13.74-37.626 22.72-55.818 10.12-20.675 21.9-38.458 35.01-52.856 14.86-16.315 31.08-27.835 48.23-34.242 11-4.112 22.28-6.646 34.48-7.748 16.33-1.477 33.72.101 53.15 4.814 16.44 3.991 34.07 10.187 53.89 18.944 31.96 14.125 63.07 34.862 89.96 59.968 30 27.931 56.62 62.158 79.13 101.727 20.26 35.631 36.78 74.749 49.07 116.271l-.88.259c-25.96-87.661-71.4-164.936-127.95-217.586-26.81-25.038-57.83-45.716-89.7-59.799-42.71-18.868-76.57-26.397-106.59-23.685-12.11 1.094-23.31 3.611-34.24 7.692-40.8 15.241-67.51 55.531-82.74 86.644-8.95 18.147-15.93 37.252-22.68 55.728-2.02 5.519-4.1 11.224-6.18 16.74-5.32 14.108-9.89 31.139-14.72 49.167-11.16 41.64-23.82 88.837-51.17 122.475-14.99 18.426-33.16 30.78-55.57 37.768-15.19 4.735-31.38 7.072-49.18 7.072z"/><path d="M1296.49 527.623c-29.82 0-58.49-7.659-83.02-14.209-23.08-6.162-46.31-13.863-71.03-23.539-19.51-7.695-38.63-16.247-56.82-25.422-54.52-27.471-103.136-66.902-147.542-105.422-9.067-7.864-18.227-15.971-27.082-23.809-12.296-10.886-25.012-22.141-37.754-32.988-41.12-34.909-84.982-58.651-130.364-70.566-58.708-15.409-119.581-12.56-186.097 8.716-34.248 10.953-68.513 25.766-99.092 42.836-23.585 13.163-43.541 29.782-64.666 47.376-1.498 1.246-2.998 2.497-4.507 3.749l-.818.682a3987.686 3987.686 0 01-15.829 13.149c-12.9 10.692-27.105 21.749-43.535 30.197-19.073 9.806-38.301 14.697-58.789 14.95-35.963.448-72.617-9.657-108.06-19.429-2.485-.685-4.958-1.367-7.42-2.041-23.374-6.409-40.424-10.209-55.281-12.323-55.213-7.853-110.782-10.322-152.458-6.773l-.084-.984c41.744-3.557 97.394-1.085 152.68 6.779 14.899 2.12 31.986 5.928 55.402 12.349 2.462.673 4.936 1.355 7.423 2.043 35.376 9.753 71.959 19.832 107.784 19.393 44.493-.553 75.828-23.477 101.706-44.922 5.384-4.442 10.694-8.867 15.829-13.146l.818-.682 4.507-3.749c21.162-17.625 41.152-34.273 64.816-47.481 30.635-17.101 64.965-31.939 99.272-42.912 31.535-10.085 61.155-15.908 90.55-17.803 32.79-2.111 65.12.942 96.097 9.074 45.526 11.951 89.517 35.761 130.754 70.766 12.75 10.852 25.469 22.11 37.767 32.998 8.856 7.839 18.01 15.943 27.074 23.804 44.361 38.478 92.909 77.866 147.339 105.287 18.17 9.16 37.26 17.701 56.74 25.385 24.68 9.662 47.88 17.352 70.92 23.505 35.38 9.448 79.42 21.208 122.93 8.834 22.83-6.495 40.98-18.826 55.49-37.7 26.95-35.062 37.03-85.057 45.93-129.17 3.58-17.724 6.95-34.464 11.11-48.211 1.54-5.085 3.09-10.339 4.58-15.421 5.85-19.877 11.9-40.434 20.17-60.145 9-21.611 19.84-40.473 32.2-56.058 13.95-17.586 29.59-30.614 46.5-38.723 10.98-5.266 22.3-8.916 34.6-11.162 16.57-3.025 34.96-2.923 54.65.301 17.25 2.825 36.11 8.149 56.05 15.83 33.21 12.789 65.33 32.736 92.88 57.687 30.78 27.801 57.61 62.358 79.75 102.716 20 36.46 35.59 76.457 46.35 118.879l-.96.242c-22.78-89.888-67.46-168.411-125.8-221.104-27.46-24.869-59.47-44.752-92.57-57.498-42.9-16.52-78.94-21.783-110.17-16.081-12.21 2.23-23.45 5.855-34.35 11.081-40.23 19.293-64.74 61.912-78.22 94.271-8.25 19.66-14.29 40.189-20.13 60.041-1.49 5.082-3.04 10.339-4.58 15.429-4.15 13.702-7.52 30.419-11.09 48.121-4.28 21.222-9.13 45.274-16.18 67.823-8.06 25.836-17.86 46.035-29.94 61.752-6.98 9.087-15.01 16.822-23.86 22.989-9.51 6.633-20.33 11.701-32.14 15.06-13.52 3.848-27.09 5.379-40.43 5.379z"/><path d="M1314.12 532.614c-9.86 0-20.19-.958-31.1-2.872-21.49-3.769-42.06-10.607-60.21-16.636-22.88-7.602-46.76-17.059-70.99-28.105-19.39-8.89-38.39-18.603-56.45-28.875-51.86-29.447-96.529-68.601-145.403-113.007a6660.878 6660.878 0 01-13.018-11.866c-16.794-15.331-34.157-31.184-51.848-46.162-41.804-35.318-87.036-57.69-134.443-66.496-59.799-11.108-124.566-1.525-192.496 28.489-34.857 15.401-69.091 34.816-98.999 56.151-22.519 16.064-41.055 35.002-60.681 55.055a6491.718 6491.718 0 01-6.01 6.133 2313.728 2313.728 0 01-15.9 16.095c-11.515 11.559-25.548 24.731-42.313 34.746-18.769 11.213-38.044 16.864-58.925 17.273-38.224.752-77.134-11.898-114.764-24.131l-1.432-.465c-18.424-5.987-37.914-12.036-55.608-15.709-53.933-11.193-110.141-18.964-158.267-21.881l.064-1.054c48.177 2.92 104.437 10.696 158.417 21.901 17.745 3.684 37.269 9.741 55.721 15.737l1.433.465c37.547 12.205 76.378 24.824 114.416 24.077 43.93-.863 74.269-25.363 100.511-51.712 5.491-5.491 10.883-10.979 15.894-16.089 2.014-2.049 4.016-4.095 6.01-6.131 19.659-20.086 38.23-39.058 60.822-55.175 29.965-21.377 64.263-40.829 99.186-56.259 31.87-14.079 63.233-23.781 93.211-28.832 34.254-5.77 67.868-5.68 99.907.27 47.588 8.84 92.987 31.291 134.931 66.73 17.705 14.993 35.077 30.851 51.88 46.19 4.264 3.893 8.675 7.918 13.018 11.864 48.825 44.363 93.456 83.475 145.216 112.872 18.04 10.254 37 19.953 56.36 28.832 24.2 11.03 48.04 20.472 70.89 28.063 35.81 11.9 80.37 26.707 124.31 15.362 23.44-6.052 41.71-18.457 55.86-37.929 26.65-36.685 34.36-91.979 40.56-136.41 2.42-17.307 4.69-33.652 7.79-46.957.97-4.194 1.95-8.515 2.9-12.695 4.94-21.715 10.05-44.172 17.7-65.887 11.83-33.793 34.29-78.999 74.15-102.459 11.01-6.478 22.37-11.247 34.72-14.579 32.32-8.842 70.8-5.981 114.37 8.499 34.45 11.452 67.58 30.611 95.79 55.407 31.56 27.668 58.6 62.558 80.37 103.708 9.99 18.874 18.81 39.033 26.23 59.917 7.09 19.948 12.94 40.662 17.39 61.568l-1.04.22c-19.59-92.12-63.5-171.892-123.65-224.621-28.11-24.703-61.1-43.789-95.43-55.199-43.36-14.414-81.64-17.267-113.75-8.481-12.27 3.306-23.54 8.039-34.46 14.468-39.59 23.297-61.92 68.272-73.69 101.899-7.64 21.659-12.74 44.084-17.67 65.771-.95 4.18-1.93 8.504-2.91 12.701-3.07 13.259-5.35 29.582-7.76 46.864-3.12 22.358-6.65 47.698-12.7 71.614-6.94 27.482-16.12 48.834-28.06 65.273-6.81 9.377-14.78 17.287-23.68 23.505-9.59 6.7-20.62 11.689-32.76 14.823-10.67 2.757-21.8 4.132-33.61 4.132z"/><path d="M1330.36 537.886c-11.81 0-24.28-1.531-37.59-4.6-21.57-4.97-42.32-13.217-60.62-20.495-23.05-9.161-46.93-20.151-70.96-32.669-19.26-10.077-38.13-20.951-56.08-32.324-49.38-31.274-91.74-71.581-136.587-114.25-2.22-2.112-4.439-4.226-6.664-6.34-20.855-19.821-42.418-40.318-64.898-59.26-42.531-35.766-89.134-56.771-138.515-62.431-62.026-7.112-128.946 9.127-198.903 48.259-34.993 19.573-70.118 44.245-98.906 69.469-21.738 19.046-39.172 40.477-57.63 63.167-2.185 2.686-4.377 5.381-6.585 8.081-4.411 5.404-9.659 11.811-15.153 18.364-10.175 12.168-24.039 27.632-41.089 39.264-18.47 12.603-37.788 19.027-59.06 19.633-17.485.436-36.781-2.261-58.992-8.251-19.07-5.141-37.517-11.861-57.929-19.471-18.633-7.033-38.298-14.297-55.941-19.094C55.998 410.726.796 398.282-55.81 387.943l.203-1.108c56.64 10.342 111.873 22.797 164.161 37.015 17.691 4.811 37.384 12.086 56.04 19.125 34.214 12.76 76.795 28.646 116.495 27.651 45.388-1.297 74.556-28.88 99.315-58.496 5.491-6.548 10.736-12.952 15.144-18.353 2.208-2.7 4.399-5.395 6.582-8.078 18.489-22.727 35.954-44.194 57.763-63.302 28.847-25.275 64.04-49.995 99.1-69.605 70.169-39.25 137.319-55.531 199.583-48.394 23.873 2.737 47.322 9.093 69.692 18.891 24.002 10.511 47.359 25.25 69.421 43.799 22.505 18.962 44.082 39.471 64.948 59.306l6.667 6.339c44.806 42.633 87.126 82.9 136.416 114.115 17.92 11.356 36.76 22.217 55.99 32.276 24 12.499 47.84 23.474 70.86 32.621 36.17 14.375 81.19 32.266 125.7 21.89 24.11-5.62 42.5-18.102 56.21-38.154 26.42-38.3 31.12-96.808 34.91-143.818 1.35-16.813 2.63-32.694 4.74-45.536.44-2.649.88-5.313 1.32-7.991 3.95-24.187 8.04-49.2 15.15-73.61 10.15-35.109 30.46-82.717 69.6-110.137 10.92-7.65 22.31-13.536 34.83-17.995 17.41-6.255 36.8-9.195 57.65-8.744 19.03.412 39.35 3.645 60.39 9.607 35.69 10.11 69.83 28.48 98.71 53.121 32.34 27.533 59.59 62.761 80.98 104.7 9.82 19.243 18.33 39.817 25.28 61.149a455.422 455.422 0 0115.61 62.949l-1.11.192c-16.14-92.991-60.43-176.143-121.49-228.133-28.76-24.534-62.75-42.828-98.29-52.899-43.83-12.419-84.41-12.723-117.35-.885-12.43 4.425-23.73 10.266-34.57 17.856-38.87 27.232-59.06 74.594-69.16 109.529-7.09 24.345-11.17 49.322-15.12 73.478-.44 2.678-.88 5.344-1.31 7.994-2.12 12.794-3.39 28.654-4.74 45.443-3.8 47.145-8.51 105.822-35.1 144.367-6.61 9.666-14.51 17.755-23.49 24.038-9.66 6.759-20.9 11.664-33.39 14.578-9.03 2.098-18.37 3.152-28.17 3.152z"/><path d="M1345.63 543.374c-13.47 0-27.73-2.176-43.1-6.545-21.75-6.182-42.63-15.836-61.05-24.351-23.28-10.762-47.14-23.291-70.92-37.232a838.625 838.625 0 01-55.71-35.775c-43.93-30.746-81.47-68.412-121.221-108.291a6110.92 6110.92 0 00-19.885-19.886c-23.436-23.282-43.448-42.48-64.929-60.489-43.289-36.24-91.26-55.878-142.584-58.37-64.492-3.131-133.572 19.757-205.317 68.027-35.641 23.981-70.735 53.38-98.815 82.785-21.154 22.152-37.692 46.266-55.199 71.795-2.169 3.162-4.346 6.336-6.537 9.513-3.903 5.668-9.07 13.138-14.403 20.627-22.443 31.592-51.764 64.117-99.061 65.78-1.475.048-2.955.07-4.433.07-36.933 0-74.638-14.609-113.213-30.921l-2.408-1.026c-19.107-8.152-37.156-15.849-53.862-21.453-62.96-21.118-123.85-38.943-169.864-52.112l.33-1.153c46.025 13.175 106.932 31.003 169.914 52.129 16.752 5.618 34.821 13.327 53.953 21.487l2.406 1.026c39.987 16.909 79.037 31.992 117.135 30.758 46.772-1.647 75.848-33.921 98.125-65.276 5.33-7.483 10.491-14.947 14.394-20.613 2.191-3.179 4.365-6.35 6.534-9.513 17.536-25.568 34.099-49.722 55.32-71.944 28.137-29.467 63.302-58.925 99.013-82.954 33.146-22.302 66.302-39.425 98.548-50.9 36.998-13.166 73.166-18.995 107.496-17.33 51.589 2.503 99.803 22.237 143.295 58.646 21.512 18.037 41.544 37.255 65.002 60.557 6.67 6.627 13.39 13.369 19.891 19.889 39.715 39.839 77.215 77.469 121.065 108.153 17.81 12.475 36.53 24.494 55.62 35.724 23.75 13.924 47.57 26.434 70.82 37.179 36.48 16.869 81.9 37.863 127.09 28.412 24.71-5.167 43.21-17.721 56.57-38.379 26.09-40.046 27.65-101.845 28.92-151.502.41-16.202.8-31.508 2.04-43.839l.03-.282c2.79-27.615 5.67-56.168 12.29-84.341 5.72-24.573 13.7-46.666 23.7-65.67 11.29-21.425 25.19-38.968 41.35-52.146 10.81-8.817 22.24-15.821 34.95-21.41 34.34-15.19 76.42-17.536 121.7-6.777 18.22 4.33 36.19 10.889 53.42 19.492 17.33 8.653 33.55 19.203 48.22 31.352 33.12 27.4 60.58 62.961 81.6 105.695 18.9 38.41 32.1 82.227 38.16 126.709l-1.18.16c-12.98-95.204-56.48-179.635-119.35-231.642-29.4-24.36-64.38-41.858-101.15-50.593-45.01-10.697-86.83-8.377-120.93 6.708-12.62 5.547-23.95 12.496-34.68 21.242-30.16 24.604-52.51 65.117-64.64 117.159-6.6 28.099-9.48 56.613-12.27 84.189l-.02.281c-1.25 12.287-1.63 27.57-2.05 43.749-1.26 49.81-2.84 111.795-29.1 152.122-6.44 9.962-14.29 18.226-23.32 24.562-9.74 6.833-21.18 11.656-34.01 14.342-7.65 1.595-15.52 2.396-23.69 2.396z"/><path d="M287.777 550.277c-16.515 0-34.499-3.216-54.796-9.784-20.167-6.525-40.111-15.534-58.662-24.294-3.359-1.596-6.692-3.188-10.003-4.769-16.481-7.873-32.048-15.309-46.598-21.101-58.013-23.088-113.31-43.839-166.79-63.903l-8.86-3.326.445-1.186 8.861 3.326c53.482 20.069 108.788 40.82 166.813 63.913 14.588 5.807 30.175 13.251 46.676 21.135 3.308 1.581 6.641 3.174 9.997 4.766 38.081 17.984 78.539 35.412 117.779 33.859 48.236-2.007 77.142-39.564 96.934-72.055 5.071-8.309 9.956-16.59 13.644-22.876 2.036-3.464 4.059-6.926 6.075-10.379 16.723-28.623 32.519-55.66 53.292-81.153 27.421-33.643 62.552-67.845 98.926-96.3 33.746-26.4 67.8-47.258 101.219-61.994 38.331-16.904 75.772-25.676 111.28-26.073 53.431-.795 103.057 17.577 147.48 54.601 24.626 20.548 46.705 42.776 65.059 61.811 9.986 10.358 19.972 20.976 29.632 31.245 34.19 36.352 69.54 73.94 109.19 104.384a895.328 895.328 0 0055.25 39.172c23.45 15.297 47.26 29.34 70.78 41.736 36.77 19.376 82.52 43.49 128.48 34.932 25.3-4.71 43.93-17.338 56.93-38.605 25.74-41.86 24-107.045 22.61-159.422-.42-15.489-.81-30.121-.34-41.9 1.06-26.555 2.65-57.417 8.17-87.644 4.65-25.614 11.68-48.786 20.87-68.872 10.41-22.722 23.74-41.77 39.63-56.62a158.828 158.828 0 0135.07-24.826c18.18-9.5 38.58-15.472 60.63-17.75 20.66-2.133 42.44-1.012 64.73 3.332 18.8 3.664 37.33 9.69 55.08 17.916 17.86 8.275 34.51 18.586 49.48 30.645 17.27 13.884 33.14 30.281 47.18 48.735 13.31 17.484 25.1 36.984 35.05 57.955 18.62 39.233 30.87 83.955 35.43 129.321l-1.27.127c-9.78-97.422-52.5-183.13-117.18-235.149-29.63-23.852-66.57-41.006-104.01-48.304-46.31-9.023-89.37-4.079-124.53 14.296a157.615 157.615 0 00-34.79 24.63c-29.94 27.978-50.17 69.963-60.12 124.792-5.51 30.146-7.1 60.954-8.15 87.467-.47 11.737-.08 26.346.33 41.815.69 25.839 1.47 55.128-1.14 83.442-3.04 32.855-10.12 57.935-21.64 76.677-6.27 10.254-14.06 18.696-23.15 25.089-9.81 6.906-21.47 11.65-34.63 14.099-6.64 1.237-13.28 1.798-19.88 1.798-39.5 0-77.78-20.176-109.43-36.857-23.55-12.416-47.4-26.479-70.88-41.798a896.63 896.63 0 01-55.33-39.228c-39.73-30.507-75.12-68.133-109.34-104.52-9.66-10.265-19.643-20.881-29.623-31.234-18.328-19.012-40.376-41.209-64.957-61.718-44.183-36.826-93.519-55.091-146.651-54.308-83.44.936-161.198 48.259-211.735 87.797-36.301 28.398-71.361 62.527-98.722 96.103-20.712 25.416-36.485 52.411-53.183 80.99a4734.497 4734.497 0 01-6.077 10.381c-3.692 6.289-8.579 14.575-13.653 22.893-8.308 13.64-21.351 33.495-38.628 48.378-8.39 7.227-17.318 12.906-26.537 16.884-10.28 4.433-21.318 6.925-32.802 7.401-1.627.071-3.265.105-4.915.105z"/><path d="M293.079 589.518c-16.535 0-34.483-3.464-54.672-10.533-20.903-7.318-41.569-17.606-59.026-26.707a2694.005 2694.005 0 01-15.895-8.392c-14.473-7.681-28.145-14.939-41.036-20.864-46.293-21.281-92.284-42.057-136.763-62.152a58658.443 58658.443 0 01-44.669-20.193l.553-1.22c14.744 6.674 29.956 13.546 44.668 20.193 44.48 20.094 90.477 40.874 136.773 62.158 12.924 5.941 26.613 13.205 41.103 20.897a2787.768 2787.768 0 0015.886 8.389c36.206 18.868 78.201 38.841 118.413 36.961 49.373-2.362 77.103-43.371 95.75-78.833 4.781-9.084 9.403-18.206 12.894-25.137 1.794-3.557 3.576-7.111 5.356-10.657 15.996-31.894 31.103-62.017 51.527-90.945 26.563-37.624 61.665-76.565 98.835-109.648 51.764-45.874 131.769-101.83 218.952-107.899 55.444-3.963 106.475 13.045 151.668 50.556 20.305 16.861 40.385 36.31 65.112 63.068 12.492 13.521 24.892 27.536 36.892 41.085 31.2 35.254 63.45 71.708 99.8 102.136a952.095 952.095 0 0054.88 42.618 965.946 965.946 0 0070.75 46.297c37.13 21.904 83.34 49.17 129.86 41.452 25.51-4.143 44.78-17.208 57.29-38.827 25.38-43.755 19.94-115.338 15.96-167.605-1.12-14.669-2.17-28.523-2.38-39.699-.46-24.838-.42-57.589 4.03-90.666 7.67-57.318 26.5-102.124 55.95-133.166 10.32-10.937 22.16-20.439 35.18-28.244 18.52-11.116 39.42-18.594 62.12-22.222 21.39-3.416 43.89-3.363 66.9.16 19.41 3.04 38.49 8.547 56.73 16.366 18.41 7.898 35.49 17.96 50.76 29.91 17.65 13.805 33.77 30.258 47.92 48.903 13.41 17.671 25.16 37.447 34.93 58.784 18.33 40.059 29.63 85.683 32.69 131.937l-1.33.088c-6.59-99.647-48.52-186.634-115.04-238.656-30.16-23.6-68.11-39.94-106.86-46.007-47.78-7.314-92.09.254-128.13 21.888-12.91 7.74-24.65 17.165-34.89 28.014-29.26 30.837-47.97 75.389-55.6 132.425-4.44 32.988-4.48 65.673-4.02 90.464.21 11.136 1.26 24.973 2.38 39.622 2.05 27.017 4.38 57.642 3.05 87.54-1.55 34.814-7.83 61.256-19.19 80.837-6.11 10.562-13.83 19.187-22.97 25.636-9.9 6.993-21.76 11.65-35.25 13.843-20.93 3.47-43.45.352-68.86-9.533-22.08-8.594-43.24-21.075-61.91-32.085a968.016 968.016 0 01-70.85-46.362 958.313 958.313 0 01-54.96-42.678c-36.42-30.49-68.72-66.983-99.95-102.273-11.98-13.547-24.38-27.553-36.864-41.063-24.684-26.71-44.727-46.122-64.985-62.944-44.925-37.297-95.631-54.204-150.723-50.266-86.807 6.046-166.547 61.831-218.156 107.567-37.097 33.015-72.126 71.874-98.633 109.419-20.367 28.846-35.452 58.927-51.422 90.773-1.78 3.549-3.562 7.103-5.356 10.66-3.494 6.937-8.119 16.067-12.905 25.16-18.81 35.778-46.82 77.153-96.873 79.546-1.779.082-3.581.124-5.394.124z"/><path d="M298.487 628.763c-45.179 0-92.583-27.733-134.606-52.32-12.914-7.554-25.111-14.691-36.702-20.726l-187.21-97.462.651-1.249 187.211 97.462c11.622 6.049 23.833 13.194 36.764 20.76 43.647 25.537 93.121 54.482 139.595 51.974 50.461-2.72 77.044-47.182 94.565-85.61 5.731-12.568 11.264-25.357 16.617-37.725 14.639-33.824 29.775-68.801 49.919-101.355 15.996-25.847 35.867-52.954 57.464-78.387 23.692-27.903 49.059-53.502 75.391-76.085 29.034-24.898 58.555-45.494 87.741-61.214 32.282-17.385 64.085-28.736 94.532-33.739 60.991-10.021 116.464 5.186 164.872 45.203 40.23 33.252 74.419 74.371 107.489 114.137 28.78 34.614 58.54 70.403 92.24 100.997 38.93 35.335 81.06 67.944 125.23 96.917 37.21 24.413 83.52 54.799 131.25 47.969 40.31-5.767 63.62-32.725 71.25-82.419 6.5-42.269.32-92.41-4.64-132.698-1.69-13.73-3.29-26.699-4.07-37.215-4.33-57.975-1.57-105.833 8.43-146.307 6.23-25.253 15.44-47.763 27.35-66.904 13.31-21.383 30.4-39.208 50.79-52.98 17.64-11.915 37.52-20.569 59.09-25.721 20.53-4.905 42.15-6.548 64.26-4.885 43.47 3.27 86 19.212 119.74 44.888 18.03 13.724 34.41 30.236 48.67 49.073 13.51 17.854 25.22 37.909 34.8 59.613 18.04 40.885 28.4 87.413 29.96 134.55l-1.41.048c-3.32-100.379-45.52-190.907-112.88-242.16-71.53-54.429-173.07-60.418-241.45-14.237-67.72 45.748-95.84 132.403-85.95 264.918.78 10.482 2.38 23.434 4.07 37.147 4.97 40.375 11.16 90.624 4.63 133.085-3.55 23.127-10.69 41.713-21.22 55.246-5.92 7.608-13.06 13.826-21.22 18.477-8.68 4.949-18.77 8.272-30 9.879a98.72 98.72 0 01-14 .987c-17.3 0-35.72-4.372-55.91-13.228-22.74-9.979-44.69-24.377-62.32-35.944-44.23-29.016-86.42-61.668-125.4-97.054-33.78-30.659-63.57-66.49-92.38-101.14-33.03-39.715-67.176-80.784-107.304-113.951-48.084-39.744-103.176-54.852-163.747-44.899C658.114 174.61 531.901 297.55 466.481 403.257c-20.09 32.462-35.207 67.392-49.826 101.171-5.356 12.374-10.892 25.171-16.628 37.751-11.633 25.512-23.122 43.78-36.157 57.484-8.136 8.552-16.963 15.294-26.236 20.038-10.311 5.274-21.54 8.273-33.38 8.913a112.75 112.75 0 01-5.767.149z"/></g></svg>