<svg width="441" height="449" fill="none" xmlns="http://www.w3.org/2000/svg"><g style="mix-blend-mode:multiply" opacity=".2" fill="#CCC"><path d="M150.256 448.518c-5.481 0-12.029-1.381-20.748-4.511-23.139-8.485-46.866-33.97-71.918-60.921-13.795-14.8-28.031-30.108-42.341-42.653-20.895-22.666-56.32-38.284-90.606-53.422-25.052-11.051-48.706-21.51-67.026-34.422l-.036-.028c-13.759-10.036-20.196-19.734-19.681-29.629.993-19.311 28.473-36.507 60.33-56.41l3.053-1.917C-75.1 149.776-45.45 129.929-2.519 100.3l3.641-2.424C39.528 72.278 87.351 40.422 149.3 21.111 273.381-23.629 381.976 11.02 416.261 48.57c35.757 43.893 32.666 90.493-11.772 178.196-46.535 91.424-149.612 162.099-191.769 188.233-17.253 8.626-28.068 16.266-35.941 21.848-10.006 7.048-16.517 11.671-26.523 11.671zm-289.401-198.635c17.915 12.63 41.348 22.976 66.142 33.942 34.69 15.308 70.594 31.151 91.93 54.325 14.347 12.545 28.657 27.937 42.489 42.794 24.72 26.556 48.08 51.646 70.079 59.737 21.741 7.752 26.854 4.144 42.047-6.569 8.019-5.666 19.019-13.447 36.382-22.13 41.643-25.851 143.983-95.991 190.114-186.597 43.813-86.434 47.013-132.189 12.25-174.842C378.996 14.12 272.94-19.484 151.212 24.41 89.889 43.55 42.397 75.182 4.249 100.582l-3.605 2.425c-42.967 29.657-72.654 49.532-96.344 64.388l-3.053 1.917c-30.975 19.34-57.682 36.057-58.602 53.705-.441 8.823 5.518 17.591 18.21 26.866z"/><path d="M143.116 422.977c-7.578 0-15.598-1.861-26.634-5.159l-.22-.057c-21.19-8.147-37.964-27.796-55.695-48.573-12.103-14.208-24.648-28.868-39.73-41.639-21.263-20.72-48.007-36.845-73.831-52.435-17.363-10.459-33.77-20.354-48.08-31.292l-.258-.226c-29.135-30.418-8.24-43.837 29.65-68.223 4.12-2.65 8.461-5.441 12.986-8.429 8.902-5.046 18.393-10.684 28.473-16.661 44.77-26.584 106.13-62.979 192.689-92.523 105.799-31.04 187.539-8.6 221.677 27.402 34.211 37.522 20.931 82.684-17.511 158.124-42.121 76.285-119.005 125.676-160.316 152.204l-4.599 2.96c-30.717 17.479-43.886 24.527-58.601 24.527zm-24.794-8.542c30.128 8.965 35.242 6.822 80.452-18.832l4.488-2.875c40.981-26.331 117.277-75.356 158.956-150.767 37.817-74.171 51.023-118.488 18.062-154.629-33.034-34.844-112.641-56.467-215.975-26.161-85.934 29.319-147 65.573-191.622 92.016-10.08 5.976-19.57 11.615-28.4 16.633-4.414 2.903-8.755 5.694-12.875 8.373-37.927 24.413-55.29 35.577-28.988 63.148 14.09 10.741 30.35 20.523 47.529 30.897 26.082 15.703 53.01 31.969 74.53 52.943 15.23 12.884 27.884 27.684 40.097 42.005 17.327 20.298 33.734 39.496 53.746 47.249z"/><path d="M136.947 401.664c-9.675 0-18.651-2.65-29.834-7.16-18.688-8.627-33.697-26.472-49.589-45.332-9.417-11.22-19.203-22.806-30.386-33.435-15.634-16.689-34.175-30.953-52.053-44.767-14.678-11.333-28.547-22.017-39.472-33.04l-.147-.169c-22.146-28.586.735-41.921 42.304-66.137l.479-.282 7.688-4.031c43.776-22.863 103.739-54.184 185.884-76.878 96.969-23.708 158.697.451 182.131 28.304 25.051 29.714 18.908 69.604-21.189 137.686-29.209 47.446-76.885 90.099-141.666 126.776-25.052 13.024-40.318 18.465-54.15 18.465zM-60.525 235.759c10.742 10.797 24.464 21.397 38.994 32.589 18.026 13.898 36.677 28.304 52.458 45.134 11.294 10.685 21.116 22.384 30.607 33.689 15.56 18.521 30.275 36 47.933 44.147 25.456 10.318 38.148 10.121 78.871-11.107 64.082-36.31 111.243-78.485 140.084-125.338 39.325-66.785 45.578-105.661 21.52-134.19-24.316-28.896-88.325-48.405-176.613-26.838-81.483 22.524-141.151 53.676-184.707 76.454l-7.982 4.201c-41.864 24.385-61.03 35.549-41.165 61.259z"/><path d="M133.491 382.269c-10.815 0-20.968-2.847-32.299-8.429l-.073-.028c-17.07-8.965-30.828-25.823-45.395-43.64-6.732-8.26-13.722-16.774-21.3-24.893-10.116-11.896-21.336-22.891-32.188-33.491-13.317-13.024-25.935-25.344-34.175-37.297-14.384-25.231 6.658-38.424 43.004-57.228 37.449-17.76 95.314-43.076 166.239-58.018 67.724-10.684 118.453-2.114 142.99 24.104 26.487 28.248 19.902 73.043-18.062 122.914-39.767 58.694-102.635 93.115-120.955 102.249-19.497 9.247-34.175 13.757-47.786 13.757zm-29.724-11.502c21.189 10.403 37.817 12.264 74.935-5.356 18.025-8.993 80.085-42.963 119.336-100.924 37.008-48.63 43.703-91.988 18.357-118.996-23.397-24.977-72.397-33.011-138.024-22.665-70.189 14.8-127.65 39.919-164.768 57.538-37.412 19.339-53.709 30.841-41.312 52.577 7.983 11.53 20.454 23.708 33.66 36.62 10.926 10.684 22.22 21.707 32.373 33.688 7.615 8.12 14.604 16.718 21.373 25.006 14.347 17.45 27.847 33.97 44.07 42.512z"/><path d="M131.207 364.564c-11.477 0-22.035-3.016-32.997-9.049l-.295-.198C55.941 322.757 6.316 248.191-3.212 233.588l-.147-.338c-7.43-20.918 9.344-33.21 42.857-48.574 31.563-13.588 81.409-31.518 139.826-39.89 53.782-6.484 94.064 2.255 113.487 24.61 21.557 24.837 14.973 62.585-18.025 103.575-29.062 39.524-71.881 67.969-102.267 81.388-15.892 6.822-29.135 10.205-41.312 10.205zm-30.055-11.925c21.006 11.474 39.73 11.079 68.976-1.466 29.834-13.165 71.881-41.131 100.538-80.063 31.563-39.214 38.331-76.454 18.172-99.684-18.319-21.115-56.945-29.319-108.704-23.032-57.719 8.288-107.013 26.049-138.245 39.468C9.811 202.549-5.308 213.459 1.166 232.15c27.37 41.949 67.945 95.568 99.986 120.489z"/><path d="M129.528 348.243c-12.287 0-22.918-3.13-30.974-9.191-32.226-23.934-65.775-74.425-75.67-104.786-1.62-7.02.698-13.871 6.805-20.411 18.835-20.157 74.64-37.551 149.317-46.515 42.121-3.13 73.537 5.525 88.546 24.385 16.995 21.369 10.889 52.464-16.738 85.278-35.941 41.526-78.944 68.026-115.032 70.958a68.135 68.135 0 01-6.254.282zm65.885-177.887c-5.076 0-10.337.197-15.781.62-73.28 8.796-127.945 25.626-146.007 45.022-5.37 5.751-7.394 11.643-6.033 17.535 9.712 29.741 42.673 79.414 74.346 102.926 8.351 6.258 19.902 8.993 33.366 7.893 34.689-2.819 76.406-28.727 111.537-69.322 26.192-31.123 32.446-61.541 16.664-81.388-12.102-15.195-35.977-23.286-68.092-23.286z"/><path d="M130.511 332.737c-11.404 0-21.447-2.819-29.283-8.288-27.957-19.424-53.819-60.499-55.29-87.872v-.057c-.184-25.231 54.555-45.951 130.115-49.222 32.188-.592 56.063 7.64 67.283 23.258 12.875 17.902 7.578 42.738-14.531 68.166-27.333 30.898-61.544 50.97-91.562 53.705-2.318.197-4.562.31-6.732.31zm-79.79-96.273c1.47 26.556 26.56 66.418 53.745 85.278 8.277 5.779 19.386 8.204 32.188 7.048 28.657-2.622 61.618-22.102 88.178-52.126 21.079-24.244 26.302-47.727 14.31-64.388-10.337-14.35-32.63-21.961-62.905-21.369-71.661 3.129-125.664 22.722-125.517 45.557z"/><path d="M131.332 318.049c-9.969 0-18.871-2.34-26.045-6.935-25.199-16.041-43.114-48.517-39.178-70.957 4.268-21.538 50.141-36.987 104.291-35.211 23.764 1.043 41.274 8.542 49.368 21.087 9.27 14.378 5.039 33.463-11.662 52.323-19.718 22.074-45.726 36.761-69.564 39.298a63.1 63.1 0 01-7.21.395zm30.496-109.579c-48.043 0-87.294 13.616-90.973 32.223-3.679 20.946 13.832 52.548 37.486 67.63 7.798 4.962 17.988 6.935 29.539 5.723 22.551-2.396 47.308-16.52 66.29-37.748 15.708-17.732 19.828-35.465 11.33-48.658-7.283-11.305-23.396-18.071-45.321-19.057-2.796-.057-5.592-.113-8.351-.113z"/><path d="M133.583 304.011c-8.02 0-15.303-1.776-21.41-5.244-21.152-12.037-33.034-36.254-26.486-53.986 6.658-17.535 41.238-28.078 78.65-24.019 16.59 1.889 28.767 8.204 34.285 17.789 6.254 10.853 3.164 24.611-8.461 37.748-13.354 14.997-31.269 24.921-49.147 27.204a55.563 55.563 0 01-7.431.508zm-43.298-58.215c-5.96 16.097 5.37 39.016 24.721 50.039 6.879 3.919 15.597 5.328 25.235 4.088 16.37-2.114 33.587-11.699 46.021-25.654 10.668-12.066 13.574-24.526 8.019-34.224-4.819-8.401-15.708-13.955-30.606-15.646-34.543-3.778-67.467 5.835-73.39 21.397z"/><path d="M135.43 290.422c-5.555 0-10.925-1.1-15.634-3.468-15.745-7.809-23.102-24.385-16.444-36.93 6.695-12.489 30.57-19.227 53.267-14.998 10.485 1.945 18.136 6.71 21.557 13.363 3.753 7.329 1.84 16.238-5.223 24.413-9.749 11.22-24.206 17.62-37.523 17.62zm-13.059-6.512c13.574 6.737 34.469.874 46.609-13.109 6.18-7.161 7.946-14.857 4.745-21.059-2.832-5.526-9.307-9.501-18.246-11.164-20.49-3.806-41.9 1.945-47.712 12.827-5.849 11.023.699 25.598 14.604 32.505z"/><path d="M136.815 277.088c-3.017 0-5.96-.536-8.645-1.664-9.197-3.862-12.912-12.742-8.24-19.818 4.598-6.992 17.216-10.346 28.068-7.471 5.224 1.382 9.05 4.144 10.705 7.809 1.766 3.862.92 8.373-2.354 12.348-4.672 5.61-12.214 8.796-19.534 8.796zm2.943-26.331c-6.659 0-12.949 2.453-15.635 6.512-3.494 5.328-.699 12.038 6.291 14.942 6.953 2.931 16.775.281 21.851-5.892 2.539-3.073 3.201-6.315 1.876-9.191-1.177-2.593-3.936-4.567-7.762-5.582a27.77 27.77 0 00-6.621-.789z"/></g></svg>