<svg width="502" height="837" fill="none" xmlns="http://www.w3.org/2000/svg"><path d="M410.672 316.896c1.602 5.978 1.459 13.672-.652 24.43-5.871 28.623-36.88 64.671-69.684 102.748-18.004 20.951-36.634 42.587-51.13 63.2-27.639 31.833-40.539 76.705-53.058 120.141-9.132 31.733-17.79 61.706-31.66 86.84l-.031.051c-10.921 19.011-23.478 29.901-38.361 33.287-29.042 6.621-62.677-16.492-101.62-43.301l-3.747-2.565c-28.98-19.845-67.195-44.268-123.856-79.274l-4.674-3.005c-49.336-31.679-110.742-71.133-157.599-130.999-102.876-117.494-83.03-249.765-37.142-302.142 54.901-56.513 125.186-71.733 268.751-58.25 149.719 14.285 285.071 98.521 336.301 134.078 17.887 15.378 32.422 24.126 43.034 30.486 13.417 8.103 22.204 13.361 25.128 24.275zM199.513 711.803c13.568-24.579 22.123-54.266 31.204-85.686 12.653-43.944 25.748-89.427 54.014-121.944 14.485-20.654 33.22-42.403 51.297-63.417 32.313-37.559 62.842-73.048 68.459-100.27 5.188-26.807-1.679-30.945-22.069-43.243-10.78-6.486-25.579-15.38-43.582-30.855C288.177 231.28 153.837 147.633 5.454 133.463c-141.494-13.307-210.552 1.456-263.897 56.39-44.499 50.844-63.534 179.93 37.395 295.193 46.422 59.252 107.396 98.435 156.363 129.912l4.663 2.965c56.713 35.034 94.98 59.487 124.024 79.4l3.747 2.566c37.846 26.07 70.542 48.531 97.085 42.494 13.267-3.038 24.579-13.036 34.679-30.58z" fill="#A7CEFC"/><path d="M374.828 335.231c2.214 8.265 1.788 17.755.103 31.108l-.02.264c-5.937 26.362-30.29 52.498-56.041 80.127-17.618 18.869-35.777 38.4-50.383 59.946-24.636 31.459-40.828 67.063-56.491 101.45-10.498 23.112-20.435 44.955-32.538 64.927l-.261.371c-36.773 43.914-62.859 26.477-110.24-5.124-5.15-3.437-10.574-7.058-16.345-10.801-10.115-7.697-21.284-15.8-33.128-24.41-52.665-38.227-124.785-90.636-194.071-173.264-77.134-103.017-67.613-201.128-23.991-252.726 45.867-52.285 116.989-55.817 240.544-43.982 125.889 15.509 221.896 79.667 273.467 114.144l5.751 3.835c35.001 26.531 49.343 38.085 53.644 54.135zm-5.472 30.452c4.542-36.439-.142-41.162-51.551-80.241l-5.593-3.748c-51.18-34.195-146.47-97.857-270.929-113.234-121.483-11.659-191.324-8.384-235.5 41.986-42.224 49.934-51.151 145.39 24.171 246.012 68.767 82.035 140.592 134.18 193.004 172.302 11.844 8.61 23.013 16.713 33.064 24.341 5.614 3.657 11.038 7.278 16.23 10.704 47.433 31.629 69.129 46.115 102.491 6.426 11.874-19.653 21.686-41.291 32.111-64.168 15.756-34.713 32.105-70.574 57.043-102.414 14.73-21.752 33.068-41.459 50.821-60.494 25.156-26.997 48.945-52.551 54.638-77.472z" fill="#A7CEFC"/><path d="M344.99 350.795c2.827 10.553 1.505 21.4-1.942 35.398-7.382 23.825-29.564 47.315-53 72.173-13.952 14.748-28.343 30.044-40.899 46.482-20.278 23.711-36.098 49.625-51.439 74.636-12.584 20.531-24.438 39.921-37.656 56.236l-.209.228c-36.088 35.559-62.63 15.921-110.833-19.76l-.56-.409-8.249-6.778C-6.63 570.373-70.788 517.465-128.584 436.919c-63.64-96.312-45.711-173.28-11.09-209.951 36.918-39.179 98.105-48.392 211.189-31.817 79.177 12.932 156.616 47.918 230.156 103.946 26.713 22.129 39.276 36.611 43.319 51.698zM155.693 632.373c12.936-16.024 24.707-35.22 37.124-55.534 15.424-25.206 31.421-51.296 51.867-75.224 12.607-16.581 27.155-31.962 41.212-46.824 23.029-24.362 44.751-47.385 51.721-69.895 7.922-31.883 3.919-45.648-39.589-81.597-72.79-55.413-149.365-90.028-227.553-102.794-110.927-16.251-170.636-7.563-206.081 30.06-35.916 38.051-46.253 115.651 11.66 203.348 57.35 79.891 121.17 132.546 167.814 170.967l8.587 7.031c48.541 35.934 70.764 52.386 103.238 20.462z" fill="#A7CEFC"/><path d="M317.12 362.304c3.161 11.797 1.889 24.007-3.11 38.593l-.021.091c-8.358 22.195-29.437 43.927-51.706 66.924-10.331 10.639-20.964 21.659-30.837 33.164-14.756 15.78-27.847 32.404-40.457 48.47-15.499 19.721-30.154 38.399-45.542 52.156-33.362 25.754-59.155 8.066-97.773-24.076-37.388-33.762-91.992-86.779-134.967-158.18-35.701-69.608-37.767-128.359-5.904-165.582C-58.88 213.705 9.738 203.016 95.084 224.53c99.01 19.96 168.634 74.802 187.587 91.14 19.465 17.577 30.471 31.788 34.449 46.634zm-8.438 37.01c9.295-27.262 7.206-46.141-29.875-79.598-18.658-16.074-87.373-70.212-185.141-89.903-83.22-20.965-149.731-10.971-182.533 27.45-30.35 35.484-27.992 92.136 6.593 159.591 42.55 70.654 96.741 123.309 133.823 156.766 39.727 33.092 61.615 46.279 90.353 24.086 14.834-13.307 29.322-31.768 44.686-51.324 12.714-16.18 25.825-32.896 40.696-48.75 9.863-11.545 20.622-22.599 30.983-33.288 21.788-22.611 42.439-43.927 50.415-65.03z" fill="#A7CEFC"/><path d="M291.333 371.494c3.355 12.519 1.949 25.238-3.829 39.602l-.208.4c-36.211 58.772-132.726 142.648-151.683 158.867l-.461.295c-28.972 16.45-52.175 3.057-84.845-27.368-29.456-29.006-70.719-76.223-100.258-136.601-25.372-56.077-24.134-103.5 3.474-133.605 30.678-33.421 88.804-41.298 159.477-21.658 67.34 15.931 122.205 51.288 151.065 79.078 14.802 14.613 23.709 27.708 27.268 40.99zm-8.97 37.539c10.943-27.489 4.883-47.755-22.342-74.65-28.321-27.289-82.247-61.995-148.587-77.721-67.61-18.783-125.034-11.31-153.728 19.946-26.083 28.406-27.008 73.81-2.521 127.758 29.21 59.65 70.06 106.332 99.166 135.045 31.243 29.13 51.906 41.269 77.842 26.75 54.456-46.588 122.43-112.237 150.17-157.128z" fill="#A7CEFC"/><path d="M267.611 380.172c3.591 13.402 2.04 26.247-4.63 37.452-26.217 44.698-91.585 101.435-133.898 124.341-9.978 4.566-20.855 4.771-32.377.719-35.516-12.502-77.723-66.433-112.896-144.31-16.97-44.695-13.265-82.415 10.428-106.31 26.848-27.063 74.93-32.807 131.86-15.764 72.331 22.636 124.354 58.97 139.266 97.163a56.457 56.457 0 012.247 6.709zm-284.105-.898a168.915 168.915 0 005.536 16.967c34.513 76.42 75.547 129.331 109.704 141.295 10.132 3.564 19.495 3.421 27.87-.415 41.443-22.458 105.766-78.226 131.514-122.154 6.878-11.605 7.573-25.295 2.001-39.542-14.336-36.714-65.101-71.88-135.81-94.004-53.993-16.153-101.11-10.839-126.046 14.292-19.086 19.263-24.155 48.532-14.769 83.561z" fill="#A7CEFC"/><path d="M244.193 385.114c3.333 12.438 2.071 24.517-3.782 35.246-20.748 38.244-74.344 82.838-114.67 95.364l-.084.022c-37.512 10.266-84.36-41.173-111.313-122.286-10.289-34.873-5.01-64.198 14.964-82.667 22.89-21.186 61.416-25.316 105.737-11.345 53.991 17.487 93.874 46.795 106.719 78.447.971 2.449 1.795 4.851 2.429 7.219zM124.176 510.552c39.108-12.199 91.125-55.467 111.26-92.644 6.185-11.333 6.548-24.418 1.086-37.921-12.279-30.211-50.916-58.392-103.38-75.385-42.257-13.319-78.747-9.648-100.048 10.079-18.343 17-23.16 44.352-13.43 77.139 25.602 76.915 70.556 128.002 104.512 118.732z" fill="#A7CEFC"/><path d="M221.84 389.167c2.914 10.874 2.032 21.518-2.713 31.176-16.518 33.885-59.635 66.382-94.196 71.041-33.314 3.937-69.723-39.935-82.904-99.708-5.393-26.337.654-48.428 16.967-62.26 18.697-15.848 48.349-18.847 81.31-8.154 38.627 12.7 68.097 35.209 78.841 60.198a52.472 52.472 0 012.695 7.707zM49.778 399.619c14.042 52.404 45.786 89.785 74.564 86.375 32.261-4.344 74.195-36.051 89.737-67.868 5.108-10.486 5.068-22.388-.113-34.504-10.158-23.641-38.422-45.01-75.576-57.246-30.992-10.059-58.597-7.479-75.757 7.053-14.702 12.455-20.066 32.729-15.128 57.037.734 3.072 1.467 6.144 2.273 9.153z" fill="#A7CEFC"/><path d="M200.38 392.683c2.344 8.747 1.828 17.4-1.55 25.444-11.74 27.875-44.322 50.496-72.637 50.428-28.053-.268-53.857-33.779-58.747-76.206-2.037-18.85 3.806-34.65 16.464-44.493 14.332-11.151 35.718-13.269 58.675-5.83 26.232 8.582 46.243 24.164 54.868 42.754a46.35 46.35 0 012.927 7.903zm-74.02 70.451c25.709.079 56.521-21.423 67.277-46.927 3.824-9.066 3.375-19.138-1.289-29.156-7.932-17.012-27.235-31.967-51.645-39.962-21.083-6.823-40.484-5.022-53.3 4.906-11.099 8.608-16.185 22.7-14.35 39.626 4.472 39.184 28.407 71.261 53.307 71.513z" fill="#A7CEFC"/><path d="M179.556 395.896c1.624 6.059 1.556 12.356-.593 18.436-7.025 20.289-29.555 34.927-50.179 32.669-20.551-2.32-37.56-25.673-37.898-52.118-.168-12.211 4.69-22.458 13.595-28.844 9.817-7.017 23.639-8.484 37.876-4.042 19.554 6.157 33.307 19.374 37.199 33.899zm-5.879 16.842c6.064-17.494-8.773-37.946-33.139-45.609-12.468-3.884-24.442-2.74-32.741 3.225-7.399 5.294-11.425 13.942-11.289 24.356.323 23.868 15.142 44.927 33.043 46.925 18.121 1.983 37.907-10.974 44.126-28.897z" fill="#A7CEFC"/><path d="M159.208 399.37c.882 3.29.944 6.714.05 10.093-3.062 11.572-15.198 19.167-27.098 16.894-11.754-2.226-20.436-14.651-19.327-27.635.53-6.249 3.526-11.524 8.498-14.792 5.234-3.466 12.197-4.343 19.072-2.358 9.718 2.858 16.665 9.813 18.805 17.798zm-40.063 7.294c1.946 7.263 7.436 13.146 14.265 14.455 8.955 1.687 18.127-4.04 20.407-12.822 2.334-8.753-4.483-18.409-15.158-21.484-5.317-1.542-10.338-.971-14.232 1.621-3.517 2.318-5.649 6.115-6.042 10.693a23.44 23.44 0 00.76 7.537z" fill="#A7CEFC"/></svg>