<svg width="315" height="25" fill="none" xmlns="http://www.w3.org/2000/svg"><path d="M293.764 12.838c-.428.02-.861.033-1.28.064-.273.018-.389-.037-.571-.066-.061-.01-.126-.03-.182-.027-.424.02-.848.042-1.272.065-.129.049-.212.114-.411.138-.194.022-.423.022-.64.034a188.5 188.5 0 01-.856.04c-.143.006-.26.03-.307.075-.009.007.086.026.138.037.173.038.342.08.532.11.182.027.407-.018.601.017.437.079.442.078.775.063.285-.014.571-.03.856-.04.056-.002.121.017.182.027.181.028.298.09.567.066.203-.018.428-.022.64-.032.177.036.341.078.532.106.177.028.229.05.134.086a1.112 1.112 0 01-.368.05c-.143.001-.285.012-.428.019l-.212.01c-.273.013-.273.013-.77-.067-.195-.031-.415.013-.601-.017-.126-.02-.234-.05-.355-.072a1.131 1.131 0 00-.199-.007c-.216.008-.433.015-.64.031-.147.011-.234.046-.216.082.004.013.108.033.168.035.139.002.286-.015.42-.007.13.01.264.034.359.062.195.057.415.006.601.021.195.016.355.066.541.097.047.007.138-.005.212-.01l.636-.024c.177.036.367.069.527.11.29.075.602.104.978.068.212-.02.42-.013.588.036.173.05.372.045.593.035.203-.01.411-.038.618-.003.45.078.455.082.987.052.16-.009.281-.011.402.017.112.027.234.05.35.074.212-.008.429-.017.641-.027.272-.014.423.003.488.074.039.042.057.081.152.11.112.035.233.034.398.024.155-.009.268-.023.333-.068a.526.526 0 01.125-.051.496.496 0 01.134-.027.512.512 0 01.173.036c.212.151.212.152.429.196.238.05.484.093.7.148.195.049.39.028.602.028.16 0 .264.032.251.065-.009.019-.07.046-.122.049a66.87 66.87 0 01-1.28.063c-.052.003-.117-.02-.177-.03-.121-.023-.23-.058-.359-.066-.13-.008-.282.011-.424.018-.143.006-.294.022-.424.012-.13-.01-.234-.046-.355-.07-.056-.011-.134-.028-.182-.024a2.176 2.176 0 01-.774-.066.822.822 0 00-.19-.017c-.502.022-.999.047-1.501.07-.203.01-.368-.033-.411-.107-.022-.041-.065-.083-.065-.124 0-.075-.238-.117-.411-.108-.285.013-.575.023-.856.041-.23.015-.424 0-.58-.045-.182-.051-.389-.041-.597-.027-.156.01-.199.051-.19.155.008.084-.065.11-.346.124a99.17 99.17 0 01-1.073.049c-.056.002-.121-.019-.178-.03-.121-.023-.229-.059-.359-.066-.129-.01-.281.01-.423.017-.143.006-.295.024-.424.015-.13-.009-.238-.046-.355-.07-.056-.011-.126-.028-.182-.025-.285.01-.571.025-.856.039-.32.015-.32.015-.775-.063-.207-.035-.415-.007-.618.003-.216.01-.42.015-.588-.035a1.144 1.144 0 00-.372-.047c-.359.015-.714.034-1.073.049a.816.816 0 01-.19-.015 2.336 2.336 0 00-.775-.068c-.277.023-.575.024-.852.045-.151.012-.221.052-.19.083a.39.39 0 00.168.035c.139.002.29-.017.42-.01.268.015.402.12.753.092.207-.018.424-.024.64-.03.056 0 .117.023.177.036.173.034.325.078.576.055.207-.018.428-.023.64-.033.337-.016.337-.015.774.062.208.036.415.007.619-.001.151-.007.294-.02.415-.002.186.027.32.087.549.083.217-.004.428-.021.645-.027.134-.004.259.016.367.05.113.033.234.049.381.04.212-.01.428-.022.645-.028.06-.001.129.01.186.02.121.023.237.049.354.073.212-.008.429-.01.636-.025a1.43 1.43 0 01.402.019c.165.033.299.094.567.065.134-.014.29-.01.424-.023a.916.916 0 01.394.028c.22.071.497.072.783.045.311-.03.545.005.778.06.247.058.247.056.437.196.056.04.216.058.35.05a1.79 1.79 0 01.585.042c.173.052.38.045.592.032.281-.02.562-.036.792.037.112.035.233.044.385.035.428-.022.861-.036 1.28-.064.255-.017.402.023.575.057.234.046.489.087.489.186 0 .017.061.035.113.048.112.026.233.049.35.074.173.037.342.069.58.049.207-.017.428-.022.64-.033.212-.011.407-.017.597.03.22.054.454.105.705.146.177.028.411-.02.601.018.117.024.229.052.355.072.052.009.134.002.203 0 .143-.005.29-.009.428-.022a1.27 1.27 0 01.403.018c.112.026.225.063.354.07.195.012.411-.039.606.019.099.029.225.056.355.065.13.009.281-.01.419-.009a.45.45 0 01.169.037c.022.008-.009.032-.039.045a.495.495 0 01-.151.037c-.429.023-.857.042-1.285.063-.255.013-.255.013-.77-.066a1.966 1.966 0 00-.407-.007c-.203.012-.411.033-.622.01-.277-.085-.619-.092-.982-.06-.152.014-.29.014-.403-.01-.238-.047-.489-.091-.7-.148-.165-.043-.243-.047-.312.013-.022.019-.043.039-.039.056.026.063.074.124.1.187.008.018-.026.038-.048.056-.069.053-.16.05-.311.005a1.544 1.544 0 00-.576-.052c-.207.017-.432.015-.64.034a2.263 2.263 0 01-.774-.067.83.83 0 00-.191-.015c-.644.029-1.284.062-1.929.09a1.085 1.085 0 01-.372-.046 1.12 1.12 0 00-.376-.045c-.571.026-1.142.05-1.713.083a1.777 1.777 0 01-.58-.047 1.276 1.276 0 00-.385-.039c-.164.004-.281.017-.363.053-.078.035-.022.056.151.084.186.03.359.069.537.104.142-.005.285-.015.424-.014.06 0 .116.023.177.035.173.037.333.073.58.053.207-.018.428-.021.64-.033.294-.014.294-.014.77.066.121.02.251.018.406.007a.908.908 0 01.368.046c.039.015.026.04-.056.123 0 .061.091.034.121-.006.048-.058-.043-.077-.216-.045-.121.022-.182.055-.152.081.018.014.1.032.247-.03.381-.075.67-.084.947-.104a1.16 1.16 0 01.398.026c.156.04.312.08.567.06.277-.022.571-.024.852-.043.259-.018.394.037.558.07.199.039.42-.005.601.017.191.023.325.078.545.088.32-.034.524.029.766.07.19.032.415.004.618-.01.23-.015.42-.001.58.044.182.052.385.04.593.029.484-.025.501-.029.783.04.203.05.398.028.601.021.177.034.35.07.536.1.048.008.139-.004.212-.008l.64-.03c.143-.007.295-.025.424-.018.13.009.238.045.355.07.117.023.238.047.351.072.173.037.337.069.579.05.208-.016.424-.021.64-.033.273-.013.264-.01.77.066.273.04.554-.01.831-.014a1.04 1.04 0 01.367.047c.039.015.026.04.039.062-.713.034-1.431.062-2.137.104-.272.016-.415-.03-.562-.067-.242-.06-.562.028-.791-.05a1.435 1.435 0 00-.576-.05c-.138.013-.285.011-.428.023-.363.027-.696.028-.986-.058-.1-.03-.242-.046-.346-.075a1.237 1.237 0 00-.381-.043c-.644.03-1.285.06-1.925.093-.056.002-.112.021-.16.035-.121.035-.082.063.113.085.064.008.116.024.177.037.117.023.225.06.355.07.129.008.281-.01.424-.015.142-.007.294-.025.424-.018.129.009.237.045.358.068.057.011.126.03.182.029.286-.008.567-.022.852-.033.178.034.329.083.541.094.134.008.277-.006.415-.004.061.002.139.02.169.037.017.01-.039.035-.082.047-.165.048-.389.039-.593.054a1.7 1.7 0 01-.588-.038 1.159 1.159 0 00-.376-.043c-.36.016-.714.035-1.073.048a.998.998 0 01-.191-.017c-.454-.076-.454-.079-.774-.063-.471.024-.471.024-.787-.042-.061-.013-.126-.037-.177-.035-.502.02-1 .04-1.497.069a1.209 1.209 0 01-.398-.024 1.78 1.78 0 00-.355-.067c-.134-.007-.281.012-.424.018-.142.006-.294.022-.419.012-.13-.01-.243-.045-.355-.07a1.423 1.423 0 00-.402-.015c-.493.029-.498.025-.987-.052a1.04 1.04 0 00-.19-.017c-.359.015-.714.034-1.073.05a.963.963 0 01-.367-.047c-.039-.015-.026-.04-.052-.09-.03-.01.004.01.013.028.065-.002.143 0 .19-.01.121-.023.182-.055.151-.081a.38.38 0 00-.151-.031c-.095 0-.177.027-.203.095-.273.041-.563.05-.844.07a1.128 1.128 0 01-.398-.026 1.553 1.553 0 00-.571-.06c-.277.023-.571.027-.856.045-.329.02-.472-.093-.748-.09-.286.002-.571.023-.857.038-.251.013-.251.013-.77-.069-.19-.03-.415.014-.601-.017-.126-.02-.234-.05-.355-.072a1.128 1.128 0 00-.199-.006c-.359.015-.722.025-1.068.053a2.773 2.773 0 01-.974-.077c-.354.014-.713.022-1.064.045-.255.018-.402-.023-.575-.057-.061-.012-.112-.03-.177-.035-.065-.005-.143.005-.212.008-.286.014-.58.02-.857.043-.342.029-.471-.074-.735-.086-.178.061-.273.145-.623.151-.286.005-.571.025-.857.04-.142.005-.285.013-.428.02-.229.01-.337.06-.29.134.026.042.048.083.07.125.043.073-.065.136-.247.145-.502.024-.999.049-1.501.07a1.091 1.091 0 01-.372-.049 1.125 1.125 0 00-.376-.043c-.502.024-1 .05-1.501.07a.933.933 0 01-.186-.02c-.121-.022-.238-.048-.355-.072-.285.011-.567.019-.848.034-.454.022-.454.024-.787-.045-.061-.013-.121-.037-.177-.035-.217.005-.429.017-.645.028-.636.033-.636.033-.822-.005-.169-.035-.32-.077-.575-.057-.277.022-.571.03-.857.042-.212.01-.424.02-.636.022-.056.001-.116-.023-.177-.035a1.728 1.728 0 00-.58-.05c-.138.013-.285.016-.428.022-.372.018-.372.018-.982-.058a1.12 1.12 0 00-.194-.012c-.502.022-1 .047-1.501.069a1.45 1.45 0 01-.195-.012c-.683-.072-.683-.072-1.41-.037-.277.012-.286.017-.575-.049a1.303 1.303 0 00-.39-.034c-.571.03-1.146.05-1.713.085-.255.015-.402-.022-.575-.056-.061-.011-.125-.036-.177-.035-.571.024-1.142.053-1.713.076-.052.003-.117-.022-.178-.033-.117-.023-.229-.057-.359-.064-.134-.008-.281.011-.428.017-.359.016-.359.015-.774-.059-.057-.01-.13-.023-.186-.021-.571.025-1.147.046-1.713.083a2.494 2.494 0 01-.775-.07.82.82 0 00-.19-.013c-.644.029-1.285.061-1.929.09a1.125 1.125 0 01-.372-.047c-.173-.052-.376-.045-.593-.034-.497.026-.502.025-.796-.035-.06-.013-.112-.03-.177-.035-.061-.007-.138-.003-.203 0-.286.012-.571.026-.857.04-.285.014-.575.021-.856.042-.346.027-.511-.055-.753-.092-.355.016-.718.026-1.068.052-.269.02-.394-.035-.571-.064-.061-.01-.126-.031-.182-.029-.645.028-1.289.058-1.929.092a1.293 1.293 0 01-.39-.033c-.289-.067-.302-.065-.787-.04-.212.012-.415.022-.597-.03a1.726 1.726 0 00-.584-.042c-.281.018-.571.029-.856.041-.286.014-.571.033-.857.039-.229.006-.367-.053-.549-.083a1.147 1.147 0 00-.199-.007c-.286.01-.58.02-.856.041-.338.026-.524-.043-.762-.083a1.09 1.09 0 00-.203 0c-.502.023-.999.048-1.501.072l-.537-.1-.856.038c-.216.01-.437.014-.64.033-.264.025-.394-.034-.571-.063-.061-.01-.126-.031-.182-.029-.359.014-.718.03-1.073.05-.337.022-.471-.091-.748-.09-.285.002-.58.018-.856.04a2.296 2.296 0 01-.775-.067.826.826 0 00-.19-.015c-.359.015-.714.034-1.073.049a1.263 1.263 0 01-.194-.012c-.684-.074-.684-.075-.982-.06-.212.01-.429.023-.645.029a.95.95 0 01-.19-.019c-.45-.076-.45-.077-.775-.063l-.856.042-.536-.1c-.355.016-.719.028-1.069.051-.164.01-.272.006-.398-.025-.156-.038-.311-.081-.571-.06-.277.022-.571.025-.852.044-.337.022-.476-.092-.748-.09-.286 0-.58.017-.857.04a2.29 2.29 0 01-.774-.068.82.82 0 00-.19-.015c-.788.036-1.571.073-2.358.111-.484.024-.484.025-1.406-.043a1.765 1.765 0 00-.199-.008c-.285.011-.579.02-.856.041-.338.027-.524-.041-.762-.082-.051-.01-.134-.004-.203-.002l-.644.03-.857.042-.536-.1c-.355.017-.718.026-1.069.052-.268.02-.393-.032-.571-.063-.06-.01-.125-.03-.181-.03-.645.028-1.289.057-1.93.092-.263.015-.385-.041-.562-.07-.06-.009-.13-.025-.186-.023-.428.018-.856.04-1.285.06-.242.013-.242.013-.77-.065a1.07 1.07 0 00-.19-.015c-1.358.063-2.712.13-4.07.192a1.08 1.08 0 01-.372-.046 1.129 1.129 0 00-.377-.046c-.571.027-1.146.05-1.713.083a1.774 1.774 0 01-.579-.046 1.17 1.17 0 00-.385-.038l-.857.042-.856.04c-.286.015-.576.022-.857.044-.346.026-.514-.052-.752-.09-.429.018-.857.037-1.281.057-.571.026-1.142.055-1.713.08-.052.003-.117-.02-.177-.031-.177-.032-.307-.075-.571-.062-1.281.067-2.57.123-3.854.188-.268.014-.385-.04-.567-.069-.06-.008-.13-.026-.186-.023-.714.03-1.427.066-2.141.1-.29.014-.29.014-.774-.064a1.058 1.058 0 00-.191-.018c-.93.043-1.855.088-2.785.132a1.124 1.124 0 01-.377-.045 1.095 1.095 0 00-.372-.047c-.856.04-1.717.08-2.569.123-.23.013-.42.002-.584-.044a1.141 1.141 0 00-.381-.038c-1.285.06-2.569.12-3.854.185a1.783 1.783 0 01-.575-.053 1.28 1.28 0 00-.39-.034.994.994 0 00-.354.058c-.117.049-.191.11-.468.114a14.26 14.26 0 00-.856.04c-.268.022-.394-.035-.562-.069a1.49 1.49 0 00-.403-.016.859.859 0 00-.324.072c-.19.085-.208.085-.441.03a1.375 1.375 0 00-.377-.046c-.571.026-1.142.053-1.713.082-.328.016-.333.019-.579-.044a1.2 1.2 0 00-.381-.039c-1.57.075-3.14.148-4.71.227a2.012 2.012 0 01-.58-.051c-.056-.013-.113-.03-.177-.035-.065-.006-.139 0-.208.002-1.142.054-2.288.105-3.426.165-.26.014-.398-.026-.575-.058-.061-.012-.113-.03-.178-.034-.065-.004-.142.005-.212.009-1.142.053-2.288.105-3.426.165-.272.014-.389-.039-.566-.066-.061-.01-.126-.03-.182-.027-.359.014-.714.033-1.073.049-.856.041-1.713.08-2.569.123-.329.016-.472-.095-.749-.09-.359.006-.713.03-1.072.049l-.857.04c-.281.015-.281.015-.982-.058-.06-.006-.134-.015-.194-.013-1 .047-2.003.093-2.998.143a1.84 1.84 0 01-.584-.041 1.153 1.153 0 00-.381-.041l-4.498.213a.933.933 0 01-.186-.02c-.121-.023-.238-.05-.355-.073-.087.029-.199.055-.255.087-.078.044-.182.057-.346.064a1.251 1.251 0 01-.398-.027 1.741 1.741 0 00-.571-.059c-1.57.079-3.141.15-4.711.228-.259.013-.38-.043-.562-.071-.061-.01-.13-.023-.186-.02-.645.028-1.285.06-1.929.09-1.787.085-3.573.166-5.356.257a2.565 2.565 0 01-.774-.07.82.82 0 00-.19-.014c-2.5.117-5.001.236-7.497.355a1.132 1.132 0 01-.372-.046 1.115 1.115 0 00-.376-.044l-3.426.163c-.285.014-.29.015-.584-.045-.06-.012-.125-.036-.173-.034a.593.593 0 00-.264.08c-.069.046-.177.058-.337.067a1.286 1.286 0 01-.398-.025c-.16-.038-.307-.074-.567-.062-3.283.16-6.566.315-9.85.474-.263.012-.384-.04-.566-.069-.06-.009-.121-.021-.186-.024-.07-.002-.143.005-.212.01-5.355.253-10.71.509-16.065.763-.32.015-.316.015-.666.13a.59.59 0 01-.16.036c-1.64.08-3.284.158-4.927.235-.714.034-1.428.07-2.142.102-.255.011-.255.011-.865.146-.052.012-.112.027-.173.03-2.855.136-5.71.272-8.569.406-.225.01-.407.033-.51.093a.677.677 0 01-.312.075c-1.998.096-3.997.192-6 .285-.237.011-.38.046-.497.099-.039.017-.074.037-.13.05-.052.011-.13.015-.194.019-1.713.081-3.426.165-5.144.243-.255.011-.359.057-.484.106-.043.017-.074.04-.13.05-.056.01-.138.01-.208.013l-4.282.204c-.277-.006-.337.067-.471.11-.048.015-.083.035-.139.046-.06.01-.138.008-.212.01-1.142.055-2.284.112-3.43.162-.264.012-.316.076-.459.12-.047.013-.095.035-.15.038-.715.037-1.428.07-2.142.103-.238.011-.238.01-.658.134a.754.754 0 01-.164.033l-3.214.154a.619.619 0 00-.303.079.64.64 0 01-.307.076c-.856.041-1.713.084-2.57.122-.237.01-.393.041-.497.097a.729.729 0 01-.324.072c-.857.04-1.713.084-2.574.119-.25.01-.38.052-.484.105-.083.043-.178.058-.338.065-1.57.073-3.145.146-4.71.226-.264.013-.398-.03-.572-.062-.246-.044-.475-.091-.475-.189 0-.015-.074-.032-.126-.045-.385-.094-.385-.094-.445-.194-.035-.062-.074-.124-.104-.187-.056-.103-.195-.129-.593-.11-.143.006-.285.015-.428.02-.212.009-.372-.033-.41-.108-.023-.041-.049-.083-.07-.124.216-.01.212-.011.592-.163.16-.064.16-.064-.147-.127-.116-.024-.229-.05-.354-.073a.951.951 0 00-.19-.014c-.36.015-.714.033-1.069.05-.571.028-.571.028-1.15-.1-.048-.01-.122-.029-.113-.039.047-.046.164-.066.311-.071.216-.008.428-.02.64-.03l.429-.02c.134-.048.272-.095.398-.143.199-.075.199-.078-.074-.13-.173-.036-.359-.067-.536-.1-.212.01-.429.022-.64.03-.269.012-.377-.012-.446-.093-.06-.072.013-.133.22-.148.213-.015.412-.025.52-.09.104-.06.285-.084.51-.09.143-.003.286-.012.428-.02.186-.01.286-.073.247-.145-.022-.046-.065-.085-.234-.095-.748-.044-.757-.043-1.129-.128-.034-.007-.06-.03-.047-.041a.226.226 0 01.12-.05c.498-.028.996-.053 1.493-.072.165-.006.286-.015.342-.061.078-.064.043-.123-.108-.167a.699.699 0 00-.178-.03c-.57.023-1.137.051-1.708.074a.402.402 0 01-.169-.035c-.043-.03.022-.07.173-.084.2-.019.402-.02.537-.083.186-.089.415-.17.622-.255.035-.015.091-.044.078-.047-.108-.027-.233-.049-.346-.075-.19-.044-.19-.105-.147-.164.035-.048.165-.066.325-.066.069 0 .155 0 .212-.012.147-.027.194-.062.12-.089a.553.553 0 00-.172-.034c-.926.042-1.856.082-2.777.133-.273.015-.398-.032-.563-.066a1.146 1.146 0 00-.398-.018.769.769 0 01-.38-.034c-.074-.033.056-.062.406-.095.065-.006.139-.01.186-.022.502-.136.502-.137.848-.154.337-.017.338-.018.515-.09.082-.034.173-.068.25-.103.031-.014.083-.04.066-.047a.899.899 0 00-.377-.038c-.337.02-.735.003-.912.122-.07.045-.178.058-.333.065-1.566.073-3.132.15-4.703.221-.255.011-.371.058-.471.109-.086.043-.182.055-.346.063-.164.007-.294.01-.39-.03-.056-.026-.008-.06.122-.096.186-.05.151-.113.09-.171-.043-.04-.177-.067-.32-.064-.212.005-.415.019-.592-.032-.104-.028-.234-.048-.35-.073-.225-.052-.45-.105-.766-.07-.216-.013-.368-.058-.54-.093-.29-.058-.317-.067-.109-.128.234-.07.052-.16.182-.227.138-.073.328-.136.497-.204l.126-.052c-.1-.025-.19-.056-.308-.073-.15-.023-.229-.05-.22-.128-.03-.012-.018.017.017.025a.699.699 0 00.182-.008c.121-.024.181-.055.151-.081a.383.383 0 00-.151-.031c-.095 0-.177.027-.203.095-.485.051-.987.076-1.489.096-.051.003-.116-.022-.177-.035-.199-.042-.199-.041-.783-.054a.468.468 0 01-.173-.036c-.125-.076-.12-.16-.181-.242a15.8 15.8 0 01.341-.155c.234-.104.537-.196.718-.31-.039-.061-.09-.123.1-.173.54-.062.536-.062.683-.122.42-.17.835-.343 1.272-.51.117-.044.117-.068-.09-.087a1.821 1.821 0 00-.204-.004c-.217.01-.433.032-.645.027-.212-.004-.367-.06-.54-.093-.178-.035-.355-.072-.532-.108-.204.004-.407.039-.61-.017-.156-.044-.35-.076-.528-.112.134-.095.385-.168.58-.252.177-.076.181-.075.657-.134.225-.027.303-.169.112-.21-.229-.05-.471-.097-.705-.144-.203.003-.41.037-.605-.02a1.624 1.624 0 00-.575-.054c-.424.027-.857.041-1.285.064-.147.007-.307.002-.372-.04-.043-.03.082-.072.225-.08.216-.013.41-.028.519-.09.104-.064.294-.082.519-.091a.48.48 0 00.16-.033c.156-.072.329-.135.662-.133.138-.024.212-.056.168-.086a.418.418 0 00-.168-.035c-.36.012-.718.025-1.069.048-.164.01-.29.012-.393-.026-.074-.025-.035-.058.103-.095.122-.031.156-.067.148-.11-.022-.099-.152-.128-.567-.122-.299.005-.372-.01-.437-.096-.017-.02-.06-.048-.03-.061.186-.086.307-.19.657-.23.139-.016.286-.016.372-.049.087-.032.165-.07.255-.101.113-.038.19-.073.139-.097-.087-.042-.225-.046-.385-.03-.139.012-.286.013-.428.02-.256.014-.463-.018-.493-.073-.083-.146-.17-.29-.243-.435-.008-.018.013-.04.048-.055.121-.053.25-.103.376-.154.147-.06.38-.048.58-.06.281-.016.281-.014.657-.135.147-.047.403-.028.554-.071.048-.014.121-.036.108-.049a.519.519 0 00-.169-.036 1.176 1.176 0 00-.198-.008c-.788.037-1.57.075-2.358.11-.134.007-.281-.02-.329-.06-.047-.036-.034-.08-.043-.121.125-.052.268-.1.376-.154.082-.043.178-.062.342-.064.216-.004.428-.019.67-.03.45-.183.892-.375 1.376-.558.195-.074.147-.149.186-.228.04-.073.329-.061.524-.083.155-.017.207-.057.147-.085a.491.491 0 00-.173-.035c-.143 0-.286.011-.429.018-.142.006-.307.002-.424.024-.112.02-.186.062-.26.098-.081.04-.19.054-.354.057-.212.002-.424.014-.636.022-.233-.048-.476-.096-.7-.147-.044-.01-.052-.04-.048-.058.009-.049-.056-.079-.2-.103-.12-.02-.22-.049-.332-.074.086-.034.182-.066.25-.103.152-.076.343-.131.671-.129.13-.048.234-.109.403-.142.16-.033.432 0 .553-.074a.694.694 0 01.268-.093c.186-.024.429-.011.537-.082a.64.64 0 01.285-.086c.143-.011.29-.014.394-.037.056-.013.117-.033.117-.05 0-.012-.087-.03-.147-.037a1.083 1.083 0 00-.195-.012c-.216.007-.428.02-.645.028-.06.003-.13-.006-.194-.013-.19-.02-.178-.046-.026-.09.151-.044.26-.1.385-.152.138-.009.311-.005.406-.03.16-.038.273-.094.403-.143.142-.008.29-.01.424-.024.056-.005.082-.033.13-.049.086-.031.16-.076.276-.091.19-.023.424-.014.537-.083a.57.57 0 01.285-.085c.338-.005.48-.074.653-.14.13-.048.407-.023.55-.072.095-.031.164-.07.26-.1a.98.98 0 01.185-.023c.355-.018.714-.032 1.069-.052.056-.004.108-.023.151-.038.09-.033.147-.078.26-.099.112-.021.272-.021.41-.028.446-.018.48-.013.684-.12.164-.086.567-.025.7-.12.079-.055.221-.1.477-.107.359-.008.713-.032 1.072-.048.32-.015.316-.015.662-.132.156-.053.385-.045.588-.055.217-.01.416-.025.52-.088.103-.061.294-.081.514-.09.204-.009.433-.003.593-.053.39-.12.385-.121.657-.134l1.285-.061c.286-.014.584-.016.852-.044.195-.02.281-.09.407-.14l1.064-.054c.497-.025 1-.048 1.501-.072.216-.047.247-.152.61-.157.216-.003.428-.02.645-.03.359-.017.713-.04 1.072-.048.273-.006.32-.074.463-.117.048-.015.09-.036.147-.04.562-.035 1.142-.042 1.691-.094.057-.005.108-.031.122-.05.008-.01-.065-.029-.113-.037a.948.948 0 00-.19-.018c-1.787.084-3.573.17-5.36.253-.25.013-.25.011-.86.15a1.14 1.14 0 01-.178.027c-.285.015-.575.024-.856.042-.23.015-.42 0-.584-.045a1.317 1.317 0 00-.385-.04 1.154 1.154 0 00-.368.052c-.125.046-.19.106-.454.119-1.216.053-2.431.114-3.642.171-.17-.017-.251-.044-.208-.075a.265.265 0 01.13-.046c.497-.027.999-.05 1.496-.074.07-.004.165-.002.204-.014.19-.056.26-.148.618-.154.208-.004.42-.023.619-.04.056-.005.108-.032.121-.05.004-.01-.065-.03-.117-.038-.19-.036-.41.008-.601-.017a.56.56 0 01-.169-.037c-.008-.014.065-.036.117-.05a.946.946 0 01.177-.028c.571-.028 1.142-.058 1.713-.08.234-.01.398-.041.502-.099a.706.706 0 01.32-.071c1-.046 1.999-.098 3.002-.14.251-.01.38-.052.485-.106.082-.042.177-.057.337-.065 1.432-.065 2.855-.138 4.287-.2.264-.012.342-.065.476-.112.047-.016.077-.036.138-.046.06-.01.138-.009.212-.011 1.142-.054 2.284-.112 3.43-.162.268-.011.32-.074.459-.118.047-.014.09-.036.147-.04.856-.043 1.713-.083 2.57-.124.57-.028 1.141-.055 1.712-.081.281-.013.281-.014.662-.133a.714.714 0 01.16-.034c1.644-.08 3.283-.157 4.927-.236a.638.638 0 00.307-.077.635.635 0 01.303-.078c1.285-.063 2.57-.124 3.858-.183.234-.01.398-.04.502-.096a.706.706 0 01.32-.072c1.285-.06 2.57-.124 3.859-.182.246-.01.367-.053.489-.104.043-.017.078-.046.13-.048.64-.035 1.276-.072 1.92-.096.268-.01.359-.062.467-.112.087-.04.186-.054.35-.06a36.24 36.24 0 001.065-.053c.052-.004.117-.031.12-.049.01-.033-.09-.055-.254-.066l-5.144.244c-.28.014-.28.014-.661.133a.706.706 0 01-.165.034l-4.927.235a.64.64 0 00-.307.078.634.634 0 01-.303.077c-1.57.076-3.14.152-4.715.224-.233.01-.398.038-.501.096a.706.706 0 01-.32.071c-1.502.07-2.998.144-4.504.212-.151.006-.263-.03-.255-.064.005-.017.07-.046.121-.049.783-.04 1.562-.084 2.35-.115.263-.01.34-.065.475-.111.043-.017.078-.038.134-.047.06-.01.139-.009.212-.011 1.856-.089 3.712-.18 5.572-.263.268-.013.32-.074.458-.118.048-.015.09-.037.147-.04.571-.03 1.142-.056 1.713-.083l3.002-.143c.29-.013.29-.013.662-.131a.65.65 0 01.16-.034l7.929-.378a.639.639 0 00.307-.078.663.663 0 01.303-.079l10.715-.509c.233-.01.397-.037.501-.096a.706.706 0 01.32-.073l11.788-.561c2.643-.125 5.286-.253 7.929-.376.242-.011.372-.05.493-.102.039-.017.078-.046.13-.048.566-.032 1.133-.06 1.7-.09.177.035.354.067.532.1.134-.047.263-.096.398-.143.856-.036 1.7-.093 2.565-.11.056-.002.116.022.177.035.402.079.632.072.887-.033.09-.038.168-.071.307-.078.428-.022.86-.037 1.285-.064.229-.013.42 0 .584.044.116.033.238.047.38.04.788-.038 1.57-.075 2.358-.115.056-.002.108-.024.151-.039.091-.032.169-.067.255-.101.117.021.247.037.342.065.121.033.234.033.398.024 3.14-.152 6.285-.3 9.426-.453.268-.012.385.04.566.068.061.01.121.023.186.025.07.003.143-.005.212-.009l7.073-.337c.311-.015.311-.015.774.063.056.01.13.021.19.018l3.214-.152c.139-.006.256.014.381.043.247.056.264.056.445-.027a.914.914 0 01.321-.074 1.49 1.49 0 01.402.014c.173.031.298.084.562.07 1.142-.059 2.289-.107 3.426-.168.26-.013.398.03.571.06.061.012.117.03.182.033.065.004.143-.005.212-.009 1.427-.067 2.859-.134 4.282-.206.268-.014.385.04.567.067.06.01.13.028.186.025.856-.039 1.717-.08 2.574-.121.307-.015.307-.014.774.062.056.01.13.02.19.018 1-.046 2.003-.094 3.002-.142.307-.015.307-.015 1.194.05.065.006.134.013.199.01 1.142-.053 2.288-.106 3.43-.164.23-.01.42 0 .584.044.117.033.238.047.381.04 1.285-.062 2.574-.121 3.854-.186.247-.013.407.015.58.051.056.013.112.03.177.035.065.005.139 0 .208-.004 1.285-.061 2.574-.119 3.854-.185.259-.014.398.029.571.06.061.011.125.034.177.033.502-.022 1.004-.04 1.501-.072.268-.017.385.04.567.068.06.009.13.027.186.025 1.073-.049 2.146-.1 3.214-.153.151-.007.264.004.385.036.16.044.346.062.58.048.497-.029.999-.049 1.501-.073.294-.013.294-.013 1.193.052.065.005.135.012.199.01.857-.04 1.718-.08 2.57-.123.229-.013.419-.001.584.044.117.032.233.046.38.039l2.358-.113c.285-.014.571-.038.856-.038.208.002.36.062.546.092.051.009.138-.001.207-.004.999-.048 2.003-.091 2.998-.145.259-.014.398.028.571.06.06.011.125.034.177.032.359-.013.714-.032 1.073-.048.428-.02.861-.036 1.285-.063.346-.023.475.086.752.09.212.004.428-.017.64-.027.429-.02.857-.043 1.285-.06.152-.007.268-.027.316-.072.009-.009-.065-.028-.112-.039-.576-.128-.576-.128-1.155-.1-.36.017-.714.035-1.073.05-.061.002-.13-.008-.191-.015-.173-.021-.155-.046-.008-.092.147-.045.259-.1.385-.151l.528.098.428-.02c.714-.033 1.427-.067 2.141-.097.052-.002.117.023.177.035.173.037.329.068.58.054.64-.036 1.285-.063 1.925-.094.281-.014.281-.014.774.064.056.009.13.019.19.016.645-.029 1.285-.06 1.93-.09.138-.006.272.01.372.046.039.015.03.04.194.246.511.167.861.15 1.216.134a1.99 1.99 0 00.385-.038c.052-.013.117-.033.117-.05 0-.012-.095-.032-.156-.035-.428-.025-.835.028-1.255.04-.194.004-.363-.04-.397-.111a.48.48 0 00-.035-.062c-.013-.02-.022-.04-.035-.06-.168-.007-.268.015-.341.058a.761.761 0 01-.264.094c-.117.02-.277.016-.42.022-.138.007-.29.023-.419.014-.13-.01-.234-.046-.355-.069-.056-.01-.126-.027-.182-.025-.497.022-.99.043-1.483.07-.26.015-.39-.037-.554-.07-.13-.025-.26-.019-.281.04-.057.137.142.195.584.168.363-.022.692-.026.977.06a.88.88 0 00.186.013c.355-.015.705-.034 1.06-.049.065-.002.134.003.195.008.882.067.882.069 1.181.053.142-.007.281-.013.268-.204.272-.204.705-.218 1.124-.248.273-.019.39.036.567.065.061.01.126.03.182.028.93-.041 1.855-.085 2.781-.132.156-.007.268 0 .389.033.156.041.329.068.576.053.493-.03.995-.05 1.496-.074.256-.013.256-.013.77.065.057.009.13.019.191.016.501-.021.999-.048 1.496-.07a1.08 1.08 0 01.372.045 1.1 1.1 0 00.372.045c.502-.022 1-.048 1.497-.07a.982.982 0 01.19.015c.528.078.528.078.77.065.355-.019.718-.027 1.069-.053.342-.025.519.048.752.088.641-.029 1.285-.052 1.921-.088.26-.015.398.027.571.06.061.01.121.034.177.033.217-.005.429-.019.641-.029l.64-.03c.242.037.402.122.748.093.208-.018.428-.021.64-.031l.641-.03c.142-.007.289-.01.428-.022.255-.018.38.043.562.07.061.01.13.024.186.022.428-.018.861-.033 1.281-.062.324-.022.545.015.774.068a.81.81 0 00.19.015c.502-.021.999-.048 1.497-.07a1.15 1.15 0 01.372.046c.112.034.238.05.376.044.498-.022.999-.047 1.497-.07a.947.947 0 01.19.018c.485.077.485.078.77.063l.212-.01c.355-.017.723-.023 1.069-.053a2.74 2.74 0 01.969.08c.354-.015.718-.024 1.064-.05.259-.018.398.03.571.061.06.011.125.034.177.031.502-.021 1.003-.04 1.497-.071.268-.018.385.039.566.068.061.01.126.027.182.025.285-.01.571-.025.857-.04.333-.016.332-.014.774.062.207.036.415.008.618-.001.217-.01.42-.018.593.034.108.032.238.052.372.047.285-.01.575-.022.856-.041.225-.015.42-.005.584.041.117.033.238.05.381.042.64-.03 1.285-.062 1.925-.09a.828.828 0 01.186.02c.121.022.238.047.355.072.281-.011.571-.016.847-.034.295-.017.563-.023.792.045a.595.595 0 00.173.036c.216-.005.428-.018.64-.028l.64-.03c.247.031.403.121.749.093.208-.018.428-.022.64-.032l.64-.03c.069-.002.147-.009.208-.004.065.005.121.023.177.036.173.036.333.072.58.05.208-.017.428-.02.64-.032.29-.013.29-.013.77.066.195.032.415-.01.601.017.126.019.234.05.355.071.052.01.134.013.195.01.285-.01.575-.022.856-.04.229-.016.42 0 .58.044.117.033.233.047.38.04.714-.036 1.428-.066 2.137-.105.243-.014.437.008.571.053.23.077.554-.014.792.049.147.038.294.084.562.065.493-.033.995-.05 1.493-.073l.536.102c.285-.014.571-.028.856-.04.212-.01.429-.022.641-.03.069-.003.142-.008.207-.002s.117.023.178.035c.298.062.298.063.791.038.212-.011.416-.019.593.031.164.047.359.055.584.041a69.47 69.47 0 011.285-.06c.134-.007.259.014.372.047.168.051.376.046.588.032.281-.017.558-.035.796.035a.615.615 0 00.173.035c.354-.01.714-.017 1.06-.04.346-.025.514.053.752.09l1.069-.048c.069-.004.151-.015.212-.01.255.027.402.121.752.092.204-.016.424-.02.636-.025.056 0 .13.02.169.037.022.008 0 .032-.026.045-.078.035-.173.067-.242.104-.009.005.073.027.121.037.117.023.251.02.406.01a.907.907 0 01.368.045c.039.016.026.04-.056.123 0 .062.091.034.121-.006.048-.058-.043-.076-.216-.045-.121.022-.182.055-.152.081.018.014.1.032.247-.03.38-.075.666-.089.952-.102.073-.004.16-.017.211-.01.186.03.36.067.541.101.208-.008.402-.026.606.023.285.068.298.062.575.048l.428-.02a1.34 1.34 0 01.381.042c.255.059.277.059.445-.022a.411.411 0 01.295-.042c.415.076.419.081.774.059.294-.02.571-.024.787.047.147.05.195.04.312-.013.311-.14.454-.137 1.038-.037.272.048.554-.004.83-.01.234-.005.398.025.416.104.013.049.052.084.207.1.061.007.134.015.195.013.359-.015.714-.033 1.073-.05.181-.009.281-.068.246-.146-.039-.082.03-.112.29-.136a1.49 1.49 0 01.407.011c.138.025.099.048-.022.093-.29.11-.255.178.117.254.13.027.233.05.264.09.017.02 0 .046.039.06.212.085.506.138.834.179.316-.034.533.022.775.067.19.035.415.005.618-.007.23-.014.42-.004.584.042.117.033.238.048.381.042.285-.014.575-.023.856-.043a1.64 1.64 0 01.576.05c.19.054.402.018.601.025.268.009.402.12.753.09.207-.017.424-.023.64-.028a.595.595 0 01.173.035c.229.069.497.065.792.045.203-.014.402-.027.601.021.328.08.692.15 1.038.224.048.058.013.126.259.16.13.017.251.043.351.072.121.034.233.043.389.034.281-.018.576-.021.852-.044.256-.02.416.021.571.06a.948.948 0 00.394.024.92.92 0 01.394.026c.177.047.19.042.778.056.061 0 .134.02.169.036.017.009-.022.034-.052.046a.577.577 0 01-.156.037c-.64.032-1.284.061-1.925.094a.995.995 0 00-.181.025c-.052.013-.117.032-.117.05 0 .012.086.027.147.036.19.029.415-.015.601.018.126.02.229.05.355.071.052.009.134.008.199.005.216-.009.428-.021.644-.029a.937.937 0 01.186.022c.416.075.416.075.775.058.142-.006.294-.025.428-.017.13.007.242.041.359.062.242.046.471.09.489.187.008.038.151.07.294.073.138.002.285-.011.428-.019.338-.015.338-.015.774.061.122.022.251.024.407.012.061-.005.134 0 .199.006.212.019.212.043.074.088-.195.066-.178.072.367.129.208.021.368.061.541.096.281.057.277.057.091.13l-.126.052c-.125.049-.225.101-.484.106-.286.005-.571.025-.857.04-.276.013-.35.043-.324.128.03.103.086.114.584.113.143 0 .268.01.376.044a.528.528 0 01-.285.079c-.355.019-.714.035-1.069.051l-.856.042c-.177.008-.29.074-.242.146.026.042.047.083.069.124.047.083.138.104.428.1.074 0 .143-.01.212-.008.281.008.415.112.753.091.281-.017.575-.021.852-.044.255-.02.398.025.575.06.061.01.126.034.178.033.359-.014.718-.028 1.068-.051a1.23 1.23 0 01.394.027c.311.073.32.07.783.047.337-.018.341-.015.774.061.121.021.251.021.406.011.204-.012.416-.032.628-.014.065.005.147.02.168.037.013.011-.047.039-.099.047-.381.066-.826.054-1.242.08a1.051 1.051 0 01-.367-.05 1.13 1.13 0 00-.381-.04c-.285.013-.575.022-.856.042a1.804 1.804 0 01-.58-.05c-.056-.013-.121-.037-.177-.035-.641.025-1.285.05-1.921.085-.255.015-.402-.025-.575-.06-.061-.01-.121-.034-.178-.033-.216.005-.428.019-.644.029-.787.037-1.57.075-2.358.11-.052.003-.116-.024-.177-.035a22.823 22.823 0 00-.359-.065c-.216.01-.428.022-.645.03-.155.005-.294.022-.315.07-.013.031.129.06.281.058.147-.003.294-.018.415-.002.601.08.601.082.978.066.328-.015.294-.028.584.041.125.03.238.048.38.04.355-.017.714-.035 1.073-.05a.94.94 0 01.186.02c.424.075.424.078.774.059.459-.023.476-.029.783.047.212.053.407.017.61.014.234.05.489.093.701.148.251.065.515.054.8.035.212-.014.42-.019.593.033.164.047.363.052.588.04.203-.011.411-.035.623-.008.056.008.143.027.138.038-.004.017-.06.043-.116.05-.398.051-.835.05-1.255.074-.056.004-.13-.01-.186-.02-.121-.023-.238-.049-.355-.073-.211.008-.428.01-.635.025a1.2 1.2 0 01-.398-.02c-.109-.027-.225-.061-.355-.07-.13-.009-.281.01-.424.018-.143.007-.307.003-.419.023-.113.02-.182.064-.256.1-.082.038-.194.05-.359.055a1.183 1.183 0 01-.385-.037 1.273 1.273 0 00-.177-.036c-.061-.009-.13-.023-.186-.02-.645.029-1.285.06-1.929.09-.32.015-.316.015-.982-.059-.061-.006-.134-.015-.195-.012-.359.015-.714.032-1.073.05-.363.017-.359.015-.977-.064-.113-.015-.277.005-.411.002-.281-.006-.42-.111-.749-.091-.281.017-.575.021-.856.044-.255.02-.402-.024-.575-.058-.061-.011-.126-.036-.178-.034-.644.028-1.284.06-2.141.063-.212 0-.117.026.022.035.199.014.264-.012.155-.063a.601.601 0 00-.281-.043c-.047.005-.108.028.104.07.225.049.212.075.251.09a.988.988 0 00.368.046c.216-.009.428-.021.644-.029a.957.957 0 01.191.017c.475.077.48.082.986.052a1.67 1.67 0 01.402.015c.173.033.299.088.562.07.351-.023.71-.037 1.069-.05.056-.003.117.02.181.03.178.03.308.086.571.062.204-.019.424-.024.641-.028a.42.42 0 01.168.035c.052.03-.013.063-.16.087-.06.01-.142.007-.212.011-.285.014-.571.029-.856.04-.152.007-.294.025-.312.072-.013.031.143.059.29.056.217-.004.433-.014.64-.03.368-.028.688-.02.987.059.212.055.199.035.424.198.056.041.225.045.372.042.354-.006.519.013.488.052-.039.047-.164.062-.324.069-.286.01-.571.026-.856.04-.07.004-.148.011-.212.009-.065-.003-.126-.018-.182-.03-.121-.023-.225-.06-.355-.068-.13-.009-.281.01-.424.017-.142.007-.294.025-.424.017-.129-.01-.238-.047-.354-.07-.057-.01-.126-.028-.182-.027-.285.01-.571.027-.856.039-.351.016-.351.016-.775-.061a1.632 1.632 0 00-.406-.012c-.346.02-.351.017-.982-.056a1.134 1.134 0 00-.195-.013l-1.925.09c-.549.027-.549.027-.852.152-.225.093-.229.093-.009.136.178.035.338.086.532.105.182.017.407-.039.606.019.099.028.229.06.355.065.199.006.411-.03.601.025.095.027.238.056.359.058.212.002.428-.018.64-.027.065-.002.139-.002.199.004.065.007.121.022.177.035.173.043.36.063.584.041.368-.035.697-.017.982.063a.74.74 0 00.195.008c.156-.013.29-.014.407.01.047.01.116.027.108.038-.013.02-.065.044-.121.05-.407.043-.844.048-1.263.07-.057.003-.126-.013-.182-.024-.121-.023-.225-.06-.355-.07-.13-.008-.281.008-.424.014-.142.007-.294.026-.424.018a1.856 1.856 0 01-.354-.068 1.155 1.155 0 00-.398-.022c-.208.016-.424.019-.636.027-.117-.023-.234-.05-.355-.072a.9.9 0 00-.186-.024c-.285.01-.571.025-.856.039-.286.014-.286.014-.77-.064a1.06 1.06 0 00-.191-.016c-.359.015-.713.033-1.072.048a1.126 1.126 0 01-.377-.045 1.096 1.096 0 00-.372-.046c-.571.026-1.142.051-1.713.083a1.78 1.78 0 01-.579-.044c-.182-.052-.385-.039-.597-.029-.48.025-.485.024-.792-.04-.061-.013-.121-.036-.177-.035-.498.019-.999.036-1.493.066-.259.016-.398-.027-.571-.06-.06-.011-.125-.035-.177-.032-.359.013-.718.026-1.068.05-.351.026-.485-.09-.749-.09-.359.002-.714.03-1.068.048l-.857.042c-.285.013-.571.025-.856.041a1.208 1.208 0 01-.389-.034c-.16-.041-.351-.074-.524-.111-.264-.054-.264-.054-.584-.04-.069.005-.143.007-.212.01-.523.028-.523.026-1.189-.053a.48.48 0 00-.139.02c-.091.033-.173.068-.255.101-.117-.02-.259-.03-.337-.06-.221-.081-.567.03-.792-.05a1.407 1.407 0 00-.355-.064c-.134-.007-.285.01-.424.018-.359.019-.359.017-.666.129-.155.055-.38.045-.584.058-.212.013-.415.02-.592-.03a1.726 1.726 0 00-.584-.043c-.281.019-.571.03-.857.041a1.259 1.259 0 01-.194-.011c-.662-.074-.662-.075-.982-.059-.143.008-.29.01-.429.021a1.73 1.73 0 01-.579-.046c-.056-.013-.121-.036-.178-.035a46.55 46.55 0 00-.847.029c-.217.008-.433.014-.641.031-.346.029-.514-.053-.752-.09-.355.016-.714.027-1.069.05-.164.01-.272.006-.398-.024-.16-.037-.307-.08-.566-.061-.346.025-.71.034-1.064.049-.238-.04-.411-.118-.753-.09-.208.018-.428.022-.64.032-.286.014-.571.026-.857.041-.307.015-.303.012-.774-.062-.273-.044-.554.005-.831.012-.216.006-.324.064-.272.138.052.074-.065.132-.264.142-.497.023-.999.048-1.497.07a1.05 1.05 0 01-.19-.015c-.532-.08-.532-.078-.77-.067-.355.02-.718.03-1.068.053a1.67 1.67 0 01-.576-.053 1.188 1.188 0 00-.389-.032c-1.713.084-3.426.161-5.135.248-.255.012-.402-.024-.575-.058-.06-.011-.117-.035-.177-.035-.143 0-.286.011-.429.019-.64.03-1.28.066-1.924.089-.273.01-.346.068-.463.115a1.021 1.021 0 01-.355.057 1.259 1.259 0 01-.389-.034 1.643 1.643 0 00-.576-.052c-.281.02-.566.03-.856.043-.147.006-.26.029-.307.074-.009.007.082.026.134.037.173.038.337.082.532.108.199.027.415-.004.623-.011.073-.003.143-.01.212-.009.065.001.143.008.19.019.225.056.463.095.774.061.269.017.407.12.749.093.207-.016.424-.024.64-.03.056-.001.117.021.177.033.173.03.312.081.571.06.277-.023.571-.027.852-.044.156-.01.269-.001.39.031.155.042.333.073.575.053.208-.018.428-.021.64-.033.277-.014.277-.012.77.065.057.01.13.02.191.017.359-.015.713-.034 1.072-.05a.964.964 0 01.368.047c.039.015.026.04.039.062-.714.033-1.428.062-2.137.104-.268.016-.389-.036-.567-.064-.06-.01-.125-.032-.181-.03-.502.022-.999.045-1.497.072a1.058 1.058 0 01-.389-.032c-.299-.097-.662-.044-.999-.03-.26.01-.342.048-.312.131.039.098.195.128.593.11.142-.006.285-.015.428-.02.138-.005.264.012.376.045.108.034.238.052.372.047.286-.011.576-.023.852-.042.23-.015.42-.002.58.044.177.052.385.04.593.03.484-.026.488-.025.791.038.061.013.121.036.178.035.497-.019.999-.035 1.488-.065.255-.015.402.025.571.058.06.01.121.036.177.033a36.5 36.5 0 001.068-.051 1.23 1.23 0 01.398.026c.32.074.329.072.783.048.139-.008.29-.021.42-.011.13.01.234.046.355.069.056.01.125.023.186.02.285-.01.571-.024.856-.038.268-.014.268-.012.77.065.203.033.415.005.619-.005.22-.011.419-.011.588.038.169.049.372.046.588.036.204-.01.411-.037.619-.004.476.078.476.08.77.064.428-.021.852-.041 1.285-.06.056-.002.129.013.185.023.122.022.225.06.355.069.13.01.281-.005.42-.013.445-.024.476-.033.774.05.251.068.562-.03.796.048.134.044.316.079.567.057.207-.017.424-.022.64-.032.342-.016.342-.015.774.06.056.01.13.023.186.02.286-.01.576-.019.852-.041.325-.027.532.021.775.067.19.037.415.007.618-.006.221-.012.42-.009.584.04.173.05.376.044.593.034.203-.009.411-.038.618-.003.446.078.446.078.77.063.286-.014.571-.029.857-.039.056-.002.125.014.181.025.122.023.225.06.355.07.13.008.281-.008.424-.014.143-.007.294-.026.424-.018.13.007.251.039.355.066.121.033.233.037.398.024.207-.016.424-.02.635-.029.117.024.238.048.351.074.117.028.242.025.402.017.532-.03.537-.027.982.05.203.036.415.007.619-.002.216-.01.419-.015.588.035.164.048.368.054.584.04a8.47 8.47 0 01.428-.02.985.985 0 01.191.013c.229.053.454.1.769.066.277.01.416.113.749.093.281-.017.575-.021.852-.044.255-.02.437.015.567.06.233.077.562-.028.796.048.134.044.307.08.566.06.286-.02.377.007.459.086.047.045.039.08-.048.116-.086.036-.181.03-.32-.011a1.831 1.831 0 00-.58-.045c-.224.01-.363-.056-.549-.08-.186-.027-.406.017-.601-.017-.459-.079-.459-.079-.77-.064-.212.01-.433.015-.64.033-.247.021-.407-.018-.576-.053-.06-.012-.121-.036-.173-.035-.497.019-.999.036-1.492.068-.26.016-.398-.03-.571-.06-.061-.012-.126-.034-.177-.032-.429.018-.853.04-1.281.062-.082.034-.173.066-.251.102-.082.038-.194.054-.359.053-.272 0-.54.053-.813-.014-.281-.067-.303-.064-.575-.047-.346.021-.714.016-1.038.065-.057.009-.117.032-.117.05-.005.011.086.027.143.037.19.03.41-.013.601.018.125.02.229.05.354.072.052.008.13.007.199.006.074-.002.143-.01.212-.009.065.001.135.009.187.02.237.048.488.092.7.148.208.055.402.017.61.015.831.088.831.089 1.389.061.138-.006.281-.013.424-.012.06 0 .116.022.177.035.173.037.337.071.58.051.207-.017.428-.021.64-.032.285-.014.285-.014.77.065.121.02.251.017.406.007a.928.928 0 01.368.047c.039.015.026.04.039.061-.428.02-.861.034-1.276.064-.268.019-.389-.035-.567-.064-.06-.01-.125-.031-.181-.029-.424.019-.848.04-1.272.065-.052.003-.117.032-.121.05-.009.032.099.063.255.062.207-.001.411-.023.597.029.156.045.35.065.579.045.139-.011.286-.011.424-.021.368-.03.701-.024.978.06.212.024.42.002.623-.01.151-.008.298-.017.406.007.23.05.455.1.77.067.342.035.602.109.887.169.134.028.238.045.394.026.065-.008.143-.008.212-.011.143-.006.294-.025.424-.018.13.009.238.045.354.068.057.011.122.03.178.029.216-.007.428-.02.64-.03l.636-.025.536.097.852-.04c.316-.015.316-.014.77.064.204.035.42.013.615-.004.324-.026.54.022.77.072.047.01.134.016.19.011.225-.018.419-.004.584.043.117.032.233.047.376.041.498-.024.995-.049 1.493-.07a.917.917 0 01.186.019c.441.076.445.08.769.06.29-.018.559-.025.788.044a.619.619 0 00.173.035c.354-.013.714-.027 1.064-.048.16-.01.272-.006.398.023.16.036.303.08.567.064.731-.047.735-.04 1.6.047.061.006.143-.004.212-.009.147-.012.255.005.385.034.29.065.298.062.575.048.212-.011.433-.014.64-.033.321-.027.533.022.77.068.191.036.411.006.615-.005.22-.013.419-.009.584.039.112.032.233.05.376.044.497-.023.995-.048 1.492-.07a.998.998 0 01.191.016c.493.077.493.081.982.052.155-.008.285-.01.402.015.112.025.234.05.35.073.212-.009.429-.011.636-.026.16-.012.273-.007.398.02.164.034.303.092.562.064.135-.014.29-.01.424-.023.16-.016.269-.006.394.026.156.04.316.08.567.06.276-.023.571-.027.852-.044.155-.01.264 0 .389.032a1.7 1.7 0 00.575.051c.494-.03.498-.025.978.054.121.02.251.018.407.008a.922.922 0 01.367.046c.091.04.082.065.091.087zm-38.546-11.3c-.143.006-.285.013-.493-.096-.013-.019-.004-.041-.034-.058a.793.793 0 00-.308-.061c-.233-.005-.514.038-.51.07.004.028.078.052.221.074.06.009.108.024.164.034.164.029.294.085.532.056-.022-.039-.043-.077 0 0-.022.048.043.082.199.096a.589.589 0 00.143-.007c.134-.027.155-.065.056-.164-.017.016-.004.045.035.053a.69.69 0 00.181-.008c.121-.024.182-.055.152-.081a.39.39 0 00-.152-.032c-.091 0-.173.028-.186.123zm34.977 14.53c-.315.023-.679.015-.994.064-.057.008-.113.031-.117.048-.005.012.082.028.134.037.117.02.246.014.398.007.229-.008.363.05.541.078.056.009.129.015.19.013.35-.016.696-.032 1.047-.05.06-.003.125-.012.177-.023.173-.036.156-.06-.013-.088-.186-.03-.333-.08-.523-.104-.273-.034-.55.011-.84.018zm-24.565.914l-.632.03c-.069.004-.142.005-.207.01a.65.65 0 00-.299.077c.1.032.221.051.355.047.212-.007.42-.023.632-.027.229-.005.363.051.54.08.057.009.126.01.191.011.32.005.514-.06.454-.151-.043-.072-.208-.114-.407-.105-.207.008-.419.018-.627.028zm26.045-2.766c.052-.021.108-.036.134-.055.078-.064.048-.112-.095-.162-.173-.061-.385-.02-.58-.014a.28.28 0 00-.125.044c-.018.011-.018.035.008.041.212.05.437.097.658.146zm-37.525-3.701c-.208.01-.42.017-.627.031a.332.332 0 00-.13.044c-.056.03.004.071.181.075.204.005.416-.016.628-.026.268-.013.428-.06.328-.1a.758.758 0 00-.38-.024zM26.451 7.837c.139-.006.282-.011.42-.02a.64.64 0 00.294-.078 1.143 1.143 0 00-.363-.046c-.212.008-.42.018-.627.03-.13.008-.256.035-.286.078-.03.032.26.051.562.036zm209.406-.193c.056.011.112.034.168.034.139 0 .281-.008.411-.02a.272.272 0 00.126-.045c.017-.011.013-.032-.013-.042-.126-.06-.628-.038-.71.03-.008.013.013.03.018.043zM222.209.783c.013.02.017.04.035.06.034.038.129.065.268.084.108-.031.164-.066.16-.104a.135.135 0 00-.035-.06c-.034-.038-.129-.065-.268-.084-.108.03-.16.065-.16.104zM301.671 17.2a1.654 1.654 0 01-.121.048.605.605 0 00.308.028c.051-.013.082-.032.121-.048a.615.615 0 00-.308-.028zm-2.69.17c.056.012.108.027.169.035a.383.383 0 00.259-.054c-.056-.011-.108-.027-.169-.034a.384.384 0 00-.259.054zm1.704-.229c-.03.03.031.056.191.077.039-.016.09-.031.116-.049.044-.029-.03-.055-.186-.075a2.107 2.107 0 00-.121.047zm-9.131-1.35c-.031.03.03.055.19.076.039-.016.091-.031.117-.049.043-.028-.03-.055-.186-.075a2.183 2.183 0 00-.121.048zm-12.441-8.866a2.137 2.137 0 01-.121.048.602.602 0 00.307.027c.052-.012.082-.031.121-.048a.612.612 0 00-.307-.027zM267.196 2.22a.414.414 0 00.264-.055c-.056-.011-.108-.026-.169-.034a.384.384 0 00-.259.054c.056.013.112.024.164.035zm-6.328-.294a1.91 1.91 0 01-.122.048.605.605 0 00.308.027c.051-.012.082-.031.121-.048a.627.627 0 00-.307-.027zM217.953.782a2.36 2.36 0 01-.121.047.601.601 0 00.307.028c.052-.013.082-.031.121-.048a.627.627 0 00-.307-.027zM4.269 10.976a4.328 4.328 0 01-.164-.035c-.125.034-.164.065-.095.089.043.015.108.023.164.035.13-.034.16-.064.095-.09z" fill="#4F9CF9"/><path d="M29.358 6.551c-.498.024-.99.054-1.488.07-.264.007-.36.06-.467.11-.087.04-.186.053-.346.06-1.35.062-2.695.127-4.04.191-.17-.016-.252-.042-.212-.074a.232.232 0 01.125-.047c.921-.047 1.838-.094 2.764-.13.264-.01.337-.066.472-.11.043-.016.077-.038.134-.047.056-.01.138-.009.212-.011l4.464-.213c.168.016.25.042.212.074a.232.232 0 01-.126.047l-1.704.08zm272.37 6.673c-.225.015-.51.036-.744-.037a1.064 1.064 0 00-.38-.039 22.49 22.49 0 01-.645.03.948.948 0 01-.186-.023c-.121-.023-.225-.06-.355-.07-.129-.01-.285.017-.419.01-.178-.008-.251-.042-.204-.073a.293.293 0 01.135-.046c.8-.047.804-.047 1.029-.002.173.035.333.074.58.053.207-.018.428-.021.64-.033.294-.015.294-.014.77.065.121.02.251.02.406.008.135-.009.264.011.372.045a.645.645 0 01-.302.078c-.217.012-.429.021-.697.034zm-7.962-.386c.545-.027 1.094-.05 1.639-.08a1.73 1.73 0 01.558.044c.169.047.359.043.567.034a.87.87 0 01.342.05c.034.014.025.04.038.06-.475.022-.956.046-1.436.066a.818.818 0 01-.177-.02c-.117-.022-.216-.06-.342-.067-.268-.017-.536.016-.809.023a.94.94 0 01-.341-.05c-.035-.017-.026-.04-.039-.06zM96.796 2.065l1.7-.082c.169.018.247.043.212.074a.233.233 0 01-.126.048c-1.133.056-2.266.11-3.395.164-.169-.018-.247-.043-.212-.074a.232.232 0 01.125-.048c.563-.029 1.13-.055 1.696-.082zM9.478 9.028c-.255.002-.523.049-.809.013-.056-.006-.134-.026-.13-.037.009-.019.06-.043.117-.05.247-.032.554-.035.68-.123.06-.045.172-.06.324-.069.16-.01.272-.006.397.02.165.034.303.097.563.064.013.02.043.043.03.061-.013.02-.069.037-.12.05a.956.956 0 01-.174.028l-.878.043zm224.969-.252c.212-.01.433-.015.64-.033.165-.014.269-.005.398.025.221.053.234.048.775.055.06.001.134.02.168.037.022.008-.008.032-.034.045a.407.407 0 01-.147.037c-.342.004-.688.078-1.021-.007a1.743 1.743 0 00-.584-.044c-.139.011-.286.016-.428.021a.941.941 0 01-.368-.046c-.125-.055-.052-.077.173-.073.143.003.286-.011.428-.017zm78.396 8.636c.273-.012.545-.027.822-.037.057-.003.126.011.178.02.207.038.177.101.186.158.004.059-.476.106-.679.066-.225-.045-.429-.096-.74-.069a.77.77 0 01-.342-.049c-.117-.052-.052-.074.169-.07.13.003.268-.011.406-.019zM175.514.358c.281-.014.562-.035.843-.036.165-.001.247.04.208.07a.235.235 0 01-.126.048c-.562.03-1.124.055-1.687.082-.164-.017-.246-.043-.207-.074a.238.238 0 01.125-.047c.281-.018.562-.029.844-.043zM307.45 13.334c.272-.013.549-.031.822-.038.142-.002.255.027.272.06.009.014-.06.04-.117.047-.389.042-.809.047-1.215.069a.844.844 0 01-.346-.05c-.117-.053-.052-.073.169-.07.138.002.276-.012.415-.018zm-65.858-4.389c.139-.007.281-.023.415-.018.143.006.234.043.277.08.048.04.043.08 0 .114-.069.06-.138.058-.298.018-.247-.063-.264-.055-.753-.053a.543.543 0 01-.169-.035c-.065-.025-.03-.064.121-.086.113-.016.269-.014.407-.02z" fill="#4F9CF9"/><path d="M297.315 12.923c.203-.01.406-.026.61-.026.142-.002.255.027.268.059.004.015-.061.04-.113.047-.246.034-.523.037-.791.048a.858.858 0 01-.342-.05c-.117-.053-.047-.077.164-.07.065.003.135-.004.204-.008zm-31.997-1.537c-.303.015-.588-.004-.567-.037.03-.042.156-.07.286-.077.207-.013.415-.023.627-.03a1.07 1.07 0 01.363.046.655.655 0 01-.294.078c-.134.008-.277.013-.415.02zm-1.984-.161c.204-.01.407-.026.61-.026.143-.001.255.027.268.059.005.015-.06.04-.112.047-.247.034-.524.037-.792.048a.85.85 0 01-.341-.05c-.117-.053-.048-.077.164-.069.065.002.134-.005.203-.009zm-24.195-2.29c.203-.01.407-.026.61-.028.143-.001.255.028.268.06.004.014-.06.038-.112.047-.247.034-.524.036-.792.047a.859.859 0 01-.342-.05c-.117-.052-.047-.076.165-.069.064.003.134-.005.203-.007z" fill="#4F9CF9"/><path d="M238.002 8.86c.217-.01.286-.015.355-.015a.92.92 0 01.342.051c.117.053.047.068-.165.07-.272.003-.54.029-.813.034-.143.002-.255-.028-.264-.059-.004-.015.061-.041.113-.046.181-.02.38-.03.432-.034zm23.57-7.37c-.138.006-.285.023-.415.017-.173-.009-.242-.042-.199-.074a.27.27 0 01.125-.046c.277-.018.558-.029.835-.042.165.02.238.046.195.077a.29.29 0 01-.126.046c-.134.013-.277.015-.415.022zm-167.879.722a1.21 1.21 0 01.359.047.668.668 0 01-.29.077 3.643 3.643 0 01-.208.01 1.172 1.172 0 01-.359-.046.687.687 0 01.29-.078c.065-.005.139-.006.208-.01zm212.28 11.117c-.005-.036.259-.078.497-.076a.914.914 0 01.329.052c.112.052.047.072-.165.068-.129-.003-.268.019-.397.015-.148-.001-.234-.029-.264-.059zm-63.128-4.233c-.004-.013-.026-.03-.013-.042.082-.07.58-.09.71-.03.021.011.03.03.013.041a.29.29 0 01-.126.045 4.905 4.905 0 01-.411.02c-.06 0-.117-.021-.173-.034zM11.017 8.827c-.51.026-.519.024-.428-.039.082-.056.234-.09.454-.09.065 0 .134-.002.19.003.061.006.148.018.16.033.027.03-.047.06-.177.082-.056.01-.13.007-.199.011zm89.066-6.791a.734.734 0 01-.377-.026c-.095-.04.057-.088.32-.1.07-.002.143-.012.208-.007a.61.61 0 01.169.034c.069.025.026.059-.113.088-.056.011-.138.009-.207.011zm204.989 11.199a1.75 1.75 0 01.121-.048c.16.021.229.046.186.075-.026.018-.078.033-.117.05-.16-.022-.225-.048-.19-.077zM17.87 23.09c0-.015.06-.038.107-.043a.604.604 0 01.281.043c.108.05.044.077-.155.063-.139-.01-.234-.035-.234-.063zM244.608 7.93c.056.011.112.022.164.035a.387.387 0 01-.259.054c-.061-.008-.113-.023-.169-.034a.412.412 0 01.264-.055zm-1.497-.057a.631.631 0 01.311.028c-.039.016-.073.035-.121.047a.588.588 0 01-.307-.027c.035-.015.074-.032.117-.048zm-1.148.055c.056.012.113.023.164.035a.382.382 0 01-.259.054c-.061-.007-.113-.022-.169-.033a.406.406 0 01.264-.056zm-.842-.066c.064.025.03.055-.096.09-.056-.012-.121-.02-.164-.036-.069-.024-.035-.055.095-.089.052.013.108.024.165.035z" fill="#4F9CF9"/></svg>