<svg width="483" height="31" fill="none" xmlns="http://www.w3.org/2000/svg"><path d="M454.195 16.016c-.661.025-1.329.044-1.977.081-.42.024-.601-.043-.882-.078-.094-.012-.195-.036-.281-.033-.655.026-1.309.054-1.964.083-.199.06-.325.14-.632.17-.3.028-.654.029-.988.043-.441.018-.882.036-1.322.052-.221.008-.401.037-.474.093-.013.01.134.032.215.046.267.045.529.097.823.132.281.033.628-.023.929.02.676.095.683.094 1.197.074.44-.017.881-.036 1.322-.05.087-.003.187.02.281.032.281.034.462.11.876.08.314-.023.661-.029.988-.041.275.044.529.094.823.129.275.033.355.059.209.104-.133.041-.32.059-.567.062-.221.002-.441.016-.661.024l-.328.013c-.42.018-.42.018-1.19-.08-.301-.037-.641.017-.929-.019-.194-.024-.361-.06-.548-.087a2.206 2.206 0 00-.308-.008c-.334.011-.668.02-.988.04-.227.014-.36.057-.333.1.007.017.168.041.261.043.214.003.441-.02.648-.009.201.01.408.04.555.074.302.07.642.007.929.025.301.02.549.08.837.117.073.009.214-.007.327-.012.327-.01.655-.02.982-.032.274.044.569.084.817.134.448.091.93.126 1.51.08a3.18 3.18 0 01.909.043c.268.061.576.054.916.042.314-.013.634-.048.955-.005.696.094.703.098 1.524.06a2.68 2.68 0 01.622.02c.174.032.361.06.542.09.327-.011.661-.022.988-.035.421-.018.655.003.756.089.061.052.089.1.236.135.174.043.361.04.615.028.24-.011.414-.028.513-.084a.93.93 0 01.193-.063.931.931 0 01.207-.033c.1.006.234.023.268.043.329.185.329.187.664.24.368.059.75.112 1.085.18.301.059.601.032.928.031.248 0 .408.04.389.08-.013.023-.106.057-.186.06-.655.032-1.316.059-1.977.082-.08.003-.18-.025-.274-.038-.188-.028-.355-.07-.556-.08-.2-.008-.434.015-.654.023-.22.008-.454.029-.655.017-.2-.012-.361-.056-.549-.085-.087-.014-.207-.034-.28-.029a4.21 4.21 0 01-1.197-.08 1.589 1.589 0 00-.294-.019c-.775.028-1.543.06-2.317.09-.314.013-.569-.04-.637-.13-.034-.051-.101-.102-.102-.153-.001-.092-.369-.142-.636-.13-.441.016-.888.029-1.322.052a3.323 3.323 0 01-.896-.053c-.281-.063-.602-.05-.922-.033-.241.013-.307.064-.292.191.014.103-.099.136-.533.153-.547.023-1.102.045-1.656.063-.087.003-.187-.023-.274-.036-.187-.027-.355-.072-.556-.08-.2-.011-.434.012-.654.022-.22.008-.454.03-.655.02-.2-.01-.368-.057-.548-.086-.087-.013-.195-.033-.281-.03-.441.013-.882.033-1.322.05-.495.02-.495.02-1.197-.075-.321-.042-.642-.008-.955.005-.334.013-.648.02-.91-.041a2.202 2.202 0 00-.575-.056c-.554.02-1.102.043-1.656.063a1.605 1.605 0 01-.294-.018 4.51 4.51 0 00-1.197-.081c-.427.028-.888.03-1.315.058-.234.014-.34.063-.293.101a.75.75 0 00.261.043c.214.001.447-.022.648-.014.414.018.623.147 1.164.11.32-.021.654-.03.988-.036.087-.002.181.027.274.042.268.041.503.095.89.066.32-.022.661-.029.988-.041.521-.021.521-.02 1.197.073.321.044.641.008.955-.003.234-.009.454-.024.641-.003.288.032.496.105.85.1.334-.005.661-.027.995-.036.207-.005.401.02.569.06.174.042.361.06.588.05.327-.012.661-.028.995-.037.094-.001.201.012.288.024.187.028.368.06.549.089.327-.01.661-.014.981-.033a2.79 2.79 0 01.622.022c.254.041.462.115.876.078.207-.017.447-.012.654-.028a1.77 1.77 0 01.609.033c.341.086.769.087 1.21.053.48-.038.841.004 1.203.071.382.07.382.069.678.239.087.049.334.072.541.062.348-.016.648-.009.903.049.268.063.588.054.916.037.434-.024.868-.045 1.223.044.174.043.361.053.595.042.661-.029 1.329-.047 1.976-.082.394-.022.622.027.89.068.361.056.756.106.757.227.001.02.094.043.175.058.174.032.361.06.542.09.268.046.529.083.896.058.32-.02.661-.027.988-.041.327-.015.628-.023.923.035.341.065.703.128 1.091.176.274.035.634-.025.929.022.18.029.354.062.548.086.081.01.208.003.314 0 .221-.007.448-.012.662-.027.246-.018.434-.015.621.02.174.032.348.076.549.085.301.013.634-.049.935.021.155.035.349.069.549.08.201.01.434-.014.648-.012.094 0 .207.024.261.044.034.01-.013.04-.059.055a.935.935 0 01-.234.047c-.661.028-1.322.053-1.983.08-.394.016-.394.016-1.19-.08a3.817 3.817 0 00-.628-.006c-.314.014-.634.04-.962.014-.429-.104-.956-.112-1.517-.071a2.724 2.724 0 01-.622-.012c-.368-.057-.756-.11-1.084-.179-.255-.053-.375-.058-.481.016-.033.023-.066.048-.059.07.041.076.115.151.156.228.014.022-.039.046-.072.07-.106.064-.247.06-.481.006a2.988 2.988 0 00-.89-.063c-.32.022-.667.02-.988.044a4.388 4.388 0 01-1.197-.08 1.593 1.593 0 00-.294-.018c-.995.037-1.983.079-2.978.116a2.083 2.083 0 01-.575-.056 2.17 2.17 0 00-.582-.054c-.882.034-1.763.064-2.644.106a3.438 3.438 0 01-.896-.055 2.477 2.477 0 00-.595-.047c-.254.005-.434.02-.561.066-.119.043-.032.069.235.102.288.036.556.084.83.126.221-.006.441-.02.655-.018.093 0 .181.027.274.043.268.044.516.088.896.063.321-.022.661-.028.988-.042.454-.018.454-.018 1.19.078.188.024.388.022.629.008.206-.011.421.01.568.056.06.018.041.049-.085.15.001.076.141.042.187-.008.073-.07-.068-.093-.335-.054-.186.028-.279.068-.232.1.027.017.154.038.38-.038.587-.093 1.034-.104 1.462-.13.253-.014.414-.008.615.032.241.047.482.097.876.072.427-.029.881-.032 1.315-.056.401-.022.609.045.863.084.308.047.648-.007.929.02.294.027.502.095.843.106.494-.042.809.034 1.183.084.295.038.642.004.955-.014.354-.019.648-.002.896.052.282.063.596.049.916.034.748-.032.774-.036 1.21.047.314.061.615.033.929.025.274.04.542.085.83.121.073.01.213-.006.327-.011l.988-.039c.22-.008.454-.031.655-.022.2.01.368.054.548.083.181.03.369.058.543.088.267.046.522.084.895.06.321-.02.655-.027.989-.041.42-.018.407-.013 1.19.078.421.05.855-.013 1.282-.02.214-.003.421.014.569.058.06.018.041.049.061.075-1.102.043-2.21.08-3.299.133-.42.02-.641-.034-.869-.08-.375-.073-.868.036-1.223-.059a2.774 2.774 0 00-.89-.06c-.213.016-.441.015-.661.029-.561.035-1.075.037-1.524-.068-.154-.037-.375-.056-.535-.091a2.394 2.394 0 00-.589-.052c-.995.039-1.983.078-2.971.12-.087.002-.174.026-.247.043-.187.043-.126.077.175.104.1.009.181.029.274.044.181.029.349.075.549.085.201.01.434-.012.655-.02.22-.008.454-.031.654-.022.201.01.368.054.556.082.087.014.194.036.281.035.441-.01.875-.028 1.315-.043.275.041.509.1.837.114.207.009.427-.008.641-.006a.89.89 0 01.261.045c.027.012-.06.043-.126.058-.253.059-.601.049-.914.068-.341.02-.648.015-.91-.045a2.232 2.232 0 00-.582-.052c-.554.02-1.101.044-1.656.062a2.029 2.029 0 01-.294-.02c-.702-.093-.702-.096-1.197-.075-.727.03-.727.03-1.216-.05-.094-.016-.194-.045-.275-.043-.774.026-1.542.052-2.31.088-.254.012-.427.012-.615-.028a3.402 3.402 0 00-.549-.08c-.207-.009-.434.014-.654.023-.22.008-.454.028-.648.016-.2-.012-.375-.055-.549-.085a2.757 2.757 0 00-.621-.017c-.761.036-.768.032-1.524-.062a2.03 2.03 0 00-.294-.02c-.555.02-1.102.044-1.656.063a1.858 1.858 0 01-.569-.056c-.06-.018-.041-.049-.081-.109-.047-.014.006.01.02.034.1-.003.22 0 .294-.013.186-.03.279-.068.232-.1a.725.725 0 00-.234-.038c-.147 0-.273.034-.312.117-.421.052-.868.063-1.302.088a2.182 2.182 0 01-.615-.03 3.009 3.009 0 00-.883-.071c-.427.028-.881.033-1.322.056-.507.025-.73-.113-1.157-.109-.441.004-.882.03-1.322.05-.388.016-.388.016-1.19-.082-.295-.037-.642.018-.929-.02-.194-.025-.362-.061-.549-.087-.08-.01-.207-.01-.308-.007-.554.02-1.115.033-1.649.067a5.356 5.356 0 01-1.504-.09c-.548.017-1.102.027-1.643.057-.394.023-.622-.028-.889-.069-.094-.013-.174-.036-.275-.042-.1-.006-.22.006-.327.011-.441.018-.895.026-1.322.055-.527.036-.729-.09-1.137-.105-.273.076-.419.18-.96.188-.441.007-.881.032-1.322.05l-.661.026c-.354.014-.52.074-.446.166.041.051.075.102.109.152.068.09-.098.168-.379.18-.774.03-1.542.062-2.317.09a2.106 2.106 0 01-.575-.06 2.172 2.172 0 00-.582-.05c-.774.03-1.542.062-2.317.09-.087.002-.2-.013-.287-.025-.188-.027-.369-.06-.549-.088-.441.014-.875.024-1.309.044-.701.028-.701.03-1.217-.054-.093-.015-.187-.044-.274-.042-.334.007-.661.023-.995.037-.982.042-.982.042-1.269-.004-.262-.043-.496-.094-.89-.07-.427.03-.881.04-1.322.056-.327.01-.654.024-.982.027-.087.002-.18-.027-.274-.042a3.342 3.342 0 00-.896-.059c-.214.016-.441.02-.661.028-.574.022-.574.022-1.517-.068a2.207 2.207 0 00-.301-.015c-.775.029-1.543.06-2.317.088a2.821 2.821 0 01-.301-.013c-1.057-.087-1.057-.087-2.179-.042-.427.016-.44.022-.889-.059a2.518 2.518 0 00-.602-.04c-.881.038-1.769.064-2.644.109-.394.02-.621-.027-.889-.068-.094-.013-.194-.044-.275-.042-.881.03-1.763.067-2.644.098-.08.003-.181-.027-.274-.04-.181-.028-.355-.07-.556-.078-.207-.01-.434.014-.661.022-.554.021-.554.02-1.197-.07-.087-.012-.2-.029-.287-.025-.882.032-1.77.06-2.645.106a4.81 4.81 0 01-1.196-.083 1.612 1.612 0 00-.294-.016c-.995.037-1.984.079-2.979.116a2.17 2.17 0 01-.575-.058c-.268-.062-.582-.054-.916-.04-.767.034-.774.032-1.229-.04-.094-.016-.174-.036-.275-.043-.093-.008-.214-.003-.314 0l-1.322.052c-.441.018-.888.028-1.322.055-.534.033-.789-.067-1.164-.112-.548.02-1.109.034-1.649.067-.414.026-.609-.042-.883-.077-.094-.012-.194-.038-.281-.035-.995.036-1.99.075-2.978.118a2.49 2.49 0 01-.602-.04c-.448-.081-.469-.078-1.216-.046-.328.014-.641.027-.923-.035-.248-.057-.548-.07-.902-.051-.434.024-.882.037-1.322.053-.441.018-.882.041-1.323.05-.353.008-.568-.064-.849-.1a2.2 2.2 0 00-.308-.009c-.44.015-.894.026-1.322.053-.52.033-.809-.05-1.177-.1a2.137 2.137 0 00-.314.002c-.774.028-1.542.06-2.317.091-.274-.041-.555-.08-.83-.121l-1.322.05c-.334.012-.674.018-.988.041-.407.032-.609-.04-.883-.075-.094-.012-.194-.038-.281-.035-.554.018-1.109.037-1.656.064-.521.027-.73-.11-1.157-.108-.441.002-.895.023-1.322.051a4.443 4.443 0 01-1.197-.08 1.605 1.605 0 00-.294-.019c-.554.02-1.102.044-1.656.063a2.485 2.485 0 01-.301-.013c-1.057-.089-1.057-.09-1.517-.071-.328.013-.661.029-.995.037a1.828 1.828 0 01-.295-.023c-.696-.092-.696-.094-1.196-.074l-1.323.053c-.274-.041-.555-.08-.829-.122-.548.021-1.109.037-1.65.066a2.35 2.35 0 01-.615-.03c-.241-.045-.482-.099-.883-.072-.427.029-.881.032-1.315.056-.521.029-.736-.11-1.157-.108-.441.002-.895.023-1.322.051a4.443 4.443 0 01-1.197-.08 1.605 1.605 0 00-.294-.019c-1.215.047-2.424.093-3.639.143-.748.03-.748.032-2.172-.05a3.443 3.443 0 00-.308-.008c-.44.014-.895.026-1.322.053-.521.033-.809-.05-1.177-.1-.08-.01-.207-.004-.314 0-.334.01-.661.025-.995.038l-1.322.053-.83-.12c-.547.02-1.108.033-1.649.066-.414.025-.609-.04-.883-.076-.094-.012-.194-.038-.281-.036a312.7 312.7 0 00-2.978.117c-.407.02-.595-.05-.87-.084-.093-.01-.2-.03-.287-.027-.661.022-1.322.05-1.983.077-.374.016-.374.016-1.19-.078a2.116 2.116 0 00-.295-.018c-2.096.08-4.186.166-6.283.246a2.08 2.08 0 01-.575-.056 2.17 2.17 0 00-.582-.054c-.882.034-1.77.064-2.645.106a3.45 3.45 0 01-.896-.055 2.255 2.255 0 00-.595-.045c-.44.019-.881.035-1.322.053l-1.322.053c-.441.017-.888.027-1.322.054-.534.033-.796-.061-1.164-.108-.661.024-1.322.048-1.976.074-.882.033-1.763.07-2.645.103-.08.003-.18-.025-.274-.038-.274-.038-.476-.092-.883-.074-1.976.085-3.966.157-5.949.24-.414.018-.596-.047-.877-.082-.093-.01-.2-.032-.287-.029-1.102.04-2.204.085-3.305.129-.448.017-.448.017-1.197-.077a2.032 2.032 0 00-.295-.02c-1.435.054-2.864.112-4.3.168a2.175 2.175 0 01-.582-.054 2.111 2.111 0 00-.575-.056c-1.322.052-2.651.101-3.966.158a3.567 3.567 0 01-.903-.053 2.197 2.197 0 00-.588-.046c-1.984.078-3.967.154-5.95.237a3.452 3.452 0 01-.889-.063 2.47 2.47 0 00-.602-.04c-.254.008-.407.025-.547.072-.18.06-.292.135-.72.14a27.45 27.45 0 00-1.322.052c-.414.027-.608-.042-.869-.083a2.888 2.888 0 00-.622-.019 1.62 1.62 0 00-.5.089c-.293.105-.319.105-.681.04a2.643 2.643 0 00-.582-.057c-.881.033-1.763.068-2.644.105-.508.02-.514.024-.896-.052a2.323 2.323 0 00-.588-.047c-2.424.096-4.848.19-7.272.29a3.893 3.893 0 01-.896-.06c-.087-.016-.174-.037-.275-.043-.1-.006-.213 0-.32.003-1.763.07-3.533.136-5.289.212-.4.018-.615-.03-.889-.07-.094-.014-.174-.035-.275-.041-.1-.005-.22.006-.327.011-1.763.07-3.532.135-5.288.212-.421.018-.602-.047-.876-.08-.094-.012-.195-.035-.281-.032-.555.018-1.102.042-1.656.063-1.323.053-2.645.103-3.967.158-.507.02-.73-.116-1.157-.109-.554.009-1.102.04-1.656.063-.441.017-.882.034-1.322.053-.434.017-.434.017-1.518-.07-.093-.007-.207-.018-.3-.015-1.543.06-3.092.12-4.628.183-.354.015-.648.008-.902-.049a2.228 2.228 0 00-.589-.05c-2.317.092-4.627.184-6.945.274-.086.003-.2-.012-.287-.024-.187-.027-.368-.06-.549-.088-.133.035-.306.068-.393.108-.119.054-.279.07-.533.08a2.43 2.43 0 01-.615-.034 3.372 3.372 0 00-.883-.07c-2.424.1-4.848.193-7.272.292-.4.016-.588-.051-.869-.086-.094-.01-.201-.027-.288-.024-.995.037-1.983.077-2.978.116-2.758.109-5.516.214-8.267.329-.5.02-.842-.017-1.197-.082a1.584 1.584 0 00-.294-.018c-3.859.15-7.719.303-11.572.456a2.172 2.172 0 01-.575-.056 2.165 2.165 0 00-.582-.053c-1.763.07-3.526.139-5.288.21-.441.017-.448.019-.903-.054-.094-.016-.194-.045-.268-.041-.153.008-.3.046-.406.099-.106.055-.273.07-.52.082a2.493 2.493 0 01-.615-.03c-.248-.045-.476-.09-.876-.073-5.068.205-10.137.403-15.205.607-.407.016-.595-.048-.876-.083-.094-.01-.187-.026-.288-.029-.107-.003-.22.007-.327.011l-24.8.98c-.494.02-.487.02-1.027.162-.066.017-.153.04-.247.044-2.53.102-5.068.202-7.605.302-1.102.043-2.204.088-3.305.13-.394.014-.394.014-1.334.182-.08.014-.174.032-.267.036-4.407.175-8.815.35-13.228.522-.348.013-.628.041-.787.115-.113.052-.26.083-.48.093-3.085.122-6.17.246-9.262.365-.367.014-.587.058-.767.123-.06.021-.113.046-.2.061-.08.014-.2.02-.3.024-2.644.104-5.288.212-7.94.312-.393.014-.553.071-.746.132-.067.02-.113.047-.2.061-.086.013-.213.013-.32.016l-6.61.262c-.428-.007-.52.083-.727.137-.074.018-.127.043-.213.055-.094.013-.214.012-.328.015-1.762.069-3.525.143-5.295.207-.407.015-.486.093-.706.147-.074.017-.147.044-.233.048-1.102.047-2.204.09-3.306.132-.367.015-.367.013-1.013.166-.073.017-.16.036-.254.04-1.649.068-3.305.132-4.961.198-.214.008-.36.045-.466.098-.107.052-.26.086-.474.094-1.322.053-2.644.108-3.966.156-.367.013-.607.052-.767.121-.12.053-.266.08-.5.089-1.322.051-2.644.107-3.973.153-.387.013-.587.065-.747.13-.126.053-.273.071-.52.08-2.424.094-4.854.188-7.271.29-.408.018-.616-.036-.883-.074-.382-.053-.736-.11-.738-.23 0-.019-.114-.04-.194-.055-.596-.115-.596-.115-.691-.237-.055-.076-.116-.152-.163-.229-.089-.126-.303-.158-.917-.133-.22.008-.441.019-.661.025-.328.011-.576-.039-.637-.13-.034-.051-.074-.102-.108-.153.334-.013.327-.014.912-.201.247-.079.247-.079-.229-.156-.18-.03-.354-.061-.549-.088-.087-.013-.2-.02-.294-.017-.554.02-1.101.042-1.649.064-.881.036-.881.036-1.779-.12-.073-.012-.187-.034-.174-.047.073-.057.253-.082.48-.088.334-.01.661-.026.988-.039l.661-.025c.207-.06.42-.116.613-.177.306-.092.306-.095-.116-.16-.268-.042-.555-.08-.83-.12-.327.014-.66.028-.988.04-.414.014-.581-.015-.69-.115-.094-.087.019-.163.34-.181.326-.02.634-.032.8-.11.159-.076.44-.106.786-.113.22-.005.441-.016.662-.026.287-.012.44-.091.378-.179-.034-.056-.101-.104-.362-.116-1.156-.051-1.17-.05-1.745-.153-.054-.01-.094-.037-.075-.05a.397.397 0 01.187-.063 161.1 161.1 0 012.303-.091c.254-.008.441-.02.527-.076.12-.079.065-.151-.17-.204a1.348 1.348 0 00-.274-.037c-.881.03-1.756.066-2.637.095a.763.763 0 01-.261-.042c-.067-.037.032-.086.266-.104.307-.023.62-.025.827-.102.286-.11.639-.21.958-.316.053-.018.14-.053.12-.057-.168-.033-.362-.059-.536-.09-.295-.054-.296-.13-.23-.202.053-.058.253-.081.5-.082.107 0 .24 0 .328-.014.226-.035.3-.078.185-.11a1.055 1.055 0 00-.267-.04c-1.43.052-2.865.104-4.287.17-.421.019-.615-.04-.87-.08a2.226 2.226 0 00-.615-.02c-.227.021-.447.01-.588-.041-.114-.042.086-.077.627-.118.1-.008.213-.013.286-.028.773-.168.773-.17 1.307-.191.521-.021.521-.023.794-.113.127-.041.266-.083.386-.126.047-.017.127-.048.1-.057-.148-.048-.349-.058-.582-.047-.521.027-1.136.007-1.408.153-.106.056-.273.071-.513.081-2.418.093-4.835.193-7.259.283-.394.015-.574.072-.726.135-.133.052-.28.068-.534.078-.254.01-.454.014-.602-.036-.087-.03-.014-.074.186-.117.287-.062.232-.139.138-.211-.068-.047-.275-.08-.496-.078-.327.007-.64.025-.915-.036-.161-.035-.362-.06-.543-.09-.348-.062-.696-.126-1.183-.084-.334-.015-.569-.07-.837-.112-.448-.07-.488-.08-.168-.157.36-.085.077-.195.277-.278.212-.09.505-.168.765-.252l.193-.063c-.154-.03-.295-.069-.475-.09-.235-.027-.355-.06-.343-.156-.047-.014-.027.021.027.03.06.01.207.002.28-.01.187-.029.28-.067.233-.1a.73.73 0 00-.234-.038c-.147 0-.274.035-.313.118a44.32 44.32 0 01-2.296.122c-.08.003-.181-.027-.275-.042-.308-.052-.308-.05-1.21-.064a.892.892 0 01-.268-.045c-.194-.093-.189-.196-.284-.296.173-.064.346-.128.526-.19.359-.13.825-.242 1.104-.382-.061-.076-.142-.15.151-.213.834-.078.828-.078 1.054-.152.645-.21 1.284-.422 1.956-.629.18-.054.18-.083-.141-.105a3.545 3.545 0 00-.314-.005c-.334.012-.668.04-.995.034-.328-.003-.57-.07-.837-.112a117.14 117.14 0 01-.823-.13c-.314.005-.628.048-.942-.02-.242-.054-.543-.091-.817-.136.206-.117.592-.207.891-.31.273-.094.28-.093 1.014-.166.347-.034.465-.208.17-.258-.355-.061-.73-.118-1.09-.175-.315.005-.635.047-.936-.022a3.142 3.142 0 00-.89-.066c-.654.035-1.322.053-1.983.082-.227.01-.474.004-.575-.048-.067-.037.126-.088.346-.1.334-.015.634-.034.8-.111.16-.077.454-.1.8-.112a.903.903 0 00.248-.04c.239-.09.505-.167 1.02-.165.213-.031.326-.07.259-.107a.795.795 0 00-.261-.042 70.98 70.98 0 00-1.65.061c-.253.013-.447.016-.608-.03-.114-.03-.054-.072.16-.117.186-.038.239-.083.225-.135-.035-.122-.236-.156-.877-.148-.461.007-.575-.012-.677-.117-.027-.024-.094-.058-.047-.075.286-.105.471-.234 1.012-.284.213-.02.44-.02.574-.06.133-.04.252-.086.392-.125.173-.046.293-.09.213-.119-.135-.052-.348-.056-.595-.037-.214.016-.441.018-.661.027-.394.018-.716-.022-.763-.089-.13-.178-.265-.354-.38-.532-.014-.022.019-.05.072-.068.186-.065.386-.127.579-.19.226-.073.587-.06.894-.074.434-.02.434-.02 1.013-.168.227-.058.621-.036.855-.089.073-.017.186-.044.166-.06-.027-.02-.16-.035-.261-.044a2.257 2.257 0 00-.308-.009c-1.215.047-2.423.097-3.639.142-.207.008-.434-.026-.508-.073-.074-.044-.055-.098-.07-.149.194-.063.414-.122.58-.19.126-.052.273-.076.527-.08.334-.004.66-.023 1.035-.038.692-.225 1.37-.462 2.116-.687.3-.091.225-.183.284-.28.059-.09.506-.076.807-.103.24-.022.32-.071.225-.105a.937.937 0 00-.267-.043c-.22 0-.44.015-.661.023-.22.008-.475.004-.655.03-.173.025-.286.078-.399.123-.126.049-.293.066-.547.07-.327.003-.654.018-.982.029-.361-.06-.736-.117-1.084-.18-.067-.011-.08-.047-.075-.07.013-.06-.088-.097-.308-.125-.188-.025-.342-.06-.516-.09.133-.042.28-.082.386-.127.233-.094.526-.162 1.034-.16.2-.06.359-.134.619-.176.247-.04.668-.001.854-.092.093-.045.233-.096.413-.115.287-.03.661-.014.827-.1.1-.05.246-.095.44-.108.22-.014.447-.017.607-.047.086-.015.18-.04.18-.061 0-.014-.135-.036-.228-.045-.087-.01-.2-.018-.301-.014-.334.01-.661.027-.995.037-.094.003-.2-.008-.3-.017-.295-.024-.275-.055-.042-.11s.4-.124.592-.187c.214-.011.481-.007.628-.037.246-.048.419-.117.619-.178.22-.01.447-.012.654-.03.087-.006.126-.04.2-.06.133-.039.246-.094.426-.113.294-.028.654-.018.827-.103.1-.05.253-.102.44-.105.52-.007.74-.092 1.006-.172.2-.06.628-.03.848-.09.146-.04.253-.087.4-.125a1.87 1.87 0 01.286-.028c.548-.024 1.102-.042 1.65-.067.086-.005.166-.028.233-.046.14-.04.226-.096.399-.123.173-.026.42-.026.634-.034.688-.025.742-.019 1.054-.15.252-.106.875-.032 1.08-.15.12-.067.34-.123.734-.131.554-.012 1.101-.042 1.656-.063.494-.02.487-.02 1.02-.163.24-.065.594-.056.908-.07.334-.012.64-.03.8-.108.16-.076.453-.1.794-.112.314-.011.668-.004.914-.066.6-.149.593-.15 1.014-.166l1.983-.079c.44-.018.901-.021 1.315-.056.3-.025.433-.111.626-.172.548-.024 1.095-.048 1.643-.07.767-.032 1.542-.061 2.317-.092.333-.059.378-.188.94-.195.333-.004.66-.024.994-.037.555-.023 1.102-.051 1.656-.063.421-.008.493-.091.713-.144.074-.018.14-.045.227-.05.868-.044 1.763-.055 2.61-.12.087-.005.167-.038.187-.061.013-.012-.1-.035-.174-.046a1.847 1.847 0 00-.294-.02l-8.274.324c-.387.016-.387.014-1.327.185-.08.014-.174.03-.274.034-.44.02-.888.031-1.322.055a3.413 3.413 0 01-.902-.054 2.549 2.549 0 00-.596-.048 2.2 2.2 0 00-.567.064c-.193.057-.292.131-.7.147-1.876.07-3.752.146-5.622.22-.26-.02-.388-.053-.322-.091a.475.475 0 01.2-.057c.768-.034 1.543-.063 2.31-.095.107-.005.254-.002.314-.018.293-.07.4-.182.953-.19.321-.005.648-.029.955-.051.087-.006.167-.039.187-.062.006-.012-.101-.035-.181-.046-.295-.044-.635.01-.93-.02-.1-.01-.24-.025-.26-.043-.014-.017.1-.045.18-.062.072-.016.172-.03.273-.035.881-.036 1.763-.075 2.644-.104.36-.011.614-.05.774-.121.12-.053.266-.08.493-.089 1.542-.06 3.085-.125 4.634-.18.387-.013.587-.064.747-.13.126-.053.273-.071.52-.08 2.21-.085 4.407-.178 6.617-.258.408-.015.527-.081.733-.138.074-.02.12-.045.213-.057.094-.013.214-.012.328-.015 1.763-.069 3.525-.143 5.295-.207.414-.015.493-.092.706-.146.074-.017.14-.045.227-.05 1.322-.054 2.644-.105 3.966-.158.882-.036 1.763-.071 2.645-.105.434-.016.434-.018 1.02-.164a1.35 1.35 0 01.246-.042c2.538-.103 5.069-.201 7.606-.302.214-.008.367-.044.473-.096.106-.053.26-.089.467-.097 1.983-.08 3.966-.159 5.956-.234.36-.013.614-.05.773-.12.12-.052.267-.08.494-.088 1.983-.077 3.966-.16 5.956-.233a2.39 2.39 0 00.753-.13c.067-.02.12-.056.2-.06.988-.044 1.97-.09 2.965-.121.414-.013.553-.078.72-.14.133-.05.286-.066.54-.073a70.273 70.273 0 001.643-.069c.08-.005.18-.039.186-.06.013-.04-.141-.068-.395-.08l-7.94.312c-.434.018-.434.018-1.02.165-.066.017-.16.037-.253.042-2.538.101-5.068.2-7.606.302a1.184 1.184 0 00-.473.096c-.106.053-.26.088-.467.096-2.423.097-4.847.194-7.278.286-.36.013-.614.049-.773.12-.12.052-.267.08-.494.088-2.317.09-4.627.185-6.951.272-.234.008-.408-.036-.395-.078.006-.021.106-.057.186-.06 1.209-.053 2.41-.107 3.626-.147.407-.013.527-.081.733-.139.067-.02.12-.046.206-.057.094-.012.214-.01.328-.014 2.864-.114 5.729-.23 8.6-.338.414-.016.494-.091.707-.145.073-.019.14-.047.226-.05a28596.912 28596.912 0 017.278-.29c.448-.017.448-.017 1.02-.162a1.23 1.23 0 01.248-.042c4.08-.162 8.16-.325 12.24-.485.213-.008.366-.044.473-.096.106-.051.259-.088.466-.098 5.516-.218 11.025-.437 16.54-.652.361-.015.614-.048.774-.12.113-.052.266-.08.493-.09l18.196-.72c4.08-.16 8.16-.324 12.24-.482.374-.015.574-.063.76-.126.06-.021.12-.057.2-.06.874-.04 1.749-.077 2.624-.114.274.041.549.08.823.122.206-.059.406-.12.613-.178 1.322-.047 2.624-.118 3.959-.142.087-.002.181.027.275.042.622.096.976.088 1.369-.042.14-.046.259-.088.473-.096.661-.029 1.329-.048 1.983-.082a3.49 3.49 0 01.903.052c.181.04.368.057.588.047 1.216-.048 2.424-.095 3.639-.146.087-.003.167-.03.234-.048.139-.04.259-.083.392-.125.181.026.382.045.529.079.188.04.361.04.615.028 4.848-.194 9.702-.384 14.55-.58.414-.016.595.048.876.081.094.013.188.028.288.03.107.004.22-.006.327-.01l10.918-.433c.481-.02.481-.02 1.197.075.087.012.2.026.294.02 1.656-.062 3.312-.13 4.961-.194a2.62 2.62 0 01.589.052c.382.068.408.068.687-.034.134-.048.273-.077.494-.091.24-.016.434-.012.621.015.268.038.463.103.87.085 1.763-.075 3.532-.138 5.288-.215.401-.018.615.034.883.072.094.014.181.035.281.04.1.004.221-.007.327-.012 2.204-.087 4.414-.172 6.611-.265.414-.017.595.048.876.082.094.012.201.033.288.03 1.322-.05 2.651-.103 3.973-.156.474-.02.474-.018 1.197.075.087.012.2.024.294.02l4.634-.18c.474-.02.474-.02 1.845.057.1.006.207.015.307.012 1.763-.069 3.533-.137 5.295-.21a3.6 3.6 0 01.903.052c.181.04.368.056.588.046 1.984-.078 3.974-.154 5.95-.237a3.96 3.96 0 01.896.061c.087.015.174.037.274.043.101.006.214 0 .321-.005 1.983-.08 3.973-.153 5.95-.238.4-.018.615.034.882.072.094.014.195.041.275.04.774-.028 1.549-.052 2.317-.092.414-.022.595.048.876.081.094.011.201.034.288.03 1.656-.062 3.312-.128 4.961-.195.234-.01.408.003.595.043.248.053.536.074.896.057.768-.037 1.543-.063 2.317-.093.454-.018.454-.018 1.845.06.1.006.207.015.307.011 1.322-.051 2.651-.101 3.967-.157.353-.016.648-.003.902.052.181.04.361.056.589.047l3.639-.145c.441-.018.881-.048 1.322-.048.321 0 .555.074.843.11.08.011.214-.002.321-.005 1.542-.06 3.091-.117 4.627-.186.401-.018.615.034.883.072.094.014.194.041.274.04.555-.018 1.102-.042 1.656-.063.661-.026 1.329-.045 1.984-.08.534-.029.736.104 1.163.108.328.004.661-.022.989-.035.661-.026 1.322-.055 1.983-.078.233-.008.414-.033.487-.088.013-.01-.101-.034-.175-.047-.89-.155-.89-.155-1.785-.12-.554.022-1.102.045-1.656.064-.094.003-.201-.009-.294-.018-.268-.025-.241-.056-.015-.112.227-.055.399-.123.592-.187l.817.119.661-.026c1.102-.042 2.204-.085 3.305-.124.081-.003.181.027.275.042.268.045.509.083.896.065.988-.046 1.983-.08 2.971-.12.434-.018.434-.018 1.197.076.087.01.201.023.294.02l2.978-.116c.214-.009.421.011.576.055.06.019.047.05.304.301.791.203 1.332.18 1.879.161.234-.008.441-.016.594-.047.08-.017.18-.042.18-.062 0-.015-.148-.04-.241-.042-.662-.03-1.289.036-1.937.05-.301.007-.562-.046-.616-.134a.512.512 0 00-.055-.075c-.02-.024-.034-.05-.054-.075-.261-.007-.414.02-.527.073a1.365 1.365 0 01-.406.116c-.18.025-.427.02-.648.029-.213.008-.447.028-.647.018-.201-.012-.362-.056-.549-.084-.087-.013-.194-.033-.281-.03-.768.028-1.529.055-2.291.09-.4.02-.601-.045-.856-.084-.201-.03-.401-.023-.434.048-.084.17.224.24.905.206.561-.029 1.068-.034 1.511.07.06.013.2.02.287.016.548-.02 1.088-.044 1.636-.063.1-.003.207.003.301.009 1.364.08 1.364.082 1.824.063.221-.01.434-.018.412-.251.417-.252 1.085-.27 1.733-.308.42-.023.602.044.876.079.094.012.194.036.281.033 1.436-.053 2.865-.11 4.294-.169.24-.01.414 0 .601.04.241.05.509.081.89.062.761-.038 1.535-.062 2.31-.095.394-.016.394-.016 1.19.078.087.01.201.023.294.02.775-.028 1.543-.061 2.311-.09.213-.008.407.013.575.054.167.041.368.062.575.054.775-.029 1.543-.06 2.311-.09a2.17 2.17 0 01.294.018c.816.094.816.094 1.19.078.547-.024 1.108-.036 1.649-.067.528-.032.802.057 1.164.105.988-.037 1.983-.068 2.965-.113.4-.019.615.032.882.071.094.014.188.043.275.041.334-.007.661-.024.988-.037l.988-.038c.375.043.624.147 1.158.111.32-.022.661-.027.988-.04l.988-.039c.22-.008.448-.013.661-.027.394-.024.589.051.87.085.093.01.2.029.287.025.661-.022 1.329-.042 1.977-.078.5-.029.842.017 1.197.08.073.014.2.022.294.018.774-.027 1.542-.06 2.31-.09.207-.008.408.017.575.056.175.041.369.061.582.053l2.311-.09a1.84 1.84 0 01.294.02c.749.095.749.096 1.19.077l.327-.013c.548-.022 1.116-.03 1.65-.069a5.325 5.325 0 011.497.096c.548-.02 1.109-.03 1.643-.063.4-.023.615.035.883.073.093.013.194.04.274.038.775-.028 1.549-.052 2.31-.092.414-.022.595.047.876.081.094.013.195.034.281.03.441-.012.882-.032 1.323-.05.514-.02.514-.019 1.196.074.322.044.642.008.956-.003.334-.013.647-.023.915.04.168.04.369.063.576.057.44-.015.888-.03 1.322-.053a3.38 3.38 0 01.902.05c.181.039.368.058.589.049.988-.039 1.983-.079 2.971-.116a1.6 1.6 0 01.288.024c.187.027.368.058.549.088.434-.014.881-.021 1.309-.043.454-.023.868-.031 1.223.053.074.018.181.044.268.042.333-.006.661-.022.988-.035l.988-.039c.381.038.623.148 1.157.112.321-.022.661-.027.989-.04.327-.013.661-.028.988-.039.107-.003.227-.011.32-.005.101.006.188.027.275.042.268.045.515.089.896.062.32-.022.661-.027.988-.042.447-.017.448-.017 1.19.078.301.04.641-.013.929.02.194.023.362.06.549.087.08.01.207.015.301.011.44-.014.888-.029 1.322-.053.354-.019.648 0 .896.054.181.04.361.056.588.047 1.102-.045 2.204-.084 3.299-.134.374-.017.675.009.882.063.356.095.855-.018 1.224.058.227.048.455.102.869.079.761-.042 1.536-.064 2.304-.093l.83.123c.44-.018.881-.036 1.322-.052l.988-.039c.107-.003.22-.01.321-.002.1.008.181.028.274.043.462.074.462.076 1.223.044.328-.014.641-.024.916.037.255.056.555.066.903.049.654-.032 1.315-.056 1.983-.079.207-.008.401.018.575.058.261.062.582.055.909.038.434-.022.861-.045 1.23.04.073.02.187.045.268.043.547-.013 1.102-.023 1.636-.053.534-.03.795.064 1.163.11l1.65-.063c.107-.005.233-.019.327-.011.395.031.623.146 1.164.11.314-.02.654-.027.981-.032a.922.922 0 01.262.044c.033.01 0 .04-.04.055-.12.043-.266.083-.372.128-.014.006.114.034.187.046.181.027.388.022.628.01.207-.012.421.01.569.055.06.019.04.05-.085.151.001.075.141.041.187-.008.072-.07-.068-.093-.335-.055-.187.028-.28.068-.232.1.027.018.154.039.38-.037a11.52 11.52 0 011.468-.128c.114-.005.247-.02.327-.012.288.037.556.08.837.122.32-.01.621-.034.935.026.442.083.462.076.89.058.22-.01.44-.018.661-.026.22-.008.394.015.588.05.395.072.429.072.688-.027a.78.78 0 01.454-.053c.642.092.649.098 1.196.07.454-.024.882-.03 1.217.056.228.061.301.047.481-.018.479-.171.699-.168 1.602-.047.422.058.856-.006 1.283-.014.361-.007.615.03.643.126.021.06.081.103.322.122.094.008.207.018.301.015.554-.02 1.102-.042 1.656-.064.28-.011.433-.084.379-.179-.062-.101.045-.138.445-.168.24-.018.434-.015.628.012.215.03.155.059-.032.114-.446.136-.391.219.185.312.2.032.361.06.408.108.027.025.001.057.061.075.329.103.784.168 1.292.216.487-.042.822.026 1.197.081.295.043.642.005.955-.01.354-.018.648-.007.903.05.181.04.368.058.588.05.441-.018.889-.03 1.322-.055.374-.022.655.008.89.06.295.065.621.02.929.029.414.01.623.146 1.164.109.32-.022.654-.03.988-.037a1.13 1.13 0 01.268.042c.355.084.769.079 1.223.053.314-.017.621-.033.929.025.509.097 1.071.182 1.606.272.075.07.022.154.404.194.2.022.388.054.542.089.187.04.361.051.601.04.434-.022.889-.028 1.316-.056.394-.025.642.025.883.072.194.038.375.056.608.028.24-.026.414-.01.608.032.275.056.295.05 1.204.065a.94.94 0 01.261.044c.027.01-.033.042-.08.057-.06.019-.153.04-.24.045-.988.042-1.983.079-2.971.12-.1.005-.207.016-.28.032-.08.017-.18.04-.18.061 0 .016.134.034.228.045.294.034.641-.02.929.02.194.025.354.062.548.086.081.01.208.009.308.006.334-.012.661-.028.995-.037.093-.002.2.013.287.025.643.091.643.091 1.197.07.22-.008.454-.031.661-.022.201.009.375.05.556.076.374.054.729.107.757.227.014.046.235.086.456.089.213.002.44-.015.661-.025.521-.019.521-.019 1.196.074.188.025.388.028.629.012.093-.006.207 0 .307.007.328.023.328.052.115.108-.3.082-.273.09.57.157.321.026.568.074.836.117.435.068.429.068.142.16-.066.02-.126.041-.193.063-.193.06-.345.125-.746.132-.441.007-.882.032-1.322.05-.428.017-.541.054-.5.159.049.126.136.14.904.136.221 0 .414.012.582.053-.08.05-.226.088-.44.098-.547.024-1.102.045-1.649.066l-1.322.053c-.274.01-.447.09-.372.18.041.05.074.101.109.152.074.101.215.127.662.122.114-.002.221-.015.328-.012.434.01.643.137 1.163.11.434-.022.889-.027 1.316-.056.394-.025.615.03.889.071.094.014.195.043.275.041a72.568 72.568 0 001.649-.066c.254-.013.407-.004.608.033.482.088.496.084 1.21.055.521-.023.528-.02 1.197.073.187.026.388.025.628.013.314-.016.641-.041.969-.019a.92.92 0 01.261.044c.02.014-.073.048-.153.059-.587.08-1.275.068-1.916.101a2.018 2.018 0 01-.569-.06 2.174 2.174 0 00-.589-.05c-.44.018-.888.03-1.322.055a3.494 3.494 0 01-.896-.06c-.087-.015-.187-.044-.274-.043-.988.033-1.983.065-2.965.11-.394.02-.622-.03-.889-.07-.094-.014-.188-.043-.275-.042-.334.007-.661.024-.995.037-1.215.049-2.424.097-3.639.142-.08.003-.181-.029-.274-.043-.181-.027-.369-.053-.556-.079-.334.013-.661.03-.995.039-.24.007-.454.028-.486.087-.02.038.201.073.435.07.227-.004.454-.022.641-.003.93.097.93.098 1.511.077.507-.019.454-.034.902.05.194.036.368.057.589.048.547-.023 1.102-.045 1.656-.065.087-.003.2.012.287.024.656.091.656.095 1.197.07.708-.028.735-.036 1.21.057.328.064.628.019.942.015.362.06.756.112 1.085.18.388.079.795.064 1.236.04.327-.017.648-.024.916.039.254.058.562.063.909.047.314-.014.634-.044.962-.01.087.008.221.031.214.045-.006.022-.093.053-.18.062-.613.064-1.288.064-1.936.094-.087.005-.2-.012-.287-.024-.188-.027-.369-.06-.549-.088-.327.01-.661.013-.982.032a2.365 2.365 0 01-.615-.023c-.167-.034-.348-.075-.549-.085-.2-.01-.434.013-.654.022-.22.01-.474.006-.648.03-.173.025-.279.08-.392.123-.127.047-.3.063-.554.068a2.28 2.28 0 01-.595-.043 2.477 2.477 0 00-.275-.045c-.093-.01-.2-.027-.287-.024-.995.037-1.983.078-2.978.116-.495.02-.488.02-1.518-.07-.093-.007-.207-.017-.301-.014-.554.02-1.101.042-1.656.064-.561.023-.554.02-1.51-.076-.174-.018-.428.007-.635.005-.434-.007-.65-.136-1.157-.11-.434.022-.888.027-1.322.055-.394.026-.622-.028-.89-.069-.093-.013-.194-.044-.274-.04-.995.035-1.983.075-3.306.082-.327 0-.18.033.034.043.307.016.407-.016.24-.077a1.16 1.16 0 00-.435-.053c-.074.006-.167.035.161.087.348.058.329.09.389.108.147.045.355.063.568.056.334-.011.662-.027.995-.037.094-.003.208.007.295.02.736.094.742.1 1.524.061a3.17 3.17 0 01.621.018c.268.04.462.107.87.084.54-.03 1.095-.048 1.649-.066.087-.003.181.025.281.037.274.036.476.105.883.075.313-.023.654-.03.988-.035a.8.8 0 01.261.042c.081.035-.019.077-.246.107-.093.012-.22.01-.327.014-.441.018-.881.037-1.322.051-.234.009-.454.032-.48.089-.02.038.221.072.448.068.334-.005.668-.018.989-.038.567-.035 1.062-.027 1.524.07.328.066.307.042.657.24.088.051.348.056.576.052.547-.009.801.014.755.062-.059.058-.253.077-.5.085-.441.013-.881.034-1.322.052-.107.004-.227.014-.327.01-.1-.002-.194-.02-.281-.034-.188-.029-.349-.073-.549-.084-.201-.01-.434.014-.654.023-.221.008-.454.032-.655.021-.2-.01-.368-.056-.549-.083-.087-.014-.194-.035-.281-.034-.441.013-.881.034-1.322.05-.541.021-.541.021-1.197-.073a3.18 3.18 0 00-.628-.013c-.534.026-.541.021-1.517-.066a2.202 2.202 0 00-.301-.015c-.995.037-1.983.077-2.972.116-.848.034-.848.034-1.313.188-.346.114-.353.114-.012.166.275.042.523.105.824.128.28.02.627-.05.935.021.154.035.355.073.549.079.307.007.634-.038.929.029.147.034.368.069.555.07.328.002.661-.023.989-.034.1-.003.213-.004.307.004.1.009.187.027.274.042.268.052.556.076.903.05.567-.044 1.075-.024 1.517.074.061.013.208.015.301.008a2.87 2.87 0 01.628.012c.074.012.181.033.168.047-.02.023-.1.054-.187.062-.627.053-1.301.06-1.949.09-.087.002-.194-.018-.281-.031-.187-.027-.348-.073-.549-.084-.201-.01-.434.01-.654.018-.221.008-.454.032-.655.023-.2-.01-.388-.049-.549-.082a2.238 2.238 0 00-.615-.027c-.32.02-.654.025-.981.036-.181-.029-.362-.06-.549-.088a1.757 1.757 0 00-.288-.029c-.441.013-.881.032-1.322.05-.441.018-.441.018-1.19-.076a2.045 2.045 0 00-.294-.02c-.555.02-1.102.044-1.656.063a2.162 2.162 0 01-.582-.054 2.111 2.111 0 00-.575-.056c-.882.034-1.763.066-2.645.106-.354.016-.654.003-.896-.052-.281-.063-.595-.047-.922-.034-.741.032-.748.03-1.223-.047-.094-.015-.188-.044-.274-.043-.768.025-1.543.048-2.304.086-.401.02-.615-.033-.883-.072-.094-.014-.194-.043-.274-.04-.555.018-1.109.034-1.65.066-.541.032-.749-.11-1.157-.109-.554.003-1.102.04-1.649.062l-1.322.053c-.441.017-.882.032-1.322.053a2.35 2.35 0 01-.602-.04c-.248-.051-.542-.09-.81-.136-.408-.066-.409-.066-.903-.046l-.327.013c-.808.035-.808.032-1.838-.063a.91.91 0 00-.213.025c-.14.04-.266.083-.393.125-.181-.024-.401-.038-.522-.073-.342-.1-.875.038-1.223-.06a2.713 2.713 0 00-.549-.077c-.207-.009-.441.013-.654.023-.555.024-.555.022-1.027.16-.24.068-.587.056-.901.072-.327.018-.641.027-.916-.035a3.34 3.34 0 00-.902-.05 63.05 63.05 0 01-1.323.052 2.474 2.474 0 01-.301-.013c-1.023-.089-1.023-.09-1.517-.07-.22.01-.447.013-.661.028a3.358 3.358 0 01-.896-.056c-.087-.015-.187-.044-.274-.042-.441.008-.875.023-1.309.037-.334.012-.668.018-.988.04-.534.037-.796-.063-1.164-.108-.548.02-1.102.036-1.65.064a2.39 2.39 0 01-.614-.028c-.248-.046-.476-.097-.877-.074-.534.032-1.095.044-1.642.063-.368-.047-.637-.143-1.164-.107-.32.022-.661.027-.988.04-.441.018-.882.034-1.322.053-.474.02-.468.015-1.197-.075-.422-.053-.855.008-1.283.018-.334.008-.5.08-.418.17.081.09-.099.161-.406.174-.768.03-1.542.063-2.31.09a2.039 2.039 0 01-.294-.018c-.823-.095-.823-.094-1.191-.08-.547.025-1.108.038-1.649.068a3.218 3.218 0 01-.889-.063 2.315 2.315 0 00-.602-.039c-2.644.108-5.289.208-7.926.318-.394.016-.622-.028-.889-.069-.094-.013-.181-.042-.275-.042-.22 0-.441.014-.661.024-.988.038-1.976.085-2.971.114-.421.013-.534.084-.714.143a1.974 1.974 0 01-.546.07 2.44 2.44 0 01-.602-.04 3.18 3.18 0 00-.89-.062c-.433.025-.874.037-1.322.054-.227.008-.4.036-.473.092-.013.01.127.032.208.046.268.045.522.098.823.13.308.032.641-.005.962-.015.113-.004.22-.013.327-.012.1.002.221.01.294.023a4.04 4.04 0 001.197.073c.414.02.63.147 1.157.112.321-.02.655-.03.989-.039.086-.001.18.026.274.04.268.038.482.099.883.072.427-.028.881-.034 1.315-.056.24-.013.414-.002.602.037.241.05.515.088.889.063.32-.022.661-.027.988-.041.428-.018.428-.017 1.19.077.087.011.201.023.295.02.554-.02 1.101-.043 1.656-.063.213-.008.421.012.568.056.061.018.041.049.061.075-1.102.043-2.203.08-3.298.133-.414.021-.602-.042-.877-.077-.093-.012-.194-.038-.281-.034-.774.027-1.542.056-2.31.091-.24.011-.421.006-.602-.039-.462-.117-1.022-.052-1.543-.034-.401.013-.527.061-.479.162.061.12.302.156.916.134.221-.008.441-.02.662-.026.213-.006.407.013.581.054.168.042.369.063.576.056.44-.014.888-.029 1.315-.053.354-.019.648-.004.896.053.275.062.595.048.916.033.748-.032.754-.03 1.223.046.093.015.187.044.274.042.768-.024 1.543-.045 2.297-.084.394-.019.622.03.883.07.094.013.188.044.274.04a70.745 70.745 0 001.65-.065c.253-.014.407-.006.615.03.495.09.509.088 1.21.057.213-.01.447-.027.647-.015.201.012.362.056.549.084.087.012.194.029.288.025.441-.013.881-.032 1.322-.05.414-.017.414-.016 1.19.078.315.04.642.005.956-.008.34-.014.647-.014.909.045.261.06.575.056.909.043.314-.013.634-.047.955-.006.736.094.736.095 1.19.076a414.1 414.1 0 011.983-.077c.087-.003.201.015.288.027.187.027.348.073.549.084.2.011.434-.007.648-.017.687-.03.734-.041 1.196.06.389.082.868-.039 1.23.056.208.053.489.096.876.069.32-.022.654-.029.988-.042.528-.02.528-.02 1.197.072.087.012.201.027.287.024.441-.013.889-.025 1.316-.053.501-.033.822.025 1.197.08.294.045.641.007.955-.008.341-.016.648-.012.902.047.268.061.582.053.916.04.314-.011.634-.047.956-.005.689.094.689.094 1.19.075.44-.018.881-.037 1.322-.05.087-.003.194.017.281.03.187.028.348.073.549.084.2.01.434-.01.654-.018.22-.008.454-.032.654-.023.201.009.389.047.549.08.188.04.362.045.615.029.321-.02.655-.026.982-.037.181.029.368.058.542.09.181.033.375.03.622.018.821-.038.828-.033 1.517.06.314.043.641.007.955-.004.334-.013.648-.02.909.041.255.058.569.065.903.046.213-.012.44-.02.661-.025.1-.002.22.004.294.016.355.064.703.122 1.19.08.428.011.643.137 1.157.111.434-.022.888-.027 1.316-.056a2.69 2.69 0 01.876.07c.362.095.868-.035 1.23.058.207.054.475.096.876.073.44-.026.581.006.709.103.074.055.062.1-.072.143-.133.045-.28.037-.494-.013-.248-.056-.542-.067-.896-.054-.347.013-.562-.066-.85-.097-.287-.031-.627.023-.928-.018-.71-.095-.71-.095-1.191-.076-.327.013-.667.02-.988.041-.38.027-.628-.02-.889-.063-.094-.015-.188-.044-.268-.042-.768.024-1.543.047-2.304.087-.4.02-.615-.034-.882-.072-.094-.014-.195-.041-.275-.038-.661.022-1.315.051-1.976.079-.127.041-.267.081-.386.126-.127.046-.3.067-.554.066-.421 0-.834.066-1.256-.015-.435-.082-.469-.078-.889-.057-.534.027-1.102.022-1.603.083-.086.01-.18.04-.179.061-.007.014.134.034.221.046.294.037.634-.018.928.02.195.024.355.06.549.087.081.01.201.009.308.007.113-.002.22-.013.327-.011.1 0 .207.01.288.024.368.057.756.11 1.084.179.322.067.622.02.942.017 1.284.105 1.284.107 2.146.071.213-.008.434-.017.654-.016.094 0 .181.027.275.042.267.046.522.087.896.062.32-.022.661-.027.988-.042.441-.018.441-.018 1.19.078.187.024.388.02.628.008.207-.011.421.012.568.056.061.018.041.05.062.075-.662.026-1.329.044-1.97.082-.414.024-.602-.042-.876-.077-.094-.012-.195-.038-.281-.035-.655.024-1.309.052-1.963.083-.081.004-.18.04-.187.06-.013.04.155.079.395.077.321-.002.635-.029.923.034.241.054.542.079.895.053.214-.014.441-.014.655-.027.567-.038 1.082-.03 1.51.073.328.027.649 0 .962-.014.234-.011.461-.022.628.006.355.061.703.122 1.191.08.528.042.93.132 1.372.205.207.035.368.055.608.031.1-.01.22-.01.327-.014.221-.008.454-.032.655-.023.2.01.368.055.548.082.087.014.188.037.275.035.334-.008.661-.024.988-.037l.982-.034.829.118 1.316-.051c.488-.02.487-.018 1.19.076.315.043.648.014.949-.006.5-.033.835.024 1.19.085.074.012.207.02.294.014.347-.022.648-.006.902.05.181.04.362.058.582.05.768-.03 1.536-.063 2.304-.09.094-.003.201.01.288.023.682.092.689.097 1.19.071.447-.022.861-.032 1.216.052.074.018.188.044.268.042a81.796 81.796 0 001.643-.06c.247-.014.42-.01.615.026.247.044.468.097.876.077 1.128-.06 1.135-.05 2.472.054.094.007.221-.005.327-.012a2.27 2.27 0 01.595.04c.449.08.462.075.89.058.327-.015.668-.018.988-.042.494-.035.822.025 1.19.08.295.045.635.007.949-.007.34-.016.648-.012.902.046.174.04.362.06.582.053l2.304-.09c.093-.003.207.009.294.02.763.093.763.098 1.517.061a2.88 2.88 0 01.622.018c.174.03.361.059.542.088.327-.012.661-.015.982-.034a2.61 2.61 0 01.614.023c.255.041.47.113.87.077.207-.017.447-.013.654-.029.247-.02.414-.008.609.032.241.047.488.095.876.07.427-.028.881-.034 1.315-.056.24-.013.408 0 .602.039.241.05.515.082.889.062.761-.04.768-.033 1.511.063.187.024.387.02.628.008a1.78 1.78 0 01.568.056c.141.049.128.08.142.106zM394.496 2.263c-.221.008-.441.018-.763-.115-.021-.023-.008-.05-.055-.07a1.489 1.489 0 00-.475-.075c-.361-.006-.794.047-.787.087.007.034.121.063.342.09.093.01.167.03.254.041.254.035.456.104.823.068-.034-.048-.068-.095 0 0-.033.058.068.1.308.116.067.005.167.001.221-.008.206-.034.239-.08.084-.201-.026.02-.006.055.054.064.061.01.207.001.281-.01.187-.03.28-.068.232-.1a.723.723 0 00-.234-.038c-.14 0-.267.034-.285.151zm54.236 17.723c-.488.03-1.049.02-1.536.08-.087.012-.173.04-.18.061-.006.014.128.034.208.044.181.024.381.017.615.008.354-.011.562.06.836.094.087.01.201.018.294.015.541-.02 1.075-.04 1.616-.063.094-.004.194-.015.274-.03.266-.044.239-.073-.022-.107-.287-.036-.515-.097-.81-.126-.421-.04-.848.015-1.295.024zm-37.926 1.187l-.975.039c-.106.005-.22.006-.32.013-.207.01-.36.043-.46.094.154.04.342.063.549.058.327-.01.647-.03.975-.036.354-.007.562.062.836.097.087.01.194.012.294.013.494.005.794-.075.699-.187-.068-.087-.322-.14-.629-.128l-.969.037zm40.183-3.462c.08-.026.166-.045.206-.068.119-.078.072-.137-.149-.198-.269-.075-.595-.023-.896-.015a.501.501 0 00-.193.054c-.026.014-.026.043.014.05.328.062.676.118 1.018.177zm-58.009-4.437c-.321.013-.648.022-.969.04a.599.599 0 00-.199.054c-.087.037.007.087.281.091.314.006.641-.02.969-.033.414-.017.66-.074.506-.123-.148-.047-.348-.056-.588-.03zM41.281 10.6c.214-.008.434-.014.648-.025.2-.011.354-.046.453-.097a2.205 2.205 0 00-.562-.055c-.327.01-.647.022-.968.038-.2.01-.393.044-.44.096-.046.04.402.063.87.043zm323.404-.798c.087.014.174.041.261.041.213 0 .434-.01.634-.026a.48.48 0 00.193-.055c.027-.014.02-.039-.02-.05-.195-.074-.97-.047-1.096.038-.013.015.021.035.028.052zm-21.18-8.376c.02.024.027.049.054.074.054.046.202.08.416.102.166-.039.253-.082.246-.128a.177.177 0 00-.055-.074c-.054-.046-.201-.08-.415-.102-.167.037-.247.08-.246.128zm122.967 19.917c-.06.02-.12.04-.186.059.181.044.348.057.475.033.08-.016.126-.04.186-.06a1.184 1.184 0 00-.475-.032zm-4.153.216c.087.014.168.032.261.041a.719.719 0 00.4-.067c-.087-.013-.167-.032-.261-.04a.722.722 0 00-.4.066zm2.629-.286c-.046.037.048.068.295.093.06-.02.14-.038.18-.06.066-.035-.048-.067-.289-.091a3.423 3.423 0 00-.186.058zm-14.123-1.631c-.046.037.048.067.295.093.06-.02.14-.039.18-.06.066-.036-.048-.068-.288-.092a3.533 3.533 0 00-.187.059zM431.48 8.805c-.06.02-.12.04-.187.059.181.044.348.058.475.033.08-.016.126-.039.186-.059a1.18 1.18 0 00-.474-.033zM413.004 3.07a.773.773 0 00.407-.068c-.087-.014-.167-.032-.261-.041a.719.719 0 00-.4.066c.087.016.174.03.254.043zm-9.778-.344c-.059.02-.119.04-.186.059.181.044.348.057.475.032.08-.015.126-.038.186-.058a1.212 1.212 0 00-.475-.033zm-66.295-1.29a5.18 5.18 0 01-.186.06c.181.044.348.057.475.032.08-.015.126-.038.186-.058a1.212 1.212 0 00-.475-.033zM7.071 14.51c-.088-.014-.175-.027-.255-.042-.193.041-.253.08-.146.109.067.018.168.029.255.042.2-.041.246-.078.145-.109z" fill="#FFE492"/></svg>