<svg width="319" height="31" fill="none" xmlns="http://www.w3.org/2000/svg"><path d="M298.175 16.605c-.434.025-.873.042-1.299.08-.277.024-.395-.045-.58-.082-.061-.012-.127-.038-.184-.034-.431.025-.861.053-1.291.082-.132.06-.215.143-.417.173-.198.028-.431.028-.65.042-.29.018-.58.035-.869.05-.145.008-.264.038-.312.095-.009.01.088.033.14.047.176.048.347.101.54.137.185.035.413-.022.611.022.443.1.448.098.786.08.289-.018.579-.037.869-.05.057-.003.123.02.184.033.185.035.303.114.576.084.206-.024.434-.028.649-.041.18.046.347.098.54.134.18.034.233.061.137.107-.088.043-.211.06-.374.063-.145.002-.289.016-.434.024-.075.004-.145.007-.216.012-.276.017-.276.017-.781-.083-.198-.04-.422.015-.61-.022-.128-.026-.237-.063-.36-.09a.922.922 0 00-.202-.01c-.22.011-.439.02-.65.04-.149.014-.237.058-.22.102.005.017.11.043.172.044.14.003.289-.019.425-.008.132.011.268.043.365.078.197.072.421.007.61.026.198.02.36.084.549.122.048.009.14-.007.215-.011.215-.011.43-.02.646-.032.18.046.373.087.535.139.294.094.611.13.993.085.215-.026.425-.016.597.045.175.063.377.057.601.044.207-.012.417-.047.628-.003.457.098.461.103 1.001.065a1.14 1.14 0 01.408.022c.114.033.237.061.356.093.215-.011.435-.022.65-.035.276-.017.43.005.496.093.039.054.057.102.154.139.114.044.237.042.404.03.158-.011.272-.029.338-.085a.476.476 0 01.127-.065.414.414 0 01.136-.033c.066.006.154.023.176.044.215.19.215.192.434.247.242.062.492.117.712.186.197.062.395.035.61.035.162 0 .268.04.255.082-.009.023-.071.058-.123.061a58.73 58.73 0 01-1.3.08c-.053.003-.118-.025-.18-.039-.123-.028-.233-.072-.364-.082-.132-.01-.286.014-.431.022-.145.008-.298.028-.43.016-.132-.013-.237-.058-.36-.088-.057-.014-.136-.035-.184-.03a1.802 1.802 0 01-.786-.084.682.682 0 00-.193-.02c-.51.027-1.015.058-1.524.088-.206.013-.373-.043-.417-.135-.022-.052-.066-.104-.066-.156 0-.095-.241-.147-.417-.136-.29.016-.584.029-.869.052-.233.02-.431 0-.589-.056-.184-.065-.395-.052-.606-.035-.158.012-.202.064-.193.195.009.106-.066.139-.351.156-.36.022-.725.044-1.089.061-.057.004-.123-.023-.18-.037-.123-.029-.233-.074-.364-.084-.132-.01-.286.013-.431.022-.145.008-.298.03-.43.02-.132-.012-.242-.06-.36-.089-.057-.014-.127-.035-.184-.032-.29.013-.58.032-.87.05-.325.018-.325.018-.786-.08-.21-.043-.421-.009-.628.004-.219.012-.425.019-.597-.044a.95.95 0 00-.377-.059c-.365.02-.725.043-1.089.062a.677.677 0 01-.193-.02 1.93 1.93 0 00-.786-.084c-.281.028-.584.03-.865.056-.154.015-.224.065-.193.105.017.02.109.044.171.044.14.001.294-.023.426-.013.272.019.408.151.764.115.21-.022.43-.03.65-.036.057-.002.118.028.179.044.176.042.33.098.584.07.211-.023.435-.03.65-.042.343-.02.343-.019.786.077.211.046.422.01.628-.001.154-.008.299-.024.422-.002.188.033.324.109.557.104.22-.005.435-.027.654-.034a.95.95 0 01.374.063.908.908 0 00.386.051c.215-.012.435-.028.654-.036a.825.825 0 01.189.025c.123.029.241.062.36.092.215-.01.435-.013.645-.032.163-.014.277-.008.409.024.167.042.303.118.575.082.136-.018.294-.013.43-.029a.76.76 0 01.4.035c.224.09.505.091.794.057.317-.038.554.006.791.075.25.073.25.071.443.246.057.05.22.074.356.065.228-.016.426-.008.593.052.175.064.386.056.601.039.285-.024.571-.044.804.047a.876.876 0 00.39.044c.435-.028.874-.045 1.3-.08.259-.022.408.028.584.07.237.06.496.111.496.235 0 .021.062.045.114.06.114.033.237.062.356.093.175.048.347.087.588.062.211-.02.435-.027.65-.041.215-.014.413-.022.606.038.224.067.461.132.716.182.18.036.417-.025.61.024.118.03.232.064.36.09.053.01.136.003.206 0 .145-.007.294-.011.435-.027a1 1 0 01.408.022c.114.033.229.079.36.088.198.014.417-.049.615.024.101.036.228.07.36.082.132.01.285-.013.426-.011.061 0 .136.025.171.045.022.011-.009.041-.039.057a.435.435 0 01-.154.047c-.435.029-.869.052-1.304.079-.259.016-.259.016-.782-.084a1.602 1.602 0 00-.412-.007c-.207.014-.417.04-.633.012-.281-.107-.627-.116-.996-.075a1.157 1.157 0 01-.409-.013c-.241-.06-.496-.115-.711-.186-.167-.055-.246-.06-.316.016-.022.023-.044.049-.04.07.027.08.075.157.101.235.009.022-.026.048-.048.071-.07.066-.162.062-.316.007a1.28 1.28 0 00-.584-.067c-.211.023-.439.02-.65.043a1.879 1.879 0 01-.786-.084.677.677 0 00-.193-.018c-.654.036-1.304.077-1.958.113a.905.905 0 01-.378-.058.934.934 0 00-.382-.057c-.579.033-1.159.063-1.738.104a1.476 1.476 0 01-.589-.058 1.056 1.056 0 00-.39-.05c-.167.006-.286.021-.369.067-.079.044-.022.07.153.105.189.038.365.087.545.131.145-.006.29-.019.43-.017.062 0 .119.028.18.044.176.046.338.091.589.066.21-.022.434-.027.649-.04.299-.018.299-.018.782.081.123.025.254.024.413.01a.756.756 0 01.373.058c.039.019.026.05-.057.154 0 .077.092.043.123-.008.048-.072-.044-.096-.22-.056-.123.028-.184.069-.154.102.018.017.101.04.251-.038.386-.094.68-.105.961-.13a.956.956 0 01.404.033c.158.048.316.1.575.075.281-.028.58-.031.865-.055.264-.022.4.047.567.088.202.049.426-.006.61.022.193.029.329.098.553.11.325-.042.531.037.777.089.194.039.422.004.628-.013.233-.019.426-.002.589.055.184.065.39.05.601.036.492-.031.509-.036.795.05.206.064.404.035.61.028.18.042.356.088.545.126.048.009.14-.007.215-.012l.649-.037c.145-.008.299-.032.431-.022.131.01.241.056.36.086.118.03.241.06.355.092.176.047.343.086.589.063.21-.02.43-.027.65-.041.276-.018.267-.013.781.082.277.052.562-.011.843-.018a.866.866 0 01.373.06c.04.019.027.05.04.077-.725.043-1.454.079-2.169.131-.277.02-.422-.036-.571-.084-.246-.075-.571.035-.803-.063a1.19 1.19 0 00-.584-.062c-.141.015-.29.014-.435.028-.369.035-.707.036-1.001-.072-.101-.038-.246-.059-.351-.095a1.029 1.029 0 00-.387-.054c-.654.038-1.304.076-1.954.117-.057.003-.114.027-.162.044-.123.044-.083.079.114.107.066.01.119.03.18.046.119.03.228.077.36.088.132.011.286-.011.431-.019.144-.008.298-.031.43-.022.132.011.241.057.364.085.057.014.128.038.185.036.289-.01.575-.026.865-.04.18.042.333.103.548.117.136.01.281-.007.422-.004.061.001.14.025.171.045.018.013-.039.044-.083.06-.167.06-.395.05-.602.068-.224.02-.426.014-.597-.047a.963.963 0 00-.382-.055c-.364.02-.724.044-1.089.061a.872.872 0 01-.193-.022c-.461-.096-.461-.1-.786-.079-.479.03-.478.03-.799-.053-.061-.016-.127-.046-.18-.044-.509.025-1.014.05-1.519.086-.167.011-.281.011-.404-.03a1.489 1.489 0 00-.36-.083c-.136-.01-.286.014-.43.022-.145.008-.299.028-.426.016-.132-.013-.246-.057-.36-.088a1.174 1.174 0 00-.409-.02c-.5.037-.505.032-1.001-.066a.866.866 0 00-.193-.02c-.364.019-.724.043-1.089.061a.806.806 0 01-.373-.058c-.04-.019-.026-.05-.053-.112-.03-.014.005.011.013.035.066-.003.145 0 .194-.013.123-.03.184-.069.153-.102a.328.328 0 00-.153-.04c-.097 0-.18.035-.207.12-.276.052-.571.063-.856.088a.932.932 0 01-.404-.033 1.302 1.302 0 00-.579-.074c-.281.029-.58.034-.87.056-.333.025-.478-.117-.759-.114-.29.003-.58.03-.87.049-.254.016-.254.016-.781-.087-.193-.037-.422.018-.61-.022-.128-.025-.238-.063-.36-.09a.937.937 0 00-.202-.007c-.365.018-.734.031-1.085.066a2.294 2.294 0 01-.988-.096c-.36.017-.724.027-1.08.056-.259.022-.408-.03-.584-.072-.061-.014-.114-.038-.18-.044-.066-.006-.145.006-.215.01-.29.018-.588.026-.869.054-.347.037-.479-.093-.747-.108-.18.077-.276.182-.632.19-.29.007-.58.032-.869.05l-.435.024c-.233.015-.342.076-.294.17.026.052.048.104.07.156.044.093-.066.172-.25.183-.51.03-1.014.061-1.524.088a.908.908 0 01-.377-.061.94.94 0 00-.382-.054c-.51.03-1.015.062-1.524.088a.777.777 0 01-.189-.025c-.123-.028-.241-.061-.36-.091-.289.014-.575.024-.86.042-.461.029-.461.03-.799-.056-.062-.016-.123-.046-.18-.044-.22.006-.435.022-.655.036-.645.04-.645.04-.834-.006-.171-.045-.325-.098-.584-.073-.281.029-.579.038-.869.054-.215.01-.43.023-.646.026-.057.002-.118-.028-.179-.044a1.433 1.433 0 00-.589-.061c-.14.016-.29.019-.435.027-.377.022-.377.022-.996-.073a.938.938 0 00-.198-.015c-.509.028-1.014.06-1.523.086a1.199 1.199 0 01-.198-.014c-.694-.091-.694-.091-1.431-.047-.281.015-.29.022-.584-.062a1.076 1.076 0 00-.395-.042c-.58.037-1.164.063-1.739.107-.259.019-.408-.029-.584-.071-.061-.014-.127-.046-.18-.044-.579.03-1.159.066-1.739.096-.052.003-.118-.028-.18-.043-.118-.028-.232-.07-.364-.08-.136-.01-.286.014-.435.022-.364.02-.364.02-.786-.074-.057-.013-.131-.03-.188-.027-.58.032-1.164.059-1.739.104a2.064 2.064 0 01-.786-.086.679.679 0 00-.193-.018c-.654.037-1.304.078-1.958.114a.94.94 0 01-.378-.06c-.176-.065-.382-.057-.602-.043-.504.033-.509.032-.807-.044-.062-.015-.115-.036-.18-.044-.062-.008-.141-.003-.207 0l-.869.05c-.29.018-.584.027-.87.054-.351.033-.518-.07-.764-.116-.36.02-.728.033-1.084.066-.272.025-.399-.044-.579-.08-.062-.013-.128-.04-.185-.037-.654.035-1.308.073-1.958.115a1.065 1.065 0 01-.395-.04c-.294-.086-.308-.083-.799-.051-.216.014-.422.027-.606-.038a1.43 1.43 0 00-.593-.053c-.285.023-.58.036-.869.051-.29.018-.58.041-.87.05-.232.007-.373-.067-.557-.105a.935.935 0 00-.202-.01c-.29.015-.589.026-.87.053-.342.033-.531-.054-.772-.104a.894.894 0 00-.207 0c-.509.028-1.014.06-1.523.09-.18-.043-.365-.084-.545-.126-.29.015-.579.033-.869.049-.22.012-.444.017-.65.04-.268.032-.399-.042-.579-.078-.062-.013-.128-.04-.185-.037-.364.018-.729.037-1.089.064-.342.026-.478-.116-.759-.114-.29.002-.589.022-.87.05a1.9 1.9 0 01-.786-.085.68.68 0 00-.193-.018c-.364.018-.724.042-1.089.061a1.045 1.045 0 01-.197-.014c-.694-.093-.694-.095-.997-.076-.215.013-.434.029-.654.036a.782.782 0 01-.193-.023c-.457-.096-.457-.098-.786-.079l-.87.052c-.18-.043-.364-.083-.544-.126-.36.02-.729.036-1.084.065a1.002 1.002 0 01-.404-.032c-.158-.047-.316-.102-.58-.075-.281.028-.579.031-.865.055-.342.028-.483-.115-.759-.114a9.32 9.32 0 00-.87.05 1.902 1.902 0 01-.786-.084.677.677 0 00-.193-.02c-.799.046-1.594.092-2.393.14-.491.03-.491.032-1.427-.054a1.438 1.438 0 00-.202-.01c-.29.014-.588.025-.869.052-.343.033-.531-.052-.773-.104-.053-.01-.136-.004-.206-.001-.22.01-.435.025-.654.037l-.87.053-.544-.125c-.36.02-.729.032-1.085.065-.272.025-.399-.041-.579-.08-.062-.012-.127-.038-.185-.037-.654.035-1.308.071-1.958.115-.268.019-.391-.052-.571-.088-.061-.011-.131-.032-.188-.028-.435.022-.87.048-1.304.075-.246.016-.246.016-.782-.082a.89.89 0 00-.193-.019c-1.379.08-2.753.163-4.132.241a.899.899 0 01-.377-.058.937.937 0 00-.382-.057c-.58.033-1.164.063-1.739.104a1.47 1.47 0 01-.588-.058.97.97 0 00-.391-.047c-.29.019-.58.034-.869.052l-.87.052c-.289.017-.584.027-.869.053-.351.033-.522-.064-.764-.113-.435.023-.869.047-1.3.072-.579.033-1.159.07-1.738.101-.053.003-.119-.025-.18-.04-.18-.039-.312-.094-.58-.076-1.3.083-2.608.154-3.912.236-.272.017-.391-.05-.575-.087-.062-.01-.132-.033-.189-.03-.724.04-1.449.084-2.173.126-.294.018-.294.018-.786-.08a.866.866 0 00-.193-.022c-.944.053-1.884.11-2.828.165a.933.933 0 01-.382-.056.911.911 0 00-.377-.059c-.87.05-1.744.1-2.608.155a1.518 1.518 0 01-.593-.056.948.948 0 00-.387-.048c-1.304.077-2.608.15-3.912.233a1.484 1.484 0 01-.584-.066 1.054 1.054 0 00-.395-.043c-.167.008-.268.025-.36.072-.118.062-.193.14-.474.144-.29.005-.584.024-.869.05-.273.027-.4-.044-.571-.086a1.221 1.221 0 00-.408-.02.74.74 0 00-.33.089c-.193.107-.21.107-.448.04a1.134 1.134 0 00-.382-.059c-.579.031-1.159.066-1.738.102-.334.02-.338.024-.589-.055a.992.992 0 00-.386-.049c-1.594.095-3.187.186-4.781.286a1.669 1.669 0 01-.589-.065c-.057-.016-.114-.038-.18-.044-.065-.006-.14 0-.21.003-1.159.068-2.323.132-3.478.208-.263.017-.404-.033-.584-.074-.061-.014-.114-.036-.18-.043-.066-.004-.145.007-.215.011-1.159.068-2.322.133-3.477.208-.277.017-.395-.049-.575-.083-.062-.013-.128-.037-.185-.033-.364.017-.724.04-1.089.061-.869.052-1.738.1-2.608.154-.333.02-.478-.12-.759-.113-.365.008-.725.04-1.089.061l-.87.052c-.285.018-.285.018-.996-.074-.062-.008-.136-.018-.198-.015-1.014.058-2.033.116-3.042.18-.233.013-.426.006-.593-.053a.962.962 0 00-.387-.052c-1.523.09-3.042.18-4.566.268a.782.782 0 01-.189-.025c-.123-.029-.241-.062-.36-.092-.087.037-.202.07-.259.11-.079.056-.184.072-.351.081-.167.01-.272.006-.404-.035-.158-.05-.32-.09-.579-.074-1.594.1-3.188.19-4.782.287-.263.016-.386-.054-.571-.09-.061-.01-.131-.028-.188-.025-.655.036-1.304.076-1.959.113-1.813.108-3.626.21-5.435.323a2.127 2.127 0 01-.786-.086.68.68 0 00-.193-.02l-7.609.448a.945.945 0 01-.378-.058.933.933 0 00-.382-.055l-3.477.204c-.29.018-.294.02-.593-.056-.061-.016-.127-.046-.175-.043a.519.519 0 00-.268.1c-.071.058-.18.073-.343.084a1.064 1.064 0 01-.404-.031c-.162-.047-.311-.093-.575-.077-3.332.201-6.665.395-9.997.595-.268.016-.391-.05-.576-.087-.061-.01-.122-.026-.188-.03-.07-.003-.145.007-.215.011l-16.307.961c-.325.019-.32.019-.676.164-.044.017-.101.04-.163.044-1.664.1-3.332.198-5 .296-.725.043-1.45.087-2.174.128-.259.014-.259.014-.878.184-.053.014-.114.033-.176.036-2.898.172-5.795.344-8.698.512-.228.013-.412.04-.518.117a.585.585 0 01-.316.094c-2.028.12-4.057.241-6.09.357-.241.015-.386.059-.505.125-.039.022-.074.047-.131.063a1.158 1.158 0 01-.198.023c-1.739.103-3.477.208-5.22.306-.26.014-.365.072-.492.134-.044.02-.075.049-.132.063-.057.012-.14.012-.21.016l-4.347.256c-.281-.008-.343.084-.479.139-.048.019-.083.044-.14.057-.062.012-.14.01-.215.014-1.16.068-2.319.14-3.482.203-.268.014-.32.095-.466.15-.048.017-.096.044-.153.048-.725.046-1.45.089-2.173.13-.242.014-.242.012-.668.168a.642.642 0 01-.167.041c-1.084.066-2.173.13-3.262.194a.54.54 0 00-.307.099.555.555 0 01-.312.096c-.87.052-1.739.105-2.608.153-.242.012-.4.052-.505.123-.079.053-.176.08-.33.09-.869.05-1.738.105-2.612.149-.254.013-.386.066-.492.132-.083.054-.18.073-.342.082-1.594.091-3.192.183-4.781.284-.268.017-.404-.038-.58-.078-.25-.055-.483-.114-.483-.237 0-.02-.075-.041-.127-.057-.39-.118-.39-.118-.452-.244-.035-.077-.075-.156-.106-.235-.057-.129-.197-.162-.601-.138-.145.008-.29.018-.435.025-.215.01-.378-.041-.417-.136-.022-.052-.048-.104-.07-.156.22-.012.215-.014.601-.204.163-.08.163-.08-.149-.16-.119-.03-.233-.064-.36-.092a.785.785 0 00-.193-.018c-.365.02-.725.041-1.085.063-.58.035-.58.035-1.168-.126-.048-.012-.123-.036-.114-.048.048-.059.167-.084.316-.09.22-.01.435-.025.65-.038l.435-.025c.136-.06.276-.118.404-.18.202-.094.202-.097-.075-.163-.176-.045-.364-.084-.544-.125-.216.013-.435.027-.65.038-.272.014-.382-.016-.453-.118-.06-.09.014-.167.224-.186.216-.019.418-.032.527-.112.106-.077.29-.107.518-.113.145-.005.29-.016.435-.025.189-.013.29-.093.25-.183-.021-.058-.065-.107-.237-.12-.76-.055-.768-.053-1.146-.16-.035-.01-.061-.038-.048-.052a.21.21 0 01.123-.063 69.31 69.31 0 011.515-.09c.167-.008.29-.02.347-.077.079-.08.044-.155-.11-.21a.585.585 0 00-.18-.038c-.58.029-1.155.065-1.735.093a.342.342 0 01-.17-.044c-.045-.038.021-.088.175-.105.202-.024.408-.026.544-.104.19-.112.422-.214.633-.322.035-.018.092-.055.079-.058-.11-.034-.237-.061-.352-.094-.193-.055-.193-.133-.149-.207.035-.06.167-.083.33-.083.07 0 .157 0 .215-.014.149-.035.197-.079.122-.112a.466.466 0 00-.175-.043c-.94.052-1.884.103-2.819.167-.277.02-.404-.04-.57-.083a.943.943 0 00-.405-.022c-.149.022-.294.01-.386-.043-.075-.042.057-.078.413-.12.066-.007.14-.012.188-.028.51-.17.51-.171.861-.193.343-.02.343-.022.523-.114.083-.042.175-.085.254-.129.03-.017.084-.049.066-.058-.096-.049-.228-.06-.382-.049-.342.027-.746.005-.926.154-.07.057-.18.073-.338.082-1.59.092-3.18.19-4.773.277-.26.015-.378.073-.479.137-.087.054-.184.07-.35.08-.168.009-.3.013-.396-.039-.057-.031-.009-.075.123-.12.189-.062.154-.141.092-.215-.044-.049-.18-.084-.325-.08-.215.006-.421.023-.601-.04-.106-.036-.237-.061-.356-.093-.228-.064-.457-.13-.777-.088-.22-.016-.373-.072-.549-.116-.294-.073-.32-.084-.11-.161.237-.087.053-.2.185-.285.14-.091.333-.172.505-.257l.127-.064c-.1-.032-.193-.071-.312-.093-.153-.029-.232-.063-.224-.16-.03-.015-.017.021.018.03a.57.57 0 00.184-.009c.123-.03.185-.07.154-.102a.328.328 0 00-.154-.04c-.096 0-.18.035-.206.12a18.56 18.56 0 01-1.51.121c-.053.004-.119-.028-.18-.044-.202-.053-.202-.052-.795-.067a.399.399 0 01-.176-.046c-.127-.096-.123-.202-.184-.304a15.9 15.9 0 01.347-.195c.237-.131.544-.246.729-.39-.04-.077-.093-.154.1-.217.55-.079.545-.079.694-.154.426-.214.848-.43 1.291-.641.119-.055.119-.085-.092-.109a1.483 1.483 0 00-.207-.004c-.219.01-.439.039-.654.033-.215-.005-.373-.074-.549-.117l-.54-.135c-.206.004-.412.049-.619-.022-.158-.055-.355-.095-.535-.14.136-.12.39-.212.588-.317.18-.096.184-.095.667-.169.229-.034.308-.212.115-.264-.233-.063-.479-.121-.716-.181-.206.004-.417.047-.615-.024a1.348 1.348 0 00-.584-.07c-.43.035-.869.053-1.304.081-.149.01-.311.003-.377-.05-.044-.038.083-.09.228-.101.22-.016.417-.035.527-.113.105-.08.298-.103.527-.114a.41.41 0 00.162-.04c.158-.092.334-.17.672-.168.14-.031.215-.07.171-.108a.357.357 0 00-.171-.045c-.364.016-.729.032-1.084.06-.167.013-.295.016-.4-.031-.075-.032-.035-.074.105-.12.123-.04.158-.085.15-.138-.022-.125-.154-.161-.576-.153-.303.006-.377-.014-.443-.121-.018-.026-.061-.06-.03-.078.188-.107.311-.239.667-.29.14-.018.29-.018.377-.06.088-.04.167-.087.26-.127.113-.047.192-.091.14-.121-.088-.054-.229-.058-.391-.04-.14.016-.29.018-.435.027-.259.018-.47-.023-.5-.093-.084-.182-.171-.363-.246-.546-.009-.022.013-.05.048-.07.123-.066.255-.128.382-.193.15-.074.387-.06.589-.074.285-.02.285-.019.667-.17.15-.06.408-.036.562-.09.048-.017.123-.046.11-.061-.018-.02-.106-.037-.172-.046-.061-.01-.136-.014-.201-.01-.8.046-1.594.095-2.393.14-.136.007-.286-.028-.334-.076-.048-.046-.035-.101-.044-.153.127-.065.272-.125.382-.194.083-.053.18-.077.347-.08.22-.005.434-.024.68-.038.457-.23.905-.47 1.397-.7.197-.094.149-.188.188-.287.04-.092.334-.078.532-.104.158-.023.21-.073.149-.107a.417.417 0 00-.176-.045c-.145 0-.29.015-.434.022-.145.008-.312.004-.43.03-.115.026-.19.08-.264.125-.084.05-.193.068-.36.07-.215.004-.43.018-.645.029-.238-.061-.483-.121-.712-.186-.044-.012-.053-.049-.048-.072.009-.062-.057-.1-.202-.13-.123-.025-.224-.06-.338-.092.088-.043.184-.084.255-.13.153-.095.346-.165.68-.162.132-.061.237-.137.408-.18.163-.04.44 0 .562-.092a.623.623 0 01.273-.117c.188-.03.434-.014.544-.102a.565.565 0 01.29-.109c.145-.014.294-.017.4-.047.056-.016.118-.04.118-.063 0-.014-.088-.036-.15-.046a.89.89 0 00-.197-.015c-.22.01-.435.026-.654.036-.062.003-.132-.008-.198-.018-.193-.025-.18-.056-.026-.113.154-.055.263-.126.39-.19.141-.011.317-.007.413-.037.163-.048.277-.12.409-.18.145-.01.294-.013.43-.03.057-.007.083-.042.132-.062.088-.04.162-.096.28-.115.194-.028.431-.017.545-.104a.505.505 0 01.29-.107c.342-.006.487-.093.663-.175.132-.061.413-.03.558-.091.096-.04.166-.088.263-.126a.816.816 0 01.189-.029c.36-.023.724-.04 1.084-.066.057-.004.11-.028.154-.047.092-.04.15-.098.263-.124.115-.027.277-.027.417-.035.453-.024.488-.017.694-.151.167-.109.575-.032.712-.151.079-.07.223-.126.482-.134.365-.011.725-.041 1.09-.062.324-.019.32-.019.671-.165.158-.066.39-.057.597-.07.22-.012.422-.03.527-.11.105-.077.299-.102.522-.113.207-.011.44-.003.602-.066.395-.151.39-.153.668-.169.434-.025.869-.05 1.303-.077.29-.017.593-.02.865-.055.198-.025.286-.113.413-.175l1.08-.069c.505-.032 1.014-.06 1.524-.09.22-.06.25-.192.619-.198.22-.003.434-.024.654-.036.364-.023.725-.05 1.089-.062.276-.008.325-.093.47-.146.048-.02.092-.046.149-.05.57-.045 1.159-.054 1.717-.119.057-.006.11-.04.123-.063.008-.012-.066-.036-.115-.047a.785.785 0 00-.193-.022c-1.813.105-3.626.213-5.44.318-.254.016-.254.014-.873.187a.956.956 0 01-.18.035c-.29.019-.584.03-.87.054-.233.018-.426 0-.593-.057a1.094 1.094 0 00-.39-.05.965.965 0 00-.373.064c-.128.058-.194.134-.461.15-1.234.067-2.468.143-3.697.215-.172-.022-.255-.055-.211-.094a.24.24 0 01.132-.058c.505-.033 1.014-.062 1.519-.093.07-.005.167-.002.206-.018.193-.07.264-.185.628-.193.21-.005.426-.029.628-.05.057-.007.11-.04.123-.064.004-.012-.066-.036-.119-.047-.193-.046-.417.01-.61-.022-.066-.01-.158-.027-.171-.046-.01-.017.066-.045.118-.063a.792.792 0 01.18-.034c.58-.037 1.16-.074 1.739-.103.237-.01.404-.05.51-.122a.607.607 0 01.324-.09c1.014-.058 2.029-.123 3.047-.177.255-.012.387-.064.492-.132.083-.053.18-.072.343-.082 1.453-.082 2.897-.173 4.35-.252.268-.014.348-.082.484-.14.048-.02.078-.046.14-.058.062-.013.14-.011.215-.014 1.16-.068 2.318-.14 3.482-.204.272-.014.325-.092.465-.148.049-.017.092-.045.15-.05.869-.053 1.738-.104 2.608-.156.58-.034 1.159-.07 1.738-.102.286-.016.286-.018.672-.167a.609.609 0 01.163-.043c1.668-.1 3.332-.197 5-.296a.555.555 0 00.312-.097.552.552 0 01.308-.098c1.304-.079 2.608-.156 3.916-.23.237-.013.404-.05.51-.121a.606.606 0 01.324-.09c1.304-.076 2.608-.156 3.917-.228a1.1 1.1 0 00.496-.131c.044-.022.079-.058.131-.061.65-.045 1.296-.09 1.95-.12.272-.013.364-.079.474-.142.088-.05.189-.068.356-.074.364-.014.724-.04 1.08-.068.052-.004.118-.039.123-.061.008-.041-.093-.07-.26-.084L49 6.901c-.285.017-.285.017-.672.166a.598.598 0 01-.166.043c-1.669.1-3.333.197-5.001.296a.555.555 0 00-.312.098.551.551 0 01-.307.097c-1.594.095-3.188.19-4.786.28-.237.013-.404.05-.51.122a.607.607 0 01-.324.09c-1.524.088-3.043.18-4.571.266-.154.008-.268-.038-.259-.08.004-.022.07-.059.123-.062.795-.052 1.585-.105 2.384-.145.268-.012.347-.082.483-.14.044-.02.079-.047.136-.058.062-.013.14-.011.215-.014 1.884-.112 3.767-.226 5.655-.331.273-.016.325-.093.466-.148.048-.019.092-.047.149-.05.58-.038 1.16-.071 1.739-.104l3.047-.18c.294-.017.294-.017.672-.165a.555.555 0 01.162-.043c2.683-.159 5.365-.318 8.048-.475a.555.555 0 00.312-.098.577.577 0 01.307-.1c3.627-.214 7.249-.428 10.876-.639.237-.014.404-.047.509-.121.075-.054.175-.082.325-.091l11.964-.706c2.683-.157 5.366-.318 8.048-.472.246-.014.378-.063.5-.128.04-.022.08-.058.133-.061.575-.04 1.15-.076 1.725-.112l.54.126.404-.181c.87-.046 1.725-.117 2.604-.139.057-.001.118.029.18.044.408.1.64.092.9-.04.092-.048.17-.09.311-.098.435-.029.874-.048 1.305-.08.232-.018.425-.002.592.054a.957.957 0 00.387.05c.799-.048 1.593-.094 2.392-.144.058-.003.11-.03.154-.049.092-.04.171-.085.259-.127.119.026.25.047.347.082.123.04.237.04.404.03 3.188-.191 6.38-.377 9.567-.57.272-.015.391.051.575.086.062.013.123.028.189.031.07.004.145-.006.215-.01l7.179-.424c.316-.02.316-.02.786.079a.715.715 0 00.193.022c1.089-.062 2.178-.128 3.262-.191.141-.008.259.017.387.054.25.07.267.07.452-.034a.779.779 0 01.325-.092c.158-.016.285-.011.408.017.176.04.303.105.571.088 1.159-.074 2.322-.135 3.477-.21.264-.018.404.035.58.075.061.014.118.036.184.04.066.005.145-.006.215-.01 1.449-.085 2.902-.169 4.347-.26.272-.018.391.05.575.085.062.012.132.034.189.031.869-.049 1.743-.1 2.612-.153.312-.018.312-.017.786.08a.787.787 0 00.194.021c1.014-.058 2.032-.118 3.047-.178.311-.019.311-.019 1.211.063.066.007.136.016.202.013 1.159-.068 2.323-.134 3.482-.206.233-.015.426-.002.593.055.118.04.241.058.386.049 1.304-.078 2.613-.152 3.912-.234.251-.015.413.02.589.065.057.016.114.038.18.044.065.006.14 0 .21-.005 1.304-.077 2.613-.15 3.912-.233.264-.017.404.037.58.076.061.014.127.042.18.04.509-.026 1.019-.05 1.523-.089.273-.022.391.05.576.085.061.011.131.035.188.032a718.46 718.46 0 003.263-.192.966.966 0 01.39.045c.163.055.352.077.589.06.505-.036 1.014-.061 1.523-.091.299-.018.299-.018 1.212.064.066.007.136.016.202.013.869-.05 1.743-.1 2.608-.154.233-.016.426-.002.593.055.118.04.237.058.386.048l2.393-.141c.29-.018.58-.048.87-.048.21.002.364.078.553.115.052.011.14-.001.21-.004 1.015-.06 2.033-.115 3.043-.183.264-.017.404.036.58.076.061.014.127.042.18.04.364-.017.724-.04 1.089-.06.434-.026.873-.045 1.304-.08.351-.028.483.11.764.114.215.005.434-.022.649-.035.435-.025.87-.053 1.304-.075.154-.008.273-.034.321-.09.009-.011-.066-.035-.114-.049-.584-.16-.584-.16-1.173-.126-.364.022-.724.044-1.088.063-.062.003-.132-.01-.194-.019-.175-.027-.158-.058-.008-.115.149-.057.263-.126.39-.19l.536.122c.145-.007.29-.017.435-.025.724-.04 1.449-.083 2.173-.121.053-.003.119.028.18.044.176.046.334.085.588.068.65-.046 1.304-.079 1.954-.118.286-.018.286-.018.786.08a.868.868 0 00.193.02c.655-.036 1.304-.075 1.959-.113a.832.832 0 01.377.058c.04.02.031.05.198.309.518.21.873.187 1.234.169.153-.008.289-.016.39-.048.053-.017.119-.042.119-.063 0-.016-.097-.04-.158-.044-.435-.031-.848.035-1.274.049-.197.006-.368-.049-.403-.139a.534.534 0 00-.036-.077c-.013-.025-.021-.052-.035-.077-.171-.008-.272.02-.347.074a.68.68 0 01-.267.118c-.119.025-.281.02-.426.029-.141.007-.294.028-.426.017-.132-.013-.237-.058-.36-.087-.057-.014-.128-.034-.185-.031-.505.027-1.005.053-1.506.088-.263.019-.395-.047-.562-.088-.131-.032-.263-.024-.285.049-.057.173.145.245.593.212.369-.028.702-.033.992.074a.64.64 0 00.189.018c.36-.02.715-.043 1.075-.062.066-.003.137.003.198.01.896.085.896.086 1.199.067.145-.01.285-.017.272-.256.277-.257.716-.274 1.142-.312.276-.024.395.045.575.082.061.012.127.037.184.034.944-.052 1.884-.107 2.823-.165.158-.01.272 0 .395.04.158.053.334.086.584.067.501-.038 1.01-.061 1.519-.093.26-.016.26-.016.782.082a.868.868 0 00.193.02c.509-.026 1.015-.06 1.519-.088a.903.903 0 01.378.057.92.92 0 00.378.057l1.519-.089a.867.867 0 01.193.02c.536.097.536.097.781.081.36-.023.729-.034 1.085-.066.347-.031.527.06.764.11.65-.036 1.304-.066 1.949-.11.264-.019.404.033.58.074.061.014.123.044.18.043.219-.007.435-.024.65-.037l.65-.037c.245.045.408.152.759.116.211-.022.435-.027.65-.04l.65-.037c.145-.008.294-.013.434-.027.259-.023.387.054.571.088.062.011.132.03.189.027.435-.022.874-.04 1.3-.077.329-.028.553.019.785.085a.687.687 0 00.194.019c.509-.027 1.014-.06 1.519-.088a.935.935 0 01.377.058.938.938 0 00.382.055c.505-.028 1.015-.06 1.52-.088a.784.784 0 01.193.022c.492.098.492.1.781.08l.215-.012c.36-.022.734-.03 1.085-.068.404-.043.698.011.983.1.36-.018.729-.03 1.08-.06.264-.024.404.036.58.075.062.014.127.042.18.04.509-.027 1.019-.051 1.519-.09.272-.022.391.048.575.085.062.012.128.034.185.031.29-.012.579-.031.869-.049.338-.02.338-.019.786.077.211.046.422.01.628-.001.219-.013.426-.022.601.042a.97.97 0 00.378.06c.29-.014.584-.028.869-.052.229-.019.426-.006.593.052a.958.958 0 00.386.052c.65-.038 1.304-.077 1.954-.113a.688.688 0 01.189.025c.123.028.242.06.36.091.285-.014.58-.02.861-.042.298-.022.57-.03.803.057a.502.502 0 00.176.044c.219-.007.434-.022.65-.035l.649-.038c.251.04.409.153.76.117.211-.022.435-.027.65-.04.215-.012.434-.026.65-.037.07-.004.149-.011.21-.005.066.006.123.028.18.044.176.046.338.091.589.065.21-.023.434-.027.65-.041.294-.018.294-.018.781.081.198.041.422-.012.61.023.128.023.237.063.36.09a.893.893 0 00.198.012c.29-.014.584-.028.869-.052.233-.019.426 0 .589.057a.944.944 0 00.386.048c.724-.044 1.449-.081 2.169-.13.246-.018.443.01.58.066.232.097.562-.017.803.061.149.05.299.106.571.082.5-.04 1.01-.063 1.515-.091l.544.127.869-.05c.215-.013.435-.027.65-.038.07-.003.145-.01.211-.001.066.007.118.028.18.044.303.077.303.078.803.047.215-.014.422-.024.602.04.167.058.364.069.593.051.43-.031.865-.055 1.304-.077a.95.95 0 01.377.06c.171.065.382.058.597.04.286-.021.567-.043.808.045a.53.53 0 00.176.044c.36-.012.724-.022 1.076-.052.351-.03.522.068.764.115l1.084-.061c.07-.005.154-.02.215-.011.259.033.408.15.764.115.206-.02.43-.027.646-.032a.41.41 0 01.171.046c.022.01 0 .04-.027.056-.079.045-.175.086-.245.131-.009.007.074.035.122.047.119.029.255.024.413.011a.755.755 0 01.373.059c.04.019.027.05-.057.154 0 .077.093.043.123-.008.049-.072-.044-.096-.219-.056-.123.028-.185.069-.154.102.018.017.101.04.25-.038.387-.094.677-.112.966-.129.075-.005.163-.02.215-.011.189.038.365.083.549.126.211-.01.409-.033.615.028.29.087.303.079.584.062.145-.01.29-.018.435-.026.144-.007.259.016.386.052.259.074.281.074.452-.026a.348.348 0 01.299-.054c.421.096.426.103.786.074.298-.023.579-.03.799.06.149.063.197.049.316-.017.316-.175.461-.172 1.054-.046.276.06.562-.005.843-.013.237-.006.404.032.421.131.013.062.053.106.211.126.061.008.136.019.197.016.365-.019.725-.041 1.089-.063.185-.011.286-.085.251-.183-.04-.104.03-.142.294-.171.158-.018.285-.015.412.014.141.031.101.06-.021.116-.295.139-.26.224.118.32.132.033.237.063.268.112.017.025 0 .058.039.077.216.105.514.173.848.224.32-.043.54.028.786.085.193.044.421.006.628-.01a1.46 1.46 0 01.592.054c.119.04.242.06.387.052.289-.018.584-.029.869-.054.246-.022.43.01.584.063.193.068.408.022.61.032.272.01.409.15.764.113.211-.022.431-.03.65-.036a.507.507 0 01.176.044c.232.086.505.082.803.057.206-.018.408-.034.61.026.334.101.703.19 1.054.282.048.073.013.158.264.2.131.022.254.055.355.092a.94.94 0 00.395.042c.286-.022.584-.027.865-.055.259-.025.422.027.58.076a.78.78 0 00.399.03.76.76 0 01.4.033c.18.058.193.052.79.069a.425.425 0 01.172.046c.017.01-.022.042-.053.058a.494.494 0 01-.158.045c-.65.041-1.304.078-1.954.119a.834.834 0 00-.184.031c-.053.017-.119.041-.119.063 0 .016.088.035.149.046.193.036.422-.02.611.022.127.027.232.064.36.09.052.01.136.009.202.006.219-.011.434-.027.654-.036.061-.002.132.014.189.026.421.095.421.095.786.074.144-.007.298-.031.434-.022.132.01.246.052.365.08.246.056.478.11.496.234.009.047.153.088.298.091.141.003.29-.014.435-.023.342-.02.342-.02.786.077.123.026.255.03.413.014a.978.978 0 01.202.008c.215.023.215.053.074.11-.197.083-.18.091.373.162.211.027.374.077.549.121.286.071.281.071.092.164-.043.02-.083.043-.127.065-.127.061-.228.127-.492.134-.289.006-.579.031-.869.048-.281.018-.356.056-.329.163.03.129.088.143.592.141.145 0 .273.013.382.056-.052.05-.149.09-.289.099-.36.023-.725.044-1.085.064l-.869.052c-.18.011-.294.093-.246.185.026.052.048.104.07.155.048.104.141.131.435.126.074-.001.145-.014.215-.01.285.01.421.141.764.114.285-.022.584-.026.865-.055.259-.025.404.032.584.074.061.014.127.044.18.043.364-.018.729-.035 1.084-.065.167-.012.268-.003.4.035.316.091.325.087.795.058.342-.022.347-.019.786.077a1.4 1.4 0 00.412.014c.207-.015.422-.04.637-.017.066.006.149.025.171.046.013.014-.048.049-.101.06-.386.082-.838.067-1.26.1a.878.878 0 01-.373-.063.936.936 0 00-.387-.051c-.289.017-.583.028-.869.053a1.49 1.49 0 01-.588-.063c-.057-.016-.123-.046-.18-.044-.65.031-1.304.063-1.95.107-.259.019-.408-.031-.584-.074-.061-.014-.122-.044-.18-.042-.219.006-.434.023-.654.036-.799.047-1.594.094-2.393.138-.052.003-.118-.03-.18-.044a17.648 17.648 0 00-.364-.082c-.22.013-.435.029-.654.038-.158.006-.299.028-.321.088-.013.04.132.076.286.073.149-.003.298-.022.421-.002.61.101.61.103.992.082.334-.019.299-.035.593.052.127.038.242.06.386.05.36-.022.725-.044 1.089-.063a.78.78 0 01.189.026c.43.094.43.097.786.074.465-.029.483-.037.795.06.215.066.412.02.619.017.237.061.496.116.711.186.255.082.523.067.812.044.215-.018.426-.024.602.04.167.06.369.067.597.051.206-.014.417-.044.632-.01.057.01.145.034.141.048-.005.022-.062.053-.119.063-.404.064-.847.063-1.273.093-.057.005-.132-.013-.189-.025-.123-.029-.241-.062-.36-.092-.215.01-.435.013-.645.032a1.003 1.003 0 01-.404-.025c-.11-.035-.229-.078-.36-.089-.132-.01-.286.013-.431.022-.144.01-.311.005-.425.03-.115.026-.185.08-.26.125-.083.049-.197.064-.364.07a.978.978 0 01-.391-.047 1.09 1.09 0 00-.18-.045c-.061-.011-.131-.029-.189-.025-.654.036-1.304.075-1.958.113-.325.019-.32.019-.996-.074-.062-.008-.137-.019-.198-.016-.364.02-.724.041-1.089.063-.369.022-.364.02-.992-.08-.114-.02-.281.006-.417.003-.286-.008-.426-.14-.76-.115-.285.022-.584.027-.869.055-.259.025-.408-.03-.584-.072-.062-.014-.127-.046-.18-.043-.654.035-1.304.074-2.174.079-.215 0-.118.033.022.044.202.017.268-.016.159-.079a.51.51 0 00-.286-.055c-.048.006-.11.036.105.09.229.06.216.093.255.112a.826.826 0 00.373.058c.22-.011.435-.027.655-.036a.784.784 0 01.193.02c.483.098.487.104 1.001.066.162-.01.281-.01.408.02.176.04.303.11.571.087.356-.03.72-.047 1.084-.064.057-.003.119.025.185.038.18.038.312.108.579.078.207-.023.431-.03.65-.034a.36.36 0 01.171.044c.053.036-.013.079-.162.109-.061.012-.145.009-.215.014-.29.017-.58.036-.869.05-.154.008-.299.032-.317.09-.013.04.145.074.295.07.219-.004.439-.017.649-.037.374-.035.698-.025 1.001.074.216.07.202.044.431.249.057.052.228.057.377.053.36-.007.527.016.496.065-.039.06-.166.079-.329.087-.29.012-.579.033-.869.05-.07.005-.149.014-.215.011-.066-.003-.128-.022-.185-.036-.123-.03-.228-.076-.36-.087-.132-.01-.285.013-.43.022-.145.008-.299.032-.43.02-.132-.01-.242-.058-.36-.086-.057-.014-.128-.036-.185-.035-.29.013-.579.033-.869.05-.356.02-.356.02-.786-.078a1.347 1.347 0 00-.413-.014c-.351.025-.355.02-.996-.071a.938.938 0 00-.198-.016c-.654.036-1.304.076-1.954.114-.557.033-.557.033-.865.19-.228.117-.233.117-.009.17.18.044.343.109.54.133.185.022.413-.05.615.023.101.036.233.076.36.082.202.008.417-.038.61.032.097.034.242.07.365.072.215.003.435-.022.65-.033.066-.003.14-.003.202.005.066.01.123.028.18.044.175.053.364.079.592.052.374-.044.707-.022.997.079.04.014.136.015.198.009.158-.016.294-.017.412.013.049.012.119.034.11.048-.013.024-.066.056-.123.063-.413.054-.856.06-1.282.089-.057.003-.127-.018-.184-.032-.123-.028-.229-.075-.36-.087-.132-.01-.286.01-.431.018-.144.008-.298.031-.43.022a1.579 1.579 0 01-.36-.085.953.953 0 00-.404-.029c-.211.02-.43.024-.645.035-.119-.03-.237-.063-.36-.091a.76.76 0 00-.189-.03c-.29.012-.58.031-.869.049-.29.017-.29.017-.782-.08a.872.872 0 00-.193-.021c-.365.019-.725.042-1.089.061a.933.933 0 01-.382-.056.911.911 0 00-.378-.059c-.579.033-1.159.065-1.738.104-.233.016-.431.002-.589-.055-.184-.065-.39-.049-.605-.036-.488.031-.492.03-.804-.05-.061-.016-.123-.046-.18-.045-.505.024-1.014.046-1.515.084-.263.02-.404-.035-.579-.076-.062-.014-.128-.044-.18-.04-.365.017-.729.032-1.085.064-.355.031-.492-.115-.759-.114-.365.002-.725.038-1.085.06l-.869.052c-.29.018-.58.032-.87.052a1.007 1.007 0 01-.395-.042c-.162-.052-.355-.093-.531-.14-.268-.068-.268-.068-.593-.05-.07.006-.145.009-.215.013-.531.035-.531.032-1.207-.067a.402.402 0 00-.141.025c-.092.04-.175.085-.259.127-.118-.025-.263-.039-.342-.075-.224-.103-.575.038-.804-.063a1.183 1.183 0 00-.36-.08c-.136-.01-.29.012-.43.022-.364.023-.365.022-.676.162-.158.07-.387.056-.593.072-.215.018-.421.027-.601-.038a1.43 1.43 0 00-.593-.053c-.286.024-.58.038-.869.052a1.05 1.05 0 01-.198-.014c-.672-.093-.672-.095-.997-.074-.145.01-.294.012-.434.026a1.435 1.435 0 01-.589-.058c-.057-.016-.123-.046-.18-.044-.29.008-.575.022-.86.036-.22.011-.439.018-.65.04-.351.036-.523-.066-.764-.114-.36.02-.725.035-1.085.063a1.039 1.039 0 01-.404-.03c-.162-.047-.311-.1-.575-.077-.351.032-.72.043-1.08.062-.241-.05-.417-.148-.764-.112-.21.022-.434.027-.65.04-.289.016-.579.032-.869.051-.312.019-.307.014-.786-.079-.276-.055-.562.007-.843.016-.219.008-.329.08-.276.173.052.093-.066.166-.268.178-.505.03-1.015.062-1.519.088a.869.869 0 01-.194-.018c-.54-.1-.54-.098-.781-.084-.36.024-.729.036-1.085.066a1.382 1.382 0 01-.584-.066c-.123-.04-.237-.05-.395-.04-1.738.105-3.477.202-5.211.311-.259.016-.409-.03-.584-.072-.062-.015-.119-.044-.18-.044-.145 0-.29.014-.435.023-.65.038-1.3.084-1.954.112-.276.012-.351.085-.47.145a.853.853 0 01-.36.07 1.045 1.045 0 01-.395-.042 1.358 1.358 0 00-.584-.064c-.285.025-.575.036-.869.053-.149.008-.264.036-.312.093-.009.01.084.033.136.047.176.048.343.103.54.136.202.033.422-.005.632-.014.075-.004.145-.013.216-.011a.844.844 0 01.193.023c.228.071.47.12.786.077.272.02.413.151.759.117.211-.02.431-.03.65-.038.057-.002.119.027.18.041.176.04.316.102.58.076.281-.029.579-.034.865-.056a.932.932 0 01.395.04c.158.052.338.091.584.066.211-.022.434-.027.65-.04.281-.018.281-.017.781.08a.86.86 0 00.193.021c.365-.018.725-.042 1.089-.061a.8.8 0 01.373.058c.04.02.027.05.04.077-.725.043-1.449.08-2.169.131-.272.02-.395-.044-.575-.08-.062-.013-.128-.04-.185-.036-.509.026-1.014.055-1.519.09a.878.878 0 01-.395-.042c-.303-.12-.672-.055-1.014-.037-.264.012-.347.061-.316.165.039.123.197.16.601.139.145-.008.29-.02.435-.026a.963.963 0 01.382.057c.11.043.241.065.377.058.29-.014.584-.028.865-.052.233-.018.426-.003.589.056.18.064.391.05.601.036.492-.032.496-.03.804.049.061.015.123.045.18.044.505-.024 1.014-.044 1.51-.082.259-.02.409.031.58.072.061.014.123.046.18.043.364-.018.729-.035 1.084-.065.167-.014.268-.005.404.033.325.093.334.09.795.06.14-.01.294-.027.426-.014.131.013.237.058.36.087.057.012.127.03.189.026.289-.012.579-.031.869-.049.272-.017.272-.015.781.082.207.041.422.007.628-.006.224-.014.426-.014.597.047.172.062.378.059.598.046.206-.013.417-.047.627-.005.483.098.483.1.782.08.435-.026.865-.051 1.304-.075.057-.003.132.016.189.028.123.029.228.076.36.087.131.012.285-.006.426-.016.452-.03.483-.04.786.063.254.085.57-.038.807.06.137.055.321.1.576.073.21-.023.43-.029.649-.041.347-.021.347-.02.786.075a.777.777 0 00.189.025c.29-.012.584-.023.865-.052.329-.033.54.027.786.085.193.046.422.008.628-.008.224-.015.426-.01.593.05.175.064.382.056.601.043.206-.01.417-.047.628-.003.452.098.452.098.782.079.289-.017.579-.036.869-.049.057-.003.127.018.184.032.123.028.229.075.36.086.132.011.286-.01.431-.017.144-.008.298-.031.43-.022.132.01.254.049.36.083a.92.92 0 00.404.03c.211-.02.43-.025.645-.036.119.03.242.06.356.093.118.035.246.031.408.02.54-.037.545-.033.997.065.206.044.421.008.628-.003.219-.013.426-.019.597.044.167.06.373.068.593.049a7.8 7.8 0 01.434-.025.799.799 0 01.193.017c.233.066.461.126.782.083.281.013.421.142.76.117.285-.022.583-.027.864-.055.26-.025.444.019.576.074.237.098.57-.035.808.061.136.055.311.1.575.076.289-.025.382.008.465.107.048.057.04.102-.048.146-.088.046-.185.038-.325-.014-.162-.058-.356-.069-.588-.056-.229.012-.369-.07-.558-.101-.189-.033-.413.022-.61-.02-.466-.1-.466-.1-.782-.081-.215.013-.439.019-.65.04-.25.028-.412-.021-.584-.065-.061-.016-.123-.046-.175-.044-.505.023-1.015.045-1.515.085-.263.02-.404-.037-.58-.076-.061-.014-.127-.042-.18-.04-.434.023-.865.051-1.299.078-.084.043-.176.083-.255.13-.083.046-.197.067-.364.065-.277 0-.549.066-.826-.017-.285-.085-.307-.08-.584-.06-.351.027-.724.02-1.053.082-.058.011-.119.04-.119.063-.004.014.088.035.145.047.193.038.417-.017.61.022.128.025.233.063.36.09.053.011.132.01.202.008.075-.002.145-.013.215-.011a.846.846 0 01.189.025c.242.06.496.115.711.186.211.07.409.022.619.019.843.11.844.112 1.41.077.14-.008.285-.017.43-.016.062 0 .119.029.18.044.176.047.343.09.589.065.21-.022.434-.027.649-.041.29-.017.29-.017.782.082.123.025.255.022.413.01a.775.775 0 01.373.058c.039.018.026.05.039.077-.434.025-.873.042-1.295.08-.272.024-.395-.044-.575-.08-.062-.013-.127-.04-.184-.036-.431.023-.861.05-1.291.081-.053.003-.119.04-.123.062-.009.04.101.08.259.079.21-.002.417-.029.606.036.158.056.355.082.588.056.14-.014.29-.014.43-.026.374-.038.712-.03.993.077.215.028.425.001.632-.013.154-.01.303-.022.413.008.232.063.461.126.781.084.347.044.61.137.9.212a.885.885 0 00.4.033c.066-.01.145-.01.215-.014.145-.008.298-.031.43-.022.132.011.242.057.36.085.057.014.123.038.18.036.22-.008.435-.023.65-.036l.645-.033.545.123c.29-.018.579-.035.865-.05.32-.02.32-.018.781.08.207.044.426.015.624-.005.329-.033.549.027.781.09.049.012.136.02.193.014.229-.022.426-.005.593.053a.96.96 0 00.382.053c.505-.03 1.01-.062 1.515-.089a.755.755 0 01.189.024c.448.096.452.1.781.075.294-.021.567-.031.799.056a.53.53 0 00.176.044c.36-.016.724-.033 1.08-.06a1.07 1.07 0 01.404.028c.162.046.307.101.575.08.742-.058.747-.048 1.625.06.061.008.145-.004.215-.01a.973.973 0 01.391.042c.294.082.303.077.584.06.215-.014.439-.018.649-.041.325-.035.54.027.782.085.193.046.417.008.623-.006.224-.016.426-.011.593.048a.95.95 0 00.382.056l1.515-.089a.86.86 0 01.193.02c.501.098.501.103.997.067.158-.011.289-.014.408.019.114.031.237.061.356.091.215-.01.434-.014.645-.033a1.11 1.11 0 01.404.025c.167.043.307.117.571.08.136-.017.294-.012.43-.028a.849.849 0 01.4.033c.158.05.32.1.575.074.281-.028.579-.033.865-.055a.939.939 0 01.395.041c.158.052.338.085.584.065.5-.04.505-.032.992.067.123.026.255.023.413.01a.775.775 0 01.373.058c.092.05.083.082.092.109zM259.051 2.4c-.145.008-.29.018-.501-.12-.013-.023-.004-.051-.035-.072a.668.668 0 00-.312-.077c-.237-.006-.522.047-.518.088.004.035.079.065.224.093.061.011.11.03.167.043.167.036.298.107.54.07-.022-.048-.044-.097 0 0-.022.06.044.103.202.12.044.005.11.002.145-.008.136-.034.158-.082.057-.206-.018.02-.005.057.035.066a.53.53 0 00.184-.01c.123-.03.185-.069.154-.102a.33.33 0 00-.154-.04c-.092 0-.175.035-.188.155zm35.502 18.264c-.321.03-.689.019-1.01.08-.057.011-.114.04-.118.062-.005.014.083.034.136.045.118.025.25.017.404.01.232-.011.369.061.549.097a.867.867 0 00.193.016c.355-.019.707-.04 1.062-.061.062-.005.128-.016.18-.03.176-.046.158-.076-.013-.11-.189-.038-.338-.101-.531-.131-.277-.043-.558.014-.852.022zm-24.934 1.15l-.641.037c-.071.005-.145.007-.211.013a.562.562 0 00-.303.096.88.88 0 00.36.06c.215-.01.426-.03.641-.035.233-.006.369.065.549.1.057.012.127.014.193.015.325.006.523-.075.461-.19-.044-.09-.211-.144-.413-.133-.21.011-.425.024-.636.037zm26.436-3.478c.052-.027.109-.046.136-.07.079-.08.048-.14-.097-.202-.176-.077-.391-.026-.588-.018a.256.256 0 00-.128.055c-.017.015-.017.045.009.052.215.064.444.122.668.183zm-38.089-4.652c-.211.013-.426.022-.637.04a.295.295 0 00-.131.055c-.057.037.004.09.184.094.206.006.422-.02.637-.033.272-.016.434-.074.333-.124-.096-.05-.228-.059-.386-.032zM26.849 10.32c.14-.008.285-.015.425-.026a.558.558 0 00.3-.097.952.952 0 00-.37-.058c-.215.009-.426.022-.636.037-.132.01-.26.044-.29.098-.03.04.263.065.57.046zm212.549-.243c.057.014.114.043.171.043.141 0 .286-.01.418-.026a.245.245 0 00.127-.056c.017-.014.013-.04-.013-.052-.128-.076-.637-.05-.72.037-.009.016.013.037.017.054zm-13.852-8.624c.013.025.017.05.035.076.035.047.132.082.272.105.11-.04.167-.083.163-.13a.2.2 0 00-.036-.076c-.035-.047-.131-.082-.272-.106-.11.038-.162.082-.162.131zm80.655 20.635a1.72 1.72 0 01-.123.06c.119.046.229.06.312.035.053-.016.084-.04.123-.06a.51.51 0 00-.312-.035zm-2.731.215c.057.014.11.033.172.042a.33.33 0 00.263-.067c-.057-.015-.11-.034-.171-.043a.333.333 0 00-.264.068zm1.73-.288c-.031.037.031.069.193.095.04-.02.093-.039.119-.06.044-.037-.031-.07-.189-.095a1.758 1.758 0 00-.123.06zm-9.268-1.698c-.031.038.03.07.193.096.039-.02.092-.04.118-.062.044-.036-.03-.069-.188-.094a1.72 1.72 0 00-.123.06zM283.304 9.173c-.039.02-.079.041-.123.06.119.046.229.06.312.035.053-.016.083-.04.123-.06a.51.51 0 00-.312-.035zm-12.096-5.912a.356.356 0 00.268-.07c-.057-.013-.11-.032-.171-.042a.333.333 0 00-.264.068l.167.044zm-6.423-.37c-.04.02-.079.04-.123.06.118.045.228.06.311.034.053-.015.084-.039.123-.06a.518.518 0 00-.311-.034zm-43.56-1.44a1.731 1.731 0 01-.122.06c.118.046.228.06.311.035.053-.016.084-.04.123-.06a.521.521 0 00-.312-.034zM4.333 14.266c-.057-.015-.114-.029-.166-.045-.128.043-.167.082-.097.112.044.02.11.03.167.044.132-.042.162-.08.096-.111z" fill="#FFE492"/><path d="M29.798 8.704c-.505.03-1.005.067-1.51.086-.268.01-.365.077-.474.14-.088.05-.19.066-.352.076-1.37.077-2.735.159-4.1.24-.172-.021-.255-.054-.216-.094a.213.213 0 01.128-.06c.935-.058 1.866-.118 2.805-.163.268-.013.343-.082.479-.139.044-.019.079-.047.136-.058.057-.013.14-.011.215-.014l4.531-.268c.172.02.255.054.215.093a.213.213 0 01-.127.06l-1.73.1zm276.461 8.386c-.229.019-.518.046-.755-.046a.892.892 0 00-.387-.049c-.215.016-.434.029-.654.038a.79.79 0 01-.189-.03c-.123-.028-.228-.075-.36-.088-.132-.012-.29.022-.426.014-.18-.01-.254-.053-.206-.093a.262.262 0 01.136-.058c.812-.058.817-.058 1.045-.001.176.044.338.092.588.066.211-.022.435-.027.65-.041.299-.02.299-.018.782.082.123.025.254.023.412.01a.865.865 0 01.378.056.562.562 0 01-.307.098c-.22.015-.435.026-.707.042zm-8.083-.485c.553-.033 1.111-.062 1.664-.1.228-.015.408.002.566.056.171.058.365.053.575.042a.726.726 0 01.347.063c.035.017.027.049.04.074-.483.029-.97.059-1.458.084a.687.687 0 01-.18-.026c-.118-.026-.219-.073-.347-.083-.272-.022-.544.02-.821.028a.792.792 0 01-.347-.063c-.035-.02-.026-.05-.039-.075zM98.25 3.064c.574-.035 1.15-.068 1.725-.102.171.022.25.053.215.093a.214.214 0 01-.128.06c-1.15.07-2.3.138-3.446.206-.171-.022-.25-.054-.215-.093a.212.212 0 01.127-.06c.57-.036 1.146-.07 1.721-.104zM9.62 11.816c-.258.003-.53.061-.82.017-.057-.008-.136-.033-.132-.047.009-.024.062-.054.119-.063.25-.04.562-.044.69-.155.06-.056.175-.075.328-.086a1.15 1.15 0 01.404.025c.167.043.308.121.571.08.013.026.044.054.03.078-.013.023-.07.045-.122.063a.803.803 0 01-.176.034c-.29.02-.58.035-.891.054zm228.347-.316c.215-.013.439-.02.65-.041a.957.957 0 01.404.031c.224.066.237.06.786.07a.422.422 0 01.171.045c.022.011-.009.04-.035.057a.357.357 0 01-.15.047c-.346.005-.698.098-1.036-.01a1.437 1.437 0 00-.592-.055c-.141.014-.29.02-.435.027a.783.783 0 01-.373-.058c-.128-.07-.053-.096.175-.091.145.003.29-.015.435-.023zm79.575 10.855c.277-.016.554-.035.835-.048.057-.003.127.015.18.026.21.047.18.127.188.198.005.074-.483.134-.689.084-.228-.057-.435-.122-.751-.087a.646.646 0 01-.347-.061c-.118-.067-.052-.093.172-.089.131.003.272-.014.412-.023zM178.149.92c.286-.018.571-.045.857-.046.166-.002.25.05.21.088a.21.21 0 01-.127.06c-.571.037-1.142.069-1.712.104-.167-.022-.251-.056-.211-.093a.223.223 0 01.127-.06c.286-.022.571-.036.856-.054zm133.918 16.308c.276-.015.557-.039.834-.047.145-.003.259.033.277.074.008.02-.062.052-.119.06-.395.054-.821.06-1.234.087a.71.71 0 01-.351-.062c-.118-.067-.053-.093.171-.088.141.002.281-.016.422-.024zm-66.847-5.516c.14-.008.285-.028.421-.022.145.008.237.053.281.1.048.051.044.1 0 .144-.07.076-.14.073-.303.022-.25-.079-.268-.07-.764-.066a.454.454 0 01-.171-.044c-.066-.032-.031-.08.123-.109.114-.02.272-.017.413-.025z" fill="#FFE492"/><path d="M301.78 16.712c.206-.013.413-.033.619-.033.145-.002.259.035.272.074.005.019-.061.05-.114.06-.25.042-.531.045-.803.06a.718.718 0 01-.347-.063c-.119-.067-.048-.096.167-.087.066.003.136-.006.206-.011zm-32.477-1.932c-.307.019-.597-.005-.575-.046.03-.053.158-.088.289-.098.211-.015.422-.028.637-.037a.924.924 0 01.369.058.572.572 0 01-.299.098c-.136.01-.281.017-.421.025zm-2.017-.202c.206-.012.413-.033.619-.033.145-.002.259.035.272.074.005.019-.061.05-.114.06-.25.042-.531.046-.803.06a.717.717 0 01-.347-.063c-.119-.066-.049-.096.167-.087.065.003.136-.006.206-.01zM242.731 11.7c.207-.013.413-.034.619-.035.145-.002.259.034.273.074.004.019-.062.048-.115.06-.25.042-.531.045-.803.06a.72.72 0 01-.347-.064c-.118-.066-.048-.096.167-.086.066.003.136-.006.206-.01z" fill="#FFE492"/><path d="M241.575 11.606c.219-.012.29-.02.36-.02.132 0 .268.019.347.064.118.066.048.085-.167.088-.277.004-.549.037-.825.043-.145.003-.26-.035-.268-.074-.005-.019.061-.052.114-.058.184-.024.386-.038.439-.043zm23.924-9.265c-.14.008-.289.03-.421.022-.176-.01-.246-.053-.202-.092a.248.248 0 01.127-.059c.281-.022.567-.036.848-.052.167.024.241.057.197.096a.257.257 0 01-.127.059c-.136.015-.281.018-.422.026zM95.1 3.25c.137-.002.26.019.365.058a.583.583 0 01-.294.098 3.48 3.48 0 01-.211.012.975.975 0 01-.364-.058.598.598 0 01.294-.097c.066-.007.14-.008.21-.013zm215.466 13.972c-.004-.045.264-.097.505-.096a.769.769 0 01.334.066c.114.065.048.09-.167.085-.132-.003-.272.024-.404.02-.149-.002-.237-.037-.268-.075zm-64.074-5.32c-.004-.017-.026-.037-.013-.053.083-.087.588-.114.72-.038.022.014.031.038.013.052a.261.261 0 01-.127.057 4.066 4.066 0 01-.417.025c-.062 0-.119-.027-.176-.043zm-235.309-.338c-.518.033-.527.03-.435-.05.083-.07.237-.112.46-.112.067 0 .137-.004.194.003.062.008.15.023.163.042.026.036-.049.076-.18.103-.058.012-.132.009-.202.014zm90.404-8.536c-.154.027-.286.017-.382-.033-.097-.05.057-.11.325-.124.07-.003.145-.016.21-.01a.523.523 0 01.172.043c.07.031.026.074-.114.11-.057.014-.141.011-.211.014zm208.065 14.076a1.72 1.72 0 01.123-.06c.162.027.232.058.188.094-.026.022-.079.041-.118.062-.163-.027-.228-.06-.193-.096zM18.137 29.492c0-.019.061-.049.11-.055a.508.508 0 01.285.055c.11.063.044.096-.158.079-.14-.013-.237-.044-.237-.08zm230.145-19.056c.057.014.114.028.166.044a.332.332 0 01-.263.068c-.062-.01-.114-.028-.171-.043a.354.354 0 01.268-.069zm-1.521-.071a.524.524 0 01.316.035c-.039.02-.074.044-.123.06a.487.487 0 01-.311-.035c.035-.019.074-.04.118-.06zm-1.165.069c.057.014.114.029.167.044a.331.331 0 01-.264.068c-.061-.01-.114-.028-.171-.042a.35.35 0 01.268-.07zm-.854-.083c.066.031.031.07-.096.112-.057-.014-.123-.025-.167-.044-.07-.03-.035-.07.096-.112.053.016.11.03.167.044z" fill="#FFE492"/></svg>