<svg width="331" height="37" fill="none" xmlns="http://www.w3.org/2000/svg"><path d="M309.639 19.617c-.451.03-.907.052-1.349.098-.288.028-.411-.056-.602-.1-.064-.015-.132-.046-.192-.042-.447.03-.893.065-1.34.1-.137.074-.224.174-.433.21-.205.034-.447.034-.675.052-.301.02-.602.042-.903.06-.15.01-.273.046-.323.115-.01.012.091.04.145.058.183.057.361.122.561.166.192.042.429-.027.634.027.46.12.465.118.816.095.301-.02.602-.043.903-.059.059-.004.128.025.191.04.192.042.315.138.598.102.214-.029.451-.035.674-.05.187.055.361.119.561.162.187.043.242.075.142.13-.092.052-.219.073-.388.077-.15.002-.301.02-.451.029l-.224.015c-.287.021-.287.021-.811-.101-.206-.048-.438.019-.634-.027-.132-.03-.246-.077-.374-.11a.823.823 0 00-.21-.01c-.228.013-.456.022-.674.047-.156.017-.247.071-.228.125.004.02.113.051.177.053.146.004.301-.023.443-.01.136.014.278.052.378.094.205.088.438.01.634.033.205.024.374.101.57.147.05.011.146-.008.223-.014.223-.013.447-.024.67-.038.187.056.388.105.557.168.305.115.633.16 1.03.104.223-.03.442-.02.62.055.182.077.392.07.625.054.214-.016.433-.058.652-.004.474.119.479.124 1.039.078.169-.013.297-.017.424.027.119.04.247.075.37.113.223-.014.451-.027.674-.042.288-.021.447.006.516.113.041.065.059.124.159.168.119.053.246.052.42.036.164-.013.282-.034.351-.103a.472.472 0 01.132-.078.383.383 0 01.141-.04c.069.007.16.028.183.053.223.231.223.233.451.3.251.075.511.142.739.226.205.074.41.042.633.042.169 0 .279.05.265.1-.009.028-.073.07-.128.074-.447.038-.898.07-1.349.097-.055.004-.123-.03-.187-.047-.128-.035-.242-.088-.379-.1-.136-.011-.296.017-.447.027-.15.01-.31.034-.446.02-.137-.016-.247-.072-.374-.108-.059-.017-.142-.042-.192-.036a1.617 1.617 0 01-.816-.102.604.604 0 00-.2-.024c-.529.032-1.054.07-1.583.107-.214.015-.387-.052-.433-.165-.023-.063-.068-.126-.068-.19 0-.114-.251-.177-.433-.164-.301.02-.607.035-.903.063-.242.023-.447 0-.611-.068-.191-.079-.41-.063-.629-.042-.164.015-.21.078-.201.237.009.128-.068.168-.365.189-.373.027-.752.053-1.13.075-.06.003-.128-.03-.187-.046-.128-.035-.242-.09-.379-.102-.136-.013-.296.016-.447.027-.15.01-.31.036-.446.023-.137-.013-.251-.07-.374-.107-.06-.017-.132-.042-.192-.038-.301.015-.602.038-.902.059-.338.023-.338.023-.817-.096-.218-.053-.437-.011-.652.004-.228.016-.442.023-.62-.053a.856.856 0 00-.392-.071c-.378.023-.752.052-1.13.075a.608.608 0 01-.201-.023c-.242-.08-.479-.144-.816-.104-.292.035-.607.037-.898.07-.16.016-.233.078-.201.125.018.025.114.054.178.054.146.002.305-.027.442-.015.283.023.424.183.793.14.219-.028.447-.037.675-.045.059-.002.123.035.187.054.182.051.342.118.606.084.219-.027.452-.035.675-.05.356-.025.356-.023.816.094.219.055.438.011.652-.002.16-.01.31-.029.438-.002.196.04.337.132.579.126.228-.006.452-.032.679-.042a.857.857 0 01.388.077.82.82 0 00.401.063c.224-.016.452-.035.68-.044a.755.755 0 01.196.03c.127.035.25.075.374.111.223-.011.451-.015.67-.038.169-.017.287-.01.424.029.173.051.314.143.597.1.142-.022.306-.016.447-.035.173-.025.292-.016.415.042.232.109.524.11.825.069.328-.046.575.007.821.091.26.088.26.086.46.299.06.06.228.09.37.078.237-.02.442-.01.615.063.183.078.401.069.625.048.296-.029.592-.054.834.057a.79.79 0 00.406.054c.451-.035.907-.056 1.35-.098.269-.026.424.035.606.086.246.071.515.134.515.285 0 .025.064.054.119.073.118.04.246.075.369.113.182.057.36.105.611.074.219-.025.451-.032.675-.05.223-.017.428-.026.629.047.233.082.479.16.743.221.187.044.433-.03.634.029.123.036.242.078.374.109.054.013.141.004.214 0 .151-.008.306-.013.451-.033a.9.9 0 01.424.027c.119.04.238.096.374.107.206.017.434-.059.639.029.105.044.237.086.374.1.136.013.296-.016.442-.014.064 0 .141.03.178.056.022.013-.009.05-.041.068a.406.406 0 01-.16.058c-.451.034-.903.063-1.354.095-.269.02-.269.02-.812-.101a1.434 1.434 0 00-.428-.01c-.215.018-.433.05-.657.016-.292-.13-.652-.142-1.035-.092a1.029 1.029 0 01-.424-.015c-.251-.073-.515-.14-.738-.226-.174-.067-.256-.073-.329.02-.023.028-.045.058-.041.085.028.096.078.19.105.285.009.027-.027.057-.05.086-.073.08-.169.075-.328.008a1.153 1.153 0 00-.607-.08c-.219.026-.456.022-.675.051a1.686 1.686 0 01-.816-.101.605.605 0 00-.2-.023c-.68.044-1.354.093-2.034.137a.814.814 0 01-.392-.07.843.843 0 00-.397-.07c-.601.041-1.203.077-1.805.127a1.32 1.32 0 01-.611-.07.953.953 0 00-.406-.06c-.173.006-.296.025-.383.08-.082.054-.023.086.16.128.196.046.378.106.565.16.151-.009.301-.024.447-.022.064 0 .123.035.187.054.182.055.351.11.611.08.219-.027.451-.033.675-.05.31-.02.31-.02.811.1.128.03.265.028.429.011a.683.683 0 01.387.07c.041.024.028.062-.059.188 0 .094.096.052.128-.01.05-.087-.046-.116-.228-.068-.128.034-.192.084-.16.124.018.021.105.048.26-.046.401-.114.707-.128.999-.159a.854.854 0 01.419.04c.164.06.328.123.597.093.292-.035.602-.039.898-.067.274-.027.415.057.589.107.209.059.442-.008.633.026.201.035.342.119.575.134.337-.051.552.044.807.107.201.048.438.006.652-.015a1.28 1.28 0 01.611.067c.191.078.406.061.625.044.51-.038.528-.044.825.061.214.077.419.042.634.033.187.051.369.107.565.153.05.011.146-.008.223-.014l.675-.046c.151-.01.31-.038.447-.026.137.013.251.068.374.105.123.036.251.072.369.11.183.058.356.106.611.077.219-.025.447-.032.675-.05.287-.02.278-.015.811.1.288.063.584-.014.876-.021a.784.784 0 01.387.072c.041.023.028.062.041.094-.752.052-1.509.096-2.252.159-.287.025-.438-.044-.593-.101-.255-.092-.592.041-.834-.077a1.069 1.069 0 00-.606-.076c-.146.019-.301.017-.452.034-.383.042-.734.044-1.039-.088-.105-.046-.256-.07-.365-.115a.926.926 0 00-.401-.065c-.68.046-1.354.092-2.029.142-.06.004-.119.032-.169.053-.128.054-.087.096.119.13.068.012.123.037.187.056.123.036.237.093.373.107.137.013.297-.014.447-.023.151-.01.31-.038.447-.027.137.014.251.069.378.103.06.018.133.046.192.044.301-.011.597-.032.898-.05.187.052.347.127.57.144.141.012.292-.01.438-.006a.36.36 0 01.178.056c.018.015-.041.053-.087.072-.173.073-.41.06-.625.083-.232.024-.442.017-.62-.058a.866.866 0 00-.396-.067c-.379.025-.753.054-1.131.075-.064.004-.141-.014-.201-.027-.478-.116-.479-.12-.816-.095-.497.036-.497.036-.83-.066-.063-.019-.132-.055-.187-.053-.529.03-1.053.061-1.577.105-.173.014-.292.014-.42-.036a1.367 1.367 0 00-.374-.101c-.141-.012-.296.017-.446.026-.151.01-.31.035-.443.02-.136-.016-.255-.07-.373-.108-.124-.04-.256-.038-.425-.023-.519.044-.524.039-1.039-.08a.78.78 0 00-.201-.025c-.378.023-.752.052-1.13.075a.729.729 0 01-.388-.071c-.041-.023-.027-.061-.055-.136-.032-.017.005.014.014.042.068-.003.151 0 .201-.015.127-.036.191-.084.159-.124-.018-.021-.105-.048-.159-.048-.101 0-.187.042-.215.145-.287.063-.592.077-.889.107a.831.831 0 01-.419-.04 1.168 1.168 0 00-.602-.09c-.292.035-.602.04-.903.067-.346.03-.497-.141-.789-.137-.301.003-.601.036-.902.059-.265.019-.265.019-.812-.105-.201-.046-.438.02-.634-.027-.132-.03-.246-.077-.374-.11a.82.82 0 00-.209-.009c-.379.023-.762.039-1.126.08a2.05 2.05 0 01-1.026-.116c-.374.021-.753.033-1.122.069-.269.027-.424-.036-.606-.088-.064-.017-.119-.046-.187-.054-.069-.007-.151.008-.224.014-.301.02-.611.03-.903.065-.36.044-.496-.113-.775-.132-.187.093-.287.222-.656.231-.301.008-.602.038-.903.06l-.451.03c-.242.017-.356.092-.306.207.028.063.05.126.073.189.046.113-.068.208-.26.222-.529.036-1.053.074-1.582.107a.826.826 0 01-.392-.075.844.844 0 00-.397-.065c-.529.037-1.053.075-1.582.107a.7.7 0 01-.196-.03c-.127-.035-.251-.075-.374-.111-.301.017-.597.028-.893.051-.479.035-.479.037-.83-.069-.064-.019-.128-.055-.187-.053-.228.008-.451.027-.679.044-.671.05-.671.05-.867-.008-.178-.053-.337-.118-.606-.088-.292.035-.602.046-.903.065-.223.014-.447.03-.67.033-.059.002-.123-.034-.187-.054a1.283 1.283 0 00-.611-.074c-.146.019-.301.023-.451.032-.393.027-.393.027-1.035-.088a.836.836 0 00-.206-.019c-.528.035-1.053.073-1.582.105a1.06 1.06 0 01-.205-.017c-.72-.11-.72-.11-1.486-.057-.292.019-.301.027-.607-.075a.96.96 0 00-.41-.051c-.602.046-1.208.076-1.805.13-.269.023-.425-.035-.607-.086-.064-.018-.132-.056-.187-.054-.602.036-1.204.08-1.805.117-.055.003-.123-.035-.187-.052-.123-.034-.242-.086-.379-.098-.141-.01-.296.018-.451.027-.379.025-.379.023-.816-.09-.06-.015-.137-.036-.196-.032-.602.038-1.209.07-1.806.126a1.85 1.85 0 01-.816-.105.61.61 0 00-.201-.021c-.679.044-1.354.094-2.033.138a.85.85 0 01-.392-.073c-.183-.079-.397-.069-.625-.052-.524.04-.529.039-.839-.053-.064-.02-.118-.044-.187-.054-.064-.01-.146-.004-.214 0l-.903.061c-.301.021-.606.033-.903.065-.364.04-.538-.084-.793-.141-.374.025-.757.04-1.126.08-.283.03-.415-.053-.602-.097-.064-.016-.132-.048-.191-.044-.68.042-1.359.088-2.034.14a.954.954 0 01-.41-.05c-.306-.104-.319-.1-.83-.062-.223.018-.438.033-.629-.046-.169-.07-.374-.087-.616-.064-.296.028-.602.043-.903.063-.3.02-.601.05-.902.059-.242.01-.388-.08-.579-.126a.84.84 0 00-.21-.012c-.301.017-.611.03-.903.063-.355.04-.551-.065-.802-.126a.813.813 0 00-.215 0c-.529.035-1.053.073-1.582.11l-.565-.154-.903.06c-.228.015-.46.02-.675.05-.278.037-.415-.052-.602-.096-.063-.016-.132-.048-.191-.044-.378.02-.757.043-1.131.076-.355.033-.497-.14-.788-.138a8.272 8.272 0 00-.903.062 1.705 1.705 0 01-.816-.104.611.611 0 00-.201-.023c-.378.023-.752.052-1.131.075a.922.922 0 01-.205-.017c-.72-.113-.72-.115-1.035-.092-.223.015-.451.034-.679.044a.7.7 0 01-.201-.029c-.474-.116-.474-.118-.816-.095l-.903.063c-.187-.052-.378-.102-.565-.153-.374.025-.757.044-1.126.078a.898.898 0 01-.42-.038c-.164-.057-.328-.124-.602-.092-.291.035-.601.038-.898.067-.355.035-.501-.14-.789-.138a8.236 8.236 0 00-.902.062 1.71 1.71 0 01-.817-.104.605.605 0 00-.2-.023c-.83.056-1.655.111-2.485.17-.511.037-.511.039-1.482-.066a1.291 1.291 0 00-.21-.012c-.301.017-.611.03-.902.063-.356.04-.552-.063-.803-.126-.055-.013-.141-.006-.214-.002-.228.014-.452.03-.679.046l-.903.063-.566-.15c-.373.024-.756.037-1.126.078-.282.03-.415-.05-.602-.096-.063-.015-.132-.048-.191-.046-.679.042-1.359.086-2.034.14-.278.022-.405-.064-.592-.108-.064-.013-.137-.038-.196-.034-.452.027-.903.06-1.354.092-.256.019-.256.019-.812-.1a.801.801 0 00-.201-.022c-1.431.095-2.858.196-4.29.292a.814.814 0 01-.392-.07.845.845 0 00-.397-.07c-.602.04-1.208.077-1.805.127a1.317 1.317 0 01-.611-.071.875.875 0 00-.406-.057c-.301.023-.602.042-.903.063l-.903.063c-.301.02-.606.032-.902.065-.365.04-.543-.079-.794-.138-.451.029-.903.057-1.349.088-.602.04-1.204.084-1.806.122-.055.004-.123-.03-.187-.047-.187-.048-.324-.115-.602-.094-1.349.101-2.708.187-4.062.287-.283.02-.406-.061-.597-.105-.064-.014-.137-.04-.196-.037-.753.048-1.505.102-2.257.153-.306.021-.306.021-.817-.097a.77.77 0 00-.2-.027c-.98.065-1.956.134-2.936.2a.844.844 0 01-.397-.068.824.824 0 00-.392-.07c-.903.06-1.81.12-2.708.186-.242.02-.443.002-.616-.066a.85.85 0 00-.401-.06c-1.354.094-2.709.184-4.063.283-.26.02-.442-.017-.606-.08a.945.945 0 00-.41-.052c-.174.01-.279.03-.374.088-.123.075-.201.169-.493.174-.301.006-.606.029-.902.061-.283.033-.415-.053-.593-.105a1.09 1.09 0 00-.424-.024.686.686 0 00-.342.108c-.201.13-.219.13-.465.048a1.03 1.03 0 00-.397-.07c-.602.038-1.204.08-1.805.124-.347.025-.351.029-.611-.067a.898.898 0 00-.402-.06c-1.655.115-3.31.226-4.965.347a1.497 1.497 0 01-.611-.079c-.059-.019-.118-.046-.187-.053-.068-.008-.146 0-.219.004-1.203.082-2.412.16-3.611.252-.273.021-.419-.04-.606-.09-.064-.017-.119-.044-.187-.052-.068-.005-.15.008-.223.014-1.204.082-2.412.16-3.611.252-.288.021-.411-.059-.598-.101-.064-.015-.132-.044-.191-.04-.379.02-.753.05-1.131.074-.903.063-1.806.123-2.708.188-.347.025-.497-.146-.789-.138-.379.01-.752.048-1.131.075-.301.02-.602.04-.903.063-.296.02-.296.02-1.035-.09-.063-.01-.141-.023-.205-.02-1.053.072-2.111.142-3.159.219-.242.017-.443.007-.616-.063a.86.86 0 00-.401-.064c-1.582.11-3.16.218-4.742.326a.699.699 0 01-.196-.031c-.128-.034-.251-.075-.374-.11-.091.043-.21.083-.269.133-.082.067-.191.086-.365.097a.926.926 0 01-.419-.042 1.302 1.302 0 00-.602-.09c-1.655.12-3.31.23-4.965.349-.274.019-.401-.066-.593-.11-.064-.013-.137-.034-.196-.03-.679.044-1.354.092-2.033.138-1.884.13-3.766.254-5.645.392a1.909 1.909 0 01-.816-.106.61.61 0 00-.201-.023c-2.635.18-5.27.362-7.901.543a.847.847 0 01-.392-.07.845.845 0 00-.397-.067c-1.204.082-2.407.164-3.611.248-.301.021-.306.023-.616-.069-.063-.019-.132-.055-.182-.051a.495.495 0 00-.278.122c-.073.07-.187.088-.356.102a.948.948 0 01-.419-.039c-.169-.057-.324-.112-.597-.093-3.461.244-6.922.48-10.382.722-.278.02-.406-.06-.598-.105-.063-.013-.127-.032-.196-.036-.073-.004-.15.008-.223.013L84.39 30.455c-.337.023-.332.023-.702.199-.045.02-.105.05-.169.053-1.728.122-3.46.241-5.193.36-.752.051-1.504.105-2.257.154-.269.018-.269.018-.912.224-.054.017-.118.04-.182.044-3.01.209-6.018.417-9.032.622-.237.015-.429.05-.538.141a.548.548 0 01-.328.115c-2.107.145-4.213.292-6.324.434-.251.017-.402.07-.525.15-.04.028-.077.058-.136.077-.055.018-.137.023-.206.029-1.805.124-3.61.252-5.42.371-.27.017-.38.088-.511.163-.046.024-.078.059-.137.076-.06.015-.146.015-.22.02-1.504.102-3.008.208-4.513.31-.292-.009-.355.102-.497.17-.05.022-.086.053-.146.068-.063.015-.146.013-.223.017-1.204.082-2.408.17-3.616.247-.278.017-.333.114-.483.181-.05.021-.1.054-.16.06-.752.055-1.504.107-2.257.157-.25.017-.25.015-.693.204a.592.592 0 01-.173.05c-1.126.08-2.257.157-3.388.235a.509.509 0 00-.319.12.522.522 0 01-.323.117c-.903.063-1.806.128-2.709.186-.25.015-.415.063-.524.149-.082.065-.182.097-.342.109-.903.06-1.805.128-2.713.181-.264.016-.401.08-.51.16-.087.066-.188.089-.356.1-1.655.111-3.315.222-4.965.344-.278.022-.42-.045-.602-.093-.26-.067-.502-.14-.502-.289 0-.023-.077-.05-.132-.069-.406-.143-.406-.143-.47-.296-.036-.094-.077-.19-.109-.285-.06-.157-.205-.197-.625-.168-.15.01-.3.023-.451.03-.223.014-.392-.05-.433-.164-.023-.063-.05-.126-.073-.19.228-.015.223-.017.625-.248.168-.097.168-.097-.155-.195-.123-.036-.242-.076-.374-.11a.697.697 0 00-.2-.022c-.38.023-.753.05-1.127.077-.602.042-.602.042-1.213-.153-.05-.016-.128-.044-.119-.06.05-.07.174-.101.329-.109.228-.011.451-.03.675-.046l.45-.03c.142-.073.288-.144.42-.218.21-.115.21-.119-.077-.199-.182-.053-.379-.101-.566-.151-.223.015-.45.032-.674.046-.283.017-.397-.02-.47-.144-.064-.109.014-.202.233-.225.223-.023.433-.038.547-.136.11-.094.3-.13.538-.138.15-.005.3-.019.451-.03.196-.016.301-.113.26-.222-.023-.07-.068-.13-.246-.145-.789-.067-.798-.065-1.19-.195-.037-.012-.064-.046-.05-.063a.21.21 0 01.127-.077c.525-.042 1.05-.08 1.573-.109.174-.01.301-.023.36-.094.083-.097.046-.187-.113-.254a.532.532 0 00-.187-.046c-.602.035-1.2.079-1.801.113a.324.324 0 01-.178-.053c-.046-.046.023-.108.182-.129.21-.028.424-.03.566-.126.196-.136.437-.26.656-.39.037-.023.096-.067.082-.07-.114-.043-.246-.075-.364-.115-.201-.067-.201-.161-.156-.25.037-.073.174-.102.342-.102.073 0 .165 0 .224-.017.155-.043.205-.096.128-.136a.43.43 0 00-.183-.052c-.976.063-1.956.125-2.927.203-.287.023-.42-.05-.593-.102a.845.845 0 00-.42-.026c-.154.026-.305.011-.4-.052-.078-.052.059-.096.428-.145.069-.01.146-.015.196-.035.529-.206.529-.208.894-.235.355-.025.355-.026.542-.137.087-.052.183-.104.265-.157.032-.021.087-.06.068-.071-.1-.06-.237-.073-.396-.06-.356.033-.775.006-.962.188-.073.069-.187.088-.351.1-1.651.11-3.302.229-4.957.336-.269.017-.392.088-.497.166-.09.065-.191.085-.364.096-.174.011-.31.017-.41-.046-.06-.038-.01-.092.127-.145.196-.077.16-.172.096-.262-.046-.06-.187-.102-.338-.098-.223.008-.437.029-.624-.047-.11-.044-.247-.075-.37-.113-.237-.079-.474-.159-.807-.107-.228-.02-.387-.088-.57-.142-.305-.088-.332-.101-.114-.195.247-.105.055-.243.192-.346.146-.11.346-.208.524-.312l.133-.078c-.105-.038-.201-.086-.324-.113-.16-.034-.242-.076-.233-.195-.032-.017-.018.027.018.038a.509.509 0 00.192-.011c.128-.036.191-.084.16-.124-.019-.021-.105-.048-.16-.048-.1 0-.187.042-.214.145-.511.079-1.04.117-1.569.147-.055.004-.123-.034-.187-.053-.21-.065-.21-.063-.825-.082a.37.37 0 01-.182-.056c-.133-.116-.128-.245-.192-.369.119-.08.237-.159.36-.237.247-.159.566-.298.757-.472-.04-.094-.096-.188.105-.264.57-.096.566-.096.72-.188.443-.26.88-.521 1.341-.778.123-.067.123-.103-.096-.132a1.321 1.321 0 00-.214-.005c-.228.013-.456.047-.68.04-.223-.006-.387-.09-.57-.142a62.351 62.351 0 01-.56-.164c-.215.006-.429.06-.643-.027-.164-.067-.37-.115-.556-.17.141-.145.406-.256.61-.384.188-.117.192-.115.694-.205.237-.042.319-.258.118-.321-.241-.077-.497-.148-.743-.22-.214.006-.433.057-.638-.029a1.213 1.213 0 00-.607-.084c-.446.042-.902.063-1.354.098-.155.011-.324.003-.392-.062-.046-.046.087-.109.237-.122.228-.02.433-.042.547-.138.11-.095.31-.124.547-.137a.378.378 0 00.17-.05c.163-.111.346-.207.697-.203.146-.038.223-.086.177-.132a.33.33 0 00-.177-.053c-.379.019-.757.038-1.126.073-.174.015-.306.019-.415-.039-.078-.038-.037-.09.109-.145.128-.048.164-.103.155-.168-.023-.151-.16-.195-.597-.186-.315.008-.392-.017-.46-.147-.019-.03-.065-.073-.033-.094.196-.13.324-.29.693-.352.146-.023.301-.023.392-.072.092-.05.174-.107.27-.155.118-.058.2-.111.145-.147-.09-.065-.237-.071-.405-.048-.146.019-.301.02-.452.032-.269.021-.488-.028-.52-.113-.086-.221-.177-.441-.255-.663-.009-.027.014-.061.05-.084.128-.08.265-.157.397-.235.155-.09.401-.073.611-.09.296-.025.296-.023.693-.207.155-.072.424-.044.584-.109.05-.02.127-.055.114-.074-.019-.025-.11-.044-.178-.056a.847.847 0 00-.21-.011c-.83.055-1.655.115-2.485.168-.141.01-.296-.032-.346-.092-.05-.055-.037-.122-.046-.185.132-.079.283-.151.397-.235.086-.065.187-.094.36-.098.228-.006.451-.029.707-.046.474-.279.939-.571 1.45-.85.205-.113.155-.228.196-.349.04-.11.346-.093.551-.126.164-.027.219-.088.155-.13a.386.386 0 00-.182-.053c-.15 0-.301.017-.452.026-.15.01-.323.004-.446.037-.119.03-.196.095-.274.15-.087.062-.2.083-.374.087-.223.004-.447.02-.67.034-.246-.074-.502-.147-.739-.225-.045-.016-.054-.06-.05-.088.01-.075-.06-.12-.21-.157-.127-.03-.232-.075-.35-.113.09-.051.19-.101.264-.157.16-.116.36-.2.707-.197.136-.074.246-.166.424-.218.168-.05.456 0 .583-.112a.604.604 0 01.283-.142c.196-.036.451-.017.565-.124a.54.54 0 01.301-.132c.15-.017.306-.021.415-.058.06-.019.123-.05.123-.076 0-.017-.091-.044-.155-.055a.787.787 0 00-.205-.02c-.228.012-.451.033-.68.044-.063.004-.136-.01-.205-.02-.2-.031-.187-.07-.027-.138.16-.067.274-.153.406-.232.146-.013.328-.007.428-.044.17-.059.288-.145.424-.22.15-.011.306-.015.447-.036.06-.008.087-.05.137-.074.091-.048.169-.117.292-.14.2-.034.447-.021.565-.126a.482.482 0 01.301-.13c.356-.008.506-.113.689-.212.136-.075.428-.037.579-.111.1-.048.173-.107.273-.153a.734.734 0 01.196-.035c.374-.028.753-.05 1.127-.08.059-.006.114-.034.16-.057.095-.05.154-.119.273-.151.118-.033.287-.033.433-.042.47-.03.506-.022.72-.184.173-.132.597-.038.739-.184.082-.084.232-.153.501-.162.379-.014.753-.05 1.131-.075.337-.023.333-.023.698-.2.164-.08.405-.07.62-.085.228-.015.438-.038.547-.133.11-.094.31-.125.542-.138.215-.014.456-.004.625-.08.41-.184.406-.186.693-.205.452-.03.903-.061 1.354-.094.301-.02.616-.025.899-.067.205-.03.296-.137.428-.212l1.122-.084c.524-.038 1.053-.073 1.582-.109.228-.073.26-.233.643-.24.228-.005.451-.03.68-.045.377-.027.751-.061 1.13-.075.287-.009.337-.112.488-.177.05-.023.095-.056.155-.062.592-.053 1.203-.065 1.782-.143.06-.008.114-.048.128-.076.01-.016-.068-.044-.119-.058a.702.702 0 00-.2-.026l-5.65.386c-.264.019-.264.017-.907.227a.862.862 0 01-.186.042c-.302.023-.607.037-.903.065-.242.023-.443 0-.616-.069a.983.983 0 00-.406-.06c-.173.005-.287.026-.387.078-.132.07-.2.162-.479.181-1.281.083-2.562.174-3.839.262-.178-.027-.264-.067-.219-.114a.234.234 0 01.137-.071c.524-.04 1.053-.075 1.578-.113.072-.006.173-.002.214-.021.2-.086.274-.226.652-.235.219-.006.442-.035.652-.061.06-.008.114-.048.127-.077.005-.015-.068-.044-.123-.057-.2-.056-.433.011-.633-.027-.069-.013-.165-.033-.178-.055-.01-.021.068-.056.123-.077a.72.72 0 01.187-.042c.602-.044 1.204-.09 1.805-.124.247-.014.42-.062.53-.15a.565.565 0 01.337-.108c1.053-.071 2.106-.15 3.164-.215.264-.015.401-.078.51-.16.087-.065.188-.088.356-.1 1.51-.099 3.01-.21 4.519-.305.278-.018.36-.1.501-.17.05-.026.082-.056.146-.071.064-.016.146-.014.223-.018 1.204-.082 2.408-.17 3.616-.246.283-.018.337-.113.483-.18.05-.021.096-.055.155-.061.903-.065 1.806-.126 2.709-.19.602-.042 1.203-.084 1.805-.124.297-.019.297-.02.698-.203a.56.56 0 01.169-.051c1.732-.123 3.46-.24 5.193-.36a.522.522 0 00.323-.118.52.52 0 01.32-.119 917.94 917.94 0 014.067-.279c.246-.015.419-.061.529-.147a.564.564 0 01.337-.11c1.354-.09 2.708-.188 4.067-.276a1.01 1.01 0 00.515-.159c.046-.027.082-.07.137-.075.675-.053 1.345-.109 2.024-.145.283-.015.379-.096.493-.172.09-.061.196-.082.369-.09.379-.017.752-.05 1.122-.082.054-.006.123-.048.127-.075.01-.05-.096-.084-.269-.101l-5.42.373c-.297.02-.297.02-.698.203a.55.55 0 01-.174.051l-5.193.36a.522.522 0 00-.324.118.52.52 0 01-.319.119c-1.655.114-3.31.231-4.97.34-.246.015-.419.06-.528.147a.565.565 0 01-.338.11c-1.582.106-3.16.22-4.746.322-.16.01-.278-.045-.27-.097.005-.027.074-.07.128-.075.826-.063 1.646-.128 2.476-.176.278-.015.36-.099.502-.17.045-.025.082-.057.141-.07.064-.016.146-.014.224-.018 1.956-.135 3.911-.273 5.872-.401.283-.02.337-.113.483-.18.05-.023.096-.057.155-.061.602-.046 1.204-.086 1.806-.126l3.164-.218c.306-.021.306-.021.698-.201a.51.51 0 01.168-.052c2.786-.193 5.572-.386 8.358-.577a.522.522 0 00.324-.119.544.544 0 01.319-.12c3.766-.26 7.527-.52 11.293-.776.247-.018.42-.058.53-.148.077-.065.182-.1.337-.11 4.14-.286 8.28-.57 12.424-.857 2.786-.191 5.572-.386 8.358-.574.255-.017.392-.076.52-.155.04-.026.081-.07.136-.074.597-.048 1.195-.092 1.792-.136.187.052.374.101.56.153.142-.073.279-.147.42-.22.903-.055 1.792-.141 2.704-.168.06-.002.123.034.187.053.424.12.665.111.934-.05.096-.057.178-.108.324-.118.452-.034.908-.057 1.354-.097.242-.021.443-.002.616.066a.86.86 0 00.401.06c.83-.058 1.655-.113 2.485-.174.059-.004.114-.037.16-.06.095-.05.177-.103.269-.154.123.032.26.057.36.099.128.05.246.05.419.036 3.31-.231 6.625-.457 9.935-.69.283-.02.406.061.598.103.063.016.127.035.196.039.073.003.15-.008.223-.014l7.455-.514c.328-.023.328-.023.816.095a.639.639 0 00.2.027c1.131-.074 2.262-.155 3.388-.231.146-.01.269.02.401.065.26.086.278.086.47-.04a.723.723 0 01.337-.113c.164-.02.297-.013.424.02.183.049.315.129.593.108 1.204-.09 2.412-.164 3.611-.256.274-.021.42.044.602.092.064.017.123.044.191.05.069.005.151-.008.224-.014 1.504-.103 3.014-.205 4.514-.316.282-.02.405.062.597.104.064.015.137.042.196.038.903-.06 1.81-.123 2.713-.186.324-.023.324-.02.816.096.059.015.137.03.201.027l3.164-.216c.324-.023.324-.023 1.258.076.069.008.142.02.21.016 1.204-.083 2.412-.163 3.616-.251.241-.017.442-.002.615.067a.86.86 0 00.401.06c1.354-.094 2.713-.184 4.063-.284.26-.019.428.023.611.079.059.019.118.046.187.053.068.008.146 0 .219-.006 1.354-.093 2.712-.181 4.062-.283.274-.02.42.044.602.092.064.017.132.052.187.05.529-.033 1.058-.061 1.582-.11.283-.026.406.062.597.104.064.014.137.042.196.038 1.131-.074 2.262-.153 3.388-.233a.872.872 0 01.406.056c.168.067.364.093.611.072.524-.044 1.053-.074 1.582-.11.31-.022.31-.022 1.258.078.069.007.142.019.21.015.903-.061 1.81-.12 2.708-.187.242-.02.442-.002.616.067a.85.85 0 00.401.059l2.485-.172c.301-.021.602-.058.903-.058.219.002.378.094.574.14.055.013.146-.002.219-.006 1.053-.072 2.111-.14 3.16-.222.273-.02.419.044.602.092.063.017.132.052.186.05.379-.021.753-.05 1.131-.075.452-.03.907-.053 1.354-.095.365-.035.502.132.794.137.223.006.451-.026.674-.042.452-.03.903-.065 1.355-.091.159-.01.282-.04.332-.11.01-.013-.068-.041-.118-.059-.606-.195-.607-.195-1.218-.153-.378.027-.752.054-1.13.077-.064.004-.137-.012-.201-.023-.182-.033-.164-.07-.009-.14.155-.068.274-.153.406-.231l.556.15c.151-.01.301-.022.451-.031.753-.05 1.505-.102 2.257-.148.055-.004.123.035.187.054.183.055.347.103.611.082.675-.055 1.354-.096 2.029-.143.297-.021.297-.021.816.097.06.014.137.029.201.025.679-.044 1.354-.092 2.033-.138a.757.757 0 01.393.071c.041.023.031.061.205.375.538.254.907.227 1.281.204.16-.01.301-.019.406-.057.054-.02.123-.052.123-.076 0-.02-.1-.05-.164-.054-.452-.038-.88.042-1.323.06-.205.007-.383-.06-.419-.169a.728.728 0 00-.037-.094c-.013-.03-.022-.063-.036-.093-.178-.01-.283.025-.36.09a.667.667 0 01-.278.143c-.123.03-.292.025-.443.034-.145.01-.305.035-.442.021-.137-.015-.246-.07-.374-.105-.059-.017-.132-.042-.191-.038-.524.033-1.044.065-1.564.107-.274.023-.41-.057-.584-.107-.136-.038-.273-.029-.296.06-.059.21.15.298.616.257.383-.034.729-.04 1.03.09a.57.57 0 00.196.021c.374-.023.743-.051 1.117-.074.068-.004.141.004.205.011.93.103.93.105 1.245.082.15-.011.296-.02.283-.311.287-.312.743-.333 1.185-.379.287-.028.41.056.597.1.064.015.133.046.192.042.98-.063 1.956-.13 2.932-.201a.884.884 0 01.41.05c.164.063.346.103.606.08.52-.046 1.049-.075 1.578-.113.269-.019.269-.019.811.1a.79.79 0 00.201.024c.529-.032 1.053-.072 1.578-.107a.814.814 0 01.392.07.825.825 0 00.392.068c.529-.034 1.053-.073 1.577-.107a.776.776 0 01.201.023c.556.118.556.118.812.1.373-.03.756-.043 1.126-.081.36-.038.547.073.793.134.675-.044 1.354-.08 2.024-.134.274-.023.42.04.602.09.064.017.128.053.187.051.228-.007.452-.028.675-.043l.675-.046c.255.055.424.185.789.141.219-.027.451-.032.674-.048l.675-.046c.151-.01.306-.015.452-.032.269-.029.401.065.592.107.064.013.137.036.196.032.452-.026.908-.05 1.35-.093.342-.035.574.023.816.103a.61.61 0 00.201.023c.529-.032 1.053-.073 1.577-.107a.847.847 0 01.392.07.845.845 0 00.397.068c.524-.035 1.053-.073 1.578-.107a.7.7 0 01.2.026c.511.119.511.12.812.098l.223-.016c.374-.026.762-.036 1.126-.082a2.05 2.05 0 011.022.123c.374-.023.757-.037 1.121-.075.274-.029.42.044.602.092.064.017.132.051.187.048.529-.033 1.058-.062 1.578-.11.282-.026.405.06.597.104.064.015.132.042.191.038.301-.015.602-.038.903-.06.351-.024.351-.022.816.095.219.055.438.011.652-.002.228-.016.443-.027.625.051a.88.88 0 00.392.073c.301-.017.607-.034.903-.063.237-.023.442-.008.615.063.123.05.251.075.402.063.674-.046 1.354-.094 2.029-.138a.617.617 0 01.196.031c.127.034.25.073.373.11.297-.016.602-.024.894-.05.31-.027.593-.037.835.068a.46.46 0 00.182.054c.228-.008.451-.027.675-.042l.674-.046c.26.047.425.185.789.141.219-.027.452-.032.675-.048.223-.015.451-.032.675-.046.073-.003.155-.013.219-.005.068.007.127.034.187.053.182.056.351.111.611.079.218-.027.451-.033.674-.05.306-.021.306-.021.812.1.205.05.438-.016.634.026.132.029.246.077.374.11a.8.8 0 00.205.014c.301-.017.606-.034.903-.063.241-.023.442 0 .61.07a.86.86 0 00.402.058c.752-.053 1.504-.099 2.252-.158.255-.021.461.011.602.08.242.119.584-.021.834.075.155.059.31.128.593.1.52-.05 1.049-.077 1.573-.112l.565.155c.301-.021.602-.042.903-.061.224-.015.452-.033.675-.046.073-.004.15-.012.219-.002.068.01.123.034.187.054.314.093.314.095.834.057.223-.017.438-.029.625.048.173.07.378.084.615.063.447-.038.899-.067 1.354-.094a.857.857 0 01.392.073c.178.078.397.07.621.05.296-.027.588-.054.839.053a.48.48 0 00.182.054c.374-.016.752-.027 1.117-.063.365-.037.543.082.793.14.374-.026.753-.05 1.126-.075.073-.006.16-.023.224-.014.269.04.424.184.793.14a7.68 7.68 0 01.67-.039.386.386 0 01.178.056c.023.013 0 .05-.027.069-.082.053-.182.103-.255.158-.01.008.077.043.127.058.123.034.265.029.429.013a.683.683 0 01.387.071c.041.023.028.061-.059.187 0 .094.096.052.128-.01.05-.087-.046-.116-.228-.068-.128.034-.192.084-.16.124.019.021.105.048.26-.046.401-.114.702-.135 1.003-.156.078-.006.169-.025.224-.014.196.046.378.102.57.153.218-.011.424-.04.638.035.301.105.314.095.606.074a35.9 35.9 0 01.452-.03c.15-.01.269.019.401.063.269.09.292.09.469-.033.105-.074.178-.1.31-.065.438.117.443.124.817.09.31-.029.602-.036.829.073.156.076.206.059.329-.021.328-.213.478-.209 1.094-.056.287.073.584-.006.875-.015.247-.008.42.038.438.159.014.074.055.128.219.153.064.01.141.022.205.019.379-.023.752-.05 1.131-.077.191-.013.296-.103.26-.222-.041-.126.032-.172.305-.208a1.1 1.1 0 01.429.017c.146.038.105.073-.023.142-.305.168-.269.271.123.388.137.04.246.076.278.136.018.03 0 .07.041.093.224.128.534.21.88.272.333-.052.561.034.816.103.201.054.438.008.652-.011.242-.021.443-.006.616.065a.89.89 0 00.401.063c.301-.021.607-.035.903-.065.255-.027.447.011.606.076.201.082.424.027.634.038.283.014.424.184.793.138a7.76 7.76 0 01.675-.044c.06-.002.132.03.183.054.241.105.524.099.834.068.214-.02.424-.04.634.033.346.122.729.23 1.094.342.05.088.014.191.274.243.136.027.264.067.369.11a.836.836 0 00.41.053c.297-.027.607-.033.898-.067.269-.031.438.032.602.091a.703.703 0 00.415.037.683.683 0 01.415.04c.187.07.201.063.821.084a.39.39 0 01.178.055c.018.014-.023.052-.055.071a.456.456 0 01-.164.056c-.675.05-1.354.093-2.029.143a.768.768 0 00-.192.038c-.054.021-.123.05-.123.077 0 .019.091.042.155.055.201.044.438-.023.634.027.132.033.242.078.374.109a.833.833 0 00.21.008c.228-.014.451-.033.679-.044.064-.002.137.017.196.032.438.115.438.115.816.09.151-.01.31-.038.452-.027.136.012.255.063.378.096.255.069.497.136.515.285.009.057.16.107.31.11.146.005.301-.017.452-.028.355-.023.355-.023.816.094.127.032.264.036.428.017a.869.869 0 01.21.01c.223.028.223.064.078.133-.206.102-.187.111.387.197.219.033.388.094.57.148.296.086.292.086.096.198-.046.025-.087.052-.132.079-.133.074-.238.155-.511.162-.301.008-.602.039-.903.06-.292.02-.369.066-.342.196.032.157.091.174.616.173.15 0 .282.015.396.066-.054.062-.155.11-.301.12-.373.03-.752.054-1.126.08l-.902.062c-.187.014-.306.113-.256.224.028.063.05.126.073.19.05.126.146.158.451.152.078-.001.151-.017.224-.013.296.013.438.172.793.14.297-.027.607-.033.899-.067.269-.03.419.038.606.09.064.017.132.053.187.051.378-.02.757-.042 1.126-.078a.909.909 0 01.415.042c.328.11.337.105.825.07.356-.026.36-.022.816.094.128.033.265.033.429.018.214-.02.438-.05.661-.022.068.008.155.031.178.056.014.017-.05.06-.105.073-.401.099-.871.082-1.309.122a.796.796 0 01-.387-.077.842.842 0 00-.401-.063c-.301.021-.607.035-.903.065a1.34 1.34 0 01-.611-.076c-.059-.02-.128-.056-.187-.054-.675.039-1.354.077-2.024.13-.269.023-.424-.038-.607-.09-.064-.017-.127-.053-.187-.051-.228.008-.451.029-.679.044-.83.057-1.655.115-2.485.168-.055.004-.123-.036-.187-.053-.123-.035-.251-.067-.378-.1-.228.015-.452.035-.68.046-.164.008-.31.034-.333.107-.013.048.137.092.297.088.155-.004.31-.027.438-.002.633.123.633.124 1.03.1.346-.023.31-.042.615.063a.939.939 0 00.402.06c.374-.026.752-.053 1.13-.076a.693.693 0 01.196.031c.447.115.447.119.817.09.483-.035.501-.044.825.073.223.08.428.024.643.02.246.075.515.142.738.226.265.1.543.082.844.054.223-.021.442-.029.625.05.173.072.382.08.62.06.214-.017.433-.053.656-.01.059.01.151.04.146.057-.005.026-.064.065-.123.076-.42.078-.88.076-1.322.113-.06.006-.137-.015-.196-.03-.128-.035-.251-.075-.374-.112-.224.012-.452.016-.67.039-.169.017-.297.015-.42-.031-.114-.042-.237-.094-.374-.107-.137-.013-.296.015-.447.027-.15.011-.323.005-.442.036-.118.03-.191.098-.269.151-.087.06-.205.079-.378.084-.16.006-.288-.002-.406-.055a1.021 1.021 0 00-.187-.056c-.064-.013-.137-.034-.196-.03-.679.044-1.354.091-2.034.137-.337.023-.332.023-1.035-.09a1.086 1.086 0 00-.205-.019c-.378.023-.752.05-1.13.077-.383.027-.379.023-1.031-.098-.118-.023-.292.008-.433.004-.296-.01-.442-.17-.789-.14-.296.027-.606.033-.903.067-.269.031-.424-.036-.606-.087-.064-.018-.132-.056-.187-.052-.679.042-1.354.09-2.257.096-.223 0-.123.04.023.053.21.021.278-.02.164-.096a.463.463 0 00-.296-.066c-.05.007-.114.044.109.109.237.072.224.112.265.135.1.056.241.079.387.071.228-.013.452-.032.68-.044a.7.7 0 01.2.025c.502.119.506.126 1.04.08a1.17 1.17 0 01.424.023c.182.05.314.134.592.107.37-.036.748-.057 1.127-.078.059-.004.123.03.191.046.187.046.324.132.602.095a6.43 6.43 0 01.675-.042.33.33 0 01.177.054c.055.044-.013.095-.168.132-.064.015-.151.011-.224.017-.301.021-.601.044-.902.061-.16.01-.31.038-.329.11-.013.047.151.089.306.085a7.8 7.8 0 00.675-.046c.387-.042.725-.03 1.039.09.224.084.21.054.447.302.059.063.237.07.392.065.374-.01.547.02.515.079-.041.072-.173.095-.342.105-.301.015-.601.04-.902.061-.073.006-.155.017-.224.013-.068-.003-.132-.026-.191-.044-.128-.036-.237-.091-.374-.105-.137-.013-.297.015-.447.027-.15.01-.31.038-.447.025-.137-.014-.251-.07-.374-.105-.059-.018-.132-.044-.191-.042-.301.015-.602.04-.903.059-.369.025-.369.025-.816-.094a1.202 1.202 0 00-.429-.017c-.364.03-.369.025-1.035-.086a.82.82 0 00-.205-.02c-.679.045-1.354.093-2.029.139-.579.04-.579.04-.898.23-.237.142-.242.142-.009.207.187.054.355.132.561.161.191.027.428-.06.638.029.105.044.242.091.374.1.21.009.433-.047.634.037.1.042.25.086.378.088.224.004.452-.027.675-.04.068-.004.146-.004.21.006.068.011.127.034.187.053.182.065.378.096.615.063.388-.053.734-.026 1.035.096.041.017.141.02.205.012.164-.02.306-.021.429.015.05.015.123.042.114.06-.014.028-.069.066-.128.076-.428.065-.889.072-1.331.107-.059.004-.132-.021-.192-.039-.127-.034-.237-.091-.374-.105-.136-.013-.296.012-.446.021-.151.01-.31.039-.447.027a1.434 1.434 0 01-.374-.103.855.855 0 00-.42-.034c-.218.024-.446.028-.67.042-.123-.037-.246-.077-.374-.111a.676.676 0 00-.196-.037c-.301.016-.602.039-.903.06-.3.02-.3.02-.811-.098a.776.776 0 00-.201-.025c-.378.023-.752.052-1.13.075a.843.843 0 01-.397-.07.825.825 0 00-.392-.07c-.602.04-1.204.079-1.806.126-.241.02-.447.002-.611-.067-.191-.078-.405-.059-.629-.043-.506.038-.511.036-.834-.062-.064-.019-.128-.055-.187-.053-.525.028-1.053.055-1.573.101-.274.025-.42-.042-.602-.092-.064-.017-.132-.053-.187-.05-.378.022-.757.04-1.126.079-.37.038-.511-.14-.789-.138-.378.002-.752.046-1.126.073l-.903.063c-.301.021-.602.038-.903.063a.9.9 0 01-.41-.051c-.169-.063-.369-.113-.552-.17-.278-.083-.278-.083-.615-.06-.073.006-.151.01-.224.015-.551.043-.551.039-1.253-.082a.365.365 0 00-.146.03c-.096.05-.183.104-.269.156-.123-.03-.274-.048-.356-.092-.232-.124-.597.046-.834-.077a1.087 1.087 0 00-.374-.097c-.142-.012-.301.015-.447.027-.379.028-.379.026-.702.197-.164.084-.401.068-.616.087-.223.022-.437.033-.624-.045-.169-.071-.374-.088-.616-.065-.296.028-.602.046-.903.063a.927.927 0 01-.205-.018c-.697-.112-.697-.114-1.035-.09-.15.012-.305.016-.451.033a1.31 1.31 0 01-.611-.07c-.059-.02-.128-.056-.187-.054-.301.01-.597.027-.894.044-.228.013-.456.02-.675.048-.364.044-.542-.08-.793-.138-.374.025-.752.042-1.126.076a.922.922 0 01-.419-.036c-.169-.057-.324-.122-.598-.094-.365.039-.748.052-1.121.075-.251-.06-.434-.18-.794-.136-.219.027-.451.033-.675.048-.3.021-.601.04-.902.063-.324.023-.319.017-.816-.095-.288-.067-.584.007-.876.019-.228.01-.342.097-.287.21.055.113-.069.2-.278.216-.525.036-1.053.075-1.578.107a.768.768 0 01-.2-.023c-.561-.12-.561-.118-.812-.101-.374.029-.757.044-1.126.08a1.247 1.247 0 01-.607-.08.882.882 0 00-.41-.05c-1.805.128-3.611.247-5.412.379-.269.019-.424-.037-.606-.088-.064-.017-.123-.054-.187-.054-.151 0-.301.018-.452.029-.674.046-1.349.101-2.029.136-.287.015-.364.103-.488.176-.095.055-.205.078-.373.086a.941.941 0 01-.411-.052 1.221 1.221 0 00-.606-.078c-.296.03-.597.044-.903.065-.155.01-.273.044-.324.112-.009.012.087.04.142.058.182.057.355.124.561.164.209.04.437-.005.656-.017.078-.004.151-.015.223-.013a.767.767 0 01.201.028c.237.086.488.146.816.094.283.025.429.184.789.142.219-.025.447-.037.675-.046.059-.002.123.032.187.05.182.047.328.124.602.091.291-.034.602-.04.898-.067a.836.836 0 01.41.048 1.2 1.2 0 00.607.08c.218-.026.451-.032.674-.05.292-.02.292-.018.812.1a.776.776 0 00.201.025c.378-.023.752-.052 1.13-.075a.729.729 0 01.388.071c.041.023.027.061.041.094-.752.051-1.505.095-2.252.159-.283.024-.411-.054-.598-.098-.064-.015-.132-.048-.191-.044-.529.033-1.053.067-1.578.109-.164.013-.287.006-.41-.05-.315-.147-.698-.067-1.053-.046-.274.016-.361.075-.329.201.041.15.206.195.625.168.15-.01.301-.023.451-.03a.867.867 0 01.397.069.85.85 0 00.392.07c.301-.017.607-.034.898-.063.242-.023.443-.004.611.067.187.079.406.061.625.044.511-.038.515-.036.834.06.064.019.128.055.187.053.525-.029 1.054-.054 1.569-.1.269-.022.424.039.602.089.063.017.127.055.187.051a26.68 26.68 0 001.126-.078.907.907 0 01.419.04c.337.113.347.109.825.073.146-.012.306-.033.443-.018.136.016.246.071.374.106.059.015.132.036.196.032.3-.015.601-.038.902-.06.283-.02.283-.018.812.1.214.05.438.008.652-.008.233-.017.442-.017.62.058.178.074.392.07.62.055.214-.015.433-.057.652-.005.502.118.502.12.812.097.451-.032.898-.063 1.354-.092.059-.004.137.02.196.035.128.034.237.091.374.105.137.015.296-.008.442-.02.47-.035.502-.049.816.077.265.104.593-.046.839.073.141.067.333.12.597.088.219-.027.447-.034.675-.05.36-.025.36-.023.816.092a.7.7 0 00.196.03c.301-.015.607-.028.899-.063.342-.04.56.033.816.104.2.055.437.01.652-.01.232-.019.442-.013.615.061.183.077.397.067.625.052.214-.013.433-.057.652-.004.469.119.469.119.811.096.301-.021.602-.044.903-.06.059-.003.132.021.192.039.127.034.237.091.374.105.136.013.296-.012.446-.021.151-.01.31-.038.447-.027s.265.06.374.101c.128.05.246.056.419.037.219-.025.447-.03.671-.044.123.036.251.072.369.113.123.042.255.038.424.024.561-.046.565-.04 1.035.079.214.053.438.01.652-.004.228-.015.442-.023.62.053.173.073.388.083.616.06a6.65 6.65 0 01.451-.03.718.718 0 01.201.02c.241.08.478.153.811.102.292.015.438.172.789.141.296-.027.606-.032.898-.067.269-.03.461.023.598.09.246.119.592-.042.839.075.141.066.323.12.597.091.301-.03.396.01.483.13.05.07.041.125-.05.178-.091.056-.192.046-.337-.017-.169-.07-.37-.084-.611-.069-.238.015-.383-.084-.579-.122-.197-.04-.429.027-.634-.025-.484-.12-.484-.12-.812-.098-.223.016-.456.023-.675.05-.259.033-.428-.027-.606-.08-.064-.02-.128-.056-.182-.054-.525.029-1.054.056-1.573.104-.274.024-.42-.044-.602-.092-.064-.017-.133-.052-.187-.048-.452.027-.898.061-1.35.094-.086.051-.182.101-.264.156-.087.058-.205.083-.379.08-.287 0-.57.081-.857-.02-.296-.104-.319-.098-.606-.073-.365.033-.753.025-1.095.1-.059.013-.123.05-.123.076-.004.017.092.042.151.057.2.046.433-.02.634.027.132.03.241.077.373.11a.914.914 0 00.21.009c.078-.002.151-.016.224-.014a.768.768 0 01.196.03c.251.074.515.14.738.227.219.084.424.026.643.022.876.134.876.136 1.464.094.146-.01.296-.02.447-.019.063 0 .123.034.187.053.182.058.355.11.611.079.218-.027.451-.033.674-.05.301-.02.301-.02.812.1.128.03.264.026.428.011a.701.701 0 01.388.07c.041.024.027.062.041.095-.451.03-.907.051-1.345.097-.283.029-.41-.053-.597-.097-.064-.016-.132-.048-.192-.044-.447.028-.893.06-1.34.099-.055.004-.123.048-.128.075-.009.05.105.097.269.095.219-.002.433-.034.629.044.164.069.37.1.611.069.146-.017.301-.017.447-.032.388-.046.739-.037 1.03.093.224.035.443.002.657-.015.16-.014.315-.027.429.01.241.076.478.152.811.1.36.054.634.167.935.259a.79.79 0 00.415.04c.068-.011.15-.011.223-.017.151-.01.31-.038.447-.027.137.014.251.069.374.103.059.018.128.046.187.044.228-.01.451-.028.675-.044l.67-.04.565.15a99.6 99.6 0 01.899-.062c.332-.023.332-.02.811.098.214.053.442.019.648-.006.341-.04.569.033.811.109.05.015.141.025.201.017.237-.027.442-.006.615.065.123.05.246.073.397.063.524-.036 1.049-.074 1.573-.107a.667.667 0 01.196.029c.465.116.47.122.811.092.306-.027.589-.039.83.067.05.023.128.055.183.053.374-.019.752-.04 1.121-.073a.961.961 0 01.42.035c.168.055.319.122.597.097.771-.07.775-.059 1.687.073.064.01.15-.006.223-.013a.873.873 0 01.406.051c.306.1.315.094.607.073.223-.017.456-.021.674-.05.338-.042.561.033.812.104.201.055.433.009.647-.008.233-.02.443-.014.616.06a.861.861 0 00.397.066c.524-.034 1.048-.073 1.573-.107a.769.769 0 01.2.025c.52.118.52.124 1.035.08.164-.013.301-.017.424.023.119.038.246.075.37.11.223-.012.451-.016.67-.04a.99.99 0 01.419.031c.174.052.319.142.593.098.141-.021.305-.015.447-.035a.757.757 0 01.415.04c.164.06.333.121.597.09.292-.034.602-.04.898-.066a.848.848 0 01.411.05c.164.062.351.103.606.078.52-.048.524-.039 1.03.082.128.03.265.027.429.011a.705.705 0 01.388.071c.095.061.086.1.095.132zM269.01 2.372c-.15.01-.301.021-.52-.145-.013-.029-.004-.063-.036-.088a.618.618 0 00-.324-.094c-.246-.008-.542.057-.538.107.005.042.082.079.233.113.064.013.114.036.173.052.173.044.31.13.561.086-.023-.06-.046-.119 0 0-.023.072.046.124.21.145a.427.427 0 00.15-.01c.141-.042.164-.099.059-.25-.018.025-.004.069.037.08a.506.506 0 00.191-.011c.128-.037.192-.084.16-.125-.018-.02-.105-.047-.16-.047-.095 0-.182.042-.196.187zm36.868 22.174c-.333.037-.716.023-1.049.098-.059.013-.118.048-.123.075-.005.017.087.042.141.055.123.03.26.021.42.011.241-.013.383.075.57.119a.772.772 0 00.2.02c.37-.024.734-.049 1.104-.075a.932.932 0 00.187-.037c.182-.055.164-.092-.014-.134-.196-.046-.351-.122-.552-.158-.287-.052-.579.017-.884.026zm-25.893 1.396l-.666.046c-.073.006-.15.008-.219.015a.526.526 0 00-.314.117c.105.05.232.078.374.073.223-.012.442-.037.665-.042.242-.008.383.078.57.122.059.013.132.015.201.017.337.008.542-.092.479-.231-.046-.11-.219-.174-.429-.16-.219.013-.442.028-.661.043zm27.452-4.222c.055-.032.114-.055.141-.084.083-.097.051-.17-.1-.246-.182-.094-.406-.031-.611-.021-.05.001-.105.042-.132.066-.018.018-.018.054.009.064.223.076.461.147.693.221zm-39.553-5.648c-.219.015-.442.027-.661.048a.287.287 0 00-.137.067c-.059.046.005.109.192.114.214.008.437-.024.661-.04.282-.019.451-.09.346-.15-.1-.06-.237-.071-.401-.039zM27.881 11.986c.146-.01.296-.017.442-.03a.527.527 0 00.31-.12.86.86 0 00-.383-.07c-.223.012-.442.027-.66.046-.138.011-.27.054-.302.119-.032.05.274.078.593.055zm220.721-.295c.06.018.119.052.178.052a3.2 3.2 0 00.433-.03.233.233 0 00.132-.07c.019-.017.014-.047-.013-.062-.132-.092-.661-.06-.748.046-.009.019.014.043.018.064zm-14.385-10.47c.014.03.019.061.037.092.036.057.137.1.282.128.114-.048.174-.101.169-.159a.25.25 0 00-.036-.092c-.037-.057-.137-.099-.283-.128-.114.046-.169.1-.169.159zm83.757 25.054c-.041.025-.082.05-.128.073.123.055.237.072.324.042.055-.02.087-.048.128-.073-.123-.055-.233-.07-.324-.042zm-2.836.26c.059.017.114.04.178.052.105.019.2-.014.273-.083-.059-.017-.114-.04-.177-.051a.31.31 0 00-.274.082zm1.796-.35c-.032.046.032.084.201.117.041-.025.096-.048.123-.075.046-.044-.032-.084-.196-.115-.046.023-.087.048-.128.073zm-9.625-2.061c-.031.046.032.084.201.117.041-.025.096-.048.123-.075.046-.044-.032-.084-.196-.115a1.991 1.991 0 00-.128.073zm-13.112-13.53c-.041.025-.083.05-.128.073.123.055.237.072.324.042.054-.02.086-.048.127-.073-.123-.055-.232-.07-.323-.042zm-12.562-7.178a.329.329 0 00.278-.084c-.059-.017-.114-.04-.177-.052a.31.31 0 00-.274.083l.173.053zm-6.67-.45c-.041.026-.082.05-.128.073.123.056.237.073.324.042.055-.019.087-.047.128-.072a.47.47 0 00-.324-.042zM229.731 1.22c-.041.025-.082.05-.128.073.123.055.237.072.324.042.055-.02.087-.048.128-.073a.47.47 0 00-.324-.042zM4.501 16.776a3.468 3.468 0 01-.174-.054c-.132.052-.173.1-.1.136.045.023.114.036.173.053.137-.051.168-.097.1-.135z" fill="#FFE492"/><path d="M30.946 10.024c-.525.037-1.044.083-1.569.106-.278.011-.378.093-.492.17-.091.06-.196.08-.365.091-1.422.094-2.84.194-4.258.291-.178-.025-.265-.065-.224-.113a.21.21 0 01.133-.072c.97-.071 1.937-.144 2.913-.2.278-.014.356-.099.497-.168.046-.022.082-.057.141-.07.06-.015.146-.014.224-.017 1.568-.11 3.137-.216 4.705-.325.178.024.264.065.223.112a.21.21 0 01-.132.073c-.602.04-1.199.08-1.796.122zm287.088 10.182c-.237.023-.538.056-.784-.055a.804.804 0 00-.402-.06c-.223.02-.451.035-.679.046a.709.709 0 01-.196-.036c-.128-.034-.237-.092-.374-.107s-.301.027-.442.017c-.187-.013-.264-.065-.214-.113a.254.254 0 01.141-.07c.844-.071.848-.071 1.085-.002.182.053.351.112.611.08.219-.027.451-.033.675-.05.31-.023.31-.02.811.1.128.03.265.028.429.011a.78.78 0 01.392.069.531.531 0 01-.319.118c-.228.02-.451.033-.734.052zm-8.396-.589c.574-.04 1.153-.074 1.728-.12.237-.02.424.002.588.067.178.07.378.065.597.051a.666.666 0 01.361.077c.036.02.027.06.041.09-.502.034-1.008.07-1.514.101a.618.618 0 01-.187-.03c-.123-.033-.228-.09-.36-.102-.283-.027-.566.025-.853.034a.717.717 0 01-.36-.076c-.037-.025-.028-.061-.041-.092zM102.025 3.177c.598-.042 1.195-.082 1.792-.125.178.027.26.065.224.113a.212.212 0 01-.133.073c-1.194.086-2.389.168-3.579.25-.178-.026-.26-.065-.223-.112a.21.21 0 01.132-.073c.593-.044 1.19-.084 1.787-.126zM9.988 13.802c-.269.004-.551.075-.852.021-.06-.01-.142-.04-.137-.057.009-.029.064-.065.123-.077.26-.048.584-.053.716-.187.064-.069.182-.092.342-.105a1.02 1.02 0 01.42.03c.173.052.318.148.592.098.014.03.046.065.032.093-.014.03-.073.056-.128.077a.726.726 0 01-.182.042c-.301.023-.602.042-.926.065zm237.129-.384c.223-.015.456-.023.674-.05a.858.858 0 01.42.038c.232.08.246.073.816.085a.39.39 0 01.178.055c.023.013-.009.05-.037.069a.329.329 0 01-.155.057c-.36.006-.725.119-1.076-.011a1.288 1.288 0 00-.615-.067 6.628 6.628 0 01-.452.032c-.146.008-.296-.013-.387-.07-.132-.084-.055-.117.182-.111.151.003.301-.018.452-.027zm82.634 13.18c.287-.019.574-.042.866-.057.059-.004.132.017.187.03.219.058.187.155.196.241.004.09-.502.163-.716.102-.237-.069-.451-.147-.78-.105a.587.587 0 01-.36-.075c-.123-.08-.055-.113.178-.107.137.004.283-.017.429-.029zM184.999.573c.297-.021.593-.053.889-.055.173-.002.26.06.219.107a.21.21 0 01-.132.072c-.593.046-1.186.084-1.778.127-.174-.027-.26-.067-.219-.113a.218.218 0 01.132-.073c.296-.027.593-.044.889-.065zm139.068 19.801c.287-.019.579-.048.866-.057.15-.004.269.04.287.09.009.023-.064.063-.123.072-.41.065-.853.073-1.281.106a.645.645 0 01-.365-.075c-.123-.082-.055-.113.178-.107.146.002.292-.02.438-.029zm-69.419-6.698c.146-.01.296-.034.438-.027.15.01.246.066.291.121.051.063.046.122 0 .176-.072.092-.146.088-.314.027-.26-.096-.278-.085-.794-.08a.414.414 0 01-.177-.054c-.069-.038-.032-.098.127-.132.119-.025.283-.021.429-.03z" fill="#FFE492"/><path d="M313.382 19.747c.215-.015.429-.04.643-.04.151-.002.269.042.283.09.004.023-.064.06-.119.072-.26.052-.551.056-.834.073a.652.652 0 01-.36-.077c-.123-.08-.05-.116.173-.105.068.004.141-.007.214-.013zm-33.725-2.346c-.319.023-.62-.006-.597-.055.032-.065.164-.108.301-.119.219-.02.438-.034.661-.046a.835.835 0 01.383.07.537.537 0 01-.31.12c-.141.013-.292.02-.438.03zm-2.094-.245c.214-.015.428-.04.643-.04.15-.002.269.042.282.09.005.023-.063.061-.118.073-.26.051-.552.055-.834.073a.655.655 0 01-.361-.077c-.123-.08-.05-.117.174-.105.068.004.141-.008.214-.014zm-25.498-3.496c.214-.014.428-.04.642-.041.151-.002.269.042.283.09.005.023-.064.059-.118.072-.26.052-.552.056-.835.073a.652.652 0 01-.36-.077c-.123-.08-.05-.116.173-.105.069.004.142-.007.215-.011z" fill="#FFE492"/><path d="M250.863 13.548c.228-.015.301-.025.374-.025.137 0 .278.023.361.079.123.08.05.103-.174.107-.287.004-.57.044-.857.052-.15.003-.269-.042-.278-.09-.005-.023.064-.063.118-.071.192-.029.402-.046.456-.052zM275.707 2.3c-.146.009-.301.036-.438.026-.182-.013-.255-.065-.209-.113a.24.24 0 01.132-.07c.292-.027.588-.044.88-.063.173.028.251.068.205.116a.257.257 0 01-.132.071c-.142.02-.292.023-.438.032zM98.757 3.403a.91.91 0 01.379.07.55.55 0 01-.306.119 2.65 2.65 0 01-.218.015.882.882 0 01-.379-.07.565.565 0 01.305-.12c.069-.007.147-.009.22-.014zm223.751 16.964c-.005-.056.274-.119.524-.117a.701.701 0 01.347.08c.118.079.05.11-.174.104-.136-.004-.282.028-.419.023-.155-.002-.246-.044-.278-.09zm-66.537-6.46c-.004-.02-.027-.046-.013-.065.086-.105.611-.137.747-.046.023.018.032.046.014.064a.252.252 0 01-.132.068c-.142.02-.287.03-.433.031-.064 0-.123-.032-.183-.052zm-244.358-.41c-.538.04-.547.036-.451-.06.086-.086.246-.137.479-.137.068 0 .14-.004.2.004.064.01.155.028.169.051.027.044-.05.092-.187.124-.06.016-.137.012-.21.018zM105.49 3.133c-.159.032-.296.02-.396-.04-.101-.061.059-.134.337-.151.073-.004.15-.02.219-.012a.477.477 0 01.178.052c.073.038.027.09-.119.134-.059.017-.146.013-.219.017zm216.067 17.09c.041-.025.082-.05.127-.073.169.033.242.071.196.115-.027.027-.082.05-.123.075-.168-.033-.237-.073-.2-.117zM18.835 35.263c0-.023.064-.059.114-.066a.463.463 0 01.296.066c.114.077.046.117-.164.096-.145-.015-.246-.053-.246-.096zm238.991-23.136c.059.018.118.035.173.054a.31.31 0 01-.274.082c-.063-.011-.118-.034-.177-.051a.329.329 0 01.278-.085zm-1.576-.086c.091-.028.2-.013.328.043-.041.024-.078.053-.128.072-.086.03-.2.015-.324-.042a2.36 2.36 0 01.124-.073zm-1.209.085c.059.017.119.035.173.054a.305.305 0 01-.273.082c-.064-.012-.119-.035-.178-.052.077-.07.169-.1.278-.084zm-.89-.102c.068.039.032.085-.101.136-.059-.017-.127-.03-.173-.053-.073-.037-.036-.084.1-.136.055.019.114.036.174.053z" fill="#FFE492"/></svg>