<svg width="18" height="20" viewBox="0 0 18 20" fill="none" xmlns="http://www.w3.org/2000/svg">
<path d="M9 0C10.0609 0 11.0783 0.421427 11.8284 1.17157C12.5786 1.92172 13 2.93913 13 4H15.035C15.5532 3.99993 16.0512 4.20099 16.4241 4.56081C16.7969 4.92064 17.0156 5.41114 17.034 5.929L17.462 17.929C17.4715 18.1974 17.4269 18.4649 17.3308 18.7157C17.2347 18.9665 17.0891 19.1953 16.9026 19.3886C16.7162 19.5819 16.4927 19.7356 16.2455 19.8407C15.9984 19.9457 15.7326 19.9999 15.464 20H2.536C2.26745 19.9999 2.00166 19.9457 1.75449 19.8407C1.50733 19.7356 1.28385 19.5819 1.09739 19.3886C0.910927 19.1953 0.7653 18.9665 0.669193 18.7157C0.573087 18.4649 0.52847 18.1974 0.538004 17.929L0.966004 5.929C0.984399 5.41114 1.20307 4.92064 1.57595 4.56081C1.94884 4.20099 2.44682 3.99993 2.965 4H5C5 2.93913 5.42143 1.92172 6.17158 1.17157C6.92172 0.421427 7.93914 0 9 0ZM5 6H2.965L2.536 18H15.464L15.035 6H13V7C12.9997 7.25488 12.9021 7.50003 12.7272 7.68537C12.5522 7.8707 12.3131 7.98224 12.0586 7.99717C11.8042 8.01211 11.5536 7.92933 11.3582 7.76574C11.1627 7.60215 11.0371 7.3701 11.007 7.117L11 7V6H7V7C6.99972 7.25488 6.90212 7.50003 6.72716 7.68537C6.55219 7.8707 6.31305 7.98224 6.05861 7.99717C5.80417 8.01211 5.55362 7.92933 5.35817 7.76574C5.16272 7.60215 5.03711 7.3701 5.007 7.117L5 7V6ZM9 2C8.49543 1.99984 8.00944 2.19041 7.63946 2.5335C7.26947 2.87659 7.04285 3.34684 7.005 3.85L7 4H11C11 3.46957 10.7893 2.96086 10.4142 2.58579C10.0391 2.21071 9.53044 2 9 2Z" fill="#5C5C5E"/>
</svg>
