<?xml version="1.0" encoding="utf-8"?>
<svg xmlns="http://www.w3.org/2000/svg" xmlns:xlink="http://www.w3.org/1999/xlink" style="margin: auto; background: none; display: block; shape-rendering: auto;" width="40px" height="40px" viewBox="0 0 100 100" preserveAspectRatio="xMidYMid">
<g transform="rotate(0 50 50)">
  <rect x="48" y="7.5" rx="2" ry="7.5" width="4" height="25" fill="#ff54a6">
    <animate attributeName="opacity" values="1;0" keyTimes="0;1" dur="0.6578947368421053s" begin="-0.6030701754385964s" repeatCount="indefinite"></animate>
  </rect>
</g><g transform="rotate(30 50 50)">
  <rect x="48" y="7.5" rx="2" ry="7.5" width="4" height="25" fill="#ff54a6">
    <animate attributeName="opacity" values="1;0" keyTimes="0;1" dur="0.6578947368421053s" begin="-0.5482456140350876s" repeatCount="indefinite"></animate>
  </rect>
</g><g transform="rotate(60 50 50)">
  <rect x="48" y="7.5" rx="2" ry="7.5" width="4" height="25" fill="#ff54a6">
    <animate attributeName="opacity" values="1;0" keyTimes="0;1" dur="0.6578947368421053s" begin="-0.49342105263157887s" repeatCount="indefinite"></animate>
  </rect>
</g><g transform="rotate(90 50 50)">
  <rect x="48" y="7.5" rx="2" ry="7.5" width="4" height="25" fill="#ff54a6">
    <animate attributeName="opacity" values="1;0" keyTimes="0;1" dur="0.6578947368421053s" begin="-0.43859649122807015s" repeatCount="indefinite"></animate>
  </rect>
</g><g transform="rotate(120 50 50)">
  <rect x="48" y="7.5" rx="2" ry="7.5" width="4" height="25" fill="#ff54a6">
    <animate attributeName="opacity" values="1;0" keyTimes="0;1" dur="0.6578947368421053s" begin="-0.3837719298245614s" repeatCount="indefinite"></animate>
  </rect>
</g><g transform="rotate(150 50 50)">
  <rect x="48" y="7.5" rx="2" ry="7.5" width="4" height="25" fill="#ff54a6">
    <animate attributeName="opacity" values="1;0" keyTimes="0;1" dur="0.6578947368421053s" begin="-0.3289473684210526s" repeatCount="indefinite"></animate>
  </rect>
</g><g transform="rotate(180 50 50)">
  <rect x="48" y="7.5" rx="2" ry="7.5" width="4" height="25" fill="#ff54a6">
    <animate attributeName="opacity" values="1;0" keyTimes="0;1" dur="0.6578947368421053s" begin="-0.2741228070175438s" repeatCount="indefinite"></animate>
  </rect>
</g><g transform="rotate(210 50 50)">
  <rect x="48" y="7.5" rx="2" ry="7.5" width="4" height="25" fill="#ff54a6">
    <animate attributeName="opacity" values="1;0" keyTimes="0;1" dur="0.6578947368421053s" begin="-0.21929824561403508s" repeatCount="indefinite"></animate>
  </rect>
</g><g transform="rotate(240 50 50)">
  <rect x="48" y="7.5" rx="2" ry="7.5" width="4" height="25" fill="#ff54a6">
    <animate attributeName="opacity" values="1;0" keyTimes="0;1" dur="0.6578947368421053s" begin="-0.1644736842105263s" repeatCount="indefinite"></animate>
  </rect>
</g><g transform="rotate(270 50 50)">
  <rect x="48" y="7.5" rx="2" ry="7.5" width="4" height="25" fill="#ff54a6">
    <animate attributeName="opacity" values="1;0" keyTimes="0;1" dur="0.6578947368421053s" begin="-0.10964912280701754s" repeatCount="indefinite"></animate>
  </rect>
</g><g transform="rotate(300 50 50)">
  <rect x="48" y="7.5" rx="2" ry="7.5" width="4" height="25" fill="#ff54a6">
    <animate attributeName="opacity" values="1;0" keyTimes="0;1" dur="0.6578947368421053s" begin="-0.05482456140350877s" repeatCount="indefinite"></animate>
  </rect>
</g><g transform="rotate(330 50 50)">
  <rect x="48" y="7.5" rx="2" ry="7.5" width="4" height="25" fill="#ff54a6">
    <animate attributeName="opacity" values="1;0" keyTimes="0;1" dur="0.6578947368421053s" begin="0s" repeatCount="indefinite"></animate>
  </rect>
</g>
<!-- [ldio] generated by https://loading.io/ --></svg>