<svg width="582" height="472" fill="none" xmlns="http://www.w3.org/2000/svg"><circle cx="284.764" cy="180.016" r="144.5" stroke="#4F9CF9" stroke-width="2" stroke-dasharray="15 15"/><circle cx="181.875" cy="325.516" r="144.5" stroke="#4F9CF9" stroke-width="2" stroke-dasharray="15 15"/><circle cx="400.125" cy="325.516" r="144.5" stroke="#4F9CF9" stroke-width="2" stroke-dasharray="15 15"/><circle cx="429.225" cy="183.134" r="36.375" fill="#fff"/><g clip-path="url(#clip0_9_2589)"><path d="M423.379 184.413a4.572 4.572 0 00-4.567 4.567v11.412a4.572 4.572 0 004.567 4.567 4.572 4.572 0 004.567-4.567V188.98a4.571 4.571 0 00-4.567-4.567zm-7.122 0h-4.422a4.426 4.426 0 00-4.421 4.421 4.426 4.426 0 004.421 4.421 4.427 4.427 0 004.422-4.421v-4.421z" fill="#FF4340"/><path d="M407.4 177.288a4.572 4.572 0 004.567 4.567h11.413a4.572 4.572 0 004.567-4.567 4.572 4.572 0 00-4.567-4.567h-11.413a4.572 4.572 0 00-4.567 4.567zm16.127-7.124h4.421v-4.422a4.426 4.426 0 00-4.421-4.421 4.427 4.427 0 00-4.422 4.421 4.427 4.427 0 004.422 4.422z" fill="#36C6FF"/><path d="M435.071 181.855a4.572 4.572 0 004.567-4.567v-11.412a4.572 4.572 0 00-4.567-4.567 4.571 4.571 0 00-4.567 4.567v11.412a4.572 4.572 0 004.567 4.567zm7.124 0h4.422a4.426 4.426 0 004.421-4.421 4.426 4.426 0 00-4.421-4.421 4.427 4.427 0 00-4.422 4.421v4.421z" fill="#0DC46E"/><path d="M451.05 188.98a4.572 4.572 0 00-4.567-4.567h-11.412a4.571 4.571 0 00-4.567 4.567 4.572 4.572 0 004.567 4.567h11.412a4.572 4.572 0 004.567-4.567zm-16.125 7.124h-4.421v4.421a4.427 4.427 0 004.421 4.422 4.427 4.427 0 004.421-4.422 4.426 4.426 0 00-4.421-4.421z" fill="#FDCB02"/></g><circle cx="36.375" cy="314.084" r="36.375" fill="#fff"/><g clip-path="url(#clip1_9_2589)"><path d="M56.835 301.808H37.738a1.364 1.364 0 000 2.728H52.86l-8.38 6.517-6.01-3.822-1.463 2.303 6.82 4.338a1.364 1.364 0 001.57-.074l10.074-7.838v17.673H37.738a1.364 1.364 0 000 2.728h19.097c.753 0 1.364-.611 1.364-1.364v-21.825c0-.753-.61-1.364-1.364-1.364z" fill="#1976D2"/><path d="M38.61 293.937a1.34 1.34 0 00-1.122-.289l-21.825 4.092a1.36 1.36 0 00-1.113 1.34v30.009c0 .655.466 1.22 1.113 1.34l21.825 4.092a1.362 1.362 0 001.615-1.34v-38.193c0-.407-.18-.791-.494-1.051z" fill="#2196F3"/><path d="M26.827 323.633c-3.759 0-6.82-3.672-6.82-8.185 0-4.512 3.061-8.184 6.82-8.184 3.76 0 6.82 3.672 6.82 8.184 0 4.513-3.06 8.185-6.82 8.185zm0-13.641c-2.256 0-4.092 2.447-4.092 5.456 0 3.009 1.836 5.457 4.092 5.457 2.256 0 4.092-2.448 4.092-5.457s-1.835-5.456-4.092-5.456z" fill="#FAFAFA"/></g><circle cx="545.625" cy="314.084" r="36.375" fill="#fff"/><g clip-path="url(#clip2_9_2589)"><path d="M545.586 306.048l-9.059 15.713h-.025l5.246 6.398-11.772 4.939a1.34 1.34 0 01-.512-.486l-5.528-10.237c-.281-.563-.051-.998.026-1.254l14.817-25.591a1.53 1.53 0 01.461-.436h.025l7.601 2.355-1.28 8.599z" fill="#59C36A"/><path d="M567.45 321.761l-10.263 6.398-2.431-6.398-9.17-15.713-6.321-10.953c.179-.128.409-.205.614-.205h11.499c.256.077.768.051 1.101.64l14.817 25.591c.102.179.154.41.154.64z" fill="#FFDA2D"/><path d="M552.48 295.531c-.333-.589-.845-.563-1.101-.64h-5.792v11.158l9.17 15.713 2.432 6.398 10.262-6.398c0-.231-.052-.461-.154-.64l-14.817-25.591z" fill="#FDBF00"/><path d="M567.45 321.761c0 .23-.051.461-.128.614l-5.528 10.237c-.205.332-.691.665-1.126.665H530.59c-.205 0-.435-.077-.614-.179l6.526-11.337h30.948z" fill="#4086F4"/><path d="M545.587 333.277h15.082c.435 0 .921-.333 1.126-.665l5.528-10.237a1.45 1.45 0 00.128-.614h-21.864v11.516z" fill="#4175DF"/></g><circle cx="139.264" cy="183.134" r="36.375" fill="#fff"/><g clip-path="url(#clip3_9_2589)" fill="#0093EB"><path d="M126.013 193.968v-3.508l5.924 3.43 7.327-6.859v15.589l-13.251-8.652z"/><path d="M118.921 184.693l7.717-7.015 12.627 7.794-7.327 6.86-13.017-7.639zm7.716-7.016l-9.198-7.015 13.251-7.015 9.353 6.236-13.406 7.794zm25.877 16.369l-13.251 8.574v-15.589l7.561 6.547 5.69-3.585v4.053z"/><path d="M146.824 192.019l-7.561-6.547 12.705-8.107 7.639 6.548-12.783 8.106z"/><path d="M151.968 177.366l-11.926-7.483 9.354-6.236 11.692 7.015-9.12 6.704z"/></g><circle cx="291" cy="416.973" r="36.375" fill="#fff"/><g clip-path="url(#clip4_9_2589)"><path d="M308.938 408.107h-35.806a1.278 1.278 0 01-1.279-1.279v-7.844a3.84 3.84 0 013.836-3.836h30.692a3.84 3.84 0 013.836 3.836v7.844c0 .707-.572 1.279-1.279 1.279z" fill="#E3E7EA"/><path d="M306.38 395.148h-15.345v12.959h17.903c.707 0 1.279-.572 1.279-1.279v-7.844a3.84 3.84 0 00-3.837-3.836z" fill="#BABAC0"/><path d="M271.804 422.173v-.003l-2.544-12.12c-.179-1.151.128-2.302.844-3.146a3.859 3.859 0 012.941-1.355h35.91c1.125 0 2.199.486 2.941 1.355a3.86 3.86 0 01.844 3.095l-2.544 12.177 2.544 12.12c.179 1.151-.128 2.302-.844 3.146a3.857 3.857 0 01-2.941 1.356h-35.91a3.857 3.857 0 01-2.941-1.356 3.859 3.859 0 01-.844-3.094l2.544-12.175z" fill="#4086F4"/><path d="M271.804 422.17v.003h38.392l2.544-12.174a3.86 3.86 0 00-.844-3.095 3.859 3.859 0 00-2.941-1.355h-35.91a3.859 3.859 0 00-2.941 1.355c-.716.844-1.023 1.995-.844 3.146l2.544 12.12z" fill="#4175DF"/><path d="M278.212 402.821a1.28 1.28 0 10-.001-2.559 1.28 1.28 0 00.001 2.559z" fill="#FFF5F5"/><path d="M303.788 402.821a1.28 1.28 0 10-.001-2.559 1.28 1.28 0 00.001 2.559z" fill="#E3E7EA"/><path d="M285.885 431.125a5.122 5.122 0 01-4.823-3.411 1.278 1.278 0 112.41-.851 2.564 2.564 0 002.413 1.704 2.56 2.56 0 002.557-2.557 2.561 2.561 0 00-2.557-2.558h-1.59a1.279 1.279 0 110-2.557h1.59a2.561 2.561 0 002.557-2.558 2.561 2.561 0 00-2.557-2.558 2.565 2.565 0 00-2.413 1.705 1.276 1.276 0 01-1.631.779 1.277 1.277 0 01-.78-1.631 5.125 5.125 0 014.824-3.41 5.12 5.12 0 015.115 5.115 5.103 5.103 0 01-1.736 3.836A5.105 5.105 0 01291 426.01a5.12 5.12 0 01-5.115 5.115z" fill="#FFF5F5"/><path d="M281.841 418.263a1.276 1.276 0 001.631-.779 2.565 2.565 0 012.413-1.705 2.561 2.561 0 012.557 2.558 2.561 2.561 0 01-2.557 2.558h-1.59c-.706 0-1.279.571-1.279 1.278h6.248a5.103 5.103 0 001.736-3.836 5.12 5.12 0 00-5.115-5.115 5.123 5.123 0 00-4.823 3.41 1.275 1.275 0 00.779 1.631z" fill="#E3E7EA"/><path d="M298.674 431.125a1.278 1.278 0 01-1.279-1.279v-12.957l-1.848 1.233a1.278 1.278 0 11-1.419-2.128l3.836-2.558a1.28 1.28 0 011.989 1.064v15.346c0 .707-.572 1.279-1.279 1.279z" fill="#FFF5F5"/><path d="M295.547 418.122l1.848-1.232v5.283h2.558v-7.672a1.279 1.279 0 00-1.989-1.064l-3.836 2.557a1.28 1.28 0 101.419 2.128z" fill="#E3E7EA"/></g><circle cx="287.882" cy="36.595" r="36.375" fill="#fff"/><g clip-path="url(#clip5_9_2589)"><path d="M304.252 20.226h-32.738v32.737h32.738V20.226z" fill="#ECEFF1"/><path d="M287.882 40.038l16.368 12.926v-25.52l-16.368 12.594z" fill="#CFD8DC"/><path d="M305.615 20.226h-1.364l-16.369 12.926-16.368-12.926h-1.365a4.094 4.094 0 00-4.092 4.092v24.553a4.094 4.094 0 004.092 4.093h1.365v-25.52l16.368 12.591 16.369-12.593v25.522h1.364a4.093 4.093 0 004.092-4.093V24.318a4.093 4.093 0 00-4.092-4.092z" fill="#F44336"/></g><circle cx="289.961" cy="278.748" r="51.964" fill="#fff"/><path d="M265 266.401v9.081c0 2.766 3.454 4.241 5.565 2.305l10.076-9.081c2.207-1.983.767-5.486-2.255-5.486H268.31c-1.823 0-3.31 1.429-3.31 3.181zm47.69-3.181h-10.076c-2.974 0-4.462 3.503-2.255 5.486l10.076 9.081c2.111 1.89 5.565.461 5.565-2.305v-9.081c0-1.752-1.487-3.181-3.31-3.181zm-19.911 22.173l17.656 15.951c2.111 1.89 5.565.461 5.565-2.305v-9.174c0-.876-.384-1.706-1.056-2.305l-22.165-20.053a3.435 3.435 0 00-4.558 0l-22.165 20.053a3.086 3.086 0 00-1.056 2.305v9.174c0 2.766 3.454 4.241 5.565 2.305l17.656-15.951a3.438 3.438 0 014.558 0z" fill="#5986EF"/><defs><clipPath id="clip0_9_2589"><path fill="#fff" transform="translate(407.4 161.309)" d="M0 0h43.65v43.65H0z"/></clipPath><clipPath id="clip1_9_2589"><path fill="#fff" transform="translate(14.55 292.259)" d="M0 0h43.65v43.65H0z"/></clipPath><clipPath id="clip2_9_2589"><path fill="#fff" transform="translate(523.8 292.259)" d="M0 0h43.65v43.65H0z"/></clipPath><clipPath id="clip3_9_2589"><path fill="#fff" transform="translate(117.439 161.309)" d="M0 0h43.65v43.65H0z"/></clipPath><clipPath id="clip4_9_2589"><path fill="#fff" transform="translate(269.175 395.148)" d="M0 0h43.65v43.65H0z"/></clipPath><clipPath id="clip5_9_2589"><path fill="#fff" transform="translate(266.057 14.77)" d="M0 0h43.65v43.65H0z"/></clipPath></defs></svg>