<svg width="1920" height="548" fill="none" xmlns="http://www.w3.org/2000/svg"><g opacity=".3" fill="#FFE492"><path d="M648.673 547.273c-9.471 0-18.69-.447-27.549-1.338-18.581-1.871-35.746-5.713-51.022-11.419-16.418-6.13-30.818-14.485-42.803-24.829-24.087-20.791-36.138-45.691-47.793-69.771-2.29-4.729-4.657-9.618-7.061-14.362-16.4-32.333-37.19-60.656-63.553-86.586-52.589-51.725-126.548-95.868-213.883-127.658-101.003-36.763-209.597-55.076-305.781-51.565-56.532 2.065-131.227 21.699-164.61 55.23-19.811 19.9-21.409 41.984-4.617 63.861l-.333.093c-8.805-11.474-12.641-22.976-11.399-34.187 1.14-10.285 6.533-20.339 16.034-29.881 15.11-15.179 40.029-28.631 72.064-38.905 29.601-9.492 62.57-15.328 92.839-16.433 50.336-1.836 103.871 2.239 159.117 12.114 50.08 8.953 99.497 22.236 146.876 39.481 87.387 31.808 161.39 75.975 214.009 127.731 26.377 25.948 47.178 54.286 63.589 86.637 2.407 4.744 4.774 9.635 7.06 14.363 11.645 24.063 23.688 48.945 47.743 69.706 23.262 20.081 54.751 32.246 93.586 36.155 53.78 5.416 119.088-5.91 174.693-30.299 80.132-35.145 135.745-86.3 189.529-135.768 9.428-8.672 19.172-17.638 28.822-26.296 25.06-22.482 58.99-51.615 99.32-77.568 41.22-26.529 83.1-46.02 128.05-59.589 27.52-8.305 56.68-13.901 86.67-16.631 27.7-2.523 57.03-2.679 87.16-.469 51.68 3.793 107.35 14.507 170.21 32.752 123.78 35.928 247.41 79.537 367.48 129.617 114.13 47.6 226.06 101.463 332.68 160.087l-.25.163c-221.02-121.526-456.56-218.984-700.07-289.669-137.57-39.935-246.79-44.91-343.71-15.654-98.6 29.762-167.48 83.473-227.23 137.083-9.65 8.655-19.397 17.621-28.824 26.292-53.799 49.487-109.43 100.657-189.617 135.826-25.912 11.366-55.063 20.23-84.298 25.635-15.444 2.855-30.796 4.722-45.635 5.549-5.914.337-11.751.502-17.493.502z"/><path d="M657.934 534.943c-24.153 0-46.526-2.762-66.52-8.215-22.296-6.08-41.536-15.502-57.188-28.001a129.023 129.023 0 01-4.086-3.406c-23.831-20.701-36.417-45.277-48.585-69.045-2.462-4.803-5.005-9.772-7.584-14.593-15.364-28.705-33.863-54.006-56.562-77.342a362.14 362.14 0 00-8.61-8.557c-53.363-51.28-127.922-94.865-215.617-126.042C91.45 163.606-17.452 146.051-113.464 150.31c-56.122 2.516-130.472 22.472-163.998 55.745-20.075 19.925-22.347 42.052-6.577 63.993l-.337.088c-8.266-11.499-11.662-23.024-10.09-34.248 1.443-10.309 7.056-20.385 16.689-29.947 15.264-15.152 40.11-28.62 71.844-38.947 29.331-9.545 62.157-15.548 92.436-16.904 50.274-2.23 103.868 1.455 159.29 10.952 50.2 8.603 99.852 21.56 147.572 38.51 87.746 31.196 162.346 74.807 215.742 126.116a360.664 360.664 0 018.614 8.563c22.713 23.352 41.224 48.665 56.594 77.386 2.583 4.821 5.126 9.789 7.588 14.595 12.165 23.753 24.74 48.311 48.538 68.984a130.103 130.103 0 004.078 3.399c32.346 25.837 76.79 36.348 123.528 36.348h.766c-.293-.002-.586 0-.879 0zm9.97-.154c43.451-1.34 88.288-11.372 126.753-26.295 82.972-32.322 142.604-82.245 200.275-130.522 2.375-1.99 4.749-3.976 7.128-5.962 5.21-4.358 11.39-9.518 17.7-14.72 28.3-23.328 62.56-50.47 102.01-74.901 41.97-25.996 83.91-45.286 128.2-58.976 27.21-8.403 55.97-14.322 85.47-17.593 27.34-3.032 56.23-3.888 85.86-2.547 51.19 2.318 106.23 11.105 168.27 26.867 60.49 15.343 110.21 29.787 156.48 45.454 65.54 22.216 127.97 47.813 180.4 69.921 121.89 51.547 241.48 110.078 355.46 173.97l-.25.161c-113.97-63.883-233.55-122.41-355.42-173.951-52.42-22.105-114.84-47.698-180.37-69.908-46.25-15.662-95.96-30.101-156.44-45.44-135.14-34.337-242.96-36.479-339.29-6.736-99.99 30.902-171.19 85.274-230.08 133.811-6.32 5.202-12.49 10.36-17.71 14.721a8352.125 8352.125 0 00-7.121 5.961c-57.69 48.293-117.344 98.233-200.374 130.579-20.588 7.987-42.496 14.331-65.117 18.855-21.057 4.207-41.814 6.639-61.834 7.251z"/><path d="M668.145 522.896c-2.905 0-5.793-.038-8.658-.115-24.131-.64-46.463-3.967-66.374-9.89-21.775-6.479-40.641-16.075-56.07-28.523a141.022 141.022 0 01-4.056-3.41c-23.564-20.6-36.673-44.848-49.347-68.295-2.642-4.887-5.375-9.941-8.145-14.846-16.122-28.608-35.109-53.706-58.053-76.728a374.073 374.073 0 00-8.743-8.484c-54.136-50.833-129.296-93.859-217.349-124.424-102.457-35.508-211.667-52.309-307.511-47.301-53.963 2.864-128.098 21.681-163.346 56.225-20.364 19.957-23.328 42.145-8.573 64.163l-.341.081c-7.731-11.535-10.681-23.085-8.775-34.33 1.751-10.342 7.599-20.444 17.378-30.029 15.426-15.116 40.191-28.588 71.621-38.963 29.055-9.592 61.731-15.758 92.003-17.365 50.216-2.621 103.868.672 159.462 9.79 50.326 8.255 100.208 20.884 148.265 37.539 88.105 30.586 163.305 73.635 217.474 124.498a366.487 366.487 0 018.746 8.49c22.955 23.035 41.953 48.148 58.082 76.772 2.77 4.907 5.504 9.961 8.145 14.848 12.671 23.434 25.77 47.664 49.304 68.24a134.03 134.03 0 004.048 3.403c62.695 50.583 173.803 45.152 256.101 17.334 86.434-29.474 150.668-78.461 212.787-125.834l.64-.486c6.01-4.592 12.24-9.338 18.43-14.025 65.34-49.442 137.16-100.254 233.04-130.6 26.92-8.501 55.29-14.744 84.3-18.555 26.98-3.544 55.44-5.1 84.56-4.625 50.78.828 105.18 7.692 166.32 20.984 64.25 13.919 112.61 26.713 156.78 41.486 62.94 21.091 123.9 47.743 177.69 71.258 119.76 52.636 237.53 111.932 350.05 176.235l-.26.159c-112.5-64.297-230.26-123.586-350.01-176.218-53.78-23.51-114.73-50.158-177.65-71.242-44.16-14.769-92.49-27.559-156.72-41.474-132.53-28.811-238.94-28.118-334.89 2.184-95.82 30.326-167.61 81.115-232.93 130.54-6.19 4.687-12.41 9.435-18.43 14.025l-.63.486c-30.961 23.608-62.969 48.018-97.536 69.823-38.846 24.503-76.582 42.842-115.365 56.066-40.576 13.714-84.775 21.133-125.464 21.133z"/><path d="M2273.89 515.497c-111.04-64.711-226.98-124.761-344.6-178.483-4.98-2.259-9.97-4.528-14.98-6.805-50.94-23.162-103.62-47.113-159.95-65.771-54.65-18.052-110.04-29.089-157.01-37.505-129.66-23.374-234.66-19.845-330.47 11.102-98.34 31.862-174.55 84.762-235.78 127.271-3.67 2.551-7.34 5.107-11.01 7.665-2.72 1.888-5.43 3.777-8.15 5.664-34.859 24.228-66.572 45.889-101.611 65.655-40.029 22.579-78.611 39.116-117.959 50.556-36.875 10.723-76.267 16.396-112.907 16.398-6.676 0-13.253-.187-19.716-.568-23.596-1.389-45.441-5.292-64.927-11.601-21.262-6.884-39.754-16.662-54.971-29.065a143.635 143.635 0 01-4.027-3.416c-23.285-20.492-36.904-44.399-50.072-67.518-2.836-4.979-5.771-10.13-8.739-15.129-16.891-28.519-36.369-53.416-59.54-76.116a378 378 0 00-8.875-8.412c-54.912-50.387-130.67-92.853-219.079-122.809-103.182-34.88-212.696-50.921-308.371-45.171-65.407 4.008-132.29 27.312-162.65 56.667-20.683 19.999-24.351 42.257-10.614 64.367l-.345.077c-7.192-11.577-9.699-23.162-7.449-34.435 2.07-10.38 8.16-20.515 18.097-30.126 15.586-15.073 40.271-28.545 71.386-38.957 28.777-9.631 61.284-15.958 91.538-17.811 50.157-3.016 103.864-.113 159.63 8.627A903.28 903.28 0 01189.7 176.417c88.465 29.973 164.262 72.464 219.208 122.881a378.621 378.621 0 018.878 8.416c23.186 22.713 42.671 47.624 59.573 76.156 2.968 5.001 5.903 10.15 8.739 15.132 13.161 23.105 26.773 46.996 50.028 67.464a147.558 147.558 0 004.02 3.41c65.45 53.348 176.694 46.684 252.066 24.77 89.926-26.148 158.741-73.966 219.458-116.157 2.71-1.888 5.43-3.777 8.14-5.664 3.67-2.558 7.34-5.113 11.02-7.665 34.95-24.263 69.46-47.842 107.41-69.569 43.63-24.988 85.66-43.877 128.47-57.75 26.64-8.605 54.6-15.172 83.11-19.515 26.65-4.062 54.66-6.316 83.27-6.703 50.45-.683 104.22 4.257 164.37 15.099 46.99 8.42 102.4 19.462 157.08 37.524 56.35 18.665 109.04 42.623 160 65.79 5 2.276 10 4.545 14.98 6.804 117.62 53.726 233.58 113.783 344.63 178.501l-.26.156z"/><path d="M2270.01 513.423c-111.68-66.362-225.79-127.176-339.19-180.751-6.78-3.205-13.72-6.509-20.44-9.703-48.07-22.877-97.78-46.532-151.77-64.207-53.92-17.587-109.77-26.823-157.3-33.538-126.5-18.044-230.11-11.682-326.05 20.022-91.51 30.35-163.21 75.988-232.54 120.123l-7.62 4.845c-6.01 3.828-12.23 7.784-18.36 11.665-69.4 43.882-138.877 85.01-225.608 106.046a432.401 432.401 0 01-64.238 10.52c-23.175 2.014-45.686 2.043-66.912.084-23.054-2.129-44.404-6.6-63.457-13.29-20.735-7.28-38.857-17.237-53.858-29.591a152.546 152.546 0 01-3.997-3.423c-22.999-20.371-37.109-43.925-50.754-66.705-3.045-5.083-6.196-10.34-9.376-15.445-17.676-28.43-37.637-53.127-61.028-75.501a381.45 381.45 0 00-9.007-8.339c-55.685-49.94-132.04-91.847-220.812-121.193C83.781 130.793-26.04 115.507-121.55 122.003c-64.81 4.502-131.389 27.968-161.903 57.068-21.027 20.05-25.421 42.394-12.706 64.616l-.349.073c-6.653-11.628-8.709-23.257-6.111-34.564 2.396-10.423 8.739-20.598 18.851-30.239 15.756-15.023 40.352-28.482 71.137-38.925 28.492-9.666 60.823-16.144 91.037-18.245 50.098-3.407 103.86-.896 159.802 7.465 50.571 7.56 100.922 19.535 149.657 35.598 88.824 29.362 165.222 71.295 220.941 121.264a388.072 388.072 0 019.01 8.343c23.405 22.385 43.378 47.096 61.061 75.541 3.18 5.105 6.331 10.364 9.376 15.447 13.637 22.767 27.74 46.31 50.714 66.657a162.5 162.5 0 003.99 3.417c63.875 52.605 170.007 51.128 248.032 32.203 86.662-21.018 156.109-62.131 225.481-105.993a7708.09 7708.09 0 0018.36-11.665l7.62-4.845c34.03-21.663 69.22-44.066 107.44-64.907 43.29-23.602 84.24-41.678 125.19-55.26 26.36-8.713 53.93-15.603 81.92-20.477 26.32-4.583 53.9-7.537 81.97-8.781 50.24-2.226 103.36.79 162.42 9.215 47.55 6.718 103.43 15.957 157.38 33.559 54.03 17.682 103.75 41.344 151.84 64.227 6.71 3.194 13.65 6.496 20.44 9.703 113.4 53.579 227.53 114.398 339.21 180.766l-.25.159z"/><path d="M2266.12 511.349c-110.71-67.099-223.01-128.675-333.77-183.015-8.32-4.084-16.86-8.33-25.11-12.436-45.48-22.63-92.51-46.03-144.39-62.806-53.66-17.285-109.77-24.649-157.58-29.571-122.99-12.858-225.2-3.661-321.64 28.941-84.16 28.571-153.26 69.063-220.09 108.221-7.03 4.12-14.3 8.38-21.39 12.508-8.32 4.847-14.68 8.53-20.61 11.938-31.771 18.24-69.598 39.243-109.294 56.713-42.067 18.511-82.089 31.323-122.356 39.168-21.175 4.126-42.694 6.728-63.963 7.732-22.838 1.078-44.95.286-65.718-2.358-22.501-2.864-43.353-7.903-61.984-14.976-20.204-7.669-37.949-17.804-52.744-30.119a163.724 163.724 0 01-3.968-3.427c-22.695-20.235-37.278-43.426-51.384-65.854-3.272-5.201-6.654-10.579-10.066-15.803-18.47-28.351-38.919-52.846-62.519-74.888a397.28 397.28 0 00-9.138-8.266c-56.459-49.493-133.414-90.841-222.545-119.577-104.634-33.619-214.763-48.146-310.105-40.908-54.249 4.209-125.104 23.599-161.107 57.425-21.405 20.111-26.542 42.556-14.85 64.906l-.348.066c-6.116-11.686-7.713-23.367-4.753-34.717 2.734-10.476 9.34-20.695 19.643-30.374 15.924-14.961 40.429-28.398 70.873-38.863 28.206-9.695 60.343-16.321 90.498-18.661 50.04-3.799 103.86-1.679 159.971 6.303 50.692 7.211 101.278 18.861 150.35 34.629 89.182 28.752 166.182 70.124 222.674 119.646a390.826 390.826 0 019.141 8.272c23.611 22.054 44.071 46.561 62.553 74.926 3.414 5.226 6.796 10.603 10.068 15.805 14.096 22.417 28.675 45.595 51.344 65.807a163.338 163.338 0 003.965 3.421c53.139 44.234 144.355 59.054 243.998 39.64 90.238-17.58 163.848-56.982 231.514-95.831 5.93-3.408 12.28-7.091 20.6-11.938a8441.46 8441.46 0 0021.39-12.508c32.9-19.278 66.92-39.211 103.21-57.876 41.03-21.109 79.29-37.588 116.97-50.378 26.11-8.827 53.27-16.041 80.73-21.439 26.01-5.114 53.16-8.766 80.68-10.859 50.11-3.808 102.6-2.719 160.47 3.331 47.83 4.926 103.97 12.292 157.68 29.592 51.91 16.788 98.96 40.195 144.45 62.831 8.25 4.106 16.79 8.352 25.11 12.436 110.77 54.347 223.08 115.927 333.8 183.031l-.26.16z"/><path d="M2262.24 509.276c-109.76-67.841-220.23-130.181-328.37-185.283-9.2-4.687-18.64-9.607-27.78-14.364-43.53-22.66-88.53-46.092-139-62.212-53.7-17.078-109.93-22.526-157.86-25.604-117.42-7.742-221.19 4.643-317.23 37.861-76.47 26.57-142.02 62.116-205.42 96.492-12.8 6.943-26.04 14.124-38.91 20.968-7.88 4.189-14.85 7.867-21.34 11.244-30.157 15.687-70.275 35.801-113.144 52.238-43.074 16.515-83.814 27.466-124.547 33.478-44.426 6.558-88.765 6.606-128.219.143-21.936-3.595-42.294-9.199-60.508-16.659-19.664-8.055-37.032-18.366-51.626-30.643a178.064 178.064 0 01-3.938-3.432c-22.373-20.081-37.41-42.891-51.949-64.949-3.517-5.336-7.152-10.852-10.82-16.213-19.28-28.276-40.216-52.572-64.007-74.273a395.894 395.894 0 00-9.27-8.194c-57.232-49.046-134.784-89.837-224.274-117.959-105.356-32.987-215.793-46.757-310.97-38.777-64.501 5.526-128.904 28.728-160.253 57.733-21.816 20.184-27.711 42.746-17.049 65.246l-.351.059c-5.573-11.757-6.709-23.499-3.379-34.898 3.078-10.536 9.967-20.807 20.471-30.528 16.093-14.89 40.502-28.296 70.591-38.77 27.909-9.715 59.845-16.486 89.919-19.062 49.981-4.191 103.86-2.461 160.143 5.14 50.817 6.864 101.637 18.188 151.046 33.659 89.541 28.14 167.138 68.953 224.407 118.03 3.14 2.69 6.258 5.448 9.273 8.198 23.802 21.714 44.749 46.021 64.04 74.31 3.668 5.361 7.303 10.88 10.82 16.216 14.532 22.046 29.561 44.845 51.912 64.906 1.29 1.158 2.612 2.31 3.935 3.428 52.227 43.948 141.933 61.545 239.968 47.076 89.373-13.193 166.984-48.972 237.539-85.668 6.48-3.377 13.46-7.053 21.33-11.242 12.87-6.844 26.11-14.023 38.91-20.966 63.41-34.383 128.98-69.937 205.49-96.518a710.864 710.864 0 0179.55-22.401c25.73-5.653 52.44-10.005 79.38-12.935 50.09-5.448 101.95-6.283 158.52-2.554 47.95 3.08 104.23 8.531 157.99 25.628 50.5 16.132 95.52 39.572 139.07 62.241 9.14 4.757 18.58 9.675 27.78 14.362 108.14 55.106 218.63 117.451 328.39 185.296l-.26.152z"/><path d="M2258.35 507.202c-108.77-68.589-217.43-131.689-322.95-187.548-9.69-5.134-19.67-10.569-29.31-15.826-41.94-22.852-85.31-46.483-134.76-62.084-53.92-16.933-110.2-20.44-158.14-21.637-112.98-3.029-215.31 12.272-312.81 46.781-68.39 24.316-129.34 55.091-188.3 84.851-20.27 10.234-39.42 19.9-58.89 29.337-7.92 3.841-15.14 7.293-22.06 10.549-44.684 20.99-81.859 36.166-116.997 47.758-44.082 14.544-85.537 23.636-126.735 27.792a474.663 474.663 0 01-47.541 2.415c-27.715 0-54.532-2.518-79.22-7.507-44.679-9.027-81.532-25.685-109.536-49.51a188.907 188.907 0 01-3.909-3.439c-22.032-19.906-37.491-42.312-52.44-63.982-3.788-5.49-7.702-11.165-11.648-16.684-20.104-28.21-41.532-52.304-65.494-73.659a405.751 405.751 0 00-9.402-8.121c-58.005-48.599-136.159-88.831-226.008-116.343C76.123 97.991-34.619 84.977-129.63 93.699c-64.769 6.069-127.314 28.831-159.334 57.99-22.259 20.268-28.935 42.964-19.313 65.635l-.356.055c-5.023-11.839-5.69-23.651-1.978-35.109 3.437-10.606 10.614-20.935 21.343-30.702 16.261-14.809 40.564-28.171 70.287-38.645 27.608-9.73 59.32-16.633 89.296-19.442 49.922-4.583 103.86-3.245 160.312 3.978 50.94 6.518 101.991 17.516 151.741 32.687 89.901 27.531 168.098 67.784 226.14 116.412 3.184 2.668 6.346 5.4 9.406 8.125 23.977 21.367 45.415 45.474 65.527 73.695 3.946 5.519 7.863 11.196 11.648 16.686 14.942 21.659 30.393 44.056 52.407 63.945a191.47 191.47 0 003.905 3.434c52.293 44.494 138.288 64.363 235.934 54.512 92.953-9.378 175.284-43.43 243.565-75.506 6.92-3.256 14.14-6.706 22.06-10.547 19.47-9.437 38.62-19.101 58.89-29.335 58.96-29.767 119.93-60.546 188.34-84.871a811.635 811.635 0 0178.37-23.361c25.49-6.207 51.76-11.259 78.08-15.013 50.2-7.156 101.42-9.917 156.57-8.438 47.98 1.198 104.3 4.709 158.29 21.662 49.49 15.612 92.87 39.254 134.83 62.115 9.65 5.257 19.62 10.692 29.31 15.823 105.52 55.864 214.19 118.97 322.97 187.564l-.26.154z"/><path d="M2254.47 505.129c-109.32-70.32-213.19-132.409-317.54-189.816-9.96-5.477-19.76-11.071-30.14-16.992-40.57-23.15-82.53-47.085-131.21-62.25-54.6-16.926-113.35-18.335-158.43-17.67-107.84 1.382-208.72 19.603-308.4 55.703-59.81 21.764-115.03 47.901-168.43 73.179-28.07 13.285-54.58 25.831-81.61 37.738-8.03 3.537-15.48 6.76-22.79 9.853-45.29 19.143-83.689 32.893-120.849 43.274-45.104 12.601-87.274 19.832-128.919 22.108-21.398 1.169-42.649.949-63.164-.653-21.72-1.698-42.627-4.953-62.138-9.675-43.247-10.468-79.224-27.865-106.935-51.712a212.27 212.27 0 01-3.88-3.443c-21.662-19.702-37.509-41.68-52.835-62.934-4.089-5.671-8.317-11.536-12.571-17.237-20.948-28.149-42.858-52.042-66.986-73.045a435.277 435.277 0 00-9.53-8.048c-58.778-48.153-137.529-87.825-227.738-114.728-83.26-24.728-169.124-37.63-247.86-37.63-22.259 0-43.931 1.03-64.835 3.115-63.988 6.507-126.141 29.351-158.348 58.197-22.731 20.363-30.217 43.213-21.647 66.078l-.359.048c-4.474-11.931-4.66-23.825-.557-35.349 3.804-10.683 11.293-21.08 22.256-30.9 16.429-14.716 40.619-28.023 69.96-38.486 27.697-9.878 58.346-16.726 88.63-19.804 49.863-4.975 103.86-4.026 160.484 2.816 51.061 6.168 102.35 16.838 152.438 31.715 90.259 26.918 169.058 66.612 227.873 114.793a421.764 421.764 0 019.537 8.053c24.139 21.014 46.061 44.918 67.019 73.08 4.254 5.702 8.486 11.566 12.575 17.239 15.319 21.245 31.158 43.215 52.802 62.901a217.786 217.786 0 003.876 3.439c51.821 44.593 136.342 67.17 231.904 61.948 96.697-5.285 184.179-37.698 249.597-65.345 7.3-3.093 14.75-6.315 22.78-9.851 27.03-11.902 53.53-24.45 81.6-37.733 53.41-25.28 108.63-51.424 168.46-73.195 51.33-18.586 101.69-32.131 153.97-41.412 50.43-8.95 101.01-13.635 154.62-14.322 30.59-.451 55.55.333 78.54 2.464 29.69 2.751 55.88 7.733 80.06 15.231 48.73 15.178 90.71 39.126 131.3 62.287 10.38 5.922 20.18 11.513 30.13 16.99 104.36 57.409 208.24 119.502 317.56 189.827l-.27.154z"/><path d="M2250.58 503.055c-108.31-71.09-210.41-133.919-312.13-192.083-10.06-5.754-19.98-11.683-30.48-17.959-39.36-23.514-80.06-47.833-128.15-62.617-55.05-16.847-113.73-16.173-158.71-13.706-101.76 5.391-201.2 26.531-303.99 64.623-50.64 18.859-98.86 40.441-145.49 61.314-36.87 16.499-71.68 32.085-107.4 46.33-8.07 3.223-15.99 6.305-23.52 9.158-45.375 17.179-86.166 29.865-124.701 38.785-46.141 10.681-89.025 16.057-131.102 16.431-21.409.189-42.576-.973-62.901-3.458-21.306-2.607-41.81-6.681-60.943-12.114-41.763-11.859-76.868-29.996-104.337-53.909a220.365 220.365 0 01-3.851-3.45c-21.255-19.462-37.446-40.976-53.106-61.781-4.43-5.886-9.014-11.975-13.619-17.894-21.805-28.096-44.203-51.787-68.474-72.431a439.424 439.424 0 00-9.662-7.976c-59.551-47.705-138.903-86.819-229.47-113.112C71.027 76.123-40.334 64.623-135.016 74.824c-63.16 6.924-124.899 29.826-157.285 58.345-23.245 20.47-31.562 43.492-24.058 66.58l-.359.042c-3.914-12.035-3.613-24.022.897-35.625 4.188-10.771 11.996-21.243 23.216-31.123 16.59-14.61 40.659-27.851 69.605-38.292 27.378-9.875 57.778-16.84 87.918-20.145 49.809-5.364 103.86-4.81 160.653 1.654 51.186 5.824 102.706 16.169 153.13 30.746 90.623 26.306 170.018 65.444 229.603 113.178a424.934 424.934 0 019.669 7.98c24.285 20.655 46.691 44.357 68.506 72.464 4.61 5.919 9.19 12.008 13.623 17.897 15.653 20.796 31.837 42.301 53.077 61.75a235.355 235.355 0 003.847 3.445c52.367 45.585 133.294 70.232 227.873 69.386 76.743-.682 157.967-18.218 255.621-55.183 7.52-2.853 15.43-5.933 23.5-9.155 35.71-14.243 70.53-29.824 107.38-46.323 46.64-20.876 94.87-42.462 145.53-61.326 51.82-19.206 101.37-33.744 151.49-44.449 50.76-10.844 100.7-17.455 152.66-20.206 45.02-2.472 103.77-3.144 158.91 13.729 48.14 14.802 88.86 39.132 128.24 62.657 10.5 6.276 20.42 12.202 30.48 17.955 101.72 58.166 203.82 120.999 312.14 192.094l-.27.156z"/><path d="M2246.7 500.981c-107.31-71.863-207.63-135.436-306.72-194.348-10.05-5.981-19.99-12.196-30.5-18.775-38.24-23.936-77.79-48.685-125.41-63.135-55.57-16.785-114.16-14.023-158.99-9.741-95.76 8.97-190.95 32.34-299.58 73.545-40.75 15.524-80.57 32.553-119.07 49.022-46.77 20.001-90.94 38.895-136.68 55.35-8.24 2.968-16.4 5.816-24.24 8.462-46.193 15.573-88.245 26.791-128.561 34.293-22.581 4.202-44.873 7.247-66.256 9.05-22.809 1.922-45.361 2.496-67.03 1.708-43.965-1.6-85.141-8.605-122.382-20.818-40.22-13.191-74.449-32.065-101.735-56.104a295.417 295.417 0 01-3.825-3.454c-20.801-19.176-37.282-40.179-53.217-60.488-4.825-6.149-9.812-12.506-14.828-18.692-22.684-28.05-45.569-51.54-69.964-71.817a445.782 445.782 0 00-9.794-7.903c-60.325-47.26-140.274-85.815-231.2-111.493-108.235-30.447-219.9-41.19-314.425-30.252-101.211 11.894-199.835 63.285-182.688 125.572l-.363.035c-4.29-15.581-1.777-30.931 7.468-45.627 8.442-13.422 22.295-26.053 41.176-37.54 17.554-10.68 38.615-19.902 62.592-27.409 22.805-7.139 47.614-12.413 71.742-15.248 49.75-5.757 103.86-5.592 160.825.493 51.311 5.479 103.065 15.497 153.827 29.777 90.977 25.697 170.974 64.273 231.335 111.56a441.16 441.16 0 019.801 7.908c24.406 20.285 47.303 43.789 69.998 71.849 5.016 6.186 10.003 12.544 14.828 18.694 15.931 20.303 32.405 41.298 53.194 60.462a269.24 269.24 0 003.818 3.452c52.443 46.198 131.938 73.479 223.839 76.825 77.802 2.829 163.386-11.896 261.645-45.022 7.84-2.646 15.99-5.492 24.23-8.46 45.73-16.45 89.9-35.342 136.66-55.342 38.51-16.47 78.33-33.502 119.08-49.028 108.68-41.223 203.91-64.601 299.72-73.578 30.12-2.877 55.06-3.797 78.5-2.893 29.95 1.156 56.35 5.295 80.71 12.654 47.67 14.465 87.24 39.23 125.51 63.179 10.51 6.577 20.44 12.792 30.5 18.77 99.09 58.917 199.42 122.492 306.72 194.36l-.26.147z"/><path d="M2242.81 498.907c-106.28-72.646-204.84-136.959-301.3-196.615-9.98-6.173-19.84-12.638-30.28-19.487-37.21-24.393-75.69-49.618-122.92-63.757-56.78-16.927-118.09-11.403-159.27-5.777-111.77 15.084-211.93 50.151-295.17 82.469-29.91 11.663-59.75 24.017-88.62 35.964-57.89 23.966-112.57 46.602-169.97 65.138-8.45 2.727-16.84 5.34-24.97 7.768-47.09 14.043-90.406 23.79-132.411 29.796-47.617 6.808-93.194 8.521-135.473 5.087-43.434-3.529-84.119-12.299-120.92-26.068-38.601-14.441-71.954-34.053-99.141-58.292a318.929 318.929 0 01-3.796-3.461c-20.284-18.823-36.97-39.25-53.11-59.005-5.288-6.474-10.758-13.166-16.254-19.68-23.908-28.402-46.614-51.025-71.452-71.202a443.334 443.334 0 00-9.926-7.831c-61.105-46.811-141.655-84.807-232.94-109.878C65.933 54.268-46.039 44.28-140.402 55.956c-101.574 12.735-198.184 63.428-184.033 126.221l-.363.029c-3.51-15.579-.473-30.914 9.025-45.577 8.705-13.435 22.64-26.079 41.421-37.58 17.514-10.724 38.465-20.014 62.274-27.615 22.669-7.238 47.431-12.664 71.602-15.696 49.695-6.148 103.86-6.373 160.994-.669 51.436 5.134 103.424 14.826 154.523 28.807 91.34 25.084 171.934 63.102 233.068 109.942a459.382 459.382 0 019.933 7.835c24.853 20.186 47.567 42.822 71.485 71.235 5.496 6.514 10.967 13.208 16.254 19.682 16.136 19.749 32.819 40.168 53.088 58.983a334.752 334.752 0 003.792 3.459c52.85 47.117 130.912 77.043 219.809 84.263 79.729 6.476 167.284-4.929 267.67-34.863 8.13-2.426 16.53-5.036 24.96-7.764 57.39-18.531 112.06-41.163 169.95-65.127 28.86-11.947 58.7-24.303 88.62-35.968 55.97-21.729 102.53-37.784 146.52-50.523 51.79-14.995 100.45-25.454 148.76-31.974 29.46-4.025 55.13-5.847 78.48-5.57 30.08.357 56.59 4.073 81.04 11.364 47.3 14.156 85.79 39.397 123.02 63.806 10.45 6.846 20.31 13.311 30.28 19.479 96.47 59.659 195.03 123.976 301.32 196.625l-.28.147z"/><path d="M2238.93 496.832c-105.26-73.433-202.05-138.487-295.89-198.883-9.84-6.334-19.58-13.024-29.89-20.108-36.23-24.884-73.68-50.615-120.59-64.468-57.4-16.887-118.55-9.123-159.56-1.812-101.26 17.899-191.59 51.98-290.75 91.391-17.89 7.135-35.98 14.498-53.47 21.622-67.29 27.393-136.86 55.718-207.98 76.208a1078.77 1078.77 0 01-25.7 7.073c-47.41 12.398-93.254 20.909-136.259 25.296-48.717 4.971-95.03 4.775-137.665-.579-42.825-5.378-83.015-15.916-119.458-31.321-36.878-15.59-69.364-35.937-96.551-60.475a396.995 396.995 0 01-3.766-3.465c-19.672-18.384-36.464-38.145-52.703-57.255-5.852-6.886-11.901-14.005-17.98-20.933-24.842-28.373-48.02-50.802-72.943-70.588a459.796 459.796 0 00-10.058-7.758C345.85 134.406 264.707 96.97 173.055 72.511 63.387 43.34-48.89 34.11-143.099 46.52c-98.35 13.099-196.743 62.012-185.381 126.869l-.363.022c-2.73-15.579.832-30.896 10.582-45.526 8.965-13.451 22.984-26.106 41.663-37.62 34.464-21.238 83.093-37.262 133.418-43.963 49.637-6.537 103.86-7.154 161.166-1.831 51.56 4.79 103.78 14.155 155.215 27.836 91.703 24.472 172.895 61.933 234.802 108.326a463.537 463.537 0 0110.065 7.762c24.934 19.797 48.123 42.235 72.973 70.619 6.078 6.93 12.131 14.049 17.983 20.935 16.235 19.106 33.023 38.863 52.685 57.238a343.462 343.462 0 003.763 3.462c54.392 49.095 129.006 80.805 215.774 91.704 80.345 10.091 172.429 1.781 273.704-24.701 8.4-2.202 17.04-4.579 25.68-7.069 71.1-20.483 140.66-48.804 207.93-76.193 17.5-7.123 35.59-14.487 53.48-21.622 43.4-17.251 93.91-37.039 144.04-53.561 52.44-17.28 100.46-29.663 146.81-37.856 29.18-5.202 54.85-7.901 78.46-8.249 29.77-.44 57.14 2.95 81.36 10.074 21.01 6.205 42.16 15.466 64.66 28.314 19.86 11.343 38.26 23.983 56.05 36.205 10.3 7.082 20.04 13.772 29.88 20.103 93.85 60.398 190.64 125.455 295.9 198.89l-.27.143z"/><path d="M2235.04 494.758c-104.22-74.226-199.24-140.022-290.47-201.149-9.67-6.472-19.24-13.364-29.37-20.659-35.28-25.402-71.76-51.668-118.4-65.248-43.58-12.652-95.87-11.947-159.84 2.153-89.45 19.603-169.4 52.392-254.06 87.109-10.54 4.324-21.43 8.792-32.28 13.206-4.25 1.732-8.5 3.469-12.74 5.204-80.66 32.952-164.07 67.027-251.56 89.353-8.85 2.258-17.73 4.405-26.42 6.377-48.45 10.991-95.593 17.987-140.103 20.792-49.842 3.139-96.899 1.039-139.856-6.243-42.158-7.148-81.854-19.454-117.985-36.576-35.021-16.596-66.634-37.676-93.964-62.659a419.406 419.406 0 01-3.737-3.471c-18.925-17.807-35.662-36.772-51.854-55.111-6.554-7.427-13.337-15.108-20.148-22.584-25.802-28.353-49.45-50.589-74.431-69.974a468.167 468.167 0 00-10.19-7.685c-62.651-45.922-144.395-82.801-236.406-106.649C60.847 32.414-51.741 23.94-145.793 37.086c-96.543 13.607-194.797 62.921-186.726 127.518l-.366.017c-1.946-15.581 2.136-30.88 12.139-45.473 9.23-13.466 23.329-26.137 41.909-37.658 34.317-21.283 82.778-37.544 132.96-44.617 49.582-6.93 103.86-7.938 161.334-2.994C67.142 38.32 119.6 47.359 171.373 60.742c92.062 23.862 173.857 60.761 236.534 106.708a472.025 472.025 0 0110.197 7.689c24.992 19.396 48.655 41.639 74.464 70.003 6.815 7.476 13.594 15.159 20.152 22.586 16.184 18.335 32.922 37.295 51.839 55.095a434.344 434.344 0 003.734 3.47c55.572 50.798 128.79 85.08 211.743 99.142 81.888 13.882 176.002 8.988 279.734-14.542 8.68-1.973 17.56-4.117 26.4-6.373 87.47-22.317 170.86-56.386 251.5-89.333 4.25-1.737 8.49-3.472 12.74-5.204 10.85-4.414 21.74-8.883 32.28-13.204 84.68-34.724 164.66-67.522 254.14-87.134 28.9-6.37 54.56-9.943 78.44-10.927 29.89-1.231 57.37 1.726 81.69 8.783 20.89 6.083 41.77 15.386 63.85 28.442 19.47 11.519 37.37 24.404 54.67 36.864 10.14 7.293 19.7 14.183 29.36 20.653 91.24 61.129 186.26 126.927 290.48 201.154l-.28.144z"/><path d="M2231.16 492.684c-95.13-69.166-191.04-137.606-285.07-203.415-9.57-6.662-19.06-13.818-29.1-21.393-32.66-24.642-69.69-52.57-115.94-65.847-44.1-12.629-96.47-10.628-160.13 6.116-75.69 19.843-142.68 49.019-213.59 79.909-22.21 9.672-45.18 19.677-68.34 29.328-40.43 16.882-84.17 34.746-130.02 51.016-49.1 17.426-93.96 30.597-137.14 40.27a967.28 967.28 0 01-27.15 5.681c-49.48 9.605-97.895 15.071-143.912 16.246-50.941 1.299-98.742-2.69-142.08-11.865-80.029-17.153-149.975-53.041-207.893-106.671a521.667 521.667 0 01-3.708-3.476c-17.964-17.02-34.409-34.977-50.31-52.343-7.486-8.174-15.224-16.627-23.01-24.854-26.784-28.346-50.908-50.386-75.919-69.36a483.107 483.107 0 00-10.322-7.612c-63.413-45.48-145.758-81.798-238.128-105.035C58.305 21.488-54.588 13.772-148.485 27.652c-97.13 14.438-192.922 63.1-188.075 128.167l-.366.008c-1.162-15.585 3.448-30.867 13.696-45.422 9.497-13.484 23.677-26.168 42.151-37.698 17.404-10.864 38.032-20.363 61.31-28.235 22.6-7.64 46.551-13.373 71.192-17.036 49.527-7.32 103.864-8.72 161.506-4.156 51.81 4.1 104.498 12.812 156.608 25.894 92.425 23.25 174.818 59.591 238.268 105.093a492.37 492.37 0 0110.329 7.616c25.021 18.985 49.156 41.033 75.951 69.389 7.786 8.229 15.525 16.682 23.01 24.858 15.902 17.364 32.343 35.318 50.3 52.332a461.296 461.296 0 003.704 3.476c57.874 53.588 127.758 89.448 207.71 106.583 82.356 17.435 181.171 15.92 285.761-4.383a976.678 976.678 0 0027.13-5.677c96.55-21.624 184.88-56.94 267.08-91.262 23.16-9.65 46.12-19.653 68.33-29.326 70.93-30.896 137.93-60.079 213.66-79.931 63.75-16.77 116.23-18.771 160.43-6.113 20.72 5.946 41.29 15.266 62.89 28.49 19.04 11.66 36.4 24.756 53.19 37.418 10.04 7.575 19.52 14.73 29.09 21.386 94.03 65.812 189.94 134.252 285.07 203.421l-.28.14z"/><path d="M2227.27 490.611a38098.245 38098.245 0 00-279.65-205.683c-9.27-6.734-18.47-14.016-28.22-21.725-31.86-25.217-67.97-53.799-114.11-66.851-44.62-12.607-97.09-9.309-160.42 10.078-66.34 20.283-127.3 48.923-186.24 76.622-29.56 13.888-60.13 28.25-91.27 41.54-49.16 20.996-90.52 37.013-130.16 50.408-48.89 16.517-94.64 28.818-139.85 37.606a937.74 937.74 0 01-27.87 4.986c-48.02 7.83-95.166 11.793-140.271 11.795-2.506 0-4.997-.013-7.489-.038-52.146-.51-100.687-6.414-144.274-17.544-21.039-5.402-41.642-12.26-61.233-20.383a443.299 443.299 0 01-53.788-26.726c-31.082-18.17-60.138-40.087-88.82-66.998a676.547 676.547 0 01-3.679-3.483c-16.642-15.878-32.386-32.476-47.61-48.529-8.79-9.265-17.877-18.848-27.029-28.175-28.18-28.736-52.052-49.939-77.41-68.746a487.331 487.331 0 00-10.454-7.539C343.241 96.197 260.298 60.439 167.569 37.811 55.765 10.56-57.435 3.6-151.179 18.215c-95.308 14.898-190.976 63.929-189.419 128.814l-.366.002c-.726-30.223 19.21-58.961 57.649-83.108 17.375-10.914 37.894-20.481 60.992-28.441 22.475-7.744 46.379-13.627 71.052-17.483 49.468-7.712 103.864-9.501 161.675-5.319 51.934 3.758 104.858 12.143 157.301 24.924 92.787 22.643 175.777 58.424 240 103.479a491.49 491.49 0 0110.461 7.544c25.37 18.817 49.252 40.027 77.439 68.774 9.153 9.33 18.244 18.912 27.03 28.178 15.224 16.05 30.964 32.646 47.603 48.52a638.54 638.54 0 003.675 3.48c60.947 57.187 127.57 94.484 203.676 114.023 105.41 26.918 216.858 18.001 291.791 5.779a940.31 940.31 0 0027.86-4.984c103.98-20.213 198.86-57.638 269.91-87.984 31.14-13.285 61.7-27.646 91.25-41.533 58.97-27.704 119.93-56.352 186.31-76.644 28.33-8.675 53.98-14.003 78.39-16.283 30.12-2.814 57.82-.727 82.34 6.203 20.66 5.845 41.04 15.24 62.28 28.721 18.72 11.879 35.63 25.256 51.98 38.196 9.74 7.707 18.93 14.987 28.2 21.716a38342.915 38342.915 0 01279.66 205.683l-.29.139z"/><path d="M2223.39 488.537l-274.24-207.948c-8.96-6.791-17.85-14.181-27.27-22.003-31.07-25.813-66.3-55.069-112.35-67.905-44.53-12.411-98.59-7.687-160.7 14.043-59.7 20.888-114.15 48.667-166.81 75.532-34.32 17.512-69.82 35.618-106.28 51.554-109.61 47.897-205.41 76.186-301.46 89.031-39.85 5.327-79.166 8.009-117.29 8.009-11.556 0-22.995-.247-34.314-.74-53.377-2.325-102.658-10.139-146.469-23.224-40.605-12.13-77.75-29.252-113.548-52.348-28.587-18.443-55.99-40.43-86.236-69.195-15.965-15.181-31.423-30.954-46.372-46.207-33.834-34.517-68.818-70.21-112.13-101.623-66.436-48.18-153.64-85.965-252.184-109.268C53.226-.363-60.282-6.566-153.872 8.779c-90.611 14.857-188.957 61.706-190.767 129.464l-.367-.005c.81-30.286 21.369-59.02 59.453-83.096 34.434-21.77 81.165-38.31 131.586-46.576C-104.554.465-50.1-1.717 7.876 2.085 59.935 5.497 113.092 13.558 165.872 26.04c48.761 11.53 95.071 26.71 137.647 45.114 42.931 18.56 81.517 40.164 114.68 64.214 43.331 31.424 78.326 67.126 112.167 101.652 14.949 15.251 30.407 31.021 46.368 46.199 44.129 41.971 106.704 93.705 199.638 121.464 106.579 31.834 220.783 26.238 297.818 15.938 96.02-12.836 191.76-41.115 301.33-88.994 36.45-15.929 71.94-34.035 106.26-51.542 52.67-26.87 107.14-54.656 166.87-75.555 62.21-21.767 116.39-26.496 161.04-14.051 20.62 5.747 40.8 15.224 61.71 28.976 18.4 12.105 34.86 25.778 50.78 38.999 9.41 7.822 18.31 15.207 27.26 21.996l274.24 207.948-.29.139z"/><path d="M2221.18 472.551c-69.83-57.9-129.75-104.884-188.56-147.856a3023.314 3023.314 0 00-86.65-61.072c-8.76-5.944-17.43-12.266-26.62-18.96-23.08-16.825-46.95-34.223-74.42-47.134-14.75-6.945-28.95-11.918-43.41-15.202-44.38-10.181-96.45-3.45-154.77 20.01-30.18 12.123-57.66 25.919-80.56 37.815-24.24 12.594-48.16 26.482-71.29 39.913-33.24 19.305-67.62 39.267-104.57 56.411-22.49 10.463-45.28 19.812-67.75 27.79-44.96 15.96-93.22 29.111-143.43 39.087-31.02 6.096-62.2 10.703-92.65 13.693-26.24 2.567-52.54 4.048-78.15 4.402-38.338.533-75.689-1.499-111.017-6.044-37.564-4.835-73.112-12.55-105.656-22.936-29.019-9.261-56.43-20.922-83.796-35.651-50.996-27.425-91.671-59.135-121.408-83.698-14.608-12.122-28.872-24.485-42.667-36.441-39.722-34.431-77.242-66.952-124.192-95.919-38.293-23.471-81.983-43.726-129.868-60.205-36.798-12.664-76.82-23.022-118.952-30.786a1007.88 1007.88 0 00-30.386-5.111C96.821 38.024 47.752 33.705-5.432 31.819c-53.619-1.947-100.009-.262-141.812 5.153-23.633 3.038-46.529 7.804-68.063 14.163-76.021 22.454-124.836 60.148-130.582 100.833l-.458-.024c1.532-10.846 6.028-21.529 13.359-31.757 6.966-9.714 16.532-19.083 28.433-27.847 22.486-16.554 53.279-30.89 89.047-41.453 21.566-6.371 44.499-11.144 68.169-14.186 41.847-5.42 88.274-7.106 141.937-5.158 53.213 1.887 102.307 6.21 145.923 12.847a1006.684 1006.684 0 0130.408 5.116c42.166 7.769 82.221 18.135 119.048 30.81 47.918 16.49 91.644 36.763 129.955 60.249 46.981 28.985 84.507 61.515 124.244 95.955 13.791 11.955 28.055 24.316 42.66 36.436 29.722 24.552 70.378 56.247 121.345 83.654 27.337 14.714 54.719 26.363 83.705 35.613 63.691 20.325 136.514 30.066 216.444 28.95 25.6-.354 51.87-1.836 78.1-4.4 30.43-2.99 61.58-7.593 92.57-13.684 50.19-9.97 98.41-23.112 143.34-39.063 22.46-7.971 45.24-17.316 67.7-27.77 36.94-17.135 71.31-37.093 104.54-56.392 23.13-13.432 47.05-27.325 71.31-39.923 22.91-11.903 50.4-25.703 80.61-37.835 25.96-10.445 51.1-17.661 74.72-21.45 29.02-4.654 56.09-4.178 80.46 1.413 14.51 3.296 28.74 8.282 43.53 15.242 27.51 12.931 51.39 30.339 74.49 47.175 9.19 6.692 17.86 13.015 26.61 18.954a3020.522 3020.522 0 0186.67 61.081c58.81 42.977 118.73 89.965 188.57 147.869l-.37.161z"/><path d="M2218.97 456.56c-64.75-58.879-125.51-108.15-185.78-150.625a1573.097 1573.097 0 00-90.4-59.278c-8.12-4.931-16.13-10.056-24.62-15.48-25.41-16.244-51.69-33.04-81.12-44.661-14.86-5.893-29.1-9.996-43.54-12.545-55.29-9.765-111.45 8.735-148.84 25.973-26.48 12.178-50.67 25.948-75.18 40.162-21.44 12.442-41.62 25.826-62.98 39.994-31.71 21.032-64.49 42.779-101.59 61.039a525.955 525.955 0 01-68.3 27.997c-43.4 14.313-90.92 25.428-145.29 33.982a998.38 998.38 0 01-92.61 10.131c-26.18 1.613-52.31 2.19-77.68 1.708-37.727-.709-74.609-3.897-109.623-9.473-36.772-5.857-71.858-14.416-104.281-25.438-28.408-9.655-55.836-21.635-83.855-36.622-50.886-27.18-94.477-57.312-126.764-80.528-11.952-8.594-23.714-17.241-35.091-25.606-45.305-33.31-88.098-64.777-140.119-91.285-38.879-19.812-82.529-36.565-129.729-49.79-35.713-10.008-73.566-17.505-115.717-22.923a1034.674 1034.674 0 00-29.411-3.344c-42.986-4.242-88.864-5.847-144.37-7.506-40.011-1.257-92.388-2.085-142.706 2.718-23.831 2.232-46.867 6.109-68.474 11.518-76.072 19.048-127.676 52.324-138.045 89.016l-.543-.055c2.749-9.73 8.318-19.273 16.544-28.367 7.841-8.664 18.144-16.972 30.62-24.699 23.71-14.679 55.25-27.198 91.212-36.201 21.647-5.42 44.727-9.303 68.598-11.54 50.365-4.81 102.783-3.98 142.82-2.723 55.524 1.66 101.416 3.265 144.432 7.509a1047.02 1047.02 0 0129.437 3.346c42.191 5.424 80.081 12.928 115.834 22.947 47.248 13.239 90.934 30.004 129.853 49.836 52.059 26.529 94.869 58.004 140.189 91.328 11.373 8.363 23.135 17.009 35.087 25.601 32.28 23.207 75.853 53.328 126.709 80.495 27.986 14.971 55.385 26.938 83.76 36.582 63.754 21.672 135.642 33.403 213.653 34.869 25.34.48 51.45-.094 77.6-1.708 31-1.933 62.13-5.338 92.53-10.122 54.32-8.545 101.81-19.651 145.17-33.951a524.873 524.873 0 0068.21-27.964c37.07-18.245 69.84-39.983 101.54-61.004 21.37-14.174 41.55-27.561 63.01-40.009 24.51-14.223 48.71-27.997 75.22-40.188 24.24-11.176 48.14-19.216 71.05-23.9 27.78-5.68 54.12-6.395 78.28-2.129 14.49 2.56 28.78 6.677 43.69 12.587 29.48 11.643 55.78 28.455 81.22 44.712 8.48 5.422 16.5 10.545 24.61 15.473a1578.17 1578.17 0 0190.43 59.298c60.27 42.486 121.06 91.766 185.81 150.658l-.46.185z"/><path d="M2216.76 440.57c-60.6-60.658-120.45-110.834-182.99-153.392a1103.352 1103.352 0 00-94.15-57.484c-6.89-3.747-13.99-7.722-20.85-11.566-28.32-15.88-57.61-32.3-89.59-42.622-15.01-4.879-29.3-8.115-43.67-9.891-55.18-6.822-108.17 13.602-142.92 31.935-23.54 12.376-45.07 26.403-65.89 39.97l-3.9 2.54c-18.9 12.308-36.63 25.807-55.4 40.1-29.9 22.76-60.81 46.292-97.89 65.642-21.58 11.341-44.74 20.831-68.84 28.206-42.02 12.858-88.79 22.033-147.17 28.875-30.19 3.537-61.33 5.748-92.57 6.567-26.12.658-52.09.328-77.2-.987-76.029-3.96-147.067-17.701-211.143-40.839-27.7-10.003-55.147-22.298-83.906-37.593-48.67-25.828-91.956-52.376-132.118-77.355-5.386-3.348-10.713-6.674-16-9.974-54.854-34.229-106.664-66.56-167.552-91.444-39.751-16.246-83.357-29.494-129.601-39.378-33.95-7.256-70.745-12.182-112.478-15.062a1093.789 1093.789 0 00-28.436-1.576c-23.809-.99-49.062-1.151-75.798-1.32-21.475-.137-43.679-.278-67.11-.853-45.255-1.204-96.543-2.566-143.604.287-24.282 1.472-47.457 4.457-68.884 8.873-76.043 15.674-130.439 44.536-145.509 77.206l-.619-.104c3.971-8.613 10.611-17.016 19.73-24.974 8.721-7.61 19.757-14.861 32.801-21.551 24.948-12.794 57.243-23.493 93.385-30.942 21.475-4.427 44.697-7.419 69.026-8.894 47.109-2.855 98.423-1.49 143.696-.286 23.417.573 45.62.716 67.088.852 26.747.17 52.007.33 75.838 1.323 9.472.403 19.049.934 28.462 1.579 41.785 2.881 78.623 7.814 112.621 15.081 46.299 9.895 89.952 23.158 129.747 39.422 60.944 24.906 112.779 57.252 167.655 91.497 5.287 3.299 10.618 6.623 16 9.974 40.154 24.974 83.427 51.516 132.081 77.335 28.73 15.278 56.148 27.561 83.815 37.551 63.992 23.11 134.938 36.831 210.863 40.787 25.09 1.312 51.03 1.642 77.12.984 31.2-.819 62.32-3.027 92.47-6.56 58.32-6.835 105.04-16 147-28.84 24.06-7.359 47.17-16.832 68.71-28.153 37.04-19.326 67.93-42.845 97.81-65.592 18.78-14.3 36.52-27.805 55.44-40.121l3.89-2.541c20.83-13.573 42.37-27.609 65.95-39.998 34.85-18.393 88.03-38.876 143.46-32.023 14.44 1.785 28.78 5.032 43.85 9.93 32.05 10.344 61.37 26.782 89.73 42.68 6.85 3.843 13.95 7.819 20.83 11.563a1104.017 1104.017 0 0194.2 57.515c62.57 42.576 122.44 92.769 183.06 153.447l-.54.194z"/><path d="M2214.55 424.577c-55.64-61.574-116.27-114.114-180.21-156.155-31.08-20.49-64.02-39.226-97.89-55.687-4.89-2.378-9.9-4.846-14.75-7.232-32.01-15.764-65.11-32.067-100.37-41.004-15.14-3.877-29.47-6.243-43.81-7.238-55.02-3.813-104.87 18.502-136.99 37.894-19.96 11.979-37.96 25.302-55.38 38.186-3.01 2.23-6.02 4.456-9.04 6.673-16.56 12.178-32.05 25.782-48.45 40.183-27.87 24.484-56.7 49.799-93.56 70.272-21.65 12.021-44.34 21.315-69.39 28.417-52.39 14.852-104.74 20.349-149.04 23.77-29.97 2.311-61.1 3.324-92.53 3.003-26.04-.298-51.85-1.537-76.72-3.681-73.747-6.342-143.855-22.077-208.375-46.77-26.846-10.271-54.308-22.885-83.961-38.561-29.953-15.797-57.865-30.997-84.862-45.698-18.346-9.992-35.677-19.429-52.601-28.483-63.974-34.227-122.572-64.319-191.892-85.949-40.605-12.669-84.166-22.417-129.476-28.97-32.474-4.698-67.187-6.985-109.239-7.203-9.072-.04-18.313.024-27.462.191-13.897.271-28.275.837-43.492 1.438-29.202 1.151-62.306 2.457-97.965 1.726-13.578-.28-27.432-.674-40.831-1.057-34.464-.984-70.1-2.001-103.674-1.092-24.655.67-47.973 2.765-69.298 6.23-75.914 12.339-133.099 36.789-152.973 65.404l-.677-.169c5.203-7.493 12.912-14.754 22.911-21.58 9.603-6.556 21.372-12.748 34.973-18.403 26.209-10.897 59.254-19.775 95.569-25.677 21.375-3.473 44.745-5.576 69.455-6.245 33.61-.911 69.26.108 103.743 1.092 13.396.383 27.25.777 40.825 1.057 35.625.73 68.704-.573 97.891-1.724 15.224-.601 29.605-1.167 43.518-1.438 9.16-.167 18.408-.231 27.491-.191 42.111.216 76.875 2.509 109.404 7.214 45.364 6.562 88.984 16.321 129.64 29.007 31.313 9.77 63.044 22.148 97.006 37.839 30.404 14.047 59.979 29.417 95.037 48.172 16.924 9.056 34.255 18.494 52.604 28.485 26.993 14.699 54.906 29.899 84.852 45.694 29.623 15.66 57.056 28.261 83.869 38.521 64.432 24.66 134.44 40.373 208.08 46.706 24.85 2.142 50.63 3.379 76.63 3.677 31.4.321 62.5-.689 92.42-3.001 44.25-3.414 96.54-8.904 148.83-23.73 24.98-7.082 47.62-16.352 69.21-28.343 36.79-20.437 65.6-45.733 93.45-70.196 16.41-14.41 31.9-28.021 48.49-40.212 3.01-2.217 6.02-4.443 9.03-6.671 17.43-12.893 35.45-26.224 55.42-38.219 20.91-12.616 42.35-22.322 63.74-28.847 25.34-7.729 50.19-10.815 73.86-9.173 14.41 1 28.81 3.377 44.01 7.269 35.35 8.962 68.5 25.285 100.55 41.068 4.85 2.387 9.86 4.854 14.74 7.23 33.9 16.474 66.86 35.228 97.97 55.733 33.95 22.324 67.2 47.759 98.82 75.597 27.95 24.604 55.37 51.738 81.49 80.644l-.62.207z"/><path d="M2212.33 408.579c-51.49-63.339-111.18-116.806-177.41-158.915-31.94-20.36-66.13-38.491-101.63-53.891-1.69-.733-3.38-1.466-5.07-2.202-36.92-16.034-75.09-32.615-114.73-40.08-15.36-2.892-29.74-4.391-43.94-4.585-54.8-.744-101.53 23.435-131.08 43.849-17.39 11.942-32.83 25.031-47.76 37.689-3.69 3.13-7.51 6.366-11.27 9.519-14.35 12.006-27.69 25.656-41.82 40.11-25.68 26.291-52.24 53.476-88.91 75.058-21.22 12.486-44.1 21.85-69.95 28.63-50.92 13.356-102.63 16.863-150.92 18.663-29.78 1.11-60.9.92-92.5-.561-25.94-1.255-51.59-3.401-76.23-6.377-71.239-8.586-140.416-26.315-205.603-52.698-26.106-10.565-52.802-23.126-84.008-39.53-59.31-31.092-103.351-52.991-142.798-71.005-78.458-35.827-138.339-56.904-200.221-70.478-41.429-9.087-84.946-15.332-129.351-18.564-30.807-2.241-63.501-2.041-106.004.656-8.709.559-17.62 1.217-26.487 1.959-8.376.711-16.884 1.526-25.893 2.387-33.266 3.18-70.973 6.786-114.127 6.113-22.747-.355-45.98-1.326-68.448-2.263-25.535-1.066-51.938-2.169-76.97-2.318-25.099-.15-48.559 1.056-69.712 3.588-75.662 9.05-135.642 29.093-160.444 53.614l-.703-.258c6.441-6.371 15.22-12.488 26.091-18.183 10.494-5.499 22.988-10.63 37.139-15.255 27.487-8.986 61.292-16.044 97.756-20.405 21.211-2.536 44.723-3.746 69.88-3.597 25.055.15 51.472 1.253 77.018 2.321 22.46.937 45.683 1.908 68.411 2.263 43.078.671 80.744-2.93 113.973-6.107 9.014-.863 17.529-1.675 25.908-2.388 8.878-.742 17.796-1.401 26.513-1.962 42.569-2.699 75.318-2.901 106.191-.654 44.467 3.236 88.046 9.49 129.534 18.591 61.966 13.591 121.909 34.691 200.437 70.549 39.461 18.02 83.518 39.925 142.842 71.026 31.184 16.391 57.851 28.939 83.928 39.492 65.099 26.346 134.173 44.052 205.298 52.624 24.61 2.971 50.23 5.113 76.14 6.368 31.56 1.479 62.64 1.669 92.38.561 48.22-1.798 99.84-5.296 150.65-18.621 25.75-6.754 48.55-16.087 69.69-28.529 36.59-21.536 63.13-48.692 88.79-74.954 14.13-14.463 27.48-28.124 41.85-40.148 3.77-3.15 7.59-6.386 11.27-9.517 14.94-12.668 30.39-25.766 47.81-37.729 19.28-13.322 39.5-23.86 60.09-31.323 24.12-8.741 48.22-13.01 71.63-12.695 14.29.194 28.73 1.702 44.17 4.608 39.77 7.491 78 24.093 114.97 40.152 1.69.736 3.38 1.471 5.07 2.202 35.54 15.418 69.77 33.57 101.74 53.952 66.29 42.148 126.03 95.656 177.56 159.039l-.74.209z"/><path d="M1246.07 402.196c-2.06 0-4.08-.002-6.08-.009-29.62-.075-60.73-1.462-92.45-4.125-25.85-2.212-51.34-5.266-75.75-9.072-34.88-5.428-69.89-13.23-104.057-23.187-32.994-9.615-66.223-21.538-98.767-35.439-31.888-13.62-61.673-28.796-84.06-40.496-52.381-27.301-102.219-50.121-148.129-67.826-74.358-28.675-140.622-46.156-208.542-55.012-40.974-5.342-84.935-8.16-127.262-8.16-.656 0-1.308 0-1.964.002-36.362.075-70.884 4.134-102.769 8.51-8.299 1.147-16.883 2.4-25.516 3.727-4.73.736-9.468 1.493-14.48 2.294-35.354 5.66-75.428 12.072-124.112 11.546-29.649-.321-59.932-2.166-89.219-3.951-18.91-1.154-38.46-2.345-57.111-3.064-25.637-.989-49.229-.672-70.129.946-75.259 5.82-138.035 21.459-167.929 41.835l-.689-.364c15.334-10.449 38.399-19.497 68.554-26.894 28.799-7.061 63.362-12.292 99.947-15.121 20.954-1.62 44.609-1.941 70.305-.948 18.668.719 38.23 1.913 57.148 3.066 29.268 1.785 59.533 3.63 89.142 3.949 48.56.526 88.563-5.877 123.858-11.526 5.017-.803 9.754-1.561 14.488-2.296 8.64-1.327 17.232-2.582 25.538-3.729 31.939-4.383 66.521-8.449 102.97-8.526 43.001-.09 87.75 2.736 129.425 8.172 35.053 4.572 69.037 11.301 103.886 20.573 33.562 8.931 67.894 20.22 104.952 34.513 45.947 17.719 95.821 40.556 148.235 67.874 22.369 11.694 52.132 26.859 83.987 40.463 66.037 28.208 134.18 47.904 202.53 58.543 24.38 3.802 49.83 6.851 75.65 9.061 31.68 2.659 62.74 4.046 92.32 4.118 46.29.115 100.04-.823 152.47-13.514 26.53-6.423 49.49-15.816 70.18-28.714 36.34-22.652 60.42-51.725 83.72-79.843 11.99-14.463 23.31-28.124 35.61-39.95 3.95-3.789 7.93-7.692 11.77-11.467 13-12.755 26.44-25.941 41.93-38.129 17.69-14.023 36.68-25.397 56.44-33.807 22.9-9.749 46.25-15.204 69.39-16.213 14.29-.622 28.79.014 44.33 1.946 41.55 5.165 82.74 20.169 124.79 36.409 36.66 14.159 73.15 32.199 105.52 52.172a614.164 614.164 0 01100.42 77.133c27.32 25.89 52.35 54.388 74.39 84.705l-.84.22c-47.33-65.107-106.08-119.502-174.62-161.673-32.33-19.944-68.76-37.958-105.36-52.093-41.98-16.211-83.09-31.186-124.49-36.333-15.45-1.922-29.87-2.554-44.07-1.935-42.53 1.856-86.98 19.541-125.17 49.803-15.46 12.167-28.89 25.342-41.88 38.083-3.84 3.778-7.83 7.683-11.77 11.472-12.28 11.803-23.6 25.454-35.57 39.904-11.43 13.795-23.25 28.062-36.81 41.777-15.38 15.548-30.77 28.043-47.07 38.202-20.78 12.955-43.84 22.39-70.5 28.844-23.51 5.693-48.78 9.455-77.25 11.507-24.12 1.728-48.33 2.047-69.48 2.047z"/><path d="M1304.82 403.298c-18.68 0-36.63-.669-52.68-1.347-29.52-1.246-60.62-3.832-92.41-7.689-25.75-3.168-51.07-7.126-75.28-11.768-66.27-12.687-131.71-33.804-200.04-64.555-29.8-13.408-57.892-27.836-84.104-41.462-51.751-26.824-103.377-48.573-153.453-64.647-73.647-23.641-142.552-36.208-216.851-39.55-42.335-1.904-86.977-1.127-129.106 2.245-35.263 2.823-68.506 9.634-99.54 16.365a2368.29 2368.29 0 00-24.542 5.495c-2.129.491-4.276.99-6.452 1.495-35.743 8.303-76.186 17.698-128.091 17.698-.876 0-1.748-.002-2.63-.008-35.117-.214-70.97-3.225-105.645-6.14-13.748-1.156-27.964-2.349-41.605-3.315-26.645-1.885-49.721-2.441-70.551-1.697-75.761 2.707-139.709 13.661-175.441 30.059l-.612-.482c17.664-8.105 43.206-15.143 73.856-20.352 30.147-5.122 65.465-8.521 102.134-9.831 20.889-.746 44.024-.189 70.727 1.7 13.656.966 27.876 2.161 41.627 3.315 34.643 2.91 70.463 5.919 105.513 6.133 52.985.326 94.088-9.226 130.348-17.651l6.452-1.496a2319.184 2319.184 0 0124.56-5.497c31.085-6.745 64.391-13.565 99.749-16.396 42.195-3.377 86.911-4.156 129.315-2.25 36.819 1.656 71.924 5.565 107.319 11.949 36.453 6.576 72.412 15.625 109.931 27.671 50.139 16.096 101.831 37.872 153.636 64.722 26.202 13.622 54.276 28.041 84.05 41.436 68.238 30.709 133.576 51.796 199.746 64.462 24.17 4.634 49.46 8.588 75.17 11.751 31.75 3.852 62.8 6.437 92.28 7.678 49.6 2.092 102.37 3.166 154.28-8.407 27.32-6.091 50.43-15.543 70.67-28.899 36.04-23.79 58.48-56.24 78.27-84.871 9.96-14.405 19.37-28.012 29.75-39.611 3.75-4.185 7.52-8.51 11.16-12.693 11.41-13.087 23.2-26.619 37.15-39.257 16.15-14.722 33.91-26.933 52.8-36.293 21.69-10.749 44.28-17.389 67.15-19.729 14.3-1.464 28.85-1.697 44.49-.719 43.69 2.736 88.08 16.256 129.54 30.462 38.29 13.115 76.08 30.541 109.31 50.393 36.96 22.018 71.01 48.229 101.21 77.901 27 26.536 50.84 55.717 70.85 86.738l-.94.218c-42.53-65.939-101.95-122.798-171.83-164.43-33.16-19.814-70.88-37.207-109.09-50.296-41.37-14.173-85.64-27.66-129.15-30.386-15.55-.973-30.01-.739-44.21.714-42.23 4.321-84.59 24.122-119.28 55.758-13.93 12.611-25.71 26.13-37.1 39.204-3.64 4.184-7.41 8.51-11.16 12.699-10.36 11.573-19.76 25.166-29.71 39.556-19.83 28.675-42.3 61.178-78.47 85.047-20.34 13.428-43.59 22.934-71.06 29.06-23.83 5.314-49.55 8.392-78.62 9.402-7.85.286-15.68.398-23.39.398z"/><path d="M1341.7 405.683h-.8c-26.4-.04-52.32-1.982-76.62-3.967-29.47-2.408-60.55-6.197-92.36-11.256-25.63-4.118-50.79-8.986-74.79-14.462-63.63-14.501-126.312-36.895-197.265-70.481-25.553-12.092-50.699-25.113-75.021-37.703-3.041-1.576-6.086-3.15-9.131-4.724-52.018-26.817-105.436-47.498-158.766-61.468-73.027-19.128-146.678-27.008-225.161-24.092-43.034 1.601-87.636 5.975-128.985 12.649-32.624 5.268-61.695 13.719-96.312 24.22a4215.012 4215.012 0 00-23.575 7.262l-.505.158c-17.489 5.473-37.311 11.674-59.544 16.389-25.535 5.416-50.307 8.022-75.71 7.991-39.612-.059-80.037-4.488-119.129-8.774-9.577-1.05-19.485-2.136-29.048-3.117-27.425-2.811-50.64-4.231-70.972-4.339-74.863-.396-141.556 6.269-182.974 18.284l-.476-.594c20.287-5.887 47.654-10.664 79.139-13.816 31.543-3.159 67.619-4.726 104.322-4.532 20.39.107 43.664 1.53 71.148 4.347 9.57.982 19.478 2.067 29.06 3.117 39.043 4.28 79.417 8.704 118.934 8.764h.53c56.526 0 99.589-13.472 134.214-24.305l.509-.159c9.069-2.82 16.562-5.127 23.582-7.264 34.676-10.518 63.798-18.985 96.525-24.268 41.418-6.687 86.093-11.068 129.201-12.671 38.406-1.426 74.632-.339 110.756 3.329 38.926 3.951 76.516 10.76 114.911 20.818 53.432 13.996 106.942 34.711 159.044 61.572 3.045 1.574 6.09 3.15 9.131 4.726 24.311 12.585 49.45 25.602 74.98 37.685 70.863 33.544 133.448 55.907 196.978 70.384 23.96 5.47 49.09 10.328 74.68 14.443 31.77 5.052 62.8 8.834 92.23 11.237 52.72 4.311 104.32 7.3 156.1-3.302 28.09-5.754 51.37-15.266 71.14-29.082 35.72-24.956 55.24-59.537 72.46-90.05 8.06-14.285 15.67-27.779 24.26-39.118 3.31-4.363 6.62-8.876 9.83-13.241 10.02-13.649 20.39-27.759 33.1-41.064 14.63-15.43 31.17-28.479 49.14-38.786 20.5-11.746 42.33-19.565 64.91-23.237 14-2.276 28.29-3.386 43.64-3.386.33 0 .67 0 1 .002 47.73.15 96.85 13.178 134.31 24.51 39.9 12.074 79.01 28.884 113.09 48.612 37.96 21.917 72.29 48.386 102.01 78.675 26.67 27.18 49.32 57.045 67.3 88.771l-1.04.214c-26.76-47.206-77.82-114.528-169.03-167.182-34-19.684-73.02-36.454-112.83-48.5-37.35-11.302-86.31-24.292-133.81-24.439-15.64-.055-30.14 1.05-44.35 3.361-41.83 6.804-82.1 28.721-113.39 61.713-12.68 13.274-23.03 27.369-33.05 41.002-3.2 4.368-6.52 8.883-9.83 13.248-8.56 11.31-16.17 24.787-24.22 39.056-17.25 30.568-36.8 65.215-72.66 90.269-19.91 13.908-43.34 23.484-71.63 29.275-23.97 4.907-49.88 7.296-79.18 7.296z"/><path d="M1371.03 408.782c-5.69 0-11.5-.11-17.45-.33-26.05-.962-51.36-3.848-77.15-6.974-29.9-3.624-60.1-8.471-92.32-14.82-25.5-5.067-50.5-10.839-74.31-17.159-60.41-16.009-120.39-39.574-194.48-76.407-18.401-9.147-36.794-18.74-54.583-28.019-9.684-5.05-19.694-10.273-29.613-15.374-52.637-26.997-107.839-46.607-164.075-58.287-74.303-15.434-150.668-18.26-233.468-8.641-43.744 5.083-88.306 13.054-128.863 23.051-32.581 8.03-60.962 19.308-91.011 31.248l-2.077.825c-4.694 1.872-9.439 3.769-14.242 5.689l-8.362 3.344c-17.521 7.037-36.446 14.379-58.148 20.03-25.197 6.56-50.12 9.787-76.2 9.866-43.42.128-87.706-5.935-130.531-11.804a5767.175 5767.175 0 00-18.573-2.524c-28.774-3.853-51.458-6.07-71.397-6.981-73.581-3.361-143.022-.993-190.522 6.501l-.304-.692c47.625-7.513 117.208-9.89 190.917-6.522 19.995.913 42.737 3.137 71.566 6.996 6.14.823 12.465 1.688 18.58 2.527 42.301 5.796 86.028 11.786 128.871 11.786.462 0 .924 0 1.389-.002 55.415-.168 94.861-14.181 133.696-29.776a8097.34 8097.34 0 008.362-3.344c4.803-1.921 9.544-3.817 14.242-5.69l2.077-.826c30.1-11.96 58.529-23.257 91.216-31.314 40.63-10.016 85.269-18 129.091-23.092 83.008-9.644 159.579-6.809 234.083 8.667 56.375 11.711 111.705 31.365 164.46 58.421 9.918 5.103 19.932 10.325 29.616 15.377 17.782 9.276 36.171 18.868 54.561 28.008 74.002 36.791 133.902 60.323 194.202 76.305 23.78 6.309 48.74 12.074 74.2 17.133 32.17 6.34 62.33 11.181 92.19 14.797 45.32 5.493 101.73 12.33 157.9 1.799 28.88-5.413 52.31-14.985 71.62-29.263 35.38-26.152 51.78-62.934 66.26-95.384 6.29-14.097 12.23-27.413 19.16-38.464 2.7-4.306 5.41-8.759 8.02-13.067 8.78-14.448 17.86-29.386 29.52-43.594 13.15-16.147 28.46-30.035 45.49-41.279 19.3-12.742 40.39-21.739 62.66-26.742 14.3-3.212 28.95-5.191 44.8-6.052 21.22-1.153 43.81.079 69.06 3.76 21.36 3.117 44.26 7.956 70.01 14.795 41.53 11.031 81.94 27.227 116.87 46.834 38.98 21.813 73.57 48.544 102.81 79.447 26.33 27.827 47.79 58.377 63.76 90.805l-1.14.203c-33.73-68.462-92.77-128.812-166.24-169.931-34.84-19.555-75.14-35.704-116.55-46.702-55.48-14.736-99.47-20.615-138.47-18.498-15.75.854-30.29 2.82-44.49 6.008-53 11.903-87.72 43.369-107.5 67.667-11.63 14.172-20.7 29.093-29.47 43.523-2.62 4.31-5.33 8.766-8.03 13.074-6.91 11.018-12.84 24.318-19.12 38.398-14.5 32.52-30.94 69.38-66.49 95.651-19.46 14.39-43.08 24.038-72.19 29.496-19.73 3.698-40.77 5.523-63.89 5.523z"/><path d="M1396.43 412.335c-38.75 0-76-5.981-107.87-11.097-29.98-4.812-60.16-10.826-92.28-18.383-25.35-6.01-50.19-12.689-73.82-19.854-70.84-21.455-133.999-52.249-191.693-82.333-11.78-6.142-23.681-12.473-35.186-18.595-15.975-8.501-32.496-17.291-49.05-25.762-53.425-27.264-110.412-45.806-169.373-55.111-76.274-12.035-155.362-9.809-241.782 6.807-44.496 8.554-89.013 20.122-128.742 33.454-30.643 10.28-56.569 23.259-84.016 37-1.946.973-3.895 1.95-5.856 2.928l-1.062.532c-6.672 3.344-13.572 6.8-20.566 10.27-16.759 8.349-35.215 16.985-56.562 23.583-24.78 7.658-49.76 11.477-76.38 11.676-46.724.35-94.345-7.542-140.394-15.174-3.228-.535-6.442-1.068-9.64-1.594-30.368-5.006-52.521-7.973-71.823-9.624-71.734-6.133-143.93-8.062-198.077-5.29l-.11-.769c54.235-2.778 126.537-.847 198.367 5.295 19.357 1.655 41.557 4.629 71.98 9.644 3.198.526 6.412 1.059 9.643 1.596 45.962 7.616 93.492 15.489 140.036 15.145 57.807-.431 98.518-18.335 132.139-35.083 6.995-3.469 13.894-6.925 20.566-10.267l1.063-.533 5.855-2.927c27.495-13.765 53.465-26.767 84.21-37.082 39.802-13.356 84.404-24.944 128.977-33.513 40.971-7.877 79.455-12.425 117.645-13.904 42.601-1.649 84.606.735 124.851 7.086 59.149 9.334 116.304 27.928 169.879 55.267 16.565 8.475 33.09 17.267 49.069 25.771 11.505 6.122 23.398 12.451 35.174 18.591 57.635 30.05 120.718 60.812 191.428 82.227 23.6 7.154 48.4 13.824 73.72 19.825 32.06 7.546 62.2 13.551 92.14 18.357 45.97 7.379 103.18 16.563 159.71 6.899 29.66-5.072 53.24-14.703 72.09-29.443 35.02-27.383 48.12-66.428 59.68-100.879 4.64-13.842 9.03-26.916 14.44-37.652 2-3.971 4.01-8.074 5.95-12.043 7.6-15.524 15.46-31.579 26.2-46.973 11.7-16.878 25.77-31.609 41.83-43.78 18.12-13.734 38.45-23.909 60.42-30.242 14.27-4.113 28.97-6.963 44.95-8.718 21.53-2.362 45.42-2.282 71.01.236 22.4 2.206 46.9 6.364 72.82 12.363 43.15 9.987 84.87 25.566 120.67 45.052 39.99 21.712 74.85 48.701 103.61 80.22 25.98 28.474 46.25 59.711 60.22 92.842l-1.25.189c-29.6-70.201-87.64-131.526-163.44-172.678-35.68-19.423-77.27-34.951-120.27-44.906-55.74-12.902-102.56-17.012-143.14-12.558-15.86 1.741-30.46 4.572-44.62 8.653-52.28 15.068-84.12 48.353-101.62 73.624-10.72 15.355-18.57 31.387-26.16 46.891-1.94 3.969-3.95 8.075-5.95 12.05-5.39 10.701-9.78 23.757-14.41 37.582-5.57 16.574-11.87 35.358-21.02 52.969-10.48 20.177-23.21 35.952-38.9 48.227-9.07 7.097-19.5 13.137-31 17.954-12.36 5.18-26.41 9.138-41.76 11.762-17.57 3.005-35.2 4.2-52.52 4.2z"/><path d="M1419.33 416.233c-12.81 0-26.23-.748-40.41-2.243-27.92-2.943-54.64-8.284-78.22-12.992-29.72-5.937-60.76-13.323-92.24-21.95-25.19-6.943-49.86-14.529-73.34-22.551-67.37-22.997-125.41-53.576-188.906-88.256a8894.771 8894.771 0 01-16.913-9.268c-21.819-11.973-44.378-24.353-67.363-36.051-54.312-27.583-113.079-45.055-174.671-51.932-77.692-8.676-161.84-1.191-250.095 22.249-45.288 12.028-89.765 27.191-128.622 43.853-29.257 12.545-53.341 27.336-78.839 42.997-2.59 1.591-5.192 3.187-7.808 4.79a2779.295 2779.295 0 01-20.658 12.569c-14.96 9.028-33.192 19.315-54.975 27.136-24.384 8.757-49.427 13.171-76.556 13.49-49.662.588-100.215-9.292-149.103-18.845l-1.862-.364c-23.937-4.675-49.259-9.399-72.247-12.268-70.071-8.741-143.098-14.81-205.625-17.089l.084-.823c62.593 2.28 135.686 8.354 205.819 17.104 23.054 2.877 48.42 7.608 72.394 12.29l1.861.364c48.783 9.531 99.233 19.387 148.654 18.804 57.074-.674 96.492-19.808 130.585-40.386 7.134-4.289 14.14-8.575 20.651-12.566 2.616-1.6 5.217-3.198 7.808-4.788 25.542-15.686 49.669-30.504 79.022-43.091 38.93-16.695 83.492-31.887 128.863-43.937 41.408-10.995 82.155-18.573 121.104-22.517 44.503-4.507 88.174-4.436 129.801.211 61.827 6.903 120.811 24.437 175.306 52.115 23.002 11.709 45.573 24.094 67.403 36.073 5.54 3.04 11.271 6.184 16.913 9.266 63.435 34.647 121.415 65.193 188.665 88.151 23.44 8.008 48.08 15.583 73.23 22.517 31.44 8.614 62.42 15.989 92.1 21.917 46.52 9.294 104.42 20.858 161.51 11.997 30.45-4.726 54.19-14.414 72.57-29.621 34.63-28.651 44.65-71.835 52.7-106.535 3.14-13.516 6.1-26.281 10.11-36.672 1.27-3.275 2.55-6.65 3.78-9.915 6.41-16.959 13.05-34.497 23-51.456 15.36-26.392 44.54-61.697 96.33-80.02 14.31-5.058 29.06-8.783 45.11-11.385 41.99-6.905 91.98-4.67 148.59 6.638 44.77 8.944 87.8 23.906 124.46 43.271 41 21.609 76.13 48.857 104.41 80.995 12.98 14.74 24.44 30.484 34.09 46.794 9.21 15.579 16.81 31.756 22.58 48.084l-1.34.171c-25.45-71.944-82.51-134.244-160.65-175.425-36.52-19.293-79.39-34.198-123.99-43.11-56.34-11.257-106.07-13.484-147.79-6.623-15.93 2.582-30.58 6.278-44.77 11.3-51.43 18.194-80.45 53.318-95.74 79.581-9.92 16.915-16.54 34.429-22.95 51.366-1.24 3.264-2.51 6.641-3.78 9.919-4 10.355-6.96 23.103-10.09 36.6-4.05 17.461-8.64 37.251-16.49 55.929-9.02 21.464-20.95 38.139-36.46 50.977-8.85 7.324-19.21 13.501-30.77 18.357-12.46 5.233-26.78 9.129-42.57 11.577-13.85 2.153-28.32 3.227-43.66 3.227z"/><path d="M1440.44 420.35c-15.36 0-31.55-1.195-48.84-3.592-28.02-3.881-54.98-10.322-78.77-16.006-29.95-7.155-60.96-15.738-92.19-25.514-25.02-7.87-49.54-16.363-72.85-25.245-64.17-24.424-119.2-55.903-177.467-89.227-2.883-1.649-5.767-3.3-8.658-4.951-27.095-15.48-55.11-31.488-84.316-46.281-55.257-27.933-115.805-44.338-179.962-48.758-80.587-5.554-167.53 7.128-258.42 37.689-45.463 15.286-91.099 34.555-128.501 54.255-28.242 14.874-50.893 31.611-74.874 49.332-2.84 2.098-5.687 4.202-8.556 6.311-5.731 4.22-12.549 9.224-19.687 14.342-13.22 9.503-31.232 21.58-53.385 30.665-23.995 9.842-49.094 14.859-76.731 15.332-22.718.341-47.787-1.765-76.645-6.443-24.776-4.015-48.742-9.263-75.262-15.207-24.208-5.492-49.758-11.165-72.68-14.912-67.898-11.099-139.617-20.818-213.162-28.893l.264-.865c73.588 8.077 145.348 17.805 213.283 28.908 22.984 3.758 48.57 9.44 72.808 14.936 44.452 9.966 99.775 22.373 151.353 21.596 58.969-1.013 96.866-22.555 129.032-45.685 7.134-5.114 13.949-10.115 19.676-14.333 2.869-2.109 5.716-4.213 8.552-6.309 24.021-17.749 46.713-34.515 75.047-49.438 37.479-19.739 83.202-39.045 128.753-54.36 91.165-30.654 178.409-43.369 259.303-37.795 31.016 2.138 61.482 7.102 90.546 14.753 31.184 8.209 61.529 19.72 90.193 34.207 29.239 14.809 57.273 30.826 84.383 46.317l8.661 4.95c58.212 33.296 113.192 64.744 177.232 89.122 23.29 8.869 47.76 17.351 72.75 25.208 31.18 9.761 62.15 18.333 92.05 25.476 47 11.227 105.49 25.199 163.32 17.096 31.33-4.39 55.22-14.137 73.04-29.798 34.32-29.912 40.43-75.605 45.34-112.319 1.76-13.131 3.42-25.534 6.17-35.563.57-2.069 1.14-4.15 1.71-6.241 5.13-18.89 10.45-38.424 19.68-57.488 13.19-27.42 39.57-64.601 90.43-86.016 14.19-5.974 28.99-10.57 45.26-14.053 22.61-4.885 47.81-7.18 74.89-6.829 24.72.322 51.12 2.847 78.46 7.503 46.38 7.896 90.73 22.242 128.25 41.486 42.01 21.503 77.41 49.015 105.22 81.769 12.76 15.029 23.8 31.097 32.83 47.756 8.65 15.956 15.48 32.497 20.29 49.163l-1.44.15c-20.98-72.625-78.52-137.565-157.85-178.169-37.36-19.16-81.52-33.447-127.7-41.312-56.95-9.7-109.66-9.937-152.46-.691-16.15 3.456-30.84 8.017-44.91 13.945-50.51 21.267-76.75 58.256-89.86 85.54-9.21 19.013-14.52 38.519-19.65 57.385-.57 2.091-1.14 4.174-1.7 6.243-2.75 9.992-4.4 22.379-6.16 35.49-4.93 36.82-11.06 82.645-45.6 112.749-8.59 7.548-18.86 13.866-30.52 18.773-12.55 5.279-27.15 9.109-43.39 11.385-11.72 1.638-23.86 2.461-36.58 2.461z"/><path d="M1460.27 424.637c-17.5 0-36.03-1.7-56-5.112-28.26-4.827-55.39-12.367-79.32-19.017-30.24-8.405-61.24-18.19-92.14-29.078-24.84-8.783-49.19-18.185-72.37-27.94-57.08-24.012-105.85-53.428-157.5-84.573a7232.164 7232.164 0 00-25.834-15.531c-30.448-18.183-56.448-33.176-84.357-47.241-56.242-28.302-118.567-43.639-185.249-45.585-83.789-2.446-173.539 15.429-266.752 53.127-46.306 18.729-91.901 41.689-128.383 64.654-27.484 17.3-48.97 36.133-71.716 56.07a3925.57 3925.57 0 01-8.494 7.43c-5.071 4.427-11.783 10.26-18.712 16.109-29.158 24.673-67.253 50.075-128.702 51.373-1.916.038-3.84.055-5.76.055-47.984 0-96.972-11.409-147.089-24.148l-3.129-.802c-24.823-6.366-48.273-12.378-69.979-16.754-81.799-16.493-160.909-30.414-220.691-40.699l.428-.9c59.797 10.289 138.929 24.213 220.758 40.712 21.764 4.387 45.24 10.408 70.096 16.781l3.126.801c51.952 13.206 102.688 24.985 152.185 24.021 60.768-1.286 98.544-26.491 127.486-50.979 6.925-5.845 13.63-11.674 18.701-16.098a4954.74 4954.74 0 008.49-7.43c22.782-19.968 44.301-38.832 71.873-56.187 36.556-23.013 82.243-46.019 128.64-64.786 43.063-17.417 86.141-30.79 128.036-39.752 48.068-10.282 95.059-14.835 139.661-13.534 67.026 1.955 129.667 17.367 186.173 45.802 27.949 14.086 53.975 29.095 84.452 47.293 8.666 5.176 17.397 10.441 25.842 15.533 51.59 31.114 100.33 60.502 157.29 84.466 23.15 9.743 47.46 19.13 72.26 27.9 30.86 10.874 61.81 20.644 92.01 29.036 47.41 13.175 106.41 29.57 165.13 22.189 32.09-4.035 56.14-13.84 73.5-29.973 33.88-31.275 35.92-79.54 37.56-118.321.53-12.653 1.04-24.606 2.66-34.237l.03-.221c3.63-21.566 7.37-43.866 15.97-65.868 7.44-19.192 17.8-36.446 30.8-51.287 14.66-16.733 32.73-30.434 53.71-40.725 14.04-6.886 28.9-12.356 45.41-16.722 44.62-11.863 99.29-13.694 158.12-5.292 23.67 3.381 47.02 8.504 69.41 15.223 22.51 6.758 43.59 14.997 62.64 24.485 43.03 21.399 78.7 49.172 106.02 82.546 24.56 29.998 41.7 64.218 49.58 98.958l-1.54.125c-16.86-74.353-73.37-140.292-155.06-180.909-38.19-19.024-83.64-32.69-131.41-39.512-58.49-8.354-112.82-6.542-157.12 5.24-16.39 4.332-31.12 9.758-45.06 16.589-39.18 19.215-68.22 50.855-83.98 91.499-8.57 21.945-12.31 44.214-15.93 65.75l-.04.22c-1.61 9.595-2.12 21.531-2.65 34.167-1.65 38.9-3.69 87.31-37.82 118.804-8.37 7.78-18.57 14.234-30.3 19.183-12.65 5.336-27.51 9.103-44.19 11.2-9.93 1.246-20.16 1.872-30.77 1.872z"/><path d="M85.88 430.027c-21.457 0-44.822-2.512-71.192-7.641-26.202-5.096-52.114-12.131-76.216-18.973-4.363-1.246-8.694-2.49-12.996-3.725-21.412-6.148-41.638-11.955-60.54-16.479-75.373-18.031-147.217-34.238-216.698-49.907l-11.512-2.598.578-.926 11.513 2.597c69.484 15.674 141.34 31.88 216.727 49.916 18.954 4.535 39.205 10.348 60.643 16.506a7174.57 7174.57 0 0012.989 3.722c49.475 14.045 102.04 27.656 153.02 26.443 62.67-1.568 100.226-30.898 125.94-56.273 6.588-6.49 12.934-12.958 17.727-17.867 2.645-2.705 5.272-5.408 7.892-8.105 21.728-22.355 42.25-43.47 69.239-63.379 35.626-26.275 81.268-52.987 128.527-75.209 43.844-20.618 88.087-36.908 131.505-48.417 49.802-13.201 98.445-20.052 144.579-20.362 69.419-.621 133.894 13.728 191.61 42.642 31.994 16.048 60.68 33.408 84.525 48.274 12.97 8.09 25.95 16.382 38.5 24.402 44.42 28.39 90.35 57.745 141.86 81.522 23.01 10.624 47.17 20.917 71.78 30.592 30.47 11.947 61.41 22.914 91.97 32.596 47.76 15.132 107.2 33.964 166.92 27.281 32.87-3.678 57.07-13.54 73.97-30.15 33.44-32.692 31.18-83.6 29.36-124.506-.53-12.096-1.04-23.523-.43-32.723 1.37-20.739 3.44-44.841 10.61-68.449 6.05-20.003 15.17-38.101 27.12-53.787 13.52-17.745 30.85-32.622 51.49-44.219 13.68-7.685 29.01-14.207 45.56-19.39 23.61-7.418 50.12-12.083 78.77-13.861 26.84-1.667 55.13-.79 84.1 2.602 24.42 2.861 48.5 7.568 71.56 13.991 23.2 6.464 44.83 14.516 64.29 23.934 22.43 10.843 43.05 23.649 61.3 38.061 17.28 13.655 32.6 28.884 45.53 45.262 24.19 30.64 40.11 65.567 46.03 100.998l-1.64.099c-12.72-76.085-68.21-143.022-152.26-183.648-38.49-18.628-86.47-32.025-135.13-37.724-60.16-7.047-116.1-3.186-161.79 11.165-16.42 5.14-31.63 11.612-45.2 19.235-38.89 21.851-65.18 54.64-78.11 97.461-7.15 23.543-9.22 47.604-10.59 68.31-.6 9.166-.1 20.576.44 32.657.89 20.18 1.91 43.054-1.49 65.166-3.95 25.659-13.14 45.247-28.11 59.884-8.15 8.008-18.27 14.601-30.08 19.594-12.75 5.393-27.89 9.098-44.99 11.011-8.63.966-17.25 1.405-25.82 1.405-51.33 0-101.06-15.758-142.18-28.785-30.6-9.697-61.59-20.68-92.09-32.644-24.66-9.688-48.85-19.997-71.89-30.636-51.62-23.826-97.6-53.211-142.06-81.629-12.55-8.017-25.52-16.307-38.483-24.393-23.813-14.848-52.458-32.183-84.394-48.2-57.404-28.761-121.502-43.026-190.532-42.414-108.408.731-209.432 37.689-275.092 68.568-47.163 22.178-92.714 48.832-128.262 75.055-26.909 19.849-47.402 40.932-69.096 63.251-2.62 2.697-5.251 5.4-7.896 8.108-4.797 4.911-11.146 11.383-17.738 17.879-10.794 10.652-27.74 26.159-50.186 37.782a165.373 165.373 0 01-34.479 13.186c-13.355 3.463-27.696 5.409-42.616 5.781a245.59 245.59 0 01-6.386.081z"/><path d="M92.769 460.675c-21.482 0-44.8-2.705-71.03-8.226-27.159-5.715-54.009-13.75-76.689-20.858a4592.457 4592.457 0 01-20.65-6.554c-18.804-5.998-36.567-11.667-53.315-16.294-60.145-16.62-119.898-32.846-177.687-48.54-19.115-5.191-38.879-10.557-58.035-15.77l.718-.953c19.156 5.212 38.92 10.579 58.035 15.77 57.789 15.693 117.549 31.922 177.698 48.544 16.792 4.641 34.577 10.313 53.403 16.321a4879.388 4879.388 0 0020.64 6.551C-7.106 445.402 47.455 461.001 99.7 459.533c64.146-1.845 100.175-33.873 124.401-61.568 6.211-7.095 12.216-14.218 16.752-19.632 2.33-2.778 4.646-5.554 6.958-8.323 20.782-24.908 40.41-48.434 66.945-71.026 34.512-29.384 80.118-59.796 128.41-85.633 67.253-35.827 171.197-79.528 284.467-84.267 72.035-3.096 138.335 10.187 197.051 39.483 26.381 13.168 52.469 28.358 84.595 49.255 16.24 10.56 32.35 21.505 47.93 32.087 40.53 27.532 82.44 56.002 129.67 79.766 22.87 11.515 46.86 22.713 71.29 33.284 29.59 12.788 60.51 24.953 91.92 36.157 48.25 17.107 108.29 38.401 168.73 32.373 33.13-3.235 58.17-13.439 74.43-30.323 32.97-34.172 25.9-90.077 20.73-130.897-1.45-11.456-2.82-22.275-3.09-31.004-.6-19.398-.55-44.975 5.23-70.808 9.97-44.765 34.43-79.757 72.69-104 13.41-8.542 28.8-15.963 45.71-22.058 24.07-8.682 51.22-14.523 80.71-17.356 27.79-2.668 57.03-2.626 86.91.126 25.22 2.373 50.02 6.674 73.71 12.78 23.93 6.17 46.11 14.028 65.95 23.36 22.93 10.782 43.88 23.63 62.26 38.193 17.43 13.8 32.69 29.245 45.38 45.909 23.82 31.286 38.51 66.917 42.48 103.041l-1.74.068c-8.56-77.822-63.03-145.758-149.45-186.386-39.18-18.432-88.5-31.193-138.85-35.93-62.07-5.713-119.63.198-166.46 17.093-16.78 6.045-32.03 13.406-45.34 21.88-38.01 24.082-62.31 58.876-72.23 103.421-5.76 25.762-5.81 51.289-5.22 70.65.28 8.697 1.64 19.504 3.09 30.944 2.67 21.1 5.7 45.018 3.97 68.368-2.02 27.188-10.17 47.839-24.93 63.132-7.94 8.248-17.98 14.985-29.85 20.021-12.86 5.462-28.27 9.098-45.8 10.811-27.19 2.71-56.45.275-89.46-7.445-28.69-6.712-56.18-16.459-80.44-25.058-31.45-11.22-62.42-23.402-92.05-36.208-24.47-10.586-48.49-21.8-71.4-33.33-47.32-23.812-89.28-52.313-129.86-79.874-15.57-10.58-31.67-21.518-47.89-32.069-32.076-20.86-58.116-36.021-84.435-49.159-58.368-29.128-124.247-42.332-195.824-39.256-112.782 4.722-216.382 48.289-283.434 84.008-48.196 25.784-93.707 56.132-128.145 85.454-26.462 22.528-46.061 46.021-66.81 70.892a4209.447 4209.447 0 01-6.958 8.326c-4.54 5.417-10.549 12.547-16.767 19.649-24.439 27.942-60.83 60.255-125.859 62.124a253.56 253.56 0 01-7.01.097z"/><path d="M99.796 491.324c-58.697 0-120.286-21.659-174.884-40.862-16.777-5.899-32.624-11.473-47.683-16.186L-366 358.16l.846-.975 243.229 76.116c15.1 4.724 30.965 10.304 47.764 16.213 56.709 19.944 120.986 42.55 181.366 40.59 65.56-2.124 100.097-36.848 122.862-66.859 7.445-9.816 14.634-19.803 21.588-29.463 19.02-26.416 38.685-53.733 64.857-79.156 20.782-20.186 46.599-41.357 74.658-61.22 30.782-21.791 63.74-41.783 97.951-59.421 37.721-19.444 76.076-35.529 113.995-47.806 41.942-13.578 83.261-22.443 122.818-26.35 79.242-7.826 151.313 4.05 214.206 35.303 52.267 25.969 96.69 58.082 139.65 89.139 37.4 27.032 76.06 54.983 119.85 78.876 50.57 27.597 105.31 53.064 162.69 75.692 48.35 19.065 108.52 42.796 170.53 37.462 52.38-4.504 82.66-25.557 92.57-64.367 8.44-33.012.41-72.171-6.03-103.635-2.2-10.723-4.27-20.852-5.29-29.065-5.62-45.277-2.04-82.654 10.95-114.263 8.1-19.722 20.06-37.302 35.54-52.251 17.29-16.7 39.49-30.621 65.99-41.377 22.91-9.305 48.74-16.063 76.77-20.087 26.68-3.83 54.76-5.114 83.48-3.815 56.48 2.554 111.73 15.004 155.57 35.056 23.43 10.719 44.71 23.614 63.24 38.326 17.56 13.943 32.77 29.606 45.21 46.556 23.44 31.931 36.9 68.268 38.93 105.082l-1.83.037c-4.32-78.394-59.15-149.095-146.66-189.122-92.94-42.508-224.87-47.186-313.7-11.12-87.99 35.729-124.52 103.405-111.67 206.897 1.01 8.187 3.09 18.302 5.28 29.011 6.46 31.532 14.5 70.776 6.03 103.937-4.62 18.062-13.89 32.578-27.57 43.146-7.7 5.942-16.97 10.798-27.57 14.43-11.28 3.866-24.4 6.461-38.98 7.716-5.96.513-12.03.771-18.19.771-22.48 0-46.41-3.415-72.64-10.331-29.55-7.793-58.06-19.038-80.97-28.072-57.46-22.661-112.27-48.161-162.92-75.797-43.89-23.944-82.59-51.928-120.03-78.989-42.9-31.017-87.271-63.09-139.406-88.994-62.472-31.039-134.049-42.838-212.744-35.065-159.188 15.722-323.167 111.736-408.162 194.291-26.102 25.353-45.741 52.632-64.736 79.013-6.958 9.664-14.15 19.658-21.603 29.483-15.114 19.924-30.041 34.191-46.976 44.894a141.924 141.924 0 01-34.086 15.65c-13.396 4.118-27.986 6.461-43.368 6.96-2.484.077-4.987.117-7.493.117z"/></g></svg>