<svg width="759" height="401" fill="none" xmlns="http://www.w3.org/2000/svg"><path d="M679.368 316.957c0-165.612-134.256-299.868-299.868-299.868S79.632 151.345 79.632 316.957" stroke="#A7CEFC" stroke-width="2" stroke-dasharray="15 15"/><path stroke="#A7CEFC" stroke-width="3" stroke-dasharray="15 15" d="M78.007 315.457h601.36M200.311 75.538l125.96 175.532M580.97 94.504L456.252 252.063"/><rect x="324.115" y="250.194" width="133.525" height="133.525" rx="8.5" stroke="#A7CEFC" stroke-width="3" stroke-dasharray="15 15"/><g filter="url(#filter0_d_9_2402)"><rect x="350.245" y="276.324" width="81.265" height="81.265" rx="10" fill="#fff"/></g><g filter="url(#filter1_d_9_2402)"><rect x="39" y="276.324" width="81.265" height="81.265" rx="10" fill="#fff"/></g><path d="M77.81 320.086a1.523 1.523 0 01-1.077-2.601l9.874-9.875a1.523 1.523 0 112.154 2.155l-9.874 9.874a1.516 1.516 0 01-1.077.447z" fill="#FFE492"/><path d="M77.81 320.086c-.39 0-.78-.149-1.078-.446l-4.978-4.978a1.523 1.523 0 112.154-2.154l4.978 4.977a1.524 1.524 0 01-1.077 2.601zm1.821 15.866c-.158 0-.32-.025-.478-.077a23.67 23.67 0 01-16.283-22.519 1.524 1.524 0 013.048 0 20.628 20.628 0 0014.19 19.625 1.524 1.524 0 01-.477 2.971z" fill="#FFE492"/><path d="M64.394 314.88a1.524 1.524 0 01-1.524-1.524v-10.779a1.525 1.525 0 013.048 0v10.779c0 .842-.683 1.524-1.524 1.524z" fill="#FFE492"/><path d="M64.394 304.101a1.523 1.523 0 01-.208-3.033 47.794 47.794 0 0014.768-4.572 1.524 1.524 0 111.359 2.728 50.865 50.865 0 01-15.707 4.862c-.071.01-.142.015-.212.015zm15.238 31.851a1.525 1.525 0 01-.477-2.971 20.626 20.626 0 0014.19-19.625 1.524 1.524 0 013.048 0 23.668 23.668 0 01-16.284 22.519 1.497 1.497 0 01-.477.077z" fill="#FFE492"/><path d="M94.87 314.88a1.524 1.524 0 01-1.523-1.524v-10.779a1.525 1.525 0 013.047 0v10.779c0 .842-.683 1.524-1.523 1.524z" fill="#FFE492"/><path d="M94.872 304.101c-.07 0-.141-.005-.212-.015a50.865 50.865 0 01-15.707-4.862 1.525 1.525 0 011.36-2.728 47.793 47.793 0 0014.766 4.572 1.524 1.524 0 01-.207 3.033z" fill="#FFE492"/><g filter="url(#filter2_d_9_2402)"><rect x="638.735" y="276.324" width="81.265" height="81.265" rx="10" fill="#fff"/></g><g clip-path="url(#clip0_9_2402)" fill="#4F9CF9"><path d="M693.08 310.481h-3.432v-7.831c0-5.554-4.614-10.073-10.285-10.073s-10.285 4.519-10.285 10.073v7.831h-3.425a5.72 5.72 0 00-5.714 5.714v19.427a5.72 5.72 0 005.714 5.714h27.427a5.72 5.72 0 005.714-5.714v-19.427a5.72 5.72 0 00-5.714-5.714zm-20.193-7.831c0-3.454 2.905-6.263 6.476-6.263s6.476 2.809 6.476 6.263v7.831h-12.952v-7.831zm22.098 32.972a1.907 1.907 0 01-1.905 1.905h-27.427a1.906 1.906 0 01-1.904-1.905v-19.427c0-1.05.854-1.905 1.904-1.905h27.427c1.05 0 1.905.855 1.905 1.905v19.427z"/><path d="M679.367 319.814a3.523 3.523 0 00-1.908 6.485v4.181a1.904 1.904 0 003.809 0v-4.177a3.523 3.523 0 00-1.901-6.489z"/></g><g filter="url(#filter3_d_9_2402)"><rect x="538.779" y="35.78" width="81.265" height="81.265" rx="10" fill="#fff"/></g><g clip-path="url(#clip1_9_2402)" fill="#FFE492"><path d="M571.708 52.033c-9.827 0-16.676 3.413-16.676 6.476s6.849 6.475 16.676 6.475c9.827 0 16.676-3.413 16.676-6.475 0-3.063-6.848-6.476-16.676-6.476zM555.032 88.26v6.057c0 3.063 6.849 6.475 16.676 6.475 4.405 0 8.562-.694 11.706-1.953 2.05-.821 3.567-1.84 4.356-2.898a21.114 21.114 0 01-4.7-5.145c-3.293 1.055-7.185 1.608-11.362 1.608-5.255 0-10.171-.905-13.842-2.55a16.537 16.537 0 01-2.834-1.594zm0-11.908v5.974c0 3.062 6.849 6.475 16.676 6.475 3.485 0 6.829-.437 9.631-1.246-1.016-2.349-1.673-4.942-1.962-7.747-2.397.45-5.008.686-7.669.686-5.289 0-10.228-.916-13.907-2.578a16.525 16.525 0 01-2.769-1.564z"/><path d="M555.032 64.438v5.978c0 3.063 6.849 6.475 16.676 6.475 2.629 0 5.191-.248 7.497-.72.004-.567.173-2.04 1.537-2.415 2.149-.59 3.653-2.006 3.786-3.95.055-.8 1.056-1.92 1.802-1.91h2.054v-3.458a16.543 16.543 0 01-2.768 1.564c-3.684 1.667-8.623 2.585-13.908 2.585-5.284 0-10.223-.918-13.907-2.585a16.514 16.514 0 01-2.769-1.564zm43.651 7.062h-10.748c-.601 2.499-2.523 4.549-5.122 5.442.203 11.994 7.097 16.568 10.136 18.002.174.082.38.073.551-.023 3.052-1.72 9.97-6.838 10.292-17.983-2.593-.896-4.509-2.943-5.109-5.438zm-6.018 15.62a1.82 1.82 0 01-2.664-.088l-3.425-4.019 2.743-2.337 2.141 2.513 5.974-6.144 2.584 2.511-7.353 7.563z"/></g><g filter="url(#filter4_d_9_2402)"><rect x="158.459" y="35.78" width="81.265" height="81.265" rx="10" fill="#fff"/></g><g clip-path="url(#clip2_9_2402)" fill="#4F9CF9"><path d="M217.25 56.629c-6.127-6.128-16.097-6.127-22.225 0a15.714 15.714 0 00-3.827 15.95L173.506 90.27a1.429 1.429 0 00-.419 1.01v8.083c0 .789.64 1.428 1.429 1.428h8.082c.379 0 .742-.15 1.01-.418l2.021-2.021a1.43 1.43 0 00.409-1.175l-.252-2.17 3.007-.284a1.43 1.43 0 001.289-1.288l.283-3.008 2.17.252a1.427 1.427 0 001.594-1.419V86.6h2.612c.376 0 .737-.149 1.005-.413l3.549-3.509a15.715 15.715 0 0015.956-3.825c6.127-6.127 6.127-16.098-.001-22.225zm-2.02 20.205a12.86 12.86 0 01-13.78 2.868 1.429 1.429 0 00-1.525.314l-3.771 3.727H192.7c-.789 0-1.428.64-1.428 1.429v2.485l-2.027-.236a1.43 1.43 0 00-1.587 1.285l-.31 3.285-3.284.31a1.43 1.43 0 00-1.286 1.587l.342 2.933-1.114 1.114h-6.062v-6.061l17.913-17.913a1.43 1.43 0 00.321-1.531 12.86 12.86 0 012.867-13.78c5.014-5.014 13.171-5.014 18.185 0 5.013 5.013 5.013 13.17 0 18.184z"/><path d="M213.209 60.67a4.292 4.292 0 00-6.062 0 4.291 4.291 0 000 6.061 4.291 4.291 0 006.062 0 4.291 4.291 0 000-6.061zm-2.021 4.04a1.43 1.43 0 11-2.02-2.023 1.43 1.43 0 012.02 2.024z"/></g><circle cx="381.938" cy="17.089" r="13.002" fill="#A7CEFC"/><circle cx="283.607" cy="194.247" r="13.002" fill="#A7CEFC"/><circle cx="562.346" cy="316.957" r="13.002" fill="#A7CEFC"/><g clip-path="url(#clip3_9_2402)" fill="#5986EF"><path d="M364 300.267v9.082c0 2.766 3.454 4.241 5.565 2.305l10.076-9.082c2.207-1.982.767-5.486-2.255-5.486H367.31c-1.823 0-3.31 1.43-3.31 3.181zm47.69-3.181h-10.076c-2.974 0-4.462 3.504-2.255 5.486l10.076 9.082c2.111 1.89 5.565.461 5.565-2.305v-9.082c0-1.751-1.487-3.181-3.31-3.181zm-19.911 22.174l17.656 15.951c2.111 1.89 5.565.461 5.565-2.305v-9.174c0-.876-.384-1.706-1.056-2.305l-22.165-20.053a3.435 3.435 0 00-4.558 0l-22.165 20.053a3.086 3.086 0 00-1.056 2.305v9.174c0 2.766 3.454 4.241 5.565 2.305l17.656-15.951a3.438 3.438 0 014.558 0z"/></g><defs><filter id="filter0_d_9_2402" x="311.245" y="241.324" width="159.265" height="159.265" filterUnits="userSpaceOnUse" color-interpolation-filters="sRGB"><feFlood flood-opacity="0" result="BackgroundImageFix"/><feColorMatrix in="SourceAlpha" values="0 0 0 0 0 0 0 0 0 0 0 0 0 0 0 0 0 0 127 0" result="hardAlpha"/><feMorphology radius="11" in="SourceAlpha" result="effect1_dropShadow_9_2402"/><feOffset dy="4"/><feGaussianBlur stdDeviation="25"/><feComposite in2="hardAlpha" operator="out"/><feColorMatrix values="0 0 0 0 0 0 0 0 0 0 0 0 0 0 0 0 0 0 0.2 0"/><feBlend in2="BackgroundImageFix" result="effect1_dropShadow_9_2402"/><feBlend in="SourceGraphic" in2="effect1_dropShadow_9_2402" result="shape"/></filter><filter id="filter1_d_9_2402" x="0" y="241.324" width="159.265" height="159.265" filterUnits="userSpaceOnUse" color-interpolation-filters="sRGB"><feFlood flood-opacity="0" result="BackgroundImageFix"/><feColorMatrix in="SourceAlpha" values="0 0 0 0 0 0 0 0 0 0 0 0 0 0 0 0 0 0 127 0" result="hardAlpha"/><feMorphology radius="11" in="SourceAlpha" result="effect1_dropShadow_9_2402"/><feOffset dy="4"/><feGaussianBlur stdDeviation="25"/><feComposite in2="hardAlpha" operator="out"/><feColorMatrix values="0 0 0 0 0 0 0 0 0 0 0 0 0 0 0 0 0 0 0.2 0"/><feBlend in2="BackgroundImageFix" result="effect1_dropShadow_9_2402"/><feBlend in="SourceGraphic" in2="effect1_dropShadow_9_2402" result="shape"/></filter><filter id="filter2_d_9_2402" x="599.735" y="241.324" width="159.265" height="159.265" filterUnits="userSpaceOnUse" color-interpolation-filters="sRGB"><feFlood flood-opacity="0" result="BackgroundImageFix"/><feColorMatrix in="SourceAlpha" values="0 0 0 0 0 0 0 0 0 0 0 0 0 0 0 0 0 0 127 0" result="hardAlpha"/><feMorphology radius="11" in="SourceAlpha" result="effect1_dropShadow_9_2402"/><feOffset dy="4"/><feGaussianBlur stdDeviation="25"/><feComposite in2="hardAlpha" operator="out"/><feColorMatrix values="0 0 0 0 0 0 0 0 0 0 0 0 0 0 0 0 0 0 0.2 0"/><feBlend in2="BackgroundImageFix" result="effect1_dropShadow_9_2402"/><feBlend in="SourceGraphic" in2="effect1_dropShadow_9_2402" result="shape"/></filter><filter id="filter3_d_9_2402" x="499.779" y=".78" width="159.265" height="159.265" filterUnits="userSpaceOnUse" color-interpolation-filters="sRGB"><feFlood flood-opacity="0" result="BackgroundImageFix"/><feColorMatrix in="SourceAlpha" values="0 0 0 0 0 0 0 0 0 0 0 0 0 0 0 0 0 0 127 0" result="hardAlpha"/><feMorphology radius="11" in="SourceAlpha" result="effect1_dropShadow_9_2402"/><feOffset dy="4"/><feGaussianBlur stdDeviation="25"/><feComposite in2="hardAlpha" operator="out"/><feColorMatrix values="0 0 0 0 0 0 0 0 0 0 0 0 0 0 0 0 0 0 0.2 0"/><feBlend in2="BackgroundImageFix" result="effect1_dropShadow_9_2402"/><feBlend in="SourceGraphic" in2="effect1_dropShadow_9_2402" result="shape"/></filter><filter id="filter4_d_9_2402" x="119.459" y=".78" width="159.265" height="159.265" filterUnits="userSpaceOnUse" color-interpolation-filters="sRGB"><feFlood flood-opacity="0" result="BackgroundImageFix"/><feColorMatrix in="SourceAlpha" values="0 0 0 0 0 0 0 0 0 0 0 0 0 0 0 0 0 0 127 0" result="hardAlpha"/><feMorphology radius="11" in="SourceAlpha" result="effect1_dropShadow_9_2402"/><feOffset dy="4"/><feGaussianBlur stdDeviation="25"/><feComposite in2="hardAlpha" operator="out"/><feColorMatrix values="0 0 0 0 0 0 0 0 0 0 0 0 0 0 0 0 0 0 0.2 0"/><feBlend in2="BackgroundImageFix" result="effect1_dropShadow_9_2402"/><feBlend in="SourceGraphic" in2="effect1_dropShadow_9_2402" result="shape"/></filter><clipPath id="clip0_9_2402"><path fill="#fff" transform="translate(654.988 292.577)" d="M0 0h48.759v48.759H0z"/></clipPath><clipPath id="clip1_9_2402"><path fill="#fff" transform="translate(555.032 52.033)" d="M0 0h48.759v48.759H0z"/></clipPath><clipPath id="clip2_9_2402"><path fill="#fff" transform="translate(173.087 52.033)" d="M0 0h48.759v48.759H0z"/></clipPath><clipPath id="clip3_9_2402"><path fill="#fff" transform="translate(364 297.086)" d="M0 0h51v39H0z"/></clipPath></defs></svg>