<svg width="710" height="661" fill="none" xmlns="http://www.w3.org/2000/svg"><circle cx="365.5" cy="330.5" r="329.5" stroke="#A7CEFC" stroke-width="2" stroke-dasharray="15 15"/><circle cx="365.5" cy="330.5" r="192.5" stroke="#A7CEFC" stroke-width="2" stroke-dasharray="15 15"/><circle cx="35" cy="331" r="35" fill="#FF5758"/><circle cx="559" cy="331" r="35" fill="#37A3FF"/><circle cx="366" cy="524" r="35" fill="#FFBF60"/><circle cx="172" cy="331" r="35" fill="#37A3FF"/><circle cx="172" cy="603" r="35" fill="#37A3FF"/><circle cx="599" cy="106" r="35" fill="#37A3FF"/><circle cx="675" cy="436" r="35" fill="#00CA75"/><mask id="mask0_107_52346" style="mask-type:alpha" maskUnits="userSpaceOnUse" x="640" y="401" width="70" height="70"><circle cx="675" cy="436" r="35" fill="#C4C4C4"/></mask><circle cx="367" cy="137" r="35" fill="#00CA75"/><mask id="mask1_107_52346" style="mask-type:alpha" maskUnits="userSpaceOnUse" x="332" y="102" width="70" height="70"><circle cx="367" cy="137" r="35" fill="#C4C4C4"/></mask><circle cx="175" cy="58" r="35" fill="#FFDC4D"/><g filter="url(#filter0_d_107_52346)"><rect x="316" y="281" width="100" height="100" rx="10" fill="#fff"/></g><g clip-path="url(#clip0_107_52346)" fill="#5986EF"><path d="M338 312.589v10.246c0 3.12 3.861 4.784 6.22 2.6l11.261-10.246c2.466-2.236.858-6.189-2.521-6.189H341.7c-2.038 0-3.7 1.612-3.7 3.589zM391.3 309h-11.26c-3.325 0-4.987 3.953-2.521 6.189l11.261 10.246c2.359 2.132 6.22.52 6.22-2.6v-10.246c0-1.977-1.662-3.589-3.7-3.589zm-22.253 25.017l19.733 17.995c2.359 2.132 6.22.52 6.22-2.601v-10.349c0-.989-.429-1.925-1.18-2.601l-24.773-22.624a3.814 3.814 0 00-5.094 0l-24.773 22.624a3.496 3.496 0 00-1.18 2.601v10.349c0 3.121 3.861 4.785 6.22 2.601l19.733-17.995a3.812 3.812 0 015.094 0z"/></g><defs><clipPath id="clip0_107_52346"><path fill="#fff" transform="translate(338 309)" d="M0 0h57v44H0z"/></clipPath><filter id="filter0_d_107_52346" x="277" y="246" width="178" height="178" filterUnits="userSpaceOnUse" color-interpolation-filters="sRGB"><feFlood flood-opacity="0" result="BackgroundImageFix"/><feColorMatrix in="SourceAlpha" values="0 0 0 0 0 0 0 0 0 0 0 0 0 0 0 0 0 0 127 0" result="hardAlpha"/><feMorphology radius="11" in="SourceAlpha" result="effect1_dropShadow_107_52346"/><feOffset dy="4"/><feGaussianBlur stdDeviation="25"/><feComposite in2="hardAlpha" operator="out"/><feColorMatrix values="0 0 0 0 0 0 0 0 0 0 0 0 0 0 0 0 0 0 0.25 0"/><feBlend in2="BackgroundImageFix" result="effect1_dropShadow_107_52346"/><feBlend in="SourceGraphic" in2="effect1_dropShadow_107_52346" result="shape"/></filter></defs></svg>