<svg xmlns="http://www.w3.org/2000/svg" width="15" height="17"><path d="M7.504 4.68c-2.129 0-3.848 1.707-3.848 3.816 0 2.113 1.719 3.816 3.848 3.816 2.129 0 3.848-1.703 3.848-3.816 0-2.11-1.72-3.816-3.848-3.816zm0 6.297c-1.375 0-2.5-1.114-2.5-2.48a2.493 2.493 0 012.5-2.481c1.379 0 2.5 1.113 2.5 2.48s-1.125 2.48-2.5 2.48zm4.902-6.45a.891.891 0 01-.898.887.891.891 0 01-.899-.887c0-.492.403-.89.899-.89s.898.398.898.89zm2.547.903c-.058-1.192-.332-2.25-1.21-3.117-.88-.872-1.942-1.145-3.145-1.204-1.239-.07-4.953-.07-6.192 0-1.199.055-2.261.329-3.144 1.2C.382 3.176.109 4.234.05 5.426c-.07 1.226-.07 4.91 0 6.14.054 1.192.332 2.246 1.21 3.118.884.867 1.942 1.14 3.145 1.199 1.239.07 4.953.07 6.192 0 1.203-.055 2.265-.328 3.144-1.2.875-.87 1.153-1.925 1.211-3.117.07-1.23.07-4.91 0-6.136zm-1.601 7.453a2.514 2.514 0 01-1.426 1.414c-.989.39-3.332.3-4.422.3-1.094 0-3.438.087-4.422-.3a2.532 2.532 0 01-1.43-1.414c-.39-.98-.3-3.305-.3-4.387 0-1.082-.086-3.41.3-4.387a2.532 2.532 0 011.43-1.414c.984-.386 3.328-.297 4.422-.297 1.09 0 3.437-.086 4.422.297a2.525 2.525 0 011.426 1.414c.394.98.3 3.305.3 4.387 0 1.082.094 3.41-.3 4.387zm0 0" fill="#8d8d8d"/></svg>