<svg xmlns="http://www.w3.org/2000/svg" width="14" height="16"><path d="M7.438.203C3.695.203 0 2.34 0 5.801 0 8 1.445 9.25 2.32 9.25c.36 0 .567-.863.567-1.105 0-.293-.864-.91-.864-2.122 0-2.511 2.23-4.293 5.118-4.293 2.484 0 4.32 1.211 4.32 3.434 0 1.656-.774 4.77-3.29 4.77-.91 0-1.687-.563-1.687-1.368 0-1.183.965-2.324.965-3.543 0-2.07-3.426-1.695-3.426.805 0 .524.079 1.106.352 1.586-.504 1.856-1.531 4.621-1.531 6.531 0 .594.097 1.172.164 1.766.125.117.062.105.25.047 1.84-2.156 1.773-2.578 2.605-5.403.45.73 1.606 1.125 2.528 1.125C12.26 11.48 14 8.246 14 5.332 14 2.227 10.871.203 7.437.203zm0 0"/></svg>