<svg xmlns="http://www.w3.org/2000/svg" width="17" height="14"><path d="M15.254 4.148c.008.125.008.25.008.375 0 3.793-3.504 8.16-9.91 8.16-1.977 0-3.809-.468-5.352-1.285.281.028.55.036.84.036 1.629 0 3.129-.454 4.328-1.227-1.531-.027-2.816-.852-3.258-1.988.215.023.43.043.656.043.313 0 .625-.035.918-.098C1.887 7.898.691 6.742.691 5.348v-.035a4.038 4.038 0 001.575.363C1.328 5.16.71 4.28.71 3.286c0-.532.172-1.02.477-1.446 1.714 1.738 4.292 2.879 7.183 3a2.63 2.63 0 01-.086-.656c0-1.582 1.55-2.868 3.485-2.868 1.003 0 1.906.344 2.543.907a7.823 7.823 0 002.21-.696c-.257.668-.808 1.227-1.53 1.582A8.167 8.167 0 0017 2.664a6.882 6.882 0 01-1.746 1.484zm0 0" fill="#8d8d8d"/></svg>