<svg xmlns="http://www.w3.org/2000/svg" version="1.1" xmlns:xlink="http://www.w3.org/1999/xlink" xmlns:svgjs="http://svgjs.com/svgjs" id="Pattern1135SvgRootPreview" width="100%" height="100%"><defs><pattern x="0" y="0" width="0.6764705882352942" height="0.6764705882352942" patternUnits="userSpaceOnUse" id="Pattern1135Layer1" viewBox="0 0 0.6764705882352942 0.6764705882352942" preserveAspectRatio="xMidYMid slice"><g id="PatternRootContent1" transform="scale(0.6764705882352942) rotate(0)"><g id="Pattern1135Layer1background"><rect width="1" height="1" id="Pattern1135Background1" class="color_1 fill_color_1" fill="#fefebc"></rect></g></g></pattern><pattern x="0" y="0" width="80.5" height="138" patternUnits="userSpaceOnUse" id="Pattern1135Layer2" patternTransform="matrix(1,0,0,1,0,0)" viewBox="0 0 80.5 138" preserveAspectRatio="xMidYMid slice"><g id="PatternRootContent2" transform="scale(0.6764705882352942) rotate(0)"><g id="Pattern1135Layer2Element4"><use xlink:href="#Pattern1135Element4" x="40.189208984375" y="-120" transform="translate(119, -51) scale(1) translate(-119, 51) rotate(90, 119, -51)"></use><use xlink:href="#Pattern1135Element4" x="-78.810791015625" y="-120" transform="translate(0, -51) scale(1) translate(0, 51) rotate(90, 0, -51)"></use><use xlink:href="#Pattern1135Element4" x="-19.310791015625" y="-18" transform="translate(59.5, 51) scale(1) translate(-59.5, -51) rotate(90, 59.5, 51)"></use><use xlink:href="#Pattern1135Element4" x="-138.310791015625" y="-18" transform="translate(-59.5, 51) scale(1) translate(59.5, -51) rotate(90, -59.5, 51)"></use><use xlink:href="#Pattern1135Element4" x="99.689208984375" y="-18" transform="translate(178.5, 51) scale(1) translate(-178.5, -51) rotate(90, 178.5, 51)"></use><use xlink:href="#Pattern1135Element4" x="40.189208984375" y="84" transform="translate(119, 153) scale(1) translate(-119, -153) rotate(90, 119, 153)"></use><use xlink:href="#Pattern1135Element4" x="-78.810791015625" y="84" transform="translate(0, 153) scale(1) translate(0, -153) rotate(90, 0, 153)"></use><use xlink:href="#Pattern1135Element4" x="-19.310791015625" y="186" transform="translate(59.5, 255) scale(1) translate(-59.5, -255) rotate(90, 59.5, 255)"></use><use xlink:href="#Pattern1135Element4" x="-19.310791015625" y="186" transform="translate(59.5, 255) scale(1) translate(-59.5, -255) rotate(90, 59.5, 255)"></use></g></g></pattern><symbol id="Pattern1135Element4"><g class="color_5 fill_color_5" fill="#262c26"><g><g><path d="M91.811,71.99166870117188L91.811,106.99166870117188L81.811,106.99166870117188L81.811,71.99166870117188L91.811,71.99166870117188Z"></path><path d="M65.811,106.99166870117188L65.811,71.99166870117188L75.811,71.99166870117188L75.811,106.99166870117188L65.811,106.99166870117188Z"></path></g><g><path d="M103.921,138L73.61,120.5L78.61,111.8397445678711L108.921,129.33975219726562L103.921,138Z"></path><path d="M86.61,97.98333740234375L116.921,115.48333740234375L111.921,124.14359283447266L81.61,106.64359283447266L86.61,97.98333740234375Z"></path></g><g><path d="M40.701,115.48333740234375L71.012,97.98333740234375L76.012,106.64359283447266L45.701,124.14359283447266L40.701,115.48333740234375Z"></path><path d="M84.012,120.5L53.701,138L48.701,129.33975219726562L79.012,111.8397445678711L84.012,120.5Z"></path></g></g><g><g><path d="M82.72,81.75423431396484L52.409,99.25423431396484L47.409,90.59397888183594L77.72,73.09397888183594L82.72,81.75423431396484Z"></path><path d="M39.409,76.7375717163086L69.72,59.237571716308594L74.72,67.8978271484375L44.409,85.3978271484375L39.409,76.7375717163086Z"></path></g><g><path d="M31.61,125.2459716796875L31.61,90.2458724975586L41.61,90.2458724975586L41.61,125.2459716796875L31.61,125.2459716796875Z"></path><path d="M57.61,90.2458724975586L57.61,125.2459716796875L47.61,125.2459716796875L47.61,90.2458724975586L57.61,90.2458724975586Z"></path></g><g><path d="M19.5,59.23750686645508L49.811,76.73760223388672L44.811,85.39785766601562L14.5,67.89776611328125L19.5,59.23750686645508Z"></path><path d="M36.811,99.25426483154297L6.5,81.7541732788086L11.5,73.09391784667969L41.811,90.59400939941406L36.811,99.25426483154297Z"></path></g></g><g><g><path d="M69.72,78.76256561279297L39.409,61.26256561279297L44.409,52.60231018066406L74.72,70.10231018066406L69.72,78.76256561279297Z"></path><path d="M52.409,38.74590301513672L82.72,56.24590301513672L77.72,64.90615844726562L47.409,47.406158447265625L52.409,38.74590301513672Z"></path></g><g><path d="M6.5,56.245967864990234L36.811,38.74586868286133L41.811,47.406124114990234L11.5,64.9062271118164L6.5,56.245967864990234Z"></path><path d="M49.811,61.26253128051758L19.5,78.76263427734375L14.5,70.10237884521484L44.811,52.60227584838867L49.811,61.26253128051758Z"></path></g><g><path d="M57.61,12.754169464111328L57.61,47.754268646240234L47.61,47.754268646240234L47.61,12.754168510437012L57.61,12.754169464111328Z"></path><path d="M31.61,47.754268646240234L31.61,12.754168510437012L41.61,12.754169464111328L41.61,47.754268646240234L31.61,47.754268646240234Z"></path></g></g><g><g><path d="M65.811,66.00833129882812L65.811,31.008331298828125L75.811,31.008331298828125L75.811,66.00833129882812L65.811,66.00833129882812Z"></path><path d="M91.811,31.008331298828125L91.811,66.00833129882812L81.811,66.00833129882812L81.811,31.008331298828125L91.811,31.008331298828125Z"></path></g><g><path d="M53.701,0L84.012,17.5L79.012,26.160255432128906L48.701,8.660255432128906L53.701,0Z"></path><path d="M71.012,40.01666259765625L40.701,22.51666259765625L45.701,13.856407165527344L76.012,31.356407165527344L71.012,40.01666259765625Z"></path></g><g><path d="M116.921,22.51666259765625L86.61,40.01666259765625L81.61,31.356407165527344L111.921,13.856407165527344L116.921,22.51666259765625Z"></path><path d="M73.61,17.5L103.921,0L108.921,8.660255432128906L78.61,26.160255432128906L73.61,17.5Z"></path></g></g><g><g><path d="M74.902,56.24577331542969L105.213,38.74577331542969L110.213,47.40602493286133L79.902,64.9060287475586L74.902,56.24577331542969Z"></path><path d="M118.213,61.26243209838867L87.902,78.76243591308594L82.902,70.10218048095703L113.213,52.60218048095703L118.213,61.26243209838867Z"></path></g><g><path d="M126.012,12.754035949707031L126.012,47.75413513183594L116.012,47.75413513183594L116.012,12.754036903381348L126.012,12.754035949707031Z"></path><path d="M100.012,47.75413513183594L100.012,12.754036903381348L110.012,12.754035949707031L110.012,47.75413513183594L100.012,47.75413513183594Z"></path></g><g><path d="M138.122,78.76249694824219L107.811,61.26240158081055L112.811,52.60214614868164L143.122,70.10224151611328L138.122,78.76249694824219Z"></path><path d="M120.811,38.7457389831543L151.122,56.2458381652832L146.122,64.90608978271484L115.811,47.4059944152832L120.811,38.7457389831543Z"></path></g></g><g><g><path d="M87.902,59.23744201660156L118.213,76.73744201660156L113.213,85.39769744873047L82.902,67.89769744873047L87.902,59.23744201660156Z"></path><path d="M105.213,99.25410461425781L74.902,81.75410461425781L79.902,73.0938491821289L110.213,90.5938491821289L105.213,99.25410461425781Z"></path></g><g><path d="M151.122,81.75403594970703L120.811,99.25413513183594L115.811,90.59387969970703L146.122,73.09378051757812L151.122,81.75403594970703Z"></path><path d="M107.811,76.73747253417969L138.122,59.23737335205078L143.122,67.89762878417969L112.811,85.3977279663086L107.811,76.73747253417969Z"></path></g><g><path d="M100.012,125.24583435058594L100.012,90.24573516845703L110.012,90.24573516845703L110.012,125.24583435058594L100.012,125.24583435058594Z"></path><path d="M126.012,90.24573516845703L126.012,125.24583435058594L116.012,125.24583435058594L116.012,90.24573516845703L126.012,90.24573516845703Z"></path></g></g></g></symbol></defs><rect width="100%" height="100%" id="Pattern1135RctLayer1" fill="url(#Pattern1135Layer1)"></rect><rect width="100%" height="100%" id="Pattern1135RctLayer2" fill="url(#Pattern1135Layer2)"></rect></svg>