<svg id="правая" xmlns="http://www.w3.org/2000/svg" xmlns:xlink="http://www.w3.org/1999/xlink" width="262.5" height="867"><defs><filter id="filter" x="123.5" y="555.5" width="45" height="45" filterUnits="userSpaceOnUse"><feOffset result="offset" dy="3" in="SourceAlpha"/><feGaussianBlur result="blur" stdDeviation="2.236"/><feFlood result="flood" flood-color="#fe3e57" flood-opacity=".4"/><feComposite result="composite" operator="in" in2="blur"/><feBlend result="blend" in="SourceGraphic"/></filter><filter id="filter-2" x="96.5" y="225.5" width="21" height="20" filterUnits="userSpaceOnUse"><feOffset result="offset" dy="3" in="SourceAlpha"/><feGaussianBlur result="blur" stdDeviation="2.236"/><feFlood result="flood" flood-color="#34c3ff" flood-opacity=".4"/><feComposite result="composite" operator="in" in2="blur"/><feBlend result="blend" in="SourceGraphic"/></filter><filter id="filter-3" x="1847" y="1827" width="22" height="22" filterUnits="userSpaceOnUse"><feOffset result="offset" dy="3" in="SourceAlpha"/><feGaussianBlur result="blur" stdDeviation="2.236"/><feFlood result="flood" flood-color="#34c3ff" flood-opacity=".4"/><feComposite result="composite" operator="in" in2="blur"/><feBlend result="blend" in="SourceGraphic"/></filter><filter id="filter-4" x="1853" y="1579" width="21" height="21" filterUnits="userSpaceOnUse"><feOffset result="offset" dy="3" in="SourceAlpha"/><feGaussianBlur result="blur" stdDeviation="2.236"/><feFlood result="flood" flood-color="#5800e4" flood-opacity=".4"/><feComposite result="composite" operator="in" in2="blur"/><feBlend result="blend" in="SourceGraphic"/></filter><filter id="filter-5" x="1683" y="1496" width="21" height="22" filterUnits="userSpaceOnUse"><feOffset result="offset" dy="3" in="SourceAlpha"/><feGaussianBlur result="blur" stdDeviation="2.236"/><feFlood result="flood" flood-color="#ffb534" flood-opacity=".4"/><feComposite result="composite" operator="in" in2="blur"/><feBlend result="blend" in="SourceGraphic"/></filter><filter id="filter-6" x="1823" y="1208" width="22" height="22" filterUnits="userSpaceOnUse"><feOffset result="offset" dy="3" in="SourceAlpha"/><feGaussianBlur result="blur" stdDeviation="2.236"/><feFlood result="flood" flood-color="#fe3e57" flood-opacity=".4"/><feComposite result="composite" operator="in" in2="blur"/><feBlend result="blend" in="SourceGraphic"/></filter><style>.cls-1{fill:none;stroke:#ececec;stroke-width:1px;fill-rule:evenodd}</style></defs><path id="line_1" data-name="line 1" class="cls-1" d="M1936.97 1264.65s-40.74 133.56-63.42 183.24-53.73 87.51-107.62 128.64-79.31 134.63 10.57 247.56 156.28 145.33 172 156.55" transform="translate(-1657.5 -1134.5)"/><path id="line_2" data-name="line 2" class="cls-1" d="M1939.86 1136.01s-27.49-1.03-61.5 126.21-50.42 162.54-75.92 208.73-52.79 75.05-89.37 100.73-96.74 100.68-7.68 231.78 249.94 230.42 276.75 185.68" transform="translate(-1657.5 -1134.5)"/><g fill="none" filter="url(#filter)"><circle id="circle-2" cx="145.985" cy="574.5" r="17.515" stroke="inherit" filter="none" fill="inherit" stroke-width="2"/></g><use xlink:href="#circle-2" stroke="#fe3e57" filter="none" fill="none"/><g fill="none" filter="url(#filter-2)"><circle id="circle" cx="106.97" cy="232" r="5.5" stroke="inherit" filter="none" fill="inherit" stroke-width="2"/></g><use xlink:href="#circle" stroke="#34c3ff" filter="none" fill="none"/><path d="M1855.92 1834.53l-3.79-3.96a1.262 1.262 0 010-1.75 1.148 1.148 0 011.67 0l3.8 3.96 3.79-3.96a1.16 1.16 0 011.68 0 1.282 1.282 0 010 1.75l-3.8 3.96 3.8 3.96a1.269 1.269 0 010 1.74 1.16 1.16 0 01-1.68 0l-3.79-3.96-3.8 3.96a1.148 1.148 0 01-1.67 0 1.25 1.25 0 010-1.74z" transform="translate(-1657.5 -1134.5)" fill="#34c3ff" filter="url(#filter-3)" fill-rule="evenodd"/><path d="M1862.99 1580.34l5.66 5.66-5.66 5.66-5.66-5.66z" transform="translate(-1657.5 -1134.5)" fill="#5800e4" filter="url(#filter-4)" fill-rule="evenodd"/><path id="Shape_3_copy_2" data-name="Shape 3 copy 2" d="M1691.28 1503.19l-3.8-3.95a1.282 1.282 0 010-1.75 1.16 1.16 0 011.68 0l3.79 3.96 3.8-3.96a1.148 1.148 0 011.67 0 1.282 1.282 0 010 1.75l-3.79 3.95 3.79 3.96a1.282 1.282 0 010 1.75 1.148 1.148 0 01-1.67 0l-3.8-3.96-3.79 3.96a1.16 1.16 0 01-1.68 0 1.282 1.282 0 010-1.75z" transform="translate(-1657.5 -1134.5)" fill="#ffb534" filter="url(#filter-5)" fill-rule="evenodd"/><path id="Shape_3_copy_3" data-name="Shape 3 copy 3" d="M1831.57 1215.55l-3.8-3.96a1.282 1.282 0 010-1.75 1.16 1.16 0 011.68 0l3.79 3.96 3.8-3.96a1.148 1.148 0 011.67 0 1.282 1.282 0 010 1.75l-3.79 3.96 3.79 3.96a1.269 1.269 0 010 1.74 1.132 1.132 0 01-1.67 0l-3.8-3.95-3.79 3.95a1.144 1.144 0 01-1.68 0 1.269 1.269 0 010-1.74z" transform="translate(-1657.5 -1134.5)" fill="#fe3e57" filter="url(#filter-6)" fill-rule="evenodd"/></svg>