<svg id="левая" xmlns="http://www.w3.org/2000/svg" xmlns:xlink="http://www.w3.org/1999/xlink" width="215.781" height="668"><defs><filter id="filter" x="85" y="1361" width="37" height="38" filterUnits="userSpaceOnUse"><feOffset result="offset" dy="3" in="SourceAlpha"/><feGaussianBlur result="blur" stdDeviation="2.236"/><feFlood result="flood" flood-color="#fe3e57" flood-opacity=".4"/><feComposite result="composite" operator="in" in2="blur"/><feBlend result="blend" in="SourceGraphic"/></filter><filter id="filter-2" x="124" y="467.69" width="18" height="18" filterUnits="userSpaceOnUse"><feOffset result="offset" dy="3" in="SourceAlpha"/><feGaussianBlur result="blur" stdDeviation="2.236"/><feFlood result="flood" flood-color="#34c3ff" flood-opacity=".4"/><feComposite result="composite" operator="in" in2="blur"/><feBlend result="blend" in="SourceGraphic"/></filter><filter id="filter-3" x="53" y="1274" width="19" height="19" filterUnits="userSpaceOnUse"><feOffset result="offset" dy="3" in="SourceAlpha"/><feGaussianBlur result="blur" stdDeviation="2.236"/><feFlood result="flood" flood-color="#34c3ff" flood-opacity=".4"/><feComposite result="composite" operator="in" in2="blur"/><feBlend result="blend" in="SourceGraphic"/></filter><filter id="filter-4" x="49" y="1466" width="18" height="18" filterUnits="userSpaceOnUse"><feOffset result="offset" dy="3" in="SourceAlpha"/><feGaussianBlur result="blur" stdDeviation="2.236"/><feFlood result="flood" flood-color="#5800e4" flood-opacity=".4"/><feComposite result="composite" operator="in" in2="blur"/><feBlend result="blend" in="SourceGraphic"/></filter><filter id="filter-5" x="177" y="1513" width="19" height="19" filterUnits="userSpaceOnUse"><feOffset result="offset" dy="3" in="SourceAlpha"/><feGaussianBlur result="blur" stdDeviation="2.236"/><feFlood result="flood" flood-color="#ffb534" flood-opacity=".4"/><feComposite result="composite" operator="in" in2="blur"/><feBlend result="blend" in="SourceGraphic"/></filter><filter id="filter-6" x="182" y="1225" width="19" height="20" filterUnits="userSpaceOnUse"><feOffset result="offset" dy="3" in="SourceAlpha"/><feGaussianBlur result="blur" stdDeviation="2.236"/><feFlood result="flood" flood-color="#ffb534" flood-opacity=".4"/><feComposite result="composite" operator="in" in2="blur"/><feBlend result="blend" in="SourceGraphic"/></filter><filter id="filter-7" x="72" y="1750" width="18" height="20" filterUnits="userSpaceOnUse"><feOffset result="offset" dy="3" in="SourceAlpha"/><feGaussianBlur result="blur" stdDeviation="2.236"/><feFlood result="flood" flood-color="#fe3e57" flood-opacity=".4"/><feComposite result="composite" operator="in" in2="blur"/><feBlend result="blend" in="SourceGraphic"/></filter><style>.cls-1{fill:none;stroke:#ececec;stroke-width:1px;fill-rule:evenodd}</style></defs><path id="line_1_copy" data-name="line 1 copy" class="cls-1" d="M.8 1718.8s31.285-102.8 48.7-141.04 41.262-67.36 82.644-99.01 60.9-103.63-8.117-190.56S4.021 1176.34-8.053 1167.7" transform="translate(0 -1151.31)"/><path id="line_2_copy" data-name="line 2 copy" class="cls-1" d="M-1.412 1817.82s21.1.78 47.225-97.15 38.712-125.11 58.294-160.66 40.534-57.76 68.624-77.53 74.285-77.49 5.9-178.41-191.926-177.35-212.51-142.91" transform="translate(0 -1151.31)"/><g transform="translate(0 -1151.31)" fill="none" filter="url(#filter)"><path id="Ellipse_1_copy" data-name="Ellipse 1 copy" d="M103.328 1362.94a13.846 13.846 0 11-13.453 13.84 13.653 13.653 0 0113.453-13.84z" stroke="inherit" filter="none" fill="inherit" stroke-width="2" fill-rule="evenodd"/></g><use transform="translate(0 -1151.31)" xlink:href="#Ellipse_1_copy" stroke="#fe3e57" filter="none" fill="none"/><g fill="none" filter="url(#filter-2)"><circle id="Ellipse_2_copy" data-name="Ellipse 2 copy" cx="132.281" cy="473.115" r="4.219" stroke="inherit" filter="none" fill="inherit" stroke-width="2"/></g><use xlink:href="#Ellipse_2_copy" stroke="#34c3ff" filter="none" fill="none"/><path id="Shape_3_copy" data-name="Shape 3 copy" d="M63.041 1280.16l2.914 3.05a.976.976 0 010 1.34.868.868 0 01-1.286 0l-2.914-3.04-2.914 3.04a.868.868 0 01-1.286 0 .976.976 0 010-1.34l2.914-3.05-2.914-3.04a.988.988 0 010-1.35.884.884 0 011.286 0l2.914 3.05 2.914-3.05a.884.884 0 011.286 0 .988.988 0 010 1.35z" transform="translate(0 -1151.31)" fill="#34c3ff" filter="url(#filter-3)" fill-rule="evenodd"/><path id="Rectangle_519_copy" data-name="Rectangle 519 copy" d="M57.613 1475.81l-4.344-4.35 4.344-4.36 4.344 4.36z" transform="translate(0 -1151.31)" fill="#5800e4" filter="url(#filter-4)" fill-rule="evenodd"/><path id="Shape_3_copy_4" data-name="Shape 3 copy 4" d="M187.473 1519.2l2.914 3.05a.974.974 0 010 1.34.868.868 0 01-1.286 0l-2.914-3.04-2.915 3.04a.868.868 0 01-1.286 0 .976.976 0 010-1.34l2.914-3.05-2.914-3.04a.989.989 0 010-1.35.884.884 0 011.286 0l2.915 3.05 2.914-3.05a.884.884 0 011.286 0 .987.987 0 010 1.35z" transform="translate(0 -1151.31)" filter="url(#filter-5)" fill="#ffb534" fill-rule="evenodd"/><path id="Shape_3_copy_5" data-name="Shape 3 copy 5" d="M192.464 1231.39l2.915 3.05a.976.976 0 010 1.34.885.885 0 01-1.287 0l-2.914-3.04-2.914 3.04a.885.885 0 01-1.287 0 .976.976 0 010-1.34l2.914-3.05-2.914-3.04a.989.989 0 010-1.35.885.885 0 011.287 0l2.914 3.05 2.914-3.05a.885.885 0 011.287 0 .989.989 0 010 1.35z" transform="translate(0 -1151.31)" filter="url(#filter-6)" fill="#ffb534" fill-rule="evenodd"/><path id="Shape_3_copy_4-2" data-name="Shape 3 copy 4" d="M81.742 1756.59l2.914 3.05a.976.976 0 010 1.34.869.869 0 01-1.287 0l-2.914-3.04-2.914 3.04a.868.868 0 01-1.286 0 .976.976 0 010-1.34l2.914-3.05-2.914-3.04a.988.988 0 010-1.35.884.884 0 011.286 0l2.914 3.05 2.914-3.05a.884.884 0 011.287 0 .988.988 0 010 1.35z" transform="translate(0 -1151.31)" fill="#fe3e57" filter="url(#filter-7)" fill-rule="evenodd"/></svg>