<?xml version="1.0" encoding="UTF-8"?>
<svg xmlns="http://www.w3.org/2000/svg" xmlns:xlink="http://www.w3.org/1999/xlink" width="30px" height="30px" viewBox="0 0 30 30" version="1.1">
<g id="surface1">
<path style="fill:none;stroke-width:1.5;stroke-linecap:round;stroke-linejoin:round;stroke:rgb(100%,100%,100%);stroke-opacity:1;stroke-miterlimit:4;" d="M 9 22 L 15 22 C 20 22 22 20 22 15 L 22 9 C 22 4 20 2 15 2 L 9 2 C 4 2 2 4 2 9 L 2 15 C 2 20 4 22 9 22 Z M 9 22 " transform="matrix(1.25,0,0,1.25,0,0)"/>
<path style="fill:none;stroke-width:1.5;stroke-linecap:round;stroke-linejoin:round;stroke:rgb(100%,100%,100%);stroke-opacity:1;stroke-miterlimit:4;" d="M 12 15.5 C 13.934375 15.5 15.5 13.934375 15.5 12 C 15.5 10.065625 13.934375 8.5 12 8.5 C 10.065625 8.5 8.5 10.065625 8.5 12 C 8.5 13.934375 10.065625 15.5 12 15.5 Z M 12 15.5 " transform="matrix(1.25,0,0,1.25,0,0)"/>
<path style="fill:none;stroke-width:2;stroke-linecap:round;stroke-linejoin:round;stroke:rgb(100%,100%,100%);stroke-opacity:1;stroke-miterlimit:4;" d="M 17.6375 7 L 17.646875 7 " transform="matrix(1.25,0,0,1.25,0,0)"/>
</g>
</svg>
