<?xml version="1.0" encoding="UTF-8"?>
<svg xmlns="http://www.w3.org/2000/svg" xmlns:xlink="http://www.w3.org/1999/xlink" width="30px" height="30px" viewBox="0 0 30 30" version="1.1">
<g id="surface1">
<path style=" stroke:none;fill-rule:evenodd;fill:rgb(100%,100%,100%);fill-opacity:1;" d="M 10.511719 4.925781 C 9.671875 4.308594 9.105469 4.167969 8.804688 4.226562 C 7.550781 4.472656 6.808594 4.957031 5.804688 5.964844 C 4.433594 7.335938 3.765625 8.359375 4.054688 9.914062 C 4.390625 11.703125 6.019531 14.429688 10.515625 18.925781 C 15.011719 23.421875 17.757812 25.070312 19.554688 25.410156 C 20.386719 25.566406 21.023438 25.445312 21.59375 25.164062 C 22.203125 24.863281 22.789062 24.359375 23.460938 23.65625 C 24.054688 23.035156 24.417969 22.601562 24.671875 22.171875 C 24.914062 21.765625 25.082031 21.316406 25.214844 20.640625 C 25.273438 20.335938 25.136719 19.769531 24.515625 18.929688 C 23.9375 18.148438 23.125 17.371094 22.371094 16.734375 C 21.875 16.316406 21.105469 16.289062 20.484375 16.753906 L 18.585938 18.175781 C 16.875 19.457031 14.484375 19.273438 12.972656 17.761719 L 11.679688 16.46875 C 10.167969 14.960938 9.984375 12.566406 11.265625 10.855469 L 12.6875 8.957031 C 13.152344 8.335938 13.125 7.566406 12.707031 7.070312 C 12.070312 6.316406 11.292969 5.503906 10.511719 4.925781 Z M 11.996094 2.914062 C 13.007812 3.660156 13.929688 4.644531 14.617188 5.460938 C 15.871094 6.945312 15.769531 9.011719 14.6875 10.457031 L 13.269531 12.351562 C 12.738281 13.058594 12.808594 14.0625 13.445312 14.703125 L 14.742188 15.996094 C 15.378906 16.636719 16.382812 16.703125 17.089844 16.175781 L 18.988281 14.753906 C 20.429688 13.671875 22.496094 13.570312 23.984375 14.824219 C 24.800781 15.511719 25.78125 16.4375 26.527344 17.449219 C 27.234375 18.402344 27.941406 19.726562 27.667969 21.117188 C 27.496094 22.011719 27.238281 22.746094 26.824219 23.449219 C 26.417969 24.128906 25.894531 24.730469 25.265625 25.386719 C 24.535156 26.148438 23.707031 26.910156 22.695312 27.40625 C 21.648438 27.921875 20.464844 28.125 19.089844 27.867188 C 16.472656 27.371094 13.253906 25.199219 8.75 20.695312 C 4.242188 16.1875 2.085938 12.984375 1.597656 10.371094 C 1.066406 7.527344 2.546875 5.6875 4.035156 4.195312 C 5.265625 2.964844 6.433594 2.140625 8.324219 1.773438 C 9.714844 1.5 11.039062 2.210938 11.996094 2.914062 Z M 11.996094 2.914062 "/>
</g>
</svg>
