<svg width="50" height="61" viewBox="0 0 50 61" fill="none" xmlns="http://www.w3.org/2000/svg">
<path d="M41.4408 34.1088C39.7903 25.8025 47.6744 20.9309 47.6744 20.9309C47.6744 20.9309 44.6027 16.4868 39.4402 15.3435C34.2803 14.1977 31.6978 15.6293 29.1203 16.703C26.5404 17.7793 25.253 17.7793 25.253 17.7793C21.5299 17.7793 18.8082 13.8373 11.7147 15.6319C6.82771 16.8652 1.68317 22.5067 0.753669 29.2398C-0.175832 35.9755 1.82999 44.5702 5.69732 51.2313C9.56465 57.8975 13.5042 60.4028 16.3003 60.4749C19.0966 60.5443 21.8877 58.4717 25.253 57.967C28.6209 57.4674 30.6936 59.1875 33.997 60.117C37.2876 61.044 38.4411 60.184 42.2312 56.9603C46.0316 53.7365 49.4716 44.4905 49.4716 44.4905C49.4716 44.4905 43.0912 42.4202 41.4408 34.1088Z" fill="white"/>
<path d="M34.1335 9.96983C37.7896 6.24419 36.5512 0.476562 36.5512 0.476562C36.5512 0.476562 31.4171 1.37777 27.9771 4.95671C24.5397 8.53828 25.1087 14.1951 25.1087 14.1951C25.1087 14.1951 30.4772 13.6931 34.1335 9.96983Z" fill="white"/>
</svg>
