<svg width="52" height="61" fill="none" xmlns="http://www.w3.org/2000/svg"><path d="M4.329 19.912c-1.034 0-1.911.36-2.632 1.082-.721.72-1.082 1.586-1.082 2.596v15.504c0 1.035.36 1.912 1.082 2.633.72.721 1.598 1.082 2.632 1.082 1.033 0 1.905-.36 2.615-1.082.708-.721 1.063-1.597 1.063-2.633V23.59c0-1.01-.36-1.875-1.081-2.596-.722-.721-1.587-1.082-2.597-1.082zM34.185 5.993l2.56-4.723c.168-.313.108-.552-.18-.72-.313-.146-.553-.073-.721.215l-2.596 4.76A17.727 17.727 0 0026 4.01a17.74 17.74 0 00-7.248 1.515L16.156.765c-.168-.288-.409-.36-.72-.216-.29.17-.35.408-.18.721l2.56 4.723c-2.596 1.324-4.664 3.168-6.202 5.535-1.539 2.37-2.308 4.958-2.308 7.771h33.352c0-2.812-.77-5.401-2.308-7.77-1.538-2.368-3.594-4.212-6.165-5.536zm-14.802 6.87a1.352 1.352 0 01-.992.415 1.29 1.29 0 01-.973-.416 1.382 1.382 0 01-.397-.991c0-.384.133-.714.397-.991s.589-.415.973-.415c.385 0 .715.139.992.415.276.277.415.607.415.991 0 .385-.14.715-.415.991zm15.198 0c-.265.277-.59.415-.973.415a1.35 1.35 0 01-.992-.416 1.35 1.35 0 01-.415-.991c0-.384.138-.714.414-.991.277-.277.607-.415.993-.415.384 0 .708.139.973.415.264.277.396.607.396.991 0 .385-.132.715-.396.991zM9.45 44.61c0 1.107.384 2.044 1.152 2.813.77.769 1.707 1.153 2.813 1.153h2.668l.037 8.186c0 1.034.36 1.912 1.081 2.633.721.72 1.587 1.081 2.596 1.081 1.034 0 1.911-.36 2.633-1.081.72-.721 1.081-1.6 1.081-2.633v-8.185h4.976v8.185c0 1.034.36 1.912 1.081 2.633.722.72 1.598 1.081 2.632 1.081 1.033 0 1.911-.36 2.632-1.081.721-.721 1.082-1.6 1.082-2.633v-8.185h2.704c1.082 0 2.007-.385 2.777-1.154.769-.768 1.153-1.705 1.153-2.812V20.596H9.45V44.61zm38.22-24.698c-1.01 0-1.874.355-2.595 1.064-.721.71-1.082 1.581-1.082 2.614v15.504c0 1.035.36 1.912 1.082 2.633.72.721 1.587 1.082 2.596 1.082 1.033 0 1.91-.36 2.632-1.082.72-.721 1.081-1.597 1.081-2.633V23.59c0-1.033-.36-1.904-1.081-2.614-.721-.709-1.599-1.064-2.632-1.064z" fill="#fff"/></svg>