<svg width="50" height="61" fill="none" xmlns="http://www.w3.org/2000/svg"><path d="M41.44 34.109c-1.65-8.307 6.234-13.178 6.234-13.178s-3.071-4.444-8.234-5.588c-5.16-1.145-7.742.286-10.32 1.36-2.58 1.076-3.867 1.076-3.867 1.076-3.723 0-6.445-3.942-13.538-2.147C6.828 16.865 1.683 22.507.754 29.24c-.93 6.735 1.076 15.33 4.943 21.991 3.868 6.666 7.807 9.172 10.603 9.244 2.797.07 5.588-2.003 8.953-2.508 3.368-.5 5.44 1.22 8.744 2.15 3.29.927 4.444.067 8.234-3.157 3.8-3.224 7.24-12.47 7.24-12.47s-6.38-2.07-8.03-10.381zM34.133 9.97C37.79 6.244 36.551.477 36.551.477s-5.134.9-8.574 4.48c-3.437 3.581-2.868 9.238-2.868 9.238s5.368-.502 9.024-4.225z" fill="#fff"/></svg>