<svg width="69" height="54" fill="none" xmlns="http://www.w3.org/2000/svg"><g clip-path="url(#clip0_9_16248)" fill="#fff"><path d="M0 4.765V17.22c0 3.793 4.622 5.816 7.446 3.16L20.927 7.927C23.88 5.208 21.954.403 17.91.403H4.43C1.99.403 0 2.363 0 4.765zM63.808.403h-13.48c-3.98 0-5.97 4.805-3.018 7.523l13.48 12.455c2.825 2.592 7.447.632 7.447-3.161V4.765c0-2.402-1.99-4.362-4.43-4.362zm-26.64 30.41L60.79 52.686c2.825 2.592 7.446.633 7.446-3.16V36.944a4.28 4.28 0 00-1.412-3.161l-29.657-27.5a4.515 4.515 0 00-6.098 0l-29.658 27.5A4.28 4.28 0 000 36.944v12.581c0 3.794 4.622 5.817 7.446 3.161L31.07 30.813a4.515 4.515 0 016.099 0z"/></g><defs><clipPath id="clip0_9_16248"><path fill="#fff" transform="translate(0 .403)" d="M0 0h68.237v53.483H0z"/></clipPath></defs></svg>