<svg width="9" height="17" fill="none" xmlns="http://www.w3.org/2000/svg"><path d="M2.506 9.552H.439C.104 9.552 0 9.427 0 9.113V6.587c0-.334.125-.439.439-.439h2.067V4.311c0-.836.146-1.63.564-2.36A3.465 3.465 0 014.928.406 4.646 4.646 0 016.536.134h2.046C8.875.134 9 .26 9 .552v2.38c0 .293-.125.418-.418.418-.563 0-1.127 0-1.691.02-.564 0-.856.272-.856.857-.021.627 0 1.232 0 1.88h2.422c.334 0 .46.125.46.459v2.527c0 .334-.105.438-.46.438H6.035v6.807c0 .355-.105.48-.48.48h-2.61c-.314 0-.44-.125-.44-.438V9.552z" fill="#F7F7EE"/></svg>