<svg width="37" height="30" fill="none" xmlns="http://www.w3.org/2000/svg"><path d="M0 2.865v6.753c0 2.057 2.506 3.154 4.038 1.714l7.31-6.753C12.947 3.105 11.903.5 9.71.5H2.4C1.08.5 0 1.563 0 2.865zM34.598.5h-7.31c-2.157 0-3.236 2.605-1.635 4.08l7.31 6.752c1.53 1.406 4.037.343 4.037-1.714V2.865C37 1.563 35.921.5 34.598.5zM20.153 16.988l12.81 11.86c1.53 1.406 4.037.344 4.037-1.713v-6.822a2.32 2.32 0 00-.766-1.713L20.154 3.687a2.448 2.448 0 00-3.307 0L.766 18.6A2.32 2.32 0 000 20.313v6.822c0 2.057 2.506 3.154 4.038 1.714l12.809-11.86a2.448 2.448 0 013.306 0z" fill="#fff"/></svg>