<svg width="19" height="20" fill="none" xmlns="http://www.w3.org/2000/svg"><path d="M9.489.978a9.513 9.513 0 00-7.15 3.24 9.511 9.511 0 0014.3 12.541A9.51 9.51 0 009.49.978zm-6.378 3.34c.05-.053.102-.102.153-.153.059-.058.117-.116.178-.172.053-.05.107-.097.161-.145.062-.055.122-.109.185-.161.055-.047.112-.091.169-.136a6.137 6.137 0 01.367-.277c.066-.047.132-.096.198-.14a8.47 8.47 0 01.785-.471 11.853 11.853 0 01.409-.206 6.855 6.855 0 01.42-.183 8.765 8.765 0 01.629-.231c.079-.025.158-.049.238-.072.067-.02.133-.04.2-.057l.078-.019a7.866 7.866 0 00-2.027 3.29 10.648 10.648 0 01-2.172-.836l.029-.032zm-.456.51a11.01 11.01 0 002.406.957 16.451 16.451 0 00-.64 4.386H.619a8.858 8.858 0 012.036-5.343zm0 11.321a8.86 8.86 0 01-2.036-5.344h3.802c.014 1.485.23 2.96.64 4.387a10.96 10.96 0 00-2.406.957zm4.547 2.915c-.064-.016-.13-.037-.197-.056l-.24-.072a8.09 8.09 0 01-.198-.068 7.389 7.389 0 01-.656-.258 8.303 8.303 0 01-.415-.195 5.92 5.92 0 01-.404-.216 6.109 6.109 0 01-.392-.237 8.241 8.241 0 01-.747-.537c-.056-.045-.112-.089-.167-.135a7.188 7.188 0 01-.186-.162c-.054-.048-.108-.095-.16-.144-.061-.056-.12-.115-.179-.173-.051-.05-.103-.1-.153-.152l-.027-.03a10.64 10.64 0 012.172-.836 7.869 7.869 0 002.026 3.29c-.026-.006-.052-.011-.077-.018zm1.97.276c-1.357-.192-2.546-1.608-3.294-3.7a16.107 16.107 0 013.294-.387v4.087zm0-4.72a16.696 16.696 0 00-3.493.416 15.86 15.86 0 01-.624-4.23h4.117v3.813zm0-4.449H5.055c.016-1.431.226-2.854.624-4.23 1.146.262 2.317.401 3.493.417v3.813zm0-4.447a16.093 16.093 0 01-3.294-.388c.748-2.09 1.937-3.507 3.294-3.7v4.088zm7.151-.896a8.858 8.858 0 012.036 5.343h-3.802a16.453 16.453 0 00-.64-4.386 11.026 11.026 0 002.406-.957zm-4.55-2.916c.068.017.134.038.2.057l.24.072.198.068a7.595 7.595 0 01.43.162l.226.095a8.322 8.322 0 01.415.196 6.001 6.001 0 01.404.216 6.175 6.175 0 01.392.237 8.18 8.18 0 01.554.385c.065.049.129.1.193.151.056.045.112.089.167.135.063.053.125.108.186.162.054.048.108.095.161.144.06.057.12.115.178.173.051.05.103.1.153.152l.028.03a10.64 10.64 0 01-2.173.836 7.867 7.867 0 00-2.028-3.29c.025.007.051.012.077.02zm-1.967-.275c1.357.192 2.546 1.608 3.294 3.699a16.11 16.11 0 01-3.294.388V1.637zm0 4.72a16.695 16.695 0 003.493-.416 15.86 15.86 0 01.624 4.23H9.806V6.358zm0 4.449h4.117a15.856 15.856 0 01-.624 4.23 16.702 16.702 0 00-3.493-.417v-3.813zm0 8.534v-4.087c1.109.016 2.212.146 3.294.388-.748 2.09-1.937 3.507-3.294 3.7zm6.061-2.68l-.152.151c-.06.058-.118.117-.179.173-.053.05-.107.095-.16.145-.062.054-.123.109-.186.161-.056.047-.112.091-.168.136-.064.051-.127.102-.193.15a6.137 6.137 0 01-.175.127c-.066.047-.131.096-.198.14a7.325 7.325 0 01-.387.245l-.186.109a9.945 9.945 0 01-.62.322l-.195.089-.226.095a7.898 7.898 0 01-.43.162 7.058 7.058 0 01-.438.14c-.066.02-.133.04-.2.058l-.076.019a7.866 7.866 0 002.026-3.29c.752.198 1.48.478 2.172.836l-.029.032zm.456-.51a11.014 11.014 0 00-2.406-.958c.41-1.427.626-2.902.64-4.386h3.802a8.858 8.858 0 01-2.036 5.343z" fill="#fff"/></svg>