<svg width="17" height="15" fill="none" xmlns="http://www.w3.org/2000/svg"><path d="M17 2.205a7.266 7.266 0 01-2.008.55A3.466 3.466 0 0016.525.83a6.966 6.966 0 01-2.21.843 3.484 3.484 0 00-6.029 2.383c0 .277.024.542.081.795a9.865 9.865 0 01-7.183-3.645 3.49 3.49 0 001.071 4.658 3.442 3.442 0 01-1.575-.43v.039c0 1.693 1.208 3.1 2.792 3.424a3.479 3.479 0 01-.913.115 3.06 3.06 0 01-.66-.06 3.518 3.518 0 003.256 2.428 7.003 7.003 0 01-4.32 1.487A6.52 6.52 0 010 12.819a9.811 9.811 0 005.346 1.564c6.414 0 9.92-5.313 9.92-9.918a8.27 8.27 0 00-.013-.45A6.954 6.954 0 0017 2.205z" fill="#F7F7EE"/></svg>