<?xml version="1.0" encoding="UTF-8"?>
<svg xmlns="http://www.w3.org/2000/svg" xmlns:xlink="http://www.w3.org/1999/xlink" width="15px" height="17px" viewBox="0 0 15 17" version="1.1">
<g>
<path style="fill:#8d8d8d" d="M 7.503906 4.679688 C 5.375 4.679688 3.65625 6.386719 3.65625 8.496094 C 3.65625 10.609375 5.375 12.3125 7.503906 12.3125 C 9.632812 12.3125 11.351562 10.609375 11.351562 8.496094 C 11.351562 6.386719 9.632812 4.679688 7.503906 4.679688 Z M 7.503906 10.976562 C 6.128906 10.976562 5.003906 9.863281 5.003906 8.496094 C 5.003906 7.128906 6.125 6.015625 7.503906 6.015625 C 8.882812 6.015625 10.003906 7.128906 10.003906 8.496094 C 10.003906 9.863281 8.878906 10.976562 7.503906 10.976562 Z M 12.40625 4.527344 C 12.40625 5.019531 12.003906 5.414062 11.507812 5.414062 C 11.007812 5.414062 10.609375 5.015625 10.609375 4.527344 C 10.609375 4.035156 11.011719 3.636719 11.507812 3.636719 C 12.003906 3.636719 12.40625 4.035156 12.40625 4.527344 Z M 14.953125 5.429688 C 14.894531 4.238281 14.621094 3.179688 13.742188 2.3125 C 12.863281 1.441406 11.800781 1.167969 10.597656 1.109375 C 9.359375 1.039062 5.644531 1.039062 4.40625 1.109375 C 3.207031 1.164062 2.144531 1.4375 1.261719 2.308594 C 0.382812 3.175781 0.109375 4.234375 0.0507812 5.425781 C -0.0195312 6.652344 -0.0195312 10.335938 0.0507812 11.566406 C 0.105469 12.757812 0.382812 13.8125 1.261719 14.683594 C 2.144531 15.550781 3.203125 15.824219 4.40625 15.882812 C 5.644531 15.953125 9.359375 15.953125 10.597656 15.882812 C 11.800781 15.828125 12.863281 15.554688 13.742188 14.683594 C 14.617188 13.8125 14.894531 12.757812 14.953125 11.566406 C 15.023438 10.335938 15.023438 6.65625 14.953125 5.429688 Z M 13.351562 12.882812 C 13.089844 13.535156 12.585938 14.035156 11.925781 14.296875 C 10.9375 14.6875 8.59375 14.597656 7.503906 14.597656 C 6.410156 14.597656 4.066406 14.683594 3.082031 14.296875 C 2.425781 14.039062 1.917969 13.535156 1.652344 12.882812 C 1.261719 11.902344 1.351562 9.578125 1.351562 8.496094 C 1.351562 7.414062 1.265625 5.085938 1.652344 4.109375 C 1.914062 3.460938 2.421875 2.957031 3.082031 2.695312 C 4.066406 2.308594 6.410156 2.398438 7.503906 2.398438 C 8.59375 2.398438 10.941406 2.3125 11.925781 2.695312 C 12.582031 2.957031 13.089844 3.457031 13.351562 4.109375 C 13.746094 5.089844 13.652344 7.414062 13.652344 8.496094 C 13.652344 9.578125 13.746094 11.90625 13.351562 12.882812 Z M 13.351562 12.882812 "/>
</g>
</svg>
