<?xml version="1.0" encoding="UTF-8"?>
<svg xmlns="http://www.w3.org/2000/svg" width="22px" height="25px" viewBox="0 0 22 25" version="1.1">
<g>
<path d="M 1.113281 1.632812 C 1.777344 1.429688 2.496094 1.683594 2.878906 2.261719 L 11 14.371094 L 19.121094 2.257812 C 19.503906 1.683594 20.222656 1.425781 20.886719 1.625 C 21.546875 1.828125 22 2.4375 22 3.125 L 22 21.875 C 22 22.738281 21.296875 23.4375 20.429688 23.4375 C 19.558594 23.4375 18.855469 22.738281 18.855469 21.875 L 18.855469 8.285156 L 12.304688 18.054688 C 12.015625 18.492188 11.527344 18.75 11 18.75 C 10.472656 18.75 9.984375 18.492188 9.695312 18.054688 L 3.144531 8.285156 L 3.144531 21.875 C 3.144531 22.738281 2.441406 23.4375 1.570312 23.4375 C 0.703125 23.4375 0 22.738281 0 21.875 L 0 3.125 C 0 2.4375 0.453125 1.832031 1.113281 1.632812 Z M 1.113281 1.632812 "/>
</g>
</svg>
