<svg xmlns="http://www.w3.org/2000/svg" width="12" height="12" viewBox="0 0 12 12">
  <defs>
    <style>
      .cls-1 {
        fill: #29282d;
        fill-rule: evenodd;
      }
    </style>
  </defs>
  <path id="Plus" class="cls-1" d="M1273.34,1212.27h-4.4v-4.4a0.666,0.666,0,0,0-.66-0.66h-0.56a0.666,0.666,0,0,0-.66.66v4.4h-4.4a0.653,0.653,0,0,0-.66.66v0.56a0.659,0.659,0,0,0,.66.66h4.4v4.41a0.657,0.657,0,0,0,.66.65h0.56a0.657,0.657,0,0,0,.66-0.65v-4.41h4.4a0.666,0.666,0,0,0,.66-0.66v-0.56a0.659,0.659,0,0,0-.66-0.66" transform="translate(-1262 -1207.22)"/>
</svg>
